<svg width="151" height="32" viewBox="0 0 151 32" fill="none" xmlns="http://www.w3.org/2000/svg">
<path fill-rule="evenodd" clip-rule="evenodd" d="M16.0016 1.01711C8.51617 1.35316 2.42097 7.27443 2.02129 14.6037C1.69546 20.6186 5.14057 25.8805 10.2539 28.3264C12.1611 29.2367 14.4289 28.0925 14.7938 26.0464C15.0415 24.6682 14.3246 23.3027 13.043 22.6901C10.1366 21.2949 8.18599 18.279 8.41625 14.8462C8.6856 10.8306 12.0047 7.56794 16.1058 7.29144C20.9542 6.9639 24.9945 10.72 24.9945 15.3949C24.9945 18.6065 23.0916 21.38 20.3286 22.6987C19.0687 23.3027 18.378 24.6596 18.6212 26.0124L18.6343 26.0804C18.9949 28.0925 21.2235 29.2367 23.096 28.3477C28.0051 26.0209 31.3938 21.095 31.3938 15.3949C31.3938 7.21913 24.4341 0.63427 16.0016 1.01711Z" fill="#EE2938"/>
<path fill-rule="evenodd" clip-rule="evenodd" d="M16.7097 20.4567C13.8554 20.4567 11.5355 18.1852 11.5355 15.3905C11.5355 12.5957 13.8554 10.3242 16.7097 10.3242C19.564 10.3242 21.8839 12.5957 21.8839 15.3905C21.8839 18.1852 19.564 20.4567 16.7097 20.4567Z" fill="#EE2938"/>
<g clip-path="url(#clip0_65_628)">
<path fill-rule="evenodd" clip-rule="evenodd" d="M67.2841 6.91748C62.7021 6.91748 58.9882 10.613 58.9882 15.1722C58.9882 19.7315 62.7021 23.427 67.2841 23.427C71.8661 23.427 75.58 19.7315 75.58 15.1722C75.58 10.613 71.8661 6.91748 67.2841 6.91748ZM67.2841 19.7186C64.762 19.7186 62.7151 17.6818 62.7151 15.1722C62.7151 12.6627 64.762 10.6259 67.2841 10.6259C69.8061 10.6259 71.8531 12.6627 71.8531 15.1722C71.8531 17.6818 69.8061 19.7186 67.2841 19.7186Z" fill="#454545"/>
<path fill-rule="evenodd" clip-rule="evenodd" d="M56.479 7.14517H53.1581C52.9897 7.14517 52.8558 7.27838 52.8558 7.44597V7.8456V8.49447C52.2641 7.81123 51.327 7.43308 50.9556 7.30417C50.1178 7.02485 49.2239 6.87445 48.2954 6.87875C43.7782 6.88735 40.0643 10.5399 39.9995 15.039C39.9347 19.667 43.6832 23.4398 48.3213 23.4398C49.2455 23.4398 50.1394 23.2894 50.9686 23.0101C51.3486 22.8769 52.2728 22.4988 52.8601 21.8241V22.4687V22.6234C52.8601 24.0242 52.3721 25.1673 51.4436 25.9322C50.6404 26.5982 49.5132 26.9635 48.2695 26.9635C46.4643 26.9635 44.7326 26.2287 43.7177 25.0555C43.6055 24.9266 43.4068 24.918 43.2816 25.0384L41.0791 27.174C40.9582 27.29 40.9582 27.4791 41.0748 27.5994C42.949 29.5074 45.3847 30.4828 48.317 30.5H49.2541C53.3999 30.5 56.7597 27.1568 56.7597 23.0316V21.5749C56.7597 21.5749 56.7597 21.5534 56.7597 21.5405L56.777 7.44167C56.777 7.27409 56.6431 7.14088 56.4747 7.14088L56.479 7.14517ZM52.8558 15.2066C52.8299 17.6774 50.8088 19.6713 48.3213 19.6713C45.8338 19.6713 43.7868 17.6516 43.7868 15.1593C43.7868 12.667 45.8166 10.6473 48.3213 10.6473C50.8261 10.6473 52.8299 12.6412 52.8558 15.112V15.2066Z" fill="#454545"/>
<path fill-rule="evenodd" clip-rule="evenodd" d="M121.715 7.10229C117.129 7.10229 113.41 10.8021 113.41 15.3656C113.41 19.9292 117.129 23.629 121.715 23.629C126.301 23.629 130.02 19.9292 130.02 15.3656C130.02 10.8021 126.301 7.10229 121.715 7.10229ZM121.715 19.9163C119.189 19.9163 117.142 17.8795 117.142 15.3656C117.142 12.8518 119.189 10.815 121.715 10.815C124.241 10.815 126.288 12.8518 126.288 15.3656C126.288 17.8795 124.241 19.9163 121.715 19.9163Z" fill="#454545"/>
<path fill-rule="evenodd" clip-rule="evenodd" d="M140.708 7.08068C139.028 7.07208 137.46 7.55766 136.152 8.40419V7.68657C136.152 7.51898 136.018 7.38577 135.85 7.38577H132.567C132.399 7.38577 132.265 7.51898 132.265 7.68657V29.864C132.265 30.0316 132.399 30.1648 132.567 30.1648H135.854C136.022 30.1648 136.156 30.0316 136.156 29.864V28.8155V22.344C137.456 23.182 139.006 23.6675 140.673 23.6675C145.316 23.6675 149.069 19.8904 149.004 15.2581C148.939 10.7633 145.234 7.11076 140.717 7.08927L140.708 7.08068ZM140.665 19.8904C138.32 19.8904 136.394 18.1243 136.148 15.8597V14.8842C136.394 12.6197 138.32 10.8535 140.665 10.8535C143.174 10.8535 145.208 12.8775 145.208 15.3741C145.208 17.8707 143.174 19.8947 140.665 19.8947V19.8904Z" fill="#454545"/>
<path d="M85.9488 23.6718C81.7814 23.6718 78.7282 21.6737 77.8947 18.4293C77.8558 18.2704 77.9551 18.1114 78.1106 18.0684L81.289 17.2433C81.4445 17.2047 81.6 17.2906 81.6518 17.4453C82.2866 19.2845 83.742 20.2169 85.9747 20.2169C88.2074 20.2169 89.3259 19.7013 89.3259 18.8075C89.3259 17.9137 88.4449 17.441 85.7069 16.9769C80.4772 16.0874 78.5295 14.7037 78.5295 11.8677C78.5295 9.03156 81.2027 6.99902 85.1801 6.99902C88.7083 6.99902 91.8306 8.84678 92.7677 11.4379C92.8239 11.5926 92.7332 11.7645 92.5777 11.8161L89.4943 12.8388C89.3518 12.8861 89.192 12.8216 89.1272 12.6884C88.4924 11.3047 86.9982 10.4582 85.1498 10.4582C83.4483 10.4582 82.3471 11.0125 82.3471 11.872C82.3471 12.7314 83.1719 13.0751 86.3504 13.6424C91.2562 14.4889 93.1694 15.9284 93.1694 18.7774C93.1694 21.6264 90.2673 23.6761 85.9444 23.6761L85.9488 23.6718Z" fill="#454545"/>
<path fill-rule="evenodd" clip-rule="evenodd" d="M111.165 15.0003C111.165 10.6817 107.632 7.16667 103.292 7.16667C101.824 7.16667 100.45 7.69951 99.2715 8.56753V2.8008C99.2715 2.63321 99.1376 2.5 98.9692 2.5H95.7173C95.5489 2.5 95.415 2.63321 95.415 2.8008V23.1176C95.415 23.2765 95.5446 23.4055 95.7044 23.4055H98.9778C99.1376 23.4055 99.2672 23.2765 99.2672 23.1176V14.6522C99.2672 12.5552 101.154 10.8536 103.288 10.8536C105.421 10.8536 107.196 12.5467 107.304 14.6522H107.308V23.1176C107.308 23.2765 107.438 23.4055 107.598 23.4055H110.871C111.031 23.4055 111.16 23.2765 111.16 23.1176V15.0519V15.0003H111.165Z" fill="#454545"/>
</g>
<defs>
<clipPath id="clip0_65_628">
<rect width="109" height="28" fill="white" transform="translate(39.9995 2.5)"/>
</clipPath>
</defs>
</svg>
