<?xml version="1.0" encoding="UTF-8"?>
<svg width="313px" height="189px" viewBox="0 0 313 189" version="1.1" xmlns="http://www.w3.org/2000/svg" xmlns:xlink="http://www.w3.org/1999/xlink">
    <title> 2018 milestones</title>
    <g id="-2018-milestones" stroke="none" stroke-width="1" fill="none" fill-rule="evenodd">
        <g transform="translate(11.000000, 7.000000)">
            <path d="M0.2676,61.258 C0.2676,81.473 -0.6414,136.994 0.8916,149.779 C1.3506,153.655 2.8356,157.707 5.1946,161.273 C6.3146,162.977 7.6346,164.599 9.1436,165.979 C10.4526,167.191 11.9606,168.331 13.5296,169.153 C20.6386,172.909 27.5116,174.282 36.0706,174.489769 L66.9956,173.465 L96.2686,173.51 L192.7046,173.977 C192.7046,173.977 233.6376,174.433 238.7186,174.485 C243.7996,174.547 269.0766,174.133 277.5176,165.358 C285.9576,156.593 289.2116,146.044 289.4486,140.175 C290.9106,104.939 291.4636,90.803 289.6716,52.761 C288.9886,38.27 289.3656,30.585 284.4966,22.952 C278.8376,14.082 268.7696,9.402 255.3416,8.787 L247.0886,8.852 C188.1076,8.263 138.0266,7.171 76.9336,8.996 C57.4576,9.582 32.2756,7.245 17.7156,17.13 C1.8826,27.881 0.2556,41.043 0.2676,61.258" id="Fill-1" fill="#FB9300"></path>
            <path d="M89.2774,81.2853 C90.8914,80.6673 94.4614,78.0693 93.3684,72.6133 C92.2764,67.1563 83.8614,64.5393 79.8954,70.1953 C75.9284,75.8473 81.8734,84.1433 89.2774,81.2853" id="Fill-4" fill="#FF5900"></path>
            <path d="M85.6026,77.8146 C85.3856,77.8496 85.1546,77.8016 84.9616,77.6636 C84.5766,77.3846 84.4906,76.8476 84.7676,76.4626 L88.7146,70.9906 C88.9936,70.6056 89.5306,70.5176 89.9146,70.7956 C90.3006,71.0736 90.3876,71.6106 90.1096,71.9966 L86.1626,77.4686 C86.0236,77.6616 85.8206,77.7796 85.6026,77.8146" id="Fill-6" fill="#FFFFFF"></path>
            <path d="M85.5967,77.8156 C85.3797,77.8506 85.1497,77.8026 84.9557,77.6646 L81.9127,75.4716 C81.5277,75.1936 81.4407,74.6576 81.7177,74.2716 C81.9947,73.8856 82.5327,73.7986 82.9177,74.0766 L85.9617,76.2696 C86.3467,76.5466 86.4347,77.0846 86.1567,77.4686 C86.0177,77.6626 85.8147,77.7806 85.5967,77.8156" id="Fill-8" fill="#FFFFFF"></path>
            <path d="M36.3047,32.1671 C36.3047,32.1671 34.7927,36.7351 31.5807,34.8401 C28.3687,32.9431 29.0887,31.4951 31.1547,26.8151 C33.2187,22.1361 32.6347,17.7891 37.1397,17.6801 C41.6437,17.5701 41.0777,23.1431 41.5997,28.9381 C42.1217,34.7331 45.2327,46.7711 45.2327,46.7711 C45.2327,46.7711 49.8847,45.7701 50.5587,47.9991 C51.2327,50.2291 51.5387,53.3501 46.7957,53.9041 C42.0527,54.4591 37.6197,55.4601 36.1837,55.6831 C34.7477,55.9041 30.8327,49.8661 38.5007,47.6501 C38.5007,47.6501 36.9797,43.9511 36.3047,32.1671" id="Fill-10" fill="#FD8000"></path>
            <path d="M66.4014,39.9171 C66.5334,41.9931 62.6614,44.6271 61.5154,39.6741 C60.3704,34.7291 59.1254,27.8661 59.2844,24.4531 C59.4414,21.0321 63.3594,20.4661 64.2534,27.2991 C64.2534,27.2991 66.2464,37.4701 66.4014,39.9171 M70.1474,19.7341 C68.9924,15.2311 63.8724,12.9881 59.9224,13.5071 C59.9224,13.5071 50.8994,14.5591 51.8384,23.9271 C52.7784,33.2951 54.5664,41.9811 54.5664,41.9811 C54.5664,41.9811 55.4604,52.0741 65.8394,50.5061 C65.8394,50.5061 74.5854,49.1061 73.1564,39.6481 C71.7264,30.1901 71.3034,24.2371 70.1474,19.7341" id="Fill-12" fill="#FD8000"></path>
            <path d="M90.2139,36.4611 C90.2629,38.5411 86.2879,41.0181 85.3419,36.0231 C84.3959,31.0361 83.4259,24.1291 83.7219,20.7251 C84.0159,17.3131 87.9519,16.9041 88.5719,23.7681 C88.5719,23.7681 90.1559,34.0101 90.2139,36.4611 M94.7649,16.4441 C93.7899,11.8991 88.7639,9.4521 84.7959,9.8131 C84.7959,9.8131 75.7389,10.5031 76.3029,19.9011 C76.8669,29.2991 78.3059,38.0501 78.3059,38.0501 C78.3059,38.0501 78.7949,48.1711 89.2289,47.0191 C89.2289,47.0191 98.0229,45.9711 96.9739,36.4631 C95.9249,26.9551 95.7389,20.9891 94.7649,16.4441" id="Fill-14" fill="#FD8000"></path>
            <path d="M123.3467,31.5959 C123.3187,33.6759 119.2567,36.0059 118.4927,30.9799 C117.7307,25.9609 117.0147,19.0239 117.4347,15.6329 C117.8537,12.2339 121.8027,11.9689 122.1707,18.8509 C122.1707,18.8509 123.3787,29.1449 123.3467,31.5959 M128.6267,11.7599 C127.8197,7.1819 122.8857,4.5529 118.9087,4.7679 C118.9087,4.7679 109.8307,5.1249 110.0507,14.5379 C110.2707,23.9499 111.3877,32.7479 111.3877,32.7479 C111.3877,32.7479 111.5057,42.8799 121.9757,42.1109 C121.9757,42.1109 130.8017,41.3859 130.1017,31.8459 C129.4017,22.3059 129.4347,16.3369 128.6267,11.7599" id="Fill-16" fill="#FD8000"></path>
            <path d="M148.8447,30.8449 C148.6647,32.9169 144.4437,34.9439 144.0497,29.8739 C143.6567,24.8139 143.4497,17.8419 144.1167,14.4909 C144.7837,11.1319 148.7417,11.1579 148.6057,18.0469 C148.6057,18.0469 149.0567,28.4019 148.8447,30.8449 M155.5637,11.4479 C155.0937,6.8239 150.3657,3.8399 146.3827,3.7629 C146.3827,3.7629 137.3047,3.4549 136.8337,12.8589 C136.3647,22.2619 136.8337,31.1179 136.8337,31.1179 C136.8337,31.1179 136.2097,41.2309 146.7077,41.2309 C146.7077,41.2309 155.5637,41.1539 155.5637,31.5879 C155.5637,22.0229 156.0337,16.0729 155.5637,11.4479" id="Fill-18" fill="#FD8000"></path>
            <path d="M173.0762,32.0294 C172.6622,34.0684 168.2372,35.6024 168.4222,30.5214 C168.6052,25.4494 169.1922,18.4994 170.2342,15.2454 C171.2782,11.9834 175.2082,12.4584 174.2902,19.2884 C174.2902,19.2884 173.5632,29.6264 173.0762,32.0294 M181.9522,13.5204 C182.0102,8.8724 177.6512,5.3724 173.7022,4.8434 C173.7022,4.8434 164.7182,3.5084 163.1832,12.7974 C161.6492,22.0864 161.1122,30.9384 161.1122,30.9384 C161.1122,30.9384 159.3452,40.9154 169.7742,42.1064 C169.7742,42.1064 178.5822,43.0344 179.6672,33.5304 C180.7532,24.0264 181.8942,18.1694 181.9522,13.5204" id="Fill-20" fill="#FD8000"></path>
            <path d="M205.2666,37.3097 C204.7046,39.3127 200.1806,40.5197 200.7356,35.4657 C201.2886,30.4197 202.3816,23.5317 203.6596,20.3627 C204.9386,17.1857 208.8226,17.9457 207.4096,24.6907 C207.4096,24.6907 205.9286,34.9487 205.2666,37.3097 M215.4716,19.4977 C215.8696,14.8677 211.7776,11.0567 207.8776,10.2427 C207.8776,10.2427 199.0146,8.2527 196.8066,17.4057 C194.5976,26.5577 193.4146,35.3477 193.4146,35.3477 C193.4146,35.3477 190.9236,45.1677 201.2386,47.1187 C201.2386,47.1187 209.9536,48.6867 211.7316,39.2887 C213.5076,29.8887 215.0756,24.1297 215.4716,19.4977" id="Fill-22" fill="#FD8000"></path>
            <path d="M228.292,43.7541 C227.631,45.7261 223.051,46.7041 223.859,41.6851 C224.666,36.6731 226.104,29.8481 227.539,26.7471 C228.976,23.6391 232.817,24.5931 231.065,31.2591 C231.065,31.2591 229.072,41.4291 228.292,43.7541 M239.38,26.4791 C240.009,21.8731 236.114,17.8621 232.261,16.8521 C232.261,16.8521 223.509,14.4201 220.843,23.4501 C218.177,32.4801 216.554,41.1981 216.554,41.1981 C216.554,41.1981 213.571,50.8821 223.775,53.3481 C223.775,53.3481 232.401,55.3531 234.648,46.0551 C236.896,36.7571 238.75,31.0841 239.38,26.4791" id="Fill-24" fill="#FD8000"></path>
            <path d="M250.5332,52.1437 C249.6382,54.0217 244.9742,54.4407 246.3832,49.5547 C247.7872,44.6777 250.0372,38.0767 251.8362,35.1707 C253.6372,32.2577 257.3352,33.6687 254.7932,40.0747 C254.7932,40.0747 251.5882,49.9307 250.5332,52.1437 M263.6232,36.3307 C264.8032,31.8347 261.4202,27.3837 257.7172,25.9167 C257.7172,25.9167 249.3212,22.4477 245.5862,31.0897 C241.8502,39.7327 239.1882,48.1917 239.1882,48.1917 C239.1882,48.1917 235.0602,57.4457 244.8922,61.1227 C244.8922,61.1227 253.2152,64.1537 256.5662,55.1947 C259.9182,46.2357 262.4422,40.8277 263.6232,36.3307" id="Fill-26" fill="#FD8000"></path>
            <path d="M107.4756,40.1779 C107.7076,41.7189 106.6476,43.1569 105.1066,43.3899 C103.5656,43.6229 102.1266,42.5619 101.8946,41.0209 C101.6616,39.4799 102.7216,38.0409 104.2636,37.8089 C105.8046,37.5749 107.2436,38.6369 107.4756,40.1779" id="Fill-28" fill="#FD8000"></path>
            <path d="M188.8848,40.8097 C189.1168,42.3507 188.0568,43.7887 186.5158,44.0217 C184.9738,44.2537 183.5358,43.1937 183.3028,41.6527 C183.0708,40.1117 184.1308,38.6727 185.6718,38.4407 C187.2138,38.2067 188.6518,39.2677 188.8848,40.8097" id="Fill-30" fill="#FD8000"></path>
            <path d="M43.5674,43.8585 C43.5674,43.8585 40.3954,31.5835 39.8634,25.6725 C39.3314,19.7625 39.9074,14.0815 35.3144,14.1925 C30.7204,14.3035 31.3154,18.7365 29.2104,23.5075 C27.1054,28.2815 26.3714,29.7575 29.6464,31.6915 C32.9214,33.6255 34.4634,28.9665 34.4634,28.9665 C35.1514,40.9825 36.7024,44.7555 36.7024,44.7555 C28.8834,47.0155 32.8764,53.1715 34.3394,52.9455 C35.8044,52.7185 40.3254,51.6995 45.1614,51.1325 C49.9984,50.5665 49.6854,47.3845 48.9994,45.1115 C48.3114,42.8375 43.5674,43.8585 43.5674,43.8585" id="Fill-32" fill="#FFDA00"></path>
            <path d="M60.1719,36.6212 C59.0049,31.5782 57.7349,24.5802075 57.8979,21.1002 C58.0579,17.6112 62.0519,17.0332 62.9639,24.0022 C62.9639,24.0022 64.9959,34.3732 65.1539,36.8692 C65.2879,38.9862 61.3409,41.6722 60.1719,36.6212 M68.9749,16.2872 C67.7959,11.6962 62.5749,9.4082 58.5469,9.9372 C58.5469,9.9372 49.3469,11.0102 50.3049,20.5622 C51.2629,30.1162 53.0859,38.9752 53.0859,38.9752 C53.0859,38.9752 53.9969,49.2662 64.5809,47.6682 C64.5809,47.6682 73.4989,46.2402 72.0419,36.5962 C70.5849,26.9502 70.1529,20.8792 68.9749,16.2872" id="Fill-34" fill="#FFDA00"></path>
            <path d="M84.4688,32.8986 C83.5038,27.8126 82.5158,20.7696 82.8178,17.2976 C83.1158,13.8186 87.1318,13.4016 87.7638,20.4006 C87.7638,20.4006 89.3788,30.8456 89.4378,33.3446 C89.4878,35.4656 85.4348,37.9926 84.4688,32.8986 M94.0778,12.9326 C93.0848,8.2976 87.9588,5.8026 83.9128,6.1696 C83.9128,6.1696 74.6768,6.8746 75.2518,16.4586 C75.8268,26.0416 77.2938,34.9646 77.2938,34.9646 C77.2938,34.9646 77.7928,45.2856 88.4328,44.1116 C88.4328,44.1116 97.4018,43.0436 96.3308,33.3476 C95.2608,23.6516 95.0728,17.5686 94.0778,12.9326" id="Fill-36" fill="#FFDA00"></path>
            <path d="M118.2754,27.755 C117.4984,22.638 116.7674,15.563 117.1964,12.106 C117.6234,8.639 121.6494,8.369 122.0254,15.387 C122.0254,15.387 123.2574,25.883 123.2244,28.384 C123.1964,30.505 119.0534,32.881 118.2754,27.755 M128.6094,8.155 C127.7864,3.487 122.7544,0.806 118.6984,1.026 C118.6984,1.026 109.4424,1.391 109.6674,10.988 C109.8904,20.587 111.0304,29.559 111.0304,29.559 C111.0304,29.559 111.1504,39.891 121.8274,39.107 C121.8274,39.107 130.8274,38.367 130.1134,28.639 C129.3994,18.91 129.4324,12.824 128.6094,8.155" id="Fill-38" fill="#FFDA00"></path>
            <path d="M149.2266,27.6173 C149.0426,29.7303 144.7386,31.7973 144.3366,26.6283 C143.9366,21.4673 143.7256,14.3573 144.4066,10.9413 C145.0856,7.5153 149.1226,7.5413 148.9836,14.5673 C148.9836,14.5673 149.4426,25.1273 149.2266,27.6173 M146.7156,0.0013 C146.7156,0.0013 137.4576,-0.3127 136.9796,9.2763 C136.4986,18.8653 136.9796,27.8963 136.9796,27.8963 C136.9796,27.8963 136.3426,38.2093 147.0476,38.2093 C147.0476,38.2093 156.0786,38.1303 156.0786,28.3753 C156.0786,18.6213 156.5576,12.5543 156.0786,7.8383 C155.5986,3.1213 150.7786,0.0793 146.7156,0.0013" id="Fill-40" fill="#FFDA00"></path>
            <path d="M175.1748,15.8322 C175.1748,15.8322 174.4348,26.3752 173.9368,28.8262 C173.5148,30.9042 169.0028,32.4692 169.1908,27.2882 C169.3778,22.1152 169.9758,15.0272 171.0398,11.7102 C172.1038,8.3842 176.1108,8.8672 175.1748,15.8322 M174.5748,1.1032 C174.5748,1.1032 165.4128,-0.2598 163.8488,9.2132 C162.2838,18.6862 161.7368,27.7132 161.7368,27.7132 C161.7368,27.7132 159.9348,37.8872 170.5708,39.1022 C170.5708,39.1022 179.5518,40.0482 180.6578,30.3562 C181.7648,20.6642 182.9298,14.6912 182.9878,9.9512 C183.0468,5.2112 178.6028,1.6412 174.5748,1.1032" id="Fill-42" fill="#FFDA00"></path>
            <path d="M208.9483,21.3419 C208.9483,21.3419 207.4383,31.8029 206.7633,34.2099 C206.1913,36.2519 201.5773,37.4839 202.1433,32.3299 C202.7083,27.1849 203.8213,20.1599 205.1243,16.9279 C206.4283,13.6889 210.3893,14.4639 208.9483,21.3419 M209.4273,6.6079 C209.4273,6.6079 200.3873,4.5799 198.1353,13.9129 C195.8843,23.2459 194.6773,32.2089 194.6773,32.2089 C194.6773,32.2089 192.1363,42.2249 202.6553,44.2129 C202.6553,44.2129 211.5443,45.8129 213.3553,36.2279 C215.1673,26.6429 216.7653,20.7699 217.1703,16.0469 C217.5753,11.3239 213.4033,7.4399 209.4273,6.6079" id="Fill-44" fill="#FFDA00"></path>
            <path d="M233.0723,28.0392 C233.0723,28.0392 231.0393,38.4112 230.2443,40.7812 C229.5693,42.7932 224.8993,43.7902 225.7233,38.6722 C226.5463,33.5602 228.0113,26.6022 229.4753,23.4392 C230.9413,20.2692 234.8583,21.2422 233.0723,28.0392 M234.2913,13.3482 C234.2913,13.3482 225.3663,10.8692 222.6473,20.0762 C219.9283,29.2852 218.2733,38.1762 218.2733,38.1762 C218.2733,38.1762 215.2323,48.0512 225.6373,50.5642 C225.6373,50.5642 234.4343,52.6092 236.7253,43.1282 C239.0173,33.6462 240.9093,27.8612 241.5503,23.1652 C242.1923,18.4692 238.2203,14.3792 234.2913,13.3482" id="Fill-46" fill="#FFDA00"></path>
            <path d="M257.2686,37.0294 C257.2686,37.0294 253.9996,47.0804 252.9246,49.3384 C252.0126,51.2534 247.2556,51.6794 248.6916,46.6974 C250.1236,41.7234 252.4186,34.9924 254.2526,32.0294 C256.0896,29.0584 259.8606,30.4984 257.2686,37.0294 M260.2486,22.5914 C260.2486,22.5914 251.6886,19.0544 247.8796,27.8674 C244.0716,36.6814 241.3556,45.3074 241.3556,45.3074 C241.3556,45.3074 237.1466,54.7444 247.1726,58.4944 C247.1726,58.4944 255.6596,61.5844 259.0766,52.4484 C262.4946,43.3124 265.0696,37.7984 266.2726,33.2134 C267.4756,28.6274 264.0266,24.0894 260.2486,22.5914" id="Fill-48" fill="#FFDA00"></path>
            <path d="M103.7647,34.7189 C102.1927,34.9569 101.1117,36.4229 101.3487,37.9939 C101.5857,39.5669 103.0527,40.6489 104.6237,40.4099 C106.1967,40.1739 107.2787,38.7069 107.0397,37.1349 C106.8027,35.5639 105.3367,34.4819 103.7647,34.7189" id="Fill-50" fill="#FFDA00"></path>
            <path d="M186.7822,35.3634 C185.2102,35.6004 184.1282,37.0664 184.3662,38.6384 C184.6032,40.2114 186.0692,41.2924 187.6412,41.0544 C189.2142,40.8174 190.2952,39.3504 190.0572,37.7794 C189.8202,36.2074 188.3532,35.1254 186.7822,35.3634" id="Fill-52" fill="#FFDA00"></path>
            <path d="M21.832,122.9884 C21.832,122.9884 37.687,105.9514 66.535,97.1834 C95.383,88.4154 102.539,87.1934 102.539,87.1934 L101.549,123.7774 L40.55,139.9454 L21.832,122.9884 Z" id="Fill-54" fill="#00AC00"></path>
            <path d="M61.918,134.2853 L55.18,136.0653 C55.012,135.4973 54.862,134.9003 54.723,134.2663 C51.759,120.8173 55.123,107.8713 58.003,100.1443 C60.706,99.0823 63.549,98.0853 66.531,97.1813 C66.681,97.1343 66.83,97.0883 66.979,97.0503 C63.754,101.0963 60.445,107.8713 60.231,118.6923 C60.091,125.7953 60.846,130.7813 61.918,134.2853" id="Fill-56" fill="#A1A2A2"></path>
            <path d="M102.5361,87.1896 L101.5491,123.7816 L61.9181,134.2856 C60.8461,130.7816 60.0911,125.7946 60.2311,118.6926 C60.4451,107.8716 63.7541,101.0956 66.9781,97.0496 C95.4531,88.4106 102.5361,87.1896 102.5361,87.1896" id="Fill-58" fill="#000000"></path>
            <path d="M193.2754,84.2521 C193.2754,84.2521 192.6304,80.5211 183.7414,72.6181 C174.8504,64.7171 183.1764,55.5441 168.0284,38.7521 C152.8794,21.9601 134.2824,32.1141 134.2824,32.1141 L134.2704,32.1191 C134.0984,32.1611 133.9244,32.1911 133.7474,32.2041 C131.0684,32.3951 128.3504,30.4201 120.3044,32.4881 C113.3234,34.2821 104.6114,38.9751 102.5914,57.9181 C102.4854,58.9201 102.3774,60.0231 102.2684,61.1851 L102.2664,61.1871 C100.5204,76.1431 100.6274,74.4531 96.6754,96.8901 C92.7244,119.3261 96.9604,129.8961 96.9604,129.8961 L100.9904,129.1141 C101.4504,133.5881 102.1114,137.2901 103.0274,139.8001 C106.4414,149.1541 128.4144,150.6841 129.8984,129.2921 C130.0114,127.6661 130.0254,125.6511 129.9774,123.4911 L133.7514,122.7591 C133.7514,122.7591 146.2614,125.7391 156.2514,126.4621 C156.2624,127.5731 156.3114,128.7101 156.4074,129.8681 C157.8234,146.9111 185.8094,147.5441 186.2204,128.8711 C186.4134,120.1411 184.1884,104.2931 181.6614,89.4261 C186.4114,81.8141 193.2754,84.2521 193.2754,84.2521" id="Fill-60" fill="#000000"></path>
            <path d="M156.3272,125.1193 C149.7002,129.9573 138.2272,133.5263 128.0962,129.5653 C120.2482,126.5093 114.9172,114.4473 114.3102,108.2773 C126.6702,105.9103 150.8562,105.6773 150.8562,105.6773 C150.8562,105.6773 151.3692,107.6993 152.2542,109.0793 C153.2422,110.6263 154.9112,112.3603 156.5322,112.8723 C156.6162,118.1393 156.4392,122.8913 156.3272,125.1193" id="Fill-62" fill="#07A815"></path>
            <path d="M120.5156,124.7658 C124.4366,129.7658 130.7866,132.4228 137.0576,132.5548 C144.0006,132.7028 150.7106,129.8448 156.1896,125.7378 C157.6126,124.6708 156.2196,122.2428 154.7786,123.3238 C149.7686,127.0788 143.7746,129.7958 137.4146,129.7638 C131.6896,129.7358 126.0586,127.3348 122.4936,122.7888 C121.3836,121.3738 119.4176,123.3658 120.5156,124.7658" id="Fill-64" fill="#02790D"></path>
            <path d="M134.5557,119.8175 C133.4417,123.1885 133.2597,126.7885 133.9317,130.2675 C134.0747,131.0095 134.9637,131.4325 135.6517,131.2445 C136.4267,131.0315 136.7717,130.2685 136.6277,129.5245 C136.0537,126.5525 136.2937,123.4605 137.2517,120.5605 C137.4897,119.8435 136.9777,119.0335 136.2767,118.8405 C135.5157,118.6315 134.7937,119.0975 134.5557,119.8175" id="Fill-66" fill="#02790D"></path>
            <path d="M156.5322,112.8722 C152.9442,116.5822 148.8092,121.6702 138.0162,120.9722 C128.1182,120.3282 126.2292,112.3292 126.1562,112.3492 C115.4992,115.1302 109.9312,108.7532 109.9312,108.7532 C109.9312,108.7532 102.1862,97.4762 104.6942,78.4892 C107.2112,59.5042 107.4712,50.3512 115.8222,45.9982 C121.2282,43.1752 124.3322,44.1062 126.7742,46.0822 C128.8242,47.7322 131.6952,47.9832 134.0532,46.7812 C137.6042,44.9822 142.5912,43.2212 146.1512,45.0952 C152.2742,48.3192 152.6202,52.1592 153.3562,64.0902 C154.2042,77.7532 155.7052,89.6002 156.4132,108.8842 C156.4312,109.2942 156.5322,111.4042 156.5322,112.8722" id="Fill-68" fill="#FFA4AD"></path>
            <path d="M124.2842,84.6095 C124.2802,84.6055 124.2782,84.6005 124.2742,84.5965 C124.2762,84.5995 124.2782,84.6035 124.2802,84.6065 C124.2822,84.6075 124.2822,84.6095 124.2842,84.6095" id="Fill-70" fill="#000000"></path>
            <path d="M128.4385,83.9884 C128.4775,83.5014 127.9815,83.0354 127.5065,83.0564 C126.9675,83.0804 126.6165,83.4674 126.5745,83.9884 L126.5745,83.9934 C126.5615,84.0494 126.5495,84.1034 126.5345,84.1584 C126.5305,84.1744 126.5075,84.2464 126.4925,84.2924 C126.4895,84.2984 126.4905,84.2964 126.4875,84.3024 C126.4375,84.4034 126.3775,84.4964 126.3185,84.5914 C126.3165,84.5934 126.3185,84.5924 126.3165,84.5954 C126.2755,84.6404 126.2355,84.6854 126.1925,84.7294 C126.1575,84.7654 126.1205,84.8004 126.0825,84.8344 C126.0755,84.8414 126.0675,84.8464 126.0595,84.8534 C125.9735,84.9104 125.8885,84.9674 125.7955,85.0154 C125.7795,85.0234 125.7625,85.0314 125.7455,85.0404 C125.6965,85.0564 125.6295,85.0774 125.6255,85.0784 C125.5775,85.0924 125.5285,85.1044 125.4785,85.1154 C125.4725,85.1164 125.4755,85.1154 125.4705,85.1174 C125.3675,85.1194 125.2655,85.1224 125.1615,85.1174 L125.1605,85.1174 C125.1115,85.1034 125.0615,85.0944 125.0125,85.0824 C124.9545,85.0654 124.8965,85.0474 124.8385,85.0274 C124.8215,85.0204 124.8215,85.0204 124.8105,85.0164 C124.7245,84.9704 124.5675,84.8734 124.5475,84.8594 C124.5305,84.8484 124.5135,84.8374 124.4975,84.8254 L124.4965,84.8244 C124.4655,84.7974 124.4325,84.7634 124.4265,84.7594 C124.3825,84.7174 124.3405,84.6744 124.2995,84.6294 C124.2915,84.6194 124.2905,84.6174 124.2845,84.6094 C124.2925,84.6234 124.3015,84.6364 124.3105,84.6534 C124.3015,84.6364 124.2905,84.6224 124.2805,84.6064 C124.2445,84.5644 124.2515,84.5664 124.2745,84.5964 C124.2235,84.5124 124.1635,84.4334 124.1185,84.3454 C124.1115,84.3344 124.1055,84.3214 124.0995,84.3094 C124.0945,84.2964 124.0905,84.2814 124.0845,84.2634 C124.0845,84.2324 124.0935,84.2024 124.0925,84.1704 C124.0345,82.9754 122.1695,82.9684 122.2275,84.1704 C122.2545,84.7284 121.9105,85.2834 121.2745,85.1624 C120.7085,85.0534 120.5375,84.4634 120.4955,83.9654 C120.3805,82.5934 120.8815,81.1114 121.1845,79.7894 C121.9165,76.5924 122.8255,73.4374 123.8935,70.3364 C124.2845,69.1994 122.4845,68.7114 122.0955,69.8414 C121.3515,72.0024 120.6825,74.1884 120.0995,76.3994 C119.5475,78.4914 118.9575,80.6404 118.6885,82.7914 C118.4895,84.3774 118.8255,86.3264 120.5655,86.8954 C121.6005,87.2344 122.6165,86.9044 123.2935,86.2204 C123.9165,86.7494 124.7215,87.0604 125.5455,86.9744 C127.1155,86.8124 128.3115,85.5504 128.4385,83.9884" id="Fill-72" fill="#000000"></path>
            <path d="M142.5835,86.8575 C142.4195,86.3535 141.9485,86.0975 141.4365,86.2075 C141.4255,86.2095 141.3685,86.2245 141.3155,86.2365 C141.3145,86.2365 141.3145,86.2365 141.2885,86.2385 C141.2515,86.2425 141.2155,86.2465 141.1785,86.2495 C141.0455,86.2595 140.9115,86.2635 140.7775,86.2595 C140.7045,86.2575 140.6315,86.2545 140.5585,86.2485 C140.5325,86.2465 140.5305,86.2475 140.5155,86.2465 C140.3855,86.2365 140.2465,86.1965 140.1225,86.1635 C139.9805,86.1265 139.8425,86.0775 139.7055,86.0275 C139.7005,86.0255 139.7025,86.0275 139.6985,86.0255 C139.6945,86.0235 139.6995,86.0255 139.6925,86.0215 C139.6285,85.9865 139.5615,85.9585 139.4975,85.9245 C139.3775,85.8595 139.2635,85.7915 139.1535,85.7155 C139.1225,85.6935 138.9405,85.5435 139.1065,85.6875 C139.0515,85.6385 138.9955,85.5935 138.9415,85.5455 C138.8445,85.4575 138.7515,85.3635 138.6655,85.2645 C138.6555,85.2545 138.6085,85.1965 138.5795,85.1625 C138.5575,85.1325 138.5315,85.0955 138.5245,85.0875 C138.4435,84.9685 138.3685,84.8455 138.3005,84.7195 C138.2665,84.6565 138.2365,84.5915 138.2045,84.5275 C138.1965,84.5095 138.1975,84.5145 138.1925,84.5075 C138.1895,84.4975 138.1925,84.5025 138.1865,84.4865 C138.1005,84.2355 138.0295,83.9885 137.9805,83.7265 C137.9795,83.7225 137.9795,83.7225 137.9795,83.7185 C137.9785,83.7095 137.9785,83.7055 137.9775,83.6905 C137.9735,83.6195 137.9665,83.5485 137.9645,83.4765 C137.9595,83.3325 137.9655,83.1895 137.9765,83.0475 C138.0135,82.5595 137.5205,82.0935 137.0435,82.1155 C136.5065,82.1385 136.1515,82.5245 136.1125,83.0475 C136.0365,84.0375 136.3135,85.0705 136.8495,85.9245 C136.8365,85.9555 136.8145,85.9735 136.8035,86.0075 C136.1535,88.1035 134.7235,89.8845 132.9735,91.1915 C131.2355,92.4885 128.9125,93.4315 126.7155,93.1745 C126.2155,93.1175 125.7845,93.6445 125.7845,94.1075 C125.7845,94.6595 126.2135,94.9805 126.7155,95.0395 C129.2565,95.3365 132.0385,94.2155 134.0405,92.7075 C135.8995,91.3045 137.4205,89.5085 138.2915,87.3595 C139.3685,88.0375 140.6655,88.2735 141.9325,88.0045 C142.4105,87.9025 142.7315,87.3165 142.5835,86.8575" id="Fill-74" fill="#000000"></path>
            <path d="M137.5498,93.1486 C137.1198,92.9216 136.5148,93.0216 136.2748,93.4826 C136.1458,93.7286 136.0028,93.9676 135.8428,94.1956 C135.8038,94.2526 135.7618,94.3086 135.7208,94.3636 C135.7178,94.3686 135.7208,94.3656 135.7178,94.3676 C135.7078,94.3786 135.7078,94.3786 135.6868,94.4046 C135.5968,94.5096 135.5058,94.6156 135.4108,94.7166 C135.2298,94.9086 135.0368,95.0896 134.8348,95.2596 C134.7938,95.2936 134.7528,95.3266 134.7108,95.3596 C134.6958,95.3716 134.6568,95.3986 134.6278,95.4196 C134.5148,95.5016 134.3998,95.5786 134.2808,95.6526 C134.0578,95.7936 133.8248,95.9196 133.5868,96.0336 C133.5248,96.0636 133.4608,96.0916 133.3978,96.1196 C133.3898,96.1236 133.3938,96.1226 133.3898,96.1246 C133.3788,96.1276 133.3758,96.1276 133.3508,96.1366 C133.2188,96.1836 133.0898,96.2326 132.9568,96.2746 C132.6928,96.3576 132.4218,96.4236 132.1488,96.4726 C132.0938,96.4826 132.0388,96.4906 131.9848,96.4996 C132.1758,96.4676 131.9838,96.4986 131.9428,96.5026 C131.7898,96.5176 131.6378,96.5256 131.4858,96.5316 C130.9978,96.5466 130.5298,96.9496 130.5528,97.4626 C130.5748,97.9556 130.9628,98.4116 131.4858,98.3946 C134.1268,98.3116 136.6538,96.7776 137.8838,94.4236 C138.1098,93.9926 138.0088,93.3906 137.5498,93.1486" id="Fill-76" fill="#000000"></path>
            <path d="M130.3194,69.0519 C130.6124,70.8909 134.4734,70.8489 137.9784,70.5999 C140.5814,70.4149 142.9384,70.1149 143.2264,68.5879 C143.4494,67.4069 142.6084,65.6819 141.2094,65.1119 C138.8964,64.1689 133.9854,64.1949 131.5194,65.9859 C130.5654,66.6779 130.1124,67.7499 130.3194,69.0519" id="Fill-78" fill="#FFFCFF"></path>
            <path d="M107.0264,70.8029 C107.3194,72.6429 111.1814,72.6009 114.6854,72.3519 C117.2894,72.1659 119.6464,71.8669 119.9334,70.3399 C120.1574,69.1579 119.3164,67.4339 117.9164,66.8639 C115.6044,65.9209 110.6924,65.9459 108.2264,67.7369 C107.2734,68.4299 106.8194,69.5019 107.0264,70.8029" id="Fill-80" fill="#FFFCFF"></path>
            <path d="M115.4102,72.3253 C118.2892,72.3253 118.2942,67.8513 115.4102,67.8513 C112.5312,67.8513 112.5262,72.3253 115.4102,72.3253" id="Fill-82" fill="#000000"></path>
            <path d="M138.8828,70.4982 C141.7618,70.4982 141.7658,66.0242 138.8828,66.0242 C136.0038,66.0242 135.9988,70.4982 138.8828,70.4982" id="Fill-84" fill="#000000"></path>
            <path d="M131.9277,61.465 C135.2627,58.775 140.1887,59.007 143.3247,61.873 C144.6517,63.085 146.6337,61.113 145.3027,59.897 C143.2417,58.015 140.6077,56.883 137.8107,56.767 C134.9327,56.648 132.1717,57.696 129.9507,59.487 C129.3637,59.962 129.4567,60.971 129.9507,61.465 C130.5317,62.046 131.3387,61.941 131.9277,61.465" id="Fill-86" fill="#000000"></path>
            <path d="M108.6113,63.6105 C110.9693,60.9195 115.0923,60.2695 118.0003,62.5405 C118.5933,63.0045 119.3973,63.1195 119.9763,62.5405 C120.4603,62.0565 120.5753,61.0305 119.9763,60.5625 C118.0033,59.0205 115.5283,58.1315 112.9993,58.3985 C110.5543,58.6575 108.2633,59.7735 106.6333,61.6325 C106.1363,62.2005 106.0753,63.0515 106.6333,63.6105 C107.1413,64.1175 108.1113,64.1805 108.6113,63.6105" id="Fill-88" fill="#000000"></path>
            <path d="M105.1494,54.215 C103.8334,59.837 103.0604,65.6 102.6284,71.353 C102.1284,77.986 102.1034,84.697 102.9194,91.307 C103.3114,94.493 103.8754,97.665 104.7804,100.749 C105.6204,103.611 106.6864,106.595 108.5034,108.99 C112.0214,113.63 117.6744,114.866 123.2174,114.225 C131.1304,113.308 137.9754,109.794 144.8264,105.96 C146.3964,105.08 144.9884,102.664 143.4154,103.545 C137.5044,106.854 131.7034,109.93 124.9664,111.158 C120.2424,112.021 114.8734,111.902 111.3934,108.122 C109.4884,106.053 108.4724,103.242 107.6544,100.596 C106.7814,97.775 106.1904,94.862 105.7954,91.937 C104.9594,85.746 104.9214,79.439 105.2974,73.212 C105.6674,67.079 106.4444,60.944 107.8454,54.958 C108.2544,53.208 105.5594,52.461 105.1494,54.215" id="Fill-90" fill="#000000"></path>
            <path d="M230.9258,96.3273 C230.9258,96.3273 205.6498,86.5613 192.9128,83.7953 C180.1768,81.0273 174.7148,103.6043 172.3048,117.6173 L224.5148,127.4703 L230.9258,96.3273 Z" id="Fill-92" fill="#00AC00"></path>
            <path d="M230.9258,96.3234 L224.5128,127.4724 L183.2328,119.6804 C182.9348,96.8074 193.0748,88.2154 198.6118,85.2414 C211.9578,88.9974 230.9258,96.3234 230.9258,96.3234" id="Fill-94" fill="#000000"></path>
            <path d="M288.1035,147.4308 C286.4455,152.9298 283.1265,159.5378 277.5155,165.3538 C269.0715,174.1338 243.8035,174.5438 238.7145,174.4888 C233.6345,174.4318 192.7085,173.9758 192.7085,173.9758 L96.2705,173.5088 L66.9955,173.4628 L36.0705,174.4888 C27.5135,174.2838 20.6355,172.9128 13.5335,169.1568 C11.9575,168.3268 10.4485,167.1898 9.1435,165.9788 C7.6335,164.5988 6.3095,162.9778 5.1915,161.2718 C4.1945,159.7708 3.3645,158.1868 2.6935,156.5648 C18.5475,146.9928 67.3395,120.8858 133.6925,116.8318 C200.2405,112.7588 253.3475,128.9198 288.1035,147.4308" id="Fill-96" fill="#008AAC"></path>
            <path d="M265.5323,168.7619 C261.2173,167.4379 256.6693,166.1529 252.6783,164.5489 C251.1973,163.9519 250.1163,163.1979 250.3213,162.2289 C250.6003,160.8579 249.2963,159.9079 246.4813,159.3299 C242.0913,158.4159 238.5583,157.1119 236.3683,155.1719 C235.7253,154.6039 235.3153,153.9889 236.5363,153.4399 C238.9783,152.3489 239.6123,151.0809 239.7053,149.6829 C239.7703,148.8069 239.8363,147.8659 241.5043,147.1019 C243.6673,146.1219 245.8563,145.1349 248.1023,144.1569 C249.2963,143.6429 250.1063,143.0659 250.6473,142.3579 C252.3903,140.0449 255.3263,138.2749 261.2453,137.9949 C262.9313,137.9109 264.8143,137.7429 266.2683,137.2309 C248.0563,129.7929 226.4893,123.4649 201.9953,119.7369 C201.5103,119.9319 201.0723,120.1649 200.6623,120.4159 C198.6213,121.6939 195.7683,121.9269 193.0183,121.5909 C190.3823,121.2559 188.2283,121.5349 186.3083,122.1689 C183.1583,123.1949 180.0733,123.1759 176.6993,122.3359 C176.0283,122.1689 175.2823,122.0669 174.5643,121.9549 C169.3073,121.1529 167.3873,121.5169 165.1413,123.6979 C165.2913,123.9299 165.1043,124.0519 164.6293,124.0709 C164.6203,124.1639 164.5263,124.2099 164.3583,124.2389 C164.7883,124.6289 164.4793,125.0119 164.4993,125.4029 C164.5543,126.6899 165.3753,127.7889 167.9003,128.5439 C170.2863,129.2619 172.4113,130.1289 173.8663,131.2839 C174.4533,131.3769 175.0403,131.4809 175.6273,131.5819 C179.9423,130.8189 180.5763,131.0139 181.0793,133.3069 C181.3123,134.3599 181.3683,135.4129 181.5833,136.4479 C181.7043,136.9979 181.8823,137.5669 182.7853,137.9949 C185.7213,139.3839 189.5143,140.1199 193.0943,140.9589 C194.3523,141.2569 195.6843,140.8479 196.8783,140.5589 C199.2453,139.9899 201.4353,139.2529 203.9793,138.8149 C207.7083,138.1619 209.3673,138.4339 211.1473,140.0079 C211.4833,140.3069 211.8553,140.6049 212.1163,140.9119 C213.4223,142.4689 215.6123,143.6159 219.0053,144.2409 C220.5333,144.5199 221.2413,144.9569 220.4583,145.7589 C220.0393,146.1879 219.8813,146.6539 219.6373,147.1109 C218.9113,148.4709 216.9443,149.2639 213.9253,149.5799 C212.6853,149.7109 211.4183,149.7849 210.1693,149.9069 C207.6983,150.1679 206.4033,150.8759 206.0033,151.9199 C205.6013,152.9459 206.5903,153.6539 208.6393,153.9979 C213.0303,154.7349 216.7123,156.0209 221.3353,156.4589 C221.8463,156.5059 222.3873,156.5709 222.7883,156.7009 C227.0203,157.9879 230.8033,159.4129 233.7683,161.1289 L233.7593,161.1379 C234.4113,161.1659 234.5973,161.3249 234.4583,161.5759 C234.5513,161.5849 234.5693,161.6139 234.5323,161.6509 C234.8583,161.6779 235.0263,161.7529 234.9423,161.9029 C234.9993,161.9489 235.0543,161.9869 235.0923,162.0329 C235.1103,162.0609 235.0633,162.0879 235.0453,162.1159 C236.3313,162.8339 238.7453,163.0949 239.6023,163.9709 C240.8333,164.2329 241.7373,164.6149 242.4363,165.0899 C247.8043,165.9749 251.4213,167.4569 252.9223,169.6469 C253.3973,170.3559 255.0283,170.6159 256.1833,171.0649 C257.6843,171.5019 259.4363,171.7259 261.3853,171.8189 C262.0743,171.8469 262.7183,171.9029 263.3133,172.0059 C265.7273,171.4459 268.0573,170.7469 270.1823,169.8989 C268.6083,169.5449 266.9863,169.2089 265.5323,168.7619" id="Fill-99" fill="#74BF1D"></path>
            <path d="M113.8887,127.4728 C110.3747,126.6998 103.1797,126.5118 104.1957,125.3848 C104.9787,124.5178 107.9237,121.4788 106.5807,119.7838 C54.1727,127.9478 16.3037,148.3498 2.6967,156.5608 C3.3677,158.1838 4.1967,159.7678 5.1947,161.2678 C6.3127,162.9738 7.6357,164.5958 9.1457,165.9748 C10.4507,167.1868 11.9597,168.3248 13.5357,169.1538 C19.4357,172.2758 25.1767,173.7478 31.8597,174.2698 C31.5427,172.4148 36.3617,170.6628 38.2997,170.8028 C40.3877,170.9608 41.1707,172.8068 46.8197,171.6418 C52.4767,170.4668 60.0817,168.1278 63.6887,168.6218 C67.2957,169.1068 73.2427,166.1798 72.2637,164.6228 C71.2847,163.0578 65.9257,160.9518 70.3157,158.3978 C74.6967,155.8438 79.9987,151.5368 87.9777,149.3568 C95.9557,147.1758 101.1287,145.1998 106.0967,143.7458 C111.0647,142.3008 116.1347,139.6348 116.1347,134.0898 C116.1347,128.5528 117.4027,128.2368 113.8887,127.4728" id="Fill-101" fill="#74BF1D"></path>
            <path d="M54.8633,157.9933 C53.8713,161.2553 58.7623,162.6843 68.0513,161.8633 C77.3393,161.0423 81.3813,159.1023 80.1043,154.9313 C78.8283,150.7623 74.1073,148.2093 67.1303,148.7763 C58.3513,149.4903 55.8563,154.7323 54.8633,157.9933" id="Fill-103" fill="#004758"></path>
            <path d="M198.2813,156.5919 C196.4983,159.4969 200.8723,162.1139 210.0663,163.6619 C219.2613,165.2089 223.6613,164.3519 223.4783,159.9939 C223.2953,155.6359 219.3703,151.9759 212.4743,150.7659 C203.8013,149.2419 200.0633,153.6859 198.2813,156.5919" id="Fill-105" fill="#004758"></path>
            <path d="M248.7334,160.6417 C248.7334,160.6417 281.9924,158.7927 285.8234,147.0077 C289.6534,135.2227 284.3824,112.0467 236.5054,98.6577 L231.3824,122.4137 L248.7334,160.6417 Z" id="Fill-107" fill="#00AC00"></path>
            <path d="M262.084,108.589 C250.517,111.208 246.118,118.469 246.118,118.469 L240.581,115.542 C244.44,111.339 249.566,107.601 256.305,105.728 C258.355,106.659 260.275,107.61 262.084,108.589" id="Fill-109" fill="#A1A2A2"></path>
            <path d="M256.3047,105.7277 C243.7417,109.2137 236.7697,119.2137 233.2457,126.5117 L231.3817,122.4117 L236.5087,98.6537 C244.1417,100.7887 250.7027,103.1737 256.3047,105.7277" id="Fill-111" fill="#000000"></path>
            <path d="M278.5244,154.0539 C267.5734,159.5909 248.7364,160.6439 248.7364,160.6439 L240.3674,142.2079 L246.6584,119.9499 C246.6584,119.9499 261.3094,117.5459 272.5324,129.1689 C279.4384,136.3079 279.5034,146.9339 278.5244,154.0539" id="Fill-113" fill="#000000"></path>
            <path d="M28.7647,160.6417 C28.7647,160.6417 16.8907,160.4687 11.4107,158.9897 C5.9297,157.5097 -8.7583,142.5707 16.4247,124.0407 L28.7647,160.6417 Z" id="Fill-115" fill="#00AC00"></path>
            <path d="M28.7656,160.6437 C28.7656,160.6437 16.8906,160.4667 11.4106,158.9947 C10.3576,158.7057 8.9686,157.9317 7.5796,156.7197 C7.5426,156.6077 7.5046,156.4867 7.4776,156.3657 C1.8006,135.2917 16.1726,128.9167 16.1726,128.9167 L18.0936,129.0007 L28.7656,160.6437 Z" id="Fill-117" fill="#000000"></path>
            <path d="M55.2334,132.7863 C55.2334,132.7863 63.7274,131.0743 67.4364,129.4313 C71.1444,127.7883 74.2894,130.2283 72.7874,134.3123 C71.2854,138.3963 65.0424,138.349312 65.0424,138.349312 L55.6074,133.9843 L55.2334,132.7863 Z" id="Fill-119" fill="#FFA4AD"></path>
            <path d="M50.2871,77.4992 C51.8761,85.8682 53.4641,94.2362 55.0531,102.6042 C57.5681,115.8572 60.0841,129.1112 62.5991,142.3642 C63.1811,145.4272 63.7621,148.4892 64.3431,151.5532 C64.5551,152.6662 65.8941,153.3002 66.9231,153.0172 C68.0891,152.6962 68.5991,151.5542 68.3881,150.4372 C66.7991,142.0692 65.2111,133.7012 63.6221,125.3322 C61.1061,112.0792 58.5921,98.8262 56.0761,85.5722 C55.4941,82.5102 54.9131,79.4472 54.3321,76.3852 C54.1211,75.2712 52.7801,74.6372 51.7521,74.9202 C50.5861,75.2402 50.0751,76.3832 50.2871,77.4992" id="Fill-121" fill="#FFFFFF"></path>
            <path d="M39.916,133.5041 C39.916,133.5041 51.362,132.6421 55.753,132.7991 C60.143,132.9561 67.747,138.2081 71.981,140.5611 C76.215,142.9121 74.568,149.6541 68.296,147.3031 C62.024,144.9501 55.125,141.8151 55.125,141.8151 L47.52,143.8401 C47.52,143.8401 58.811,148.5571 60.691,150.5171 C62.573,152.4771 61.789,158.5141 55.674,157.2591 C55.674,157.2591 58.418,158.7481 56.145,162.0411 C53.871,165.3341 49.402,164.3941 49.402,164.3941 C49.402,164.3941 51.598,165.6341 49.951,168.2671 C48.305,170.9001 44.698,172.1541 35.761,167.4501 C26.824,162.7471 23.985,158.0531 23.602,153.1081 C23.218,148.1651 29.771,135.1611 39.916,133.5041" id="Fill-123" fill="#FFA4AD"></path>
            <path d="M7.5459,122.4689 C7.3729,121.7979 7.7289,121.1049 8.3749,120.8559 C13.3899,118.9269 33.5679,111.0839 38.7409,107.7739 C44.6619,103.9839 45.6089,99.7209 36.2539,98.1819 C27.3169,96.7109 40.2329,84.7579 51.3159,80.3889 C52.1119,80.0739 52.9979,80.5659 53.1569,81.4069 L60.2339,118.6959 C60.3679,119.3969 59.9389,120.0809 59.2489,120.2669 C56.8119,120.9219 51.3559,122.4769 48.7229,123.9209 C48.1979,124.2079 47.9269,124.8009 48.0479,125.3869 C48.5019,127.5989 49.6629,133.2549 50.2279,136.0749 C50.9389,139.6279 48.6889,144.1279 40.2799,147.5619 C33.3479,150.3939 21.3409,153.7889 17.3429,154.8929 C16.6089,155.0959 15.8499,154.6569 15.6589,153.9189 L7.5459,122.4689 Z" id="Fill-125" fill="#FFFFFF"></path>
            <path d="M58.0195,107.008 C53.9465,107.726 48.8205,109.357 45.4175,113.038 L43.2185,102.134 C43.1905,101.807 43.0795,101.481 42.8825,101.164 L42.8825,101.154 C45.1575,98.871 49.0535,96.43 55.7075,94.835 L58.0195,107.008 Z" id="Fill-127" fill="#00247D"></path>
            <path d="M60.2383,118.6955 C60.3683,119.3945 59.9393,120.0855 59.2503,120.2705 C56.8073,120.9235 51.3553,122.4795 48.7273,123.9245 C48.1963,124.2045 47.9253,124.8005 48.0473,125.3875 L46.2483,116.9905 C48.4573,115.0235 52.3063,113.0485 58.9793,112.0695 L60.2383,118.6955 Z" id="Fill-129" fill="#DE1018"></path>
            <path d="M27.5322,122.088 C22.2852,124.428 15.5182,126.647 9.1062,128.501 L7.5502,122.471 C7.3722,121.8 7.7262,121.101 8.3792,120.859 C13.3932,118.929 33.5722,111.081 38.7452,107.773 C41.7092,105.88 43.4242,103.867 43.2192,102.134 L43.2282,102.134 L44.9432,110.41 C45.2512,112.004 41.4752,115.853 27.5322,122.088" id="Fill-131" fill="#DE1018"></path>
            <path d="M48.3076,126.6466 L48.3076,126.6556 C48.1776,126.8886 45.6376,134.2026 29.0236,139.3776 C24.2116,140.8766 18.5756,142.5006 13.0766,143.8986 L10.4486,133.7016 C14.8746,132.5836 20.6346,130.8236 26.2326,128.9136 C43.5566,123.0026 46.0796,116.1986 46.0796,116.1986 L48.1396,125.8346 L48.3076,126.6466 Z" id="Fill-133" fill="#00247D"></path>
            <path d="M39.5938,162.2667 C42.2928,163.2277 45.0448,164.0307 47.8368,164.6727 C49.0038,164.9427 49.5028,163.1457 48.3318,162.8757 C45.5398,162.2337 42.7878,161.4297 40.0888,160.4687 C39.6148,160.2997 39.0698,160.6607 38.9428,161.1207 C38.8008,161.6357 39.1168,162.0967 39.5938,162.2667" id="Fill-135" fill="#000000"></path>
            <path d="M44.2793,154.6291 C47.6123,155.8271 50.9763,156.9371 54.3683,157.9571 C55.5193,158.3031 56.0103,156.5051 54.8633,156.1591 C51.4713,155.1391 48.1073,154.0291 44.7743,152.8321 C44.3003,152.6611 43.7543,153.0241 43.6283,153.4831 C43.4853,154.0001 43.8033,154.4581 44.2793,154.6291" id="Fill-137" fill="#000000"></path>
            <path d="M57.1504,133.3322 C60.6734,134.0662 64.0284,135.5642 66.8774,137.7742 C67.2734,138.0822 67.8074,138.1612 68.1944,137.7742 C68.5154,137.4532 68.5944,136.7672 68.1944,136.4562 C65.0874,134.0452 61.5034,132.3382 57.6464,131.5342 C56.4754,131.2912 55.9744,133.0872 57.1504,133.3322" id="Fill-139" fill="#000000"></path>
            <path d="M38.7451,107.7736 C38.0561,108.2106 37.1141,108.7236 35.9681,109.3016 L33.4141,96.6346 L33.3571,96.3276 C33.6461,97.2416 34.5511,97.9026 36.2571,98.1826 C45.6041,99.7196 44.6631,103.9796 38.7451,107.7736" id="Fill-141" fill="#000000"></path>
            <line x1="43.9795" y1="105.5226" x2="47.2965" y2="122.4146" id="Fill-143" fill="#000000"></line>
            <path d="M43.0811,105.7707 C44.0471,110.6907 45.0131,115.6107 45.9791,120.5307 C46.1191,121.2407 46.2581,121.9517 46.3971,122.6627 C46.6291,123.8377 48.4261,123.3397 48.1951,122.1667 C47.2291,117.2467 46.2631,112.3267 45.2971,107.4067 C45.1571,106.6967 45.0181,105.9857 44.8791,105.2757 C44.6471,104.0987 42.8511,104.5967 43.0811,105.7707" id="Fill-145" fill="#000000"></path>
            <path d="M222.9883,135.1154 C222.9883,135.1154 214.4943,133.4034 210.7863,131.7604 C207.0783,130.1174 203.9323,132.5584 205.4343,136.6414 C206.9373,140.7254 213.1793,140.678412 213.1793,140.678412 L222.6153,136.3134 L222.9883,135.1154 Z" id="Fill-147" fill="#FFA4AD"></path>
            <path d="M223.8906,78.714 C222.3016,87.082 220.7136,95.45 219.1246,103.818 C216.6096,117.072 214.0946,130.325 211.5786,143.578 C210.9966,146.642 210.4156,149.704 209.8346,152.767 C209.6236,153.878 210.1456,155.029 211.2996,155.346 C212.3246,155.628 213.6666,155 213.8786,153.882 C215.4676,145.513 217.0556,137.145 218.6446,128.777 C221.1606,115.524 223.6746,102.27 226.1906,89.017 C226.7726,85.954 227.3536,82.892 227.9346,79.829 C228.1456,78.717 227.6236,77.567 226.4696,77.249 C225.4456,76.968 224.1026,77.596 223.8906,78.714" id="Fill-149" fill="#FFFFFF"></path>
            <path d="M238.3057,135.8341 C238.3057,135.8341 226.8597,134.9721 222.4697,135.1281 C218.0787,135.2851 210.4747,140.5371 206.2417,142.8901 C202.0077,145.2411 203.6547,151.9831 209.9257,149.6321 C216.1977,147.2791 223.0967,144.1441 223.0967,144.1441 L230.7017,146.1691 C230.7017,146.1691 219.4117,150.8861 217.5307,152.8461 C215.6497,154.8061 216.4327,160.8431 222.5477,159.5881 C222.5477,159.5881 219.8037,161.0781 222.0767,164.3701 C224.3517,167.6631 228.8197,166.7231 228.8197,166.7231 C228.8197,166.7231 226.6247,167.9631 228.2717,170.5961 C229.9167,173.2301 233.5237,174.4831 242.4607,169.7801 C251.3987,165.0761 254.2367,160.3821 254.6207,155.4381 C255.0047,150.4941 248.4517,137.4901 238.3057,135.8341" id="Fill-151" fill="#FFA4AD"></path>
            <path d="M270.6768,124.798 C270.8498,124.127 270.4938,123.434 269.8478,123.185 C264.8318,121.256 244.6548,113.413 239.4818,110.103 C233.5608,106.314 232.6138,102.05 241.9678,100.511 C250.9058,99.04 237.9888,87.087 226.9058,82.718 C226.1098,82.403 225.2248,82.896 225.0648,83.736 L217.9878,121.025 C217.8548,121.726 218.2828,122.41 218.9738,122.596 C221.4108,123.251 226.8658,124.806 229.4998,126.25 C230.0248,126.537 230.2948,127.13 230.1748,127.716 C229.7198,129.928 228.5588,135.584 227.9948,138.404 C227.2838,141.957 229.5338,146.457 237.9418,149.891 C244.8748,152.723 256.8808,156.118 260.8788,157.222 C261.6138,157.425 262.3728,156.986 262.5638,156.248 L270.6768,124.798 Z" id="Fill-153" fill="#FF002B"></path>
            <polygon id="Fill-155" fill="#FFC000" points="235.1729 127.6154 236.2639 136.9174 231.7619 128.8454 229.7299 129.5824 232.5819 114.6784 233.4109 112.5624 234.4929 121.8644 240.6909 125.6304"></polygon>
            <path d="M238.1328,162.798 C235.4338,163.759 232.6818,164.563 229.8898,165.205 C228.7218,165.474 229.2158,167.272 230.3858,167.003 C233.1778,166.36 235.9298,165.557 238.6288,164.596 C239.1028,164.427 239.4198,163.96 239.2788,163.449 C239.1538,162.99 238.6098,162.629 238.1328,162.798" id="Fill-157" fill="#000000"></path>
            <path d="M233.4483,155.1613 C230.1143,156.3583 226.7513,157.4683 223.3583,158.4883 C222.2133,158.8333 222.7013,160.6333 223.8543,160.2863 C227.2463,159.2653 230.6103,158.1563 233.9433,156.9583 C234.4173,156.7883 234.7353,156.3233 234.5943,155.8113 C234.4693,155.3543 233.9243,154.9903 233.4483,155.1613" id="Fill-159" fill="#000000"></path>
            <path d="M220.5762,133.8634 C216.7202,134.6674 213.1352,136.3744 210.0272,138.7854 C209.6302,139.0934 209.7032,139.7784 210.0272,140.1034 C210.4212,140.4964 210.9462,140.4134 211.3462,140.1034 C214.1942,137.8934 217.5492,136.3954 221.0712,135.6614 C222.2452,135.4174 221.7492,133.6194 220.5762,133.8634" id="Fill-161" fill="#000000"></path>
            <path d="M239.4776,110.1027 C240.1666,110.5397 241.1086,111.0527 242.2546,111.6307 L244.8086,98.9637 L244.8646,98.6577 C244.5756,99.5707 243.6716,100.2317 241.9656,100.5117 C232.6176,102.0497 233.5586,106.3087 239.4776,110.1027" id="Fill-163" fill="#000000"></path>
            <line x1="234.2422" y1="107.8517" x2="230.9262" y2="124.7437" id="Fill-165" fill="#000000"></line>
            <path d="M233.3438,107.6046 C232.3778,112.5246 231.4118,117.4446 230.4458,122.3636 C230.3058,123.0746 230.1658,123.7856 230.0278,124.4956 C229.7968,125.6666 231.5928,126.1686 231.8238,124.9916 C232.7908,120.0716 233.7568,115.1516 234.7228,110.2316 C234.8628,109.5206 235.0018,108.8106 235.1418,108.0996 C235.3708,106.9276 233.5748,106.4266 233.3438,107.6046" id="Fill-167" fill="#000000"></path>
            <path d="M40.2832,147.5617 C33.3482,150.3947 21.3442,153.7877 17.3462,154.8967 C16.6092,155.0917 15.8542,154.6547 15.6582,153.9177 L14.3352,148.7827 C23.0502,146.5447 32.6122,143.7777 39.1642,140.9997 C46.2292,138.0077 48.5592,134.1027 49.2962,131.4647 C49.6402,133.1987 49.9852,134.8947 50.2272,136.0787 C50.9362,139.6297 48.6892,144.1307 40.2832,147.5617" id="Fill-169" fill="#DE1018"></path>
            <path d="M54.627,89.1408 C45.745,92.1228 41.476,96.0098 39.435,98.9268 C38.549,98.6378 37.496,98.3868 36.257,98.1818 C27.318,96.7088 40.236,84.7598 51.318,80.3888 C52.11,80.0728 52.996,80.5658 53.154,81.4048 L54.627,89.1408 Z" id="Fill-171" fill="#DE1018"></path>
            <path d="M96.2451,91.5334 C93.9031,100.9214 90.9411,110.4674 91.0031,120.2294 C91.0111,121.4294 92.8751,121.4314 92.8671,120.2294 C92.8071,110.6384 95.7421,101.2524 98.0431,92.0284 C98.3331,90.8644 96.5361,90.3684 96.2451,91.5334" id="Fill-173" fill="#FFFFFF"></path>
            <path d="M276.2539,164.2902 C276.2849,164.2682 276.3159,164.2442 276.3489,164.2222 C276.3189,164.2452 276.2889,164.2692 276.2599,164.2922 L276.2539,164.2902 Z" id="Fill-175" fill="#95D14E"></path>
            <path d="M165.1416,123.6994 C165.2896,123.9324 165.1086,124.0534 164.6296,124.0744 C164.7996,123.9504 164.9706,123.8244 165.1416,123.6994" id="Fill-177" fill="#95D14E"></path>
            <path d="M234.46,161.5773 C233.862,161.5363 233.594,161.4013 233.761,161.1403 C234.414,161.1653 234.596,161.3253 234.46,161.5773" id="Fill-179" fill="#95D14E"></path>
            <path d="M234.9463,161.9044 C234.8083,161.8204 234.6723,161.7364 234.5343,161.6524 C234.8573,161.6814 235.0283,161.7564 234.9463,161.9044" id="Fill-181" fill="#95D14E"></path>
            <path d="M119.8506,156.9533 C117.9806,157.1353 115.6866,157.4173 114.1646,156.0493 C113.6046,155.5453 113.3216,154.8423 112.4506,154.8893 C111.5516,154.9373 110.5986,155.5373 109.7256,155.7623 C108.7976,156.0023 107.8076,156.1113 106.8736,155.8343 C106.0776,155.5983 105.4576,154.8243 104.5876,154.9433 C103.7586,155.0573 102.9276,155.6673 102.1916,156.0443 C101.1766,156.5633 100.1616,157.0843 99.1456,157.6033 C98.0776,158.1503 99.0196,159.7593 100.0866,159.2133 C101.2146,158.6353 102.3426,158.0573 103.4706,157.4803 L104.3176,157.0473 C104.4296,156.9893 104.5426,156.9323 104.6556,156.8733 C104.7906,156.7363 104.8556,156.7463 104.8486,156.9043 C105.2756,156.9933 105.7706,157.4413 106.2216,157.5873 C107.1886,157.8983 108.2256,157.9123 109.2206,157.7623 C109.7956,157.6763 110.3566,157.5353 110.9116,157.3573 C111.3156,157.2283 111.9046,156.9083 112.3916,156.8123 C112.7146,157.1463 112.9936,157.5273 113.3886,157.8073 C113.9186,158.1823 114.5186,158.4553 115.1396,158.6423 C116.6676,159.1043 118.2876,158.9693 119.8506,158.8183 C121.0346,158.7033 121.0456,156.8383 119.8506,156.9533" id="Fill-183" fill="#006982"></path>
            <path d="M145.0401,135.9103 C143.1691,136.0913 140.8751,136.3733 139.3531,135.0053 C138.7931,134.5013 138.5111,133.7973 137.6391,133.8453 C136.7411,133.8933 135.7871,134.4923 134.9141,134.7193 C133.9861,134.9583 132.9961,135.0673 132.0621,134.7903 C131.2671,134.5543 130.6471,133.7813 129.7761,133.8993 C128.9471,134.0123 128.1161,134.6233 127.3801,135.0003 C126.3641,135.5193 125.3501,136.0393 124.3341,136.5583 C123.2661,137.1053 124.2081,138.7153 125.2741,138.1683 C126.4031,137.5923 127.5311,137.0143 128.6591,136.4353 C128.9411,136.2913 129.2241,136.1473 129.5051,136.0033 C129.6181,135.9453 129.7311,135.8873 129.8441,135.8303 C129.9791,135.6913 130.0441,135.7013 130.0371,135.8593 C130.4641,135.9493 130.9581,136.3963 131.4111,136.5433 C132.3771,136.8553 133.4131,136.8673 134.4091,136.7193 C134.9851,136.6323 135.5451,136.4923 136.1001,136.3133 C136.5031,136.1833 137.0931,135.8633 137.5811,135.7673 C137.9031,136.1013 138.1821,136.4823 138.5771,136.7633 C139.1071,137.1383 139.7081,137.4113 140.3281,137.5983 C141.8561,138.0603 143.4761,137.9253 145.0401,137.7733 C146.2231,137.6593 146.2351,135.7943 145.0401,135.9103" id="Fill-185" fill="#006982"></path>
            <path d="M171.8194,146.8449 C170.1914,146.5019 169.0834,145.1669 167.7844,144.2289 C167.0934,143.7309 166.4484,143.4349 165.6124,143.7619 C164.8094,144.0759 164.1674,144.4689 163.2744,144.4979 C162.4834,144.5239 161.6904,144.3429 161.0034,143.9479 C160.3074,143.5469 159.7194,143.0349 158.8664,143.2799 C158.0034,143.5259 157.2064,144.1939 156.3904,144.5759 C155.4424,145.0229 154.4504,145.3499 153.4374,145.6119 C152.2764,145.9099 152.7684,147.7089 153.9324,147.4079 C155.7284,146.9469 157.2374,146.1449 158.8904,145.3539 C159.3814,145.1189 159.5004,145.2189 159.9444,145.4889 C160.2844,145.6959 160.6494,145.8599 161.0224,145.9969 C161.7314,146.2599 162.5184,146.3829 163.2744,146.3619 C163.9934,146.3419 164.7094,146.1989 165.3764,145.9339 C165.7454,145.7859 166.1304,145.4729 166.5094,145.6079 C166.8254,145.7189 167.1494,146.0729 167.4054,146.2829 C168.6004,147.2679 169.7634,148.3139 171.3234,148.6429 C172.4944,148.8889 172.9944,147.0929 171.8194,146.8449" id="Fill-187" fill="#006982"></path>
            <path d="M29.3643,29.3507 C26.5103,30.1367 25.5783,31.2487 25.1203,34.4117 C25.0403,34.9647 24.3223,34.9967 24.1913,34.4547 C23.4463,31.3467 22.4163,30.3247 19.5033,29.8017 C18.9933,29.7107 18.9573,28.9307 19.4563,28.7927 C22.3093,28.0067 23.2423,26.8947 23.7013,23.7327 C23.7813,23.1787 24.4993,23.1467 24.6293,23.6897 C25.3753,26.7967 26.4053,27.8197 29.3183,28.3417 C29.8283,28.4327 29.8633,29.2127 29.3643,29.3507" id="Fill-189" fill="#FFFCFF"></path>
            <path d="M268.8155,47.3888 C265.9615,48.1758 265.0295,49.2868 264.5715,52.4508 C264.4915,53.0028 263.7735,53.0358 263.6425,52.4928 C262.8975,49.3848 261.8675,48.3638 258.9545,47.8408 C258.4445,47.7488 258.4085,46.9688 258.9075,46.8308 C261.7605,46.0448 262.6935,44.9338 263.1525,41.7708 C263.2325,41.2178 263.9505,41.1848 264.0805,41.7288 C264.8265,44.8358 265.8565,45.8578 268.7695,46.3798 C269.2795,46.4718 269.3145,47.2518 268.8155,47.3888" id="Fill-191" fill="#FFFCFF"></path>
            <path d="M199.3623,142.1818 C196.5083,142.9678 195.5763,144.0798 195.1173,147.2428 C195.0373,147.7948 194.3193,147.8278 194.1893,147.2858 C193.4433,144.1778 192.4133,143.1558 189.5003,142.6328 C188.9903,142.5408 188.9553,141.7618 189.4543,141.6238 C192.3073,140.8368 193.2403,139.7258 193.6983,136.5628 C193.7783,136.0098 194.4963,135.9768 194.6273,136.5208 C195.3723,139.6278 196.4023,140.6498 199.3163,141.1718 C199.8253,141.2638 199.8613,142.0438 199.3623,142.1818" id="Fill-193" fill="#FFFCFF"></path>
            <path d="M266.4492,99.173 C263.9342,99.866 263.1122,100.846 262.7092,103.632 C262.6372,104.119 262.0062,104.149 261.8902,103.67 C261.2342,100.932 260.3262,100.031 257.7592,99.57 C257.3092,99.49 257.2782,98.803 257.7192,98.682 C260.2322,97.988 261.0542,97.009 261.4592,94.222 C261.5292,93.735 262.1612,93.706 262.2762,94.185 C262.9332,96.923 263.8412,97.823 266.4082,98.284 C266.8572,98.364 266.8882,99.052 266.4492,99.173" id="Fill-195" fill="#FFFCFF"></path>
            <path d="M21.8233,97.7091 C19.3083,98.4011 18.4873,99.3811 18.0833,102.1681 C18.0123,102.6551 17.3803,102.6851 17.2653,102.2051 C16.6083,99.4671 15.7003,98.5661 13.1333,98.1061 C12.6843,98.0251 12.6533,97.3391 13.0933,97.2171 C15.6073,96.5241 16.4283,95.5451 16.8333,92.7581 C16.9033,92.2711 17.5363,92.2411 17.6503,92.7211 C18.3073,95.4591 19.2153,96.3591 21.7823,96.8191 C22.2313,96.9001 22.2623,97.5871 21.8233,97.7091" id="Fill-197" fill="#FFFCFF"></path>
            <path d="M73.7715,128.6701 C72.0385,129.1491 71.4715,129.8231 71.1925,131.7451 C71.1435,132.0811 70.7085,132.1011 70.6285,131.7711 C70.1755,129.8831 69.5495,129.2621 67.7805,128.9441 C67.4705,128.8891 67.4485,128.4151 67.7515,128.3311 C69.4855,127.8541 70.0515,127.1781 70.3315,125.2571 C70.3785,124.9211 70.8155,124.9001 70.8945,125.2311 C71.3475,127.1191 71.9735,127.7391 73.7435,128.0581 C74.0525,128.1121 74.0755,128.5871 73.7715,128.6701" id="Fill-199" fill="#FFFCFF"></path>
            <path d="M33.3115,79.3634 C35.3555,78.4614 39.7945,74.8784 38.0325,67.9054 C36.2695,60.9324 25.2395,58.0974 20.4855,65.6554 C15.7305,73.2064 23.9395,83.5314 33.3115,79.3634" id="Fill-201" fill="#FF5900"></path>
            <path d="M28.3438,75.1203 C28.0658,75.1803 27.7648,75.1343 27.5068,74.9663 C26.9918,74.6333 26.8448,73.9453 27.1788,73.4303 L31.9198,66.1103 C32.2538,65.5973 32.9418,65.4473 33.4568,65.7823 C33.9728,66.1163 34.1188,66.8043 33.7848,67.3193 L29.0438,74.6393 C28.8768,74.8953 28.6218,75.0603 28.3438,75.1203" id="Fill-203" fill="#FFFFFF"></path>
            <path d="M28.3369,75.1222 C28.0589,75.1822 27.7579,75.1352 27.4999,74.9692 L23.4299,72.3352 C22.9149,72.0012 22.7679,71.3132 23.1009,70.7992 C23.4339,70.2832 24.1219,70.1362 24.6369,70.4692 L28.7069,73.1022 C29.2229,73.4362 29.3699,74.1242 29.0369,74.6392 C28.8699,74.8962 28.6139,75.0622 28.3369,75.1222" id="Fill-205" fill="#FFFFFF"></path>
            <path d="M273.0752,82.173 C275.6912,82.459 282.3332,81.426 284.6512,73.277 C286.9702,65.129 277.3972,55.728 268.0912,60.627 C258.7862,65.519 261.0602,80.89 273.0752,82.173" id="Fill-207" fill="#FF5900"></path>
            <path d="M270.5157,74.9152 C270.1967,74.8112 269.9167,74.5872 269.7527,74.2642 C269.4247,73.6202 269.6817,72.8322 270.3257,72.5042 L279.4797,67.8412 C280.1227,67.5142 280.9117,67.7682 281.2407,68.4132 C281.5687,69.0582 281.3117,69.8452 280.6677,70.1742 L271.5137,74.8372 C271.1917,75.0002 270.8337,75.0192 270.5157,74.9152" id="Fill-209" fill="#FFFFFF"></path>
            <path d="M270.5069,74.9123 C270.1889,74.8093 269.9089,74.5843 269.7449,74.2633 L267.1499,69.1753 C266.8209,68.5303 267.0769,67.7433 267.7209,67.4143 C268.3649,67.0863 269.1529,67.3413 269.4819,67.9853 L272.0769,73.0723 C272.4049,73.7173 272.1499,74.5053 271.5059,74.8333 C271.1839,74.9983 270.8249,75.0163 270.5069,74.9123" id="Fill-211" fill="#FFFFFF"></path>
            <path d="M216.0576,65.2687 C217.0926,64.8717 219.3806,63.2057 218.6806,59.7077 C217.9806,56.2087 212.5846,54.5307 210.0416,58.1577 C207.4986,61.7807 211.3096,67.1007 216.0576,65.2687" id="Fill-213" fill="#FF5900"></path>
            <path d="M213.7012,63.0431 C213.5612,63.0651 213.4142,63.0351 213.2902,62.9451 C213.0432,62.7681 212.9872,62.4231 213.1662,62.1761 L215.6972,58.6671 C215.8752,58.4211 216.2202,58.3631 216.4672,58.5431 C216.7142,58.7211 216.7692,59.0641 216.5912,59.3121 L214.0592,62.8211 C213.9712,62.9441 213.8412,63.0201 213.7012,63.0431" id="Fill-215" fill="#FFFFFF"></path>
            <path d="M213.6973,63.0431 C213.5583,63.0651 213.4103,63.0351 213.2873,62.9461 L211.3363,61.5401 C211.0883,61.3621 211.0323,61.0181 211.2103,60.7711 C211.3883,60.5231 211.7323,60.4681 211.9793,60.6461 L213.9313,62.0521 C214.1783,62.2301 214.2343,62.5741 214.0563,62.8211 C213.9683,62.9441 213.8373,63.0211 213.6973,63.0431" id="Fill-217" fill="#FFFFFF"></path>
        </g>
    </g>
</svg>