<?xml version="1.0" encoding="UTF-8"?>
<svg width="313px" height="189px" viewBox="0 0 313 189" version="1.1" xmlns="http://www.w3.org/2000/svg" xmlns:xlink="http://www.w3.org/1999/xlink">
    <title>2015 milestones</title>
    <defs>
        <path d="M176.933,21.506 C170.848,38.186 179.436,56.64 196.115,62.725 L196.115,62.725 C212.795,68.812 231.25,60.223 237.335,43.544 L237.335,43.544 C243.421,26.864 234.833,8.409 218.154,2.324 L218.154,2.324 C214.517,0.997 210.796,0.368 207.138,0.368 L207.138,0.368 C194.015,0.368 181.692,8.463 176.933,21.506 L176.933,21.506 Z" id="path-1"></path>
        <path d="M217.977,16.173 L217.989,17.319 C217.437,17.261 216.6,16.813 216.017,16.457 L216.017,16.457 C215.558,16.148 214.963,16.215 214.4,16.582 L214.4,16.582 C214.181,16.787 214.135,16.913 214.043,17.166 L214.043,17.166 C213.859,17.67 213.928,18.265 214.511,18.623 L214.511,18.623 C215.922,19.852 217.699,20.072 217.699,20.072 L217.699,20.072 C217.139,31.007 215.301,34.481 212.705,37.676 L212.705,37.676 C209.583,41.535 204.63,39.441 204.206,36.289 L204.206,36.289 C203.854,33.733 205.691,31.831 205.691,31.831 L205.691,31.831 C206.574,32.153 207.596,32.096 208.409,31.823 L208.409,31.823 C209.27,31.423 209.925,30.804 210.373,29.968 L210.373,29.968 C210.82,29.131 211.097,28.374 211.326,27.744 L211.326,27.744 C211.648,26.862 211.248,26.002 210.583,25.474 L210.583,25.474 C203.737,20.972 194.874,19.171 191.135,19.235 L191.135,19.235 C189.264,19.268 188.105,21.272 189.079,22.912 L189.079,22.912 L189.159,23.086 C188.781,23.357 187.721,24.081 186.827,24.688 L186.827,24.688 C186.039849,25.222 185.807,26.276 186.293,27.093 L186.293,27.093 C186.673,27.733 187.408,28.069 188.14,27.938 L188.14,27.938 C189.715,27.656 191.379,27.78 192.991,28.368 L192.991,28.368 C193.811,28.668 194.529,29.088 195.195,29.573 L195.195,29.573 C195.263,29.626 195.333,29.666 195.405,29.706 L195.405,29.706 C195.497,29.767 195.583,29.843 195.688,29.909 L195.688,29.909 C195.758,29.949 195.826,30.003 195.875,30.063 L195.875,30.063 C195.991,30.134 196.091,30.214 196.183,30.318 L196.183,30.318 C198.145,31.991 199.289,34.451 199.264,36.914 L199.264,36.914 C199.281,38.005 199.092,38.992 198.76,39.901 L198.76,39.901 C198.768,39.917 198.768,39.917 198.751,39.926 L198.751,39.926 C198.715,40.098 198.66,40.249 198.6,40.414 L198.6,40.414 C198.297,41.245 197.887,42.011 197.4,42.689 L197.4,42.689 C199.407,43.692 201.766,44.824 204.325,45.758 L204.325,45.758 C206.054,46.389 207.65,46.873 209.11,47.219 L209.11,47.219 C209.159,46.295 209.344,45.362 209.676,44.455 L209.676,44.455 C210.536,42.096 212.22,40.299 214.317,39.292 L214.317,39.292 C214.447,39.211 214.602,39.139 214.752,39.08 L214.752,39.08 C214.773,39.058 214.792,39.05 214.808,39.043 L214.808,39.043 C216.246,38.352 217.863,38.072 219.485,38.291 L219.485,38.291 C220.188,38.362 220.786,38.523 221.391,38.744 L221.391,38.744 L221.441,38.763 C221.702,38.872 221.949,38.978 222.214,39.115 L222.214,39.115 C222.283,39.156 222.359,39.185 222.432,39.223 L222.432,39.223 C222.59,39.296 222.742,39.351 222.897,39.394 L222.897,39.394 L222.909,39.397 C223.239,39.475 223.554,39.476 223.874,39.422 L223.874,39.422 C224.967,39.25 225.904,38.361 226.057,37.118 L226.057,37.118 C226.582,27.454 222.045,22.656 221.219,21.784 L221.219,21.784 C221.884,22.313 223.752,23.85 223.905,19.907 L223.905,19.907 C223.977,17.363 222.279,15.743 220.778,14.767 L220.778,14.767 C220.426,14.518 220.047,14.406 219.685,14.406 L219.685,14.406 C218.761,14.406 217.947,15.135 217.977,16.173 L217.977,16.173 Z M183.327,35.246 C182.059,38.72 183.851,42.566 187.323,43.833 L187.323,43.833 C190.798,45.101 194.644,43.311 195.911,39.837 L195.911,39.837 C197.177,36.364 195.389,32.518 191.915,31.249 L191.915,31.249 C191.158,30.973 190.383,30.842 189.621,30.842 L189.621,30.842 C186.887,30.843 184.318,32.53 183.327,35.246 L183.327,35.246 Z M212.138,46.167 C212.088,46.306 212.037,46.444 212.013,46.592 L212.013,46.592 C211.015,49.949 212.8,53.538 216.134,54.755 L216.134,54.755 C219.607,56.021 223.455,54.231 224.722,50.758 L224.722,50.758 C225.956,47.374 224.283,43.64 220.985,42.279 L220.985,42.279 C220.901,42.235 220.813,42.203 220.726,42.171 L220.726,42.171 C219.968,41.895 219.194,41.763 218.432,41.7639944 L218.432,41.7639944 C215.698,41.7639944 213.129,43.451 212.138,46.167 L212.138,46.167 Z" id="path-3"></path>
        <path d="M29.102,12.13 C16.472,15.478 8.946,28.431 12.294,41.061 L12.294,41.061 C15.642,53.692 28.595,61.218 41.224,57.87 L41.224,57.87 C53.855,54.523 61.381,41.569 58.033,28.938 L58.033,28.938 C55.224,18.338 45.652,11.334 35.18,11.334 L35.18,11.334 C33.174,11.334 31.133,11.592 29.102,12.13 L29.102,12.13 Z" id="path-5"></path>
        <path d="M40.457,20.339 C36.011,21.518 35.555,28.779 36.723,33.186 L36.723,33.186 C37.355,35.57 39.201,37.28 41.306,38.022 L41.306,38.022 C42.317,38.379 43.156,39.142 43.489,40.2 L43.489,40.2 L44.904,44.68 C45.231,45.721 46.274,46.329 47.275,46.067 L47.275,46.067 C48.275,45.799 48.881,44.754 48.649,43.688 L48.649,43.688 L47.659,39.096 C47.424,38.01 47.775,36.933 48.478,36.122 L48.478,36.122 C49.939,34.435 50.695,32.035 50.063,29.65 L50.063,29.65 C48.995,25.621 45.568,20.189 41.588,20.19 L41.588,20.19 C41.216,20.19 40.838,20.238 40.457,20.339 L40.457,20.339 Z M28.74,24.495 C27.894,24.893 27.536,25.97 27.944,26.895 L27.944,26.895 C28.755,28.748 29.295,30.006 29.931,32.367 L29.931,32.367 C30.112,33.037 29.758,33.711 29.143,33.874 L29.143,33.874 C28.529,34.036 27.891,33.629 27.714,32.962 L27.714,32.962 L25.911,26.197 C25.677,25.313 24.903,24.64 24.062,24.71 L24.062,24.71 C22.992,24.8 22.333,25.888 22.619,26.966 L22.619,26.966 L24.447,33.827 C24.624,34.494 24.252,35.17 23.639,35.332 L23.639,35.332 C23.023,35.496 22.381,35.083 22.207,34.412 L22.207,34.412 C21.595,32.045 21.436,30.686 21.225,28.677 L21.225,28.677 C21.12,27.671 20.276,26.913 19.344,26.986 L19.344,26.986 C18.399,27.042 17.74,27.931 17.848,28.939 L17.848,28.939 C18.135,31.671 18.656,34.512 19.42,37.112 L19.42,37.112 C20.237,39.893 22.233,41.907 24.641,42.705 L24.641,42.705 C25.74,43.068 26.659,43.913 27.026,45.085 L27.026,45.085 L28.273,49.083 C28.599,50.128 29.621,50.747 30.594,50.489 L30.594,50.489 C31.566,50.231 32.149,49.189 31.916,48.121 L31.916,48.121 L31.056,44.171 C30.796,42.966 31.205,41.787 31.999,40.942 L31.999,40.942 C33.648,39.185 34.416,36.566 33.821,33.905 L33.821,33.905 C33.189,31.069 32.19,28.15 31.007,25.45 L31.007,25.45 C30.704,24.759 30.053,24.342 29.399,24.342 L29.399,24.342 C29.175,24.342 28.95,24.391 28.74,24.495 L28.74,24.495 Z" id="path-7"></path>
        <path d="M225.569,99.935 C225.569,115.35 238.064,127.846 253.479,127.846 L253.479,127.846 C268.895,127.846 281.39,115.35 281.39,99.935 L281.39,99.935 C281.39,84.52 268.895,72.023 253.479,72.023 L253.479,72.023 C238.064,72.023 225.569,84.52 225.569,99.935 L225.569,99.935 Z" id="path-9"></path>
        <path d="M252.763,82.837 C251.841,83.513 250.977,84.236 250.104,84.948 L250.104,84.948 L250.884,85.729 C251.307,86.178 251.307,86.879 250.884,87.328 L250.884,87.328 L249.52,88.706 C249.07,89.127 248.369,89.127 247.922,88.706 L247.922,88.706 L246.882,87.666 C242.996,91.155 239.478,95.033 236.384,99.241 L236.384,99.241 C234.599,101.612 234.375,104.81 235.812,107.408 L235.812,107.408 C236.102,107.895 236.43,108.352 236.747,108.811 L236.747,108.811 C237.576,108.356 238.512,108.075 239.523,108.075 L239.523,108.075 C242.734,108.075 245.339,110.679 245.339,113.889 L245.339,113.889 C245.339,114.898 245.058,115.832 244.607,116.66 L244.607,116.66 C245.073,116.983 245.546,117.311 245.996,117.593 L245.996,117.593 C248.589,119.038 251.791,118.819 254.162,117.032 L254.162,117.032 C258.366,113.964 262.24,110.469 265.722,106.603 L265.722,106.603 L264.684,105.576 C264.262,105.126 264.262,104.427 264.684,103.978 L264.684,103.978 L266.061,102.6 C266.508,102.186 267.2,102.186 267.647,102.6 L267.647,102.6 L268.44,103.393 C269.14,102.507 269.876,101.644 270.541,100.734 L270.541,100.734 C272.369,98.34 272.595,95.085 271.112,92.461 L271.112,92.461 C270.825,91.979 270.502,91.526 270.186,91.072 L270.186,91.072 C269.364,91.517 268.435,91.794 267.435,91.794 L267.435,91.794 C264.223,91.794 261.62,89.191 261.62,85.979 L261.62,85.979 C261.62,84.978 261.895,84.05 262.342,83.227 L262.342,83.227 C261.868,82.899 261.388,82.565 260.928,82.278 L260.928,82.278 C259.788,81.641 258.529,81.3269985 257.276,81.3269985 L257.276,81.3269985 C255.68,81.326 254.091,81.836 252.763,82.837 L252.763,82.837 Z M252.4,93.29 L251.024,91.914 C250.6,91.465 250.6,90.765 251.024,90.316 L251.024,90.316 L252.4,88.963 C252.85,88.54 253.549,88.54 253.998,88.963 L253.998,88.963 L255.363,90.327 C255.785,90.776 255.785,91.476 255.363,91.926 L255.363,91.926 L253.998,93.29 C253.773,93.502 253.486,93.608 253.199,93.608 L253.199,93.608 C252.913,93.608 252.625,93.502 252.4,93.29 L252.4,93.29 Z M256.949,97.84 L255.584,96.464 C255.17,96.016 255.17,95.324 255.584,94.878 L255.584,94.878 L256.961,93.501 C257.411,93.078 258.11,93.078 258.561,93.501 L258.561,93.501 L259.938,94.878 C260.352,95.324 260.352,96.016 259.938,96.464 L259.938,96.464 L258.547,97.84 C258.323,98.051 258.036,98.157 257.749,98.157 L257.749,98.157 C257.462,98.157 257.174,98.051 256.949,97.84 L256.949,97.84 Z M261.499,102.391 L260.135,101.026 C259.713,100.576 259.713,99.876 260.135,99.426 L260.135,99.426 L261.499,98.049 C261.949,97.628 262.65,97.628 263.097,98.049 L263.097,98.049 L264.474,99.462 C264.896,99.911 264.896,100.612 264.474,101.06 L264.474,101.06 L263.097,102.391 C262.873,102.602 262.586,102.707 262.299,102.707 L262.299,102.707 C262.012,102.707 261.724,102.602 261.499,102.391 L261.499,102.391 Z" id="path-11"></path>
    </defs>
    <g id="2015-milestones" stroke="none" stroke-width="1" fill="none" fill-rule="evenodd">
        <g transform="translate(11.000000, 5.000000)">
            <path d="M162.1093,4.4091 C123.5613,3.9461 82.0503,3.5601 45.2583,3.9251 C37.8873,3.9981 30.3493,4.1801 23.4473,6.7911 C14.6963,10.1021 7.5063,17.3891 4.2583,26.2401 C2.0913,32.1431 1.6403,38.5261 1.2363,44.8091 C-0.5417,72.4991 1.5343,104.1111 0.7983,131.8481 C0.5763,140.2441 0.5223,146.8601 4.7313,154.1021 C9.0113,161.4671 16.7613,167.0221 25.1183,168.3121 C44.2343,171.2641 70.4083,169.9671 88.8003,169.8991 C141.0253,169.7091 194.7253,172.3371 247.0333,171.6251 C254.5883,171.5211 262.2503,171.3311 269.4903,169.1471 C276.7303,166.9631 283.5363,161.8511 287.0803,155.1101 C290.2733,149.0381 290.5263,142.5271 290.5273,135.6511 C290.5333,104.3971 294.0363,73.1431 289.8283,42.1801 C288.7023,33.8911 287.2903,25.2771 282.4503,18.4881 C272.9083,5.1031 248.5183,3.5261 232.1943,3.1801 C207.9363,2.6661 186.3663,4.9241 162.1093,4.4091" id="Fill-1" fill="#FF9000"></path>
            <path d="M188.6181,128.6738 C188.6181,128.6738 189.0701,130.7478 184.3091,133.1848 C179.5491,135.6218 164.0491,135.7758 164.0491,135.7758 L164.4871,121.4158 L187.3461,119.9798 L188.6181,128.6738 Z" id="Fill-4" fill="#B45025"></path>
            <path d="M81.9687,108.0908 C81.2247,108.0908 72.9047,98.7338 72.4077,82.8698 C71.9117,67.0068 71.2057,55.2668 68.9727,50.5078 C66.7397,45.7488 67.2367,32.5288 76.9107,32.0008 C86.5847,31.4728 91.2977,45.4848 91.2977,45.4848 L81.9687,108.0908 Z" id="Fill-6" fill="#B45025"></path>
            <path d="M79.6074,166.8632 L150.8124,179.2172 C157.7794,180.4262 164.7344,175.3042 166.5714,167.6142 L198.8024,32.6382 C200.7464,24.5012 196.2264,16.6612 188.8544,15.3822 L105.4444,0.9102 C97.9704,-0.3868 90.6304,5.5842 89.4084,13.9552 L69.3824,151.0492 C68.2594,158.7402 72.7404,165.6722 79.6074,166.8632" id="Fill-8" fill="#004859"></path>
            <path d="M109.8886,18.6806 L178.3856,30.3506 C183.1626,31.1636 186.0206,36.5756 184.6746,42.2616 L157.9646,155.1786 C156.6926,160.5576 152.1156,164.2006 147.5966,163.4306 L88.2456,153.3196 C83.7846,152.5596 80.9426,147.7596 81.7676,142.3796 L99.3316,27.9056 C100.2266,22.0746 105.0526,17.8576 109.8886,18.6806" id="Fill-10" fill="#E7E7E7"></path>
            <path d="M153.1689,21.3818 L126.7729,16.5958 C124.8589,16.2488 123.5839,14.5748 123.9249,12.8578 C124.2659,11.1398 126.0939,10.0278 128.0079,10.3758 L154.4019,15.1618 C156.3159,15.5088 157.5919,17.1828 157.2509,18.9008 C156.9109,20.6178 155.0829,21.7288 153.1689,21.3818" id="Fill-12" fill="#006C83"></path>
            <path d="M164.9951,23.5263 L164.9951,23.5263 C163.0811,23.1783 161.8061,21.5053 162.1461,19.7883 C162.4861,18.0703 164.3141,16.9593 166.2281,17.3053 C168.1421,17.6533 169.4181,19.3273 169.0771,21.0453 C168.7361,22.7613 166.9091,23.8733 164.9951,23.5263" id="Fill-14" fill="#006C83"></path>
            <path d="M137.8193,114.0732 C145.3203,113.7192 163.5783,107.8652 166.5003,83.8722 C169.4223,59.8792 138.2773,37.6282 114.2203,55.5612 C90.1673,73.4692 103.3903,115.7832 137.8193,114.0732" id="Fill-16" fill="#A2A2A2"></path>
            <path d="M154.7304,71.6757 C153.5204,70.0017 151.1844,69.6357 149.5144,70.8417 L128.7904,85.8627 L121.4024,75.6817 C120.1914,74.0127 117.8574,73.6417 116.1874,74.8537 C114.5174,76.0647 114.1464,78.3987 115.3584,80.0687 L124.9274,93.2557 C125.5334,94.0907 126.4194,94.6007 127.3634,94.7497 C127.3674,94.7507 127.3724,94.7497 127.3764,94.7507 C127.3804,94.7517 127.3844,94.7537 127.3884,94.7537 C128.3324,94.9047 129.3324,94.6947 130.1664,94.0907 L153.8974,76.8907 C155.5674,75.6787 155.9404,73.3457 154.7304,71.6757" id="Fill-18" fill="#A1A2A2"></path>
            <path d="M138.8828,108.0605 C146.3838,107.7065 164.6418,101.8525 167.5638,77.8595 C170.4858,53.8665 139.3418,31.6155 115.2838,49.5485 C91.2318,67.4575 104.4538,109.7705 138.8828,108.0605" id="Fill-20" fill="#00BBE0"></path>
            <path d="M155.7939,65.663 C154.5839,63.989 152.2479,63.623 150.5779,64.829 L129.8539,79.851 L122.4669,69.67 C121.2549,68 118.9209,67.629 117.2509,68.841 C115.5819,70.052 115.2109,72.386 116.4219,74.056 L125.9909,87.243 C126.5979,88.078 127.4829,88.588 128.4279,88.737 C128.4319,88.738 128.4359,88.738 128.4399,88.738 C128.4439,88.739 128.4479,88.741 128.4519,88.742 C129.3969,88.892 130.3959,88.682 131.2309,88.078 L154.9619,70.878 C156.6309,69.666 157.0049,67.333 155.7939,65.663" id="Fill-22" fill="#FFFFFF"></path>
            <path d="M67.0576,123.8749 C67.0576,123.8749 64.8596,126.6709 63.1036,124.5459 C61.3476,122.4209 62.2116,121.5949 64.8236,118.8599 C67.4336,116.1269 68.1196,112.9589 71.2786,114.0149 C74.4376,115.0709 72.6436,118.8019 71.5496,122.9609 C70.4566,127.1199 69.5936,136.2689 69.5936,136.2689 C69.5936,136.2689 73.0786,136.7419 72.9876,138.4609 C72.8946,140.1799 72.3236,142.4259 68.8876,141.6199 C65.4516,140.8129 62.1196,140.3959 61.0656,140.1879 C60.0106,139.9819 58.8076,134.8029 64.6936,135.1879 C64.6936,135.1879 64.5666,132.2349 67.0576,123.8749" id="Fill-24" fill="#00BBE0"></path>
            <path d="M86.5986,137.3652 C86.1676,138.8412 82.8156,139.6992 83.2636,135.9692 C83.7096,132.2432 84.5696,127.1612 85.5376,124.8282 C86.5066,122.4902 89.3716,123.0812 88.2766,128.0552 C88.2766,128.0552 87.1056,135.6252 86.5986,137.3652 M94.2736,124.2782 C94.6026,120.8582 91.6076,118.0122 88.7316,117.3812 C88.7316,117.3812 82.1966,115.8442 80.4946,122.5922 C78.7936,129.3392 77.8536,135.8262 77.8536,135.8262 C77.8536,135.8262 75.9386,143.0652 83.5466,144.5842 C83.5466,144.5842 89.9766,145.8082 91.3606,138.8762 C92.7446,131.9422 93.9466,127.6982 94.2736,124.2782" id="Fill-26" fill="#00BBE0"></path>
            <path d="M104.0869,140.8554 C103.6569,142.3314 100.3039,143.1894 100.7519,139.4594 C101.1989,135.7344 102.0589,130.6514 103.0259,128.3194 C103.9949,125.9804 106.8599,126.5714 105.7649,131.5454 C105.7649,131.5454 104.5939,139.1154 104.0869,140.8554 M111.7629,127.7684 C112.0909,124.3484 109.0959,121.5024 106.2199,120.8714 C106.2199,120.8714 99.6849,119.3344 97.9829,126.0824 C96.2819,132.8294 95.3429,139.3164 95.3429,139.3164 C95.3429,139.3164 93.4279,146.5554 101.0349,148.0744 C101.0349,148.0744 107.4659,149.2984 108.8499,142.3664 C110.2329,135.4324 111.4349,131.1884 111.7629,127.7684" id="Fill-28" fill="#00BBE0"></path>
            <path d="M124.9218,144.4619 C124.4908,145.9389 121.1388,146.7959 121.5868,143.0659 C122.0338,139.3409 122.8928,134.2579 123.8608,131.9259 C124.8298,129.5869 127.6948,130.1779 126.5998,135.1519 C126.5998,135.1519 125.4288,142.7219 124.9218,144.4619 M132.5978,131.3749 C132.9258,127.9559 129.9308,125.1089 127.0548,124.4779 C127.0548,124.4779 120.5198,122.9409 118.8178,129.6889 C117.1168,136.4369 116.1768,142.9229 116.1768,142.9229 C116.1768,142.9229 114.2618,150.1619 121.8698,151.6809 C121.8698,151.6809 128.2998,152.9059 129.6838,145.9729 C131.0678,139.0399 132.2698,134.7959 132.5978,131.3749" id="Fill-30" fill="#00BBE0"></path>
            <path d="M142.4101,147.9521 C141.9801,149.4291 138.6271,150.2861 139.0751,146.5561 C139.5221,142.8311 140.3821,137.7481 141.3491,135.4161 C142.3181,133.0771 145.1831,133.6681 144.0881,138.6421 C144.0881,138.6421 142.9171,146.2131 142.4101,147.9521 M150.0861,134.8651 C150.4141,131.4461 147.4191,128.5991 144.5431,127.9681 C144.5431,127.9681 138.0081,126.4311 136.3061,133.1791 C134.6051,139.9271 133.6661,146.4131 133.6661,146.4131 C133.6661,146.4131 131.7511,153.6521 139.3591,155.1711 C139.3591,155.1711 145.7891,156.3961 147.1731,149.4631 C148.5561,142.5301 149.7581,138.2861 150.0861,134.8651" id="Fill-32" fill="#00BBE0"></path>
            <path d="M159.8994,151.4423 C159.4684,152.9193 156.1164,153.7763 156.5644,150.0463 C157.0104,146.3213 157.8704,141.2383 158.8374,138.9063 C159.8074,136.5673 162.6714,137.1583 161.5774,142.1323 C161.5774,142.1323 160.4064,149.7033 159.8994,151.4423 M167.5744,138.3563 C167.9024,134.9363 164.9084,132.0893 162.0324,131.4583 C162.0324,131.4583 155.4964,129.9213 153.7954,136.6693 C152.0944,143.4173 151.1544,149.9033 151.1544,149.9033 C151.1544,149.9033 149.2394,157.1423 156.8474,158.6613 C156.8474,158.6613 163.2774,159.8863 164.6614,152.9533 C166.0454,146.0203 167.2464,141.7763 167.5744,138.3563" id="Fill-34" fill="#00BBE0"></path>
            <path d="M113.7011,148.4755 C113.4651,149.6635 112.3081,150.4345 111.1201,150.1985 C109.9311,149.9605 109.1601,148.8045 109.3971,147.6165 C109.6351,146.4275 110.7901,145.6565 111.9791,145.8935 C113.1681,146.1305 113.9381,147.2875 113.7011,148.4755" id="Fill-36" fill="#00BBE0"></path>
            <path d="M65.6435,119.6162 C65.6435,119.6162 63.3035,122.5362 61.4775,120.2842 C59.6505,118.0312 60.5675,117.1712 63.3405,114.3202 C66.1145,111.4702 66.8675,108.1432 70.1795,109.2852 C73.4925,110.4272 71.5695,114.3342 70.3775,118.6992 C69.1875,123.0632 68.1905,132.6792 68.1905,132.6792 C68.1905,132.6792 71.8525,133.2122 71.7395,135.0182 C71.6255,136.8262 71.0025,139.1832 67.3955,138.3022 C63.7895,137.4212 60.2875,136.9482 59.1805,136.7202 C58.0735,136.4932 56.8585,131.0322 63.0455,131.4952 C63.0455,131.4952 62.9405,128.3872 65.6435,119.6162" id="Fill-38" fill="#FFFFFF"></path>
            <path d="M85.4756,133.4238 C85.0086,134.9728 81.4726,135.8428 81.9806,131.9218 C82.4876,128.0078 83.4406,122.6688 84.4816,120.2258 C85.5236,117.7748 88.5326,118.4238 87.3306,123.6468 C87.3306,123.6468 86.0266,131.5988 85.4756,133.4238 M93.6776,119.7318 C94.0556,116.1368 90.9336,113.1128 87.9136,112.4208 C87.9136,112.4208 81.0536,110.7408 79.1986,117.8228 C77.3436,124.9048 76.2906,131.7198 76.2906,131.7198 C76.2906,131.7198 74.2056,139.3178 82.1956,140.9878 C82.1956,140.9878 88.9486,142.3398 90.4706,135.0598 C91.9946,127.7788 93.2986,123.3258 93.6776,119.7318" id="Fill-40" fill="#FFFFFF"></path>
            <path d="M103.8398,137.2656 C103.3728,138.8146 99.8368,139.6846 100.3448,135.7636 C100.8518,131.8496 101.8048,126.5106 102.8458,124.0676 C103.8878,121.6166 106.8968,122.2656 105.6948,127.4886 C105.6948,127.4886 104.3898,135.4406 103.8398,137.2656 M112.0418,123.5736 C112.4198,119.9786 109.2968,116.9546 106.2778,116.2626 C106.2778,116.2626 99.4168,114.5826 97.5628,121.6646 C95.7068,128.7466 94.6548,135.5616 94.6548,135.5616 C94.6548,135.5616 92.5698,143.1596 100.5598,144.8296 C100.5598,144.8296 107.3118,146.1816 108.8348,138.9016 C110.3588,131.6206 111.6628,127.1676 112.0418,123.5736" id="Fill-42" fill="#FFFFFF"></path>
            <path d="M126.5508,141.4648 C126.0838,143.0128 122.5478,143.8828 123.0558,139.9628 C123.5628,136.0488 124.5158,130.7098 125.5568,128.2658 C126.5988,125.8158 129.6078,126.4648 128.4058,131.6868 C128.4058,131.6868 127.1018,139.6388 126.5508,141.4648 M134.7528,127.7718 C135.1308,124.1778 132.0078,121.1538 128.9888,120.4608 C128.9888,120.4608 122.1288,118.7818 120.2738,125.8628 C118.4188,132.9448 117.3658,139.7598 117.3658,139.7598 C117.3658,139.7598 115.2808,147.3578 123.2708,149.0288 C123.2708,149.0288 130.0238,150.3798 131.5458,143.0998 C133.0698,135.8188 134.3738,131.3658 134.7528,127.7718" id="Fill-44" fill="#FFFFFF"></path>
            <path d="M144.915,145.3056 C144.448,146.8546 140.912,147.7246 141.42,143.8046 C141.927,139.8906 142.88,134.5516 143.921,132.1076 C144.963,129.6576 147.972,130.3066 146.77,135.5286 C146.77,135.5286 145.465,143.4806 144.915,145.3056 M153.117,131.6136 C153.495,128.0196 150.372,124.9956 147.353,124.3026 C147.353,124.3026 140.492,122.6236 138.638,129.7046 C136.782,136.7866 135.73,143.6016 135.73,143.6016 C135.73,143.6016 133.645,151.1996 141.635,152.8696 C141.635,152.8696 148.387,154.2216 149.91,146.9416 C151.434,139.6606 152.738,135.2076 153.117,131.6136" id="Fill-46" fill="#FFFFFF"></path>
            <path d="M162.6718,149.4511 C162.2048,151.0001 158.6688,151.8701 159.1768,147.9501 C159.6838,144.0351 160.6368,138.6971 161.6778,136.2531 C162.7198,133.8031 165.7288,134.4521 164.5268,139.6741 C164.5268,139.6741 163.2218,147.6261 162.6718,149.4511 M170.8738,135.7591 C171.2518,132.1651 168.1288,129.1411 165.1098,128.4481 C165.1098,128.4481 158.2488,126.7681 156.3948,133.8501 C154.5388,140.9321 153.4868,147.7471 153.4868,147.7471 C153.4868,147.7471 151.4018,155.3451 159.3918,157.0151 C159.3918,157.0151 166.1438,158.3671 167.6668,151.0871 C169.1898,143.8061 170.4948,139.3531 170.8738,135.7591" id="Fill-48" fill="#FFFFFF"></path>
            <path d="M113.9511,146.5751 C113.7031,147.7621 112.5401,148.5221 111.3531,148.2741 C110.1671,148.0261 109.4061,146.8631 109.6551,145.6771 C109.9031,144.4901 111.0661,143.7291 112.2521,143.9771 C113.4381,144.2261 114.1991,145.3881 113.9511,146.5751" id="Fill-50" fill="#FFFFFF"></path>
            <path d="M197.959,150.3408 L191.403,140.2508 C189.942,138.6368 189.122,138.5278 187.07,139.3268 L176.735,146.0698 C176.006,146.7048 175.75,148.0698 177.59,148.4588 L180.387,149.0508 L178.187,159.2168 C177.926,160.4188 178.799,161.6278 180.135,161.9168 L188.194,163.6608 C189.53,163.9498 190.825,163.2108 191.085,162.0088 L193.298,151.7808 L196.271,152.4088 C198.099,152.7958 198.56,151.4078 197.959,150.3408" id="Fill-52" fill="#008CAF"></path>
            <path d="M197.4814,55.0458 C197.4814,55.0458 189.6744,53.2288 187.9094,60.2678 C185.8784,68.3578 191.5624,73.3908 191.5624,73.3908 C191.5624,73.3908 185.8704,71.0198 184.2544,77.8848 C182.2254,86.5138 187.0964,92.4458 187.0964,92.4458 C187.0964,92.4458 180.9134,91.0098 179.1804,97.2998 C177.1514,104.6698 181.8194,111.6808 181.8194,111.6808 C181.8194,111.6808 174.1044,110.4088 172.4824,115.2758 C168.8294,126.2418 179.3864,138.0118 186.4884,131.9948 C193.9134,125.7028 190.1674,117.2538 188.3404,116.1748 C188.3404,116.1748 194.0214,117.5668 196.7894,108.9838 C199.2254,101.4348 194.8094,97.2998 194.8094,97.2998 C194.8094,97.2998 201.5734,94.7828 202.1824,87.5928 C202.7914,80.4008 200.5644,78.2448 200.5644,78.2448 C200.5644,78.2448 207.3944,77.7048 208.8144,68.5368 C210.2354,59.3688 202.1834,55.7558 197.4814,55.0458" id="Fill-54" fill="#B45025"></path>
            <path d="M179.9023,112.3163 C179.7693,112.2603 179.6363,112.2023 179.8463,112.2953 C179.9593,112.3443 180.0713,112.3943 180.1823,112.4453 C180.3833,112.5363 180.5833,112.6293 180.7813,112.7273 C181.1563,112.9103 181.5263,113.1023 181.8913,113.3043 C182.6643,113.7313 183.4143,114.2003 184.1363,114.7083 C184.2973,114.8203 184.4573,114.9353 184.6143,115.0513 C184.7123,115.1243 184.8173,115.1923 184.9093,115.2723 C184.7993,115.1763 184.6923,115.1003 184.8663,115.2403 C185.2113,115.5163 185.5513,115.7963 185.8833,116.0883 C186.5473,116.6723 187.1753,117.2933 187.7733,117.9433 C188.4603,118.6903 189.8223,118.6913 190.5073,117.9433 C191.2413,117.1443 191.2403,116.0043 190.5073,115.2093 C187.8373,112.3033 184.5583,110.1073 180.9303,108.5873 C180.5023,108.4073 179.8213,108.5593 179.4403,108.7823 C179.0393,109.0163 178.6563,109.4763 178.5513,109.9383 C178.4383,110.4323 178.4633,110.9883 178.7463,111.4273 C179.0383,111.8803 179.4103,112.1103 179.9023,112.3163" id="Fill-56" fill="#000000"></path>
            <path d="M184.8222,93.3759 C186.6632,94.2859 188.4212,95.3549 190.0672,96.5819 C190.1582,96.6489 190.2492,96.7189 190.3402,96.7869 C190.1872,96.6739 190.2262,96.6969 190.3542,96.7989 C190.5552,96.9569 190.7562,97.1169 190.9542,97.2799 C191.3502,97.6059 191.7392,97.9409 192.1202,98.2849 C192.9032,98.9909 193.6492,99.7359 194.3642,100.5119 C195.0512,101.2579 196.4122,101.2599 197.0992,100.5119 C197.8322,99.7139 197.8322,98.5719 197.0992,97.7759 C194.1742,94.6009 190.6462,91.9499 186.7742,90.0369 C185.8692,89.5889 184.6392,89.7639 184.1292,90.7299 C183.6682,91.6039 183.8542,92.8969 184.8222,93.3759" id="Fill-58" fill="#000000"></path>
            <path d="M189.7724,73.7636 C190.0674,73.8816 190.3624,74.0006 190.6554,74.1226 C190.7714,74.1706 190.8994,74.2256 190.7094,74.1446 C190.8494,74.2046 190.9894,74.2656 191.1294,74.3256 C191.6204,74.5406 192.1064,74.7636 192.5874,74.9956 C193.5604,75.4656 194.5134,75.9786 195.4324,76.5466 C195.8624,76.8126 196.2854,77.0896 196.6994,77.3786 C196.9094,77.5256 197.1164,77.6746 197.3214,77.8256 C197.3124,77.8206 197.7154,78.1266 197.5364,77.9876 C197.3484,77.8426 197.7144,78.1296 197.7494,78.1576 C198.6524,78.8836 199.5054,79.6686 200.3254,80.4896 C201.0404,81.2066 202.3534,81.2586 203.0594,80.4896 C203.7694,79.7166 203.8234,78.5206 203.0594,77.7546 C201.3454,76.0356 199.4514,74.4836 197.3844,73.2066 C195.3054,71.9226 193.0644,70.9396 190.7994,70.0346 C189.8584,69.6586 188.6354,70.4446 188.4214,71.3846 C188.1674,72.5016 188.7634,73.3606 189.7724,73.7636" id="Fill-60" fill="#000000"></path>
            <path d="M31.9912,156.1845 C38.6322,152.3115 45.2732,148.4375 51.9142,144.5635 C53.9982,143.3485 52.1122,140.1065 50.0212,141.3265 C43.3812,145.1995 36.7392,149.0735 30.0982,152.9475 C28.0142,154.1625 29.9002,157.4045 31.9912,156.1845" id="Fill-62" fill="#FFD200"></path>
            <path d="M10.5,78.7324 C21.956,80.8254 33.411,82.9174 44.867,85.0094 C47.227,85.4404 48.238,81.8274 45.864,81.3934 C34.408,79.3004 22.953,77.2094 11.497,75.1164 C9.138,74.6854 8.126,78.2984 10.5,78.7324" id="Fill-64" fill="#FFD200"></path>
            <path d="M212.3857,141.6005 L231.7337,163.2535 C233.3447,165.0575 235.9897,162.3975 234.3847,160.6025 C227.9357,153.3845 221.4867,146.1665 215.0377,138.9495 C213.4267,137.1455 210.7817,139.8045 212.3857,141.6005" id="Fill-66" fill="#FFD200"></path>
            <path d="M227.207,131.6435 C232.511,134.4855 237.697,137.5395 242.754,140.7985 C243.605,141.3475 244.824,140.9725 245.319,140.1255 C245.851,139.2175 245.5,138.1105 244.646,137.5605 C239.59,134.3005 234.403,131.2475 229.101,128.4055 C226.974,127.2655 225.077,130.5015 227.207,131.6435" id="Fill-68" fill="#FFD200"></path>
            <path d="M239.3427,61.0156 C250.4467,56.6386 261.7267,52.7216 273.1537,49.2726 C275.4577,48.5776 274.4767,44.9556 272.1567,45.6566 C260.7307,49.1056 249.4497,53.0236 238.3457,57.4006 C237.4077,57.7696 236.7417,58.6576 237.0357,59.7056 C237.2867,60.6016 238.3927,61.3906 239.3427,61.0156" id="Fill-70" fill="#FFD200"></path>
            <path d="M20.956,122.2402 C27.191,121.6162 33.427,120.9922 39.661,120.3692 C40.669,120.2672 41.536,119.5792 41.536,118.4942 C41.536,117.5572 40.676,116.5172 39.661,116.6192 C33.427,117.2422 27.191,117.8662 20.956,118.4902 C19.948,118.5912 19.081,119.2802 19.081,120.3652 C19.081,121.3012 19.942,122.3422 20.956,122.2402" id="Fill-72" fill="#FFD200"></path>
            <mask id="mask-2" fill="white">
                <use xlink:href="#path-1"></use>
            </mask>
            <g id="Clip-76"></g>
            <polygon id="Fill-75" fill="#07A815" mask="url(#mask-2)" points="183.1562 -19.0001 258.6592 8.5469 231.1122 84.0499 155.6092 56.5029"></polygon>
            <mask id="mask-4" fill="white">
                <use xlink:href="#path-3"></use>
            </mask>
            <g id="Clip-79"></g>
            <polygon id="Fill-78" fill="#FFFFFF" mask="url(#mask-4)" points="188.9209 -5.4893 246.1779 15.4007 227.2219 67.3557 169.9649 46.4647"></polygon>
            <mask id="mask-6" fill="white">
                <use xlink:href="#path-5"></use>
            </mask>
            <g id="Clip-82"></g>
            <polygon id="Fill-81" fill="#EB2837" mask="url(#mask-6)" points="-1 13.9892 56.175 -1.1638 71.327 56.0102 14.153 71.1642"></polygon>
            <mask id="mask-8" fill="white">
                <use xlink:href="#path-7"></use>
            </mask>
            <g id="Clip-85"></g>
            <polygon id="Fill-84" fill="#FFFFFF" mask="url(#mask-8)" points="9.4013 22.4501 51.3293 11.3381 61.1783 48.5021 19.2513 59.6141"></polygon>
            <mask id="mask-10" fill="white">
                <use xlink:href="#path-9"></use>
            </mask>
            <g id="Clip-88"></g>
            <polygon id="Fill-87" fill="#DD1993" mask="url(#mask-10)" points="218.591 134.823 288.368 134.823 288.368 65.046 218.591 65.046"></polygon>
            <mask id="mask-12" fill="white">
                <use xlink:href="#path-11"></use>
            </mask>
            <g id="Clip-91"></g>
            <polygon id="Fill-90" fill="#FFFFFF" mask="url(#mask-12)" points="227.894 125.52 279.064 125.52 279.064 74.349 227.894 74.349"></polygon>
        </g>
    </g>
</svg>