<?xml version="1.0" encoding="UTF-8"?>
<svg width="313px" height="189px" viewBox="0 0 313 189" version="1.1" xmlns="http://www.w3.org/2000/svg" xmlns:xlink="http://www.w3.org/1999/xlink">
    <title>2016 milestones</title>
    <defs>
        <polygon id="path-1" points="0.795763149 0.064 22.6831 0.064 22.6831 40.2531 0.795763149 40.2531"></polygon>
    </defs>
    <g id="2016-milestones" stroke="none" stroke-width="1" fill="none" fill-rule="evenodd">
        <g transform="translate(11.000000, 6.000000)">
            <path d="M161.6147,9.3549 C123.0667,8.8919 81.5557,8.5059 44.7637,8.8709 C37.3927,8.9439 29.8547,9.1259 22.9527,11.7369 C14.2017,15.0479 7.0117,22.3349 3.7637,31.1859 C1.5967,37.0889 1.1457,43.4719 0.7417,49.7549 C-1.0363,77.4449 1.0397,109.0569 0.3037,136.7939 C0.0817,145.1899 0.0277,151.8059 4.2367,159.0479 C8.5167,166.4129 16.2667,171.9679 24.6237,173.2579 C43.7397,176.2099 69.9137,174.9129 88.3057,174.8449 C140.5307,174.6549 194.2307,177.2829 246.5387,176.5709 C254.0937,176.4669 261.7557,176.2769 268.9957,174.0929 C276.2357,171.9089 283.0417,166.7969 286.5857,160.0559 C289.7787,153.9839 290.0317,147.4729 290.0327,140.5969 C290.0387,109.3429 293.5417,78.0889 289.3337,47.1259 C288.2077,38.8369 286.7957,30.2229 281.9557,23.4339 C272.4137,10.0489 248.0237,8.4719 231.6997,8.1259 C207.4417,7.6119 185.8717,9.8699 161.6147,9.3549" id="Fill-1" fill="#701A70"></path>
            <path d="M255.0415,38.5736 L262.2465,55.0776 C262.2465,55.0776 257.1335,69.2566 261.5495,78.3216 C265.9665,87.3866 272.4745,92.9666 274.3345,96.4526 C276.1935,99.9396 275.2645,102.4966 273.6375,104.3556 C272.0095,106.2156 271.1155,108.5836 271.4465,111.1186 C271.7765,113.6536 268.9875,120.8596 264.5715,121.5566 C260.1545,122.2546 262.2465,124.3456 254.3445,126.2056 C246.4405,128.0646 239.4675,126.6706 235.2835,121.3246 C231.0995,115.9776 229.2395,112.7236 225.7535,112.9566 C222.2665,113.1886 215.7585,111.3296 211.3415,106.9126 C206.9255,102.4966 175.3125,98.0796 175.3125,98.0796 L176.4755,46.9416 L196.2325,28.8106 L214.3635,20.4436 L255.0415,38.5736 Z" id="Fill-4" fill="#F998C5"></path>
            <path d="M199.0317,30.0932 C183.8857,34.4202 170.8527,57.4722 173.3357,69.8812 C175.8167,82.2902 172.5087,91.3912 172.5087,91.3912 L119.3277,86.2182 C119.3277,86.2182 117.7907,79.8072 129.2637,71.1942 C134.4357,67.3102 143.6907,67.4932 143.6907,67.4932 C143.6907,67.4932 138.6727,66.5722 137.5517,60.6202 C137.1977,58.7442 137.5697,56.7202 138.1627,55.7172 C138.3917,55.3282 138.9527,55.3542 139.1677,55.7512 C140.2617,57.7792 143.7817,62.5612 152.7947,63.0422 C160.7617,63.4682 168.0947,54.2792 169.8507,46.2772 C171.6917,37.8902 171.3227,32.1222 178.0727,25.7812 C184.8227,19.4412 203.9687,19.1692 207.3857,25.6952 C212.5987,35.6462 201.9487,29.2592 199.0317,30.0932" id="Fill-6" fill="#CD007E"></path>
            <path d="M158.2163,83.2748 C70.3973,74.2358 24.9393,130.8368 6.6233,162.5148 C11.0883,168.1168 17.6403,172.1798 24.6233,173.2578 C43.7393,176.2108 69.9133,174.9128 88.3063,174.8448 C140.5303,174.6548 194.2313,177.2828 246.5383,176.5708 C254.0933,176.4668 261.7553,176.2768 268.9953,174.0928 C272.9763,172.8918 276.8203,170.8018 280.0693,168.0478 C279.7293,148.4808 268.5873,94.6358 158.2163,83.2748" id="Fill-8" fill="#F998C5"></path>
            <path d="M244.4838,35.3959 C244.4838,35.3959 251.5008,22.3489 250.9608,13.3579 C250.5978,7.3339 250.3918,3.3329 248.6098,3.2269 C246.8268,3.1229 235.2158,10.4919 231.7548,21.0909 C229.2598,28.7359 229.5538,43.7369 229.5538,43.7369 L244.4838,35.3959 Z" id="Fill-10" fill="#F998C5"></path>
            <path d="M244.5581,11.3226 C241.2591,13.0206 239.0931,16.3586 238.6621,20.0096 C238.5841,20.6606 239.2911,21.2866 239.9121,21.2596 C240.6551,21.2256 241.0791,20.7076 241.1621,20.0096 C241.2041,19.6506 241.1301,20.1516 241.1701,19.9476 C241.1881,19.8546 241.2011,19.7606 241.2181,19.6686 C241.2521,19.4826 241.2931,19.2986 241.3391,19.1156 C241.4311,18.7496 241.5451,18.3876 241.6791,18.0356 C241.6871,18.0146 241.8291,17.6746 241.7241,17.9146 C241.7541,17.8446 241.7851,17.7756 241.8171,17.7076 C241.8961,17.5356 241.9801,17.3666 242.0691,17.1996 C242.2551,16.8486 242.4621,16.5096 242.6881,16.1826 C242.7431,16.1056 242.7981,16.0296 242.8531,15.9526 C242.9861,15.7666 242.8131,15.9986 242.9001,15.8896 C243.0181,15.7436 243.1391,15.5976 243.2651,15.4576 C243.5171,15.1766 243.7851,14.9086 244.0681,14.6576 C244.1381,14.5936 244.2091,14.5326 244.2821,14.4716 C244.3031,14.4546 244.5361,14.2626 244.4191,14.3566 C244.3041,14.4496 244.5411,14.2656 244.5641,14.2496 C244.6411,14.1936 244.7181,14.1396 244.7961,14.0866 C245.1241,13.8626 245.4661,13.6626 245.8201,13.4806 C246.4021,13.1806 246.6211,12.3166 246.2681,11.7706 C245.8851,11.1766 245.1811,11.0016 244.5581,11.3226" id="Fill-12" fill="#000000"></path>
            <path d="M206.9038,26.8842 C206.9038,26.8842 212.0648,22.6022 216.5058,26.8422 C219.6298,29.8252 220.0778,33.6202 222.8818,37.7222 C225.6978,41.8452 231.8158,43.1582 231.9978,42.1892 C232.0798,41.7512 230.8568,41.4012 229.4528,37.8862 C228.5298,35.5762 228.8878,32.2072 229.5508,33.7012 C230.3288,35.4482 234.0178,45.9352 245.6698,47.4882 C245.6698,47.4882 249.6718,58.6802 263.9238,61.2102 C273.1888,62.8562 275.2208,57.2262 275.5118,55.0982 C275.5578,54.7632 275.2278,54.4942 274.9158,54.6212 C273.6498,55.1372 270.7188,55.7122 267.5148,52.0712 C263.2428,47.2162 262.9208,31.0722 249.4058,19.9552 C237.8408,10.4432 221.1818,8.1232 210.7938,17.1572 C200.4938,26.1142 206.9038,26.8842 206.9038,26.8842" id="Fill-14" fill="#CD007E"></path>
            <path d="M214.6293,55.1449 C214.5483,55.3419 214.6723,55.0779 214.6993,55.0289 C214.7753,54.8969 214.8433,54.7629 214.9213,54.6329 C215.0193,54.4719 215.1223,54.3119 215.2353,54.1599 C215.4553,53.8649 215.0923,54.3239 215.3353,54.0439 C215.7693,53.5469 216.1363,53.2079 216.5683,52.9209 C217.6503,52.2029 218.7413,51.8089 220.0923,51.7459 C221.3673,51.6849 222.8463,51.9429 223.8403,52.4099 C224.3803,52.6639 224.9993,53.0409 225.3123,53.3219 C225.8583,53.8139 226.0483,54.0599 226.3823,54.7279 C226.8863,55.7379 228.3133,56.0209 229.2403,55.4779 C230.2693,54.8759 230.4963,53.6319 229.9903,52.6199 C228.1933,49.0229 223.6523,47.2989 219.8183,47.5829 C215.7183,47.8869 212.1863,50.2089 210.6003,54.0349 C210.1673,55.0779 211.0673,56.3319 212.0593,56.6049 C213.2613,56.9349 214.1953,56.1919 214.6293,55.1449" id="Fill-16" fill="#000000"></path>
            <path d="M245.5463,53.2875 C246.1133,52.2765 246.8533,51.5185 247.7863,50.9455 C248.0703,50.7705 248.3633,50.6165 248.6623,50.4715 C248.7933,50.4115 248.7973,50.4075 248.6723,50.4575 C248.7413,50.4315 248.8113,50.4035 248.8793,50.3775 C249.0193,50.3265 249.1583,50.2755 249.3003,50.2305 C250.0443,49.9925 250.4653,49.9175 251.0403,49.8925 C252.2483,49.8425 253.3663,50.0815 254.3463,50.5895 C254.6433,50.7435 254.9213,50.9245 255.2063,51.0995 C255.2573,51.1315 255.4863,51.2945 255.3173,51.1655 C255.4623,51.2745 255.5993,51.3995 255.7343,51.5215 C256.3113,52.0505 256.5173,52.3285 256.8373,52.8625 C257.4173,53.8295 258.7143,54.1865 259.6963,53.6125 C260.6643,53.0465 261.0283,51.7255 260.4453,50.7535 C258.5203,47.5435 254.7833,45.5585 251.0403,45.7145 C247.3373,45.8695 243.7653,47.9225 241.9383,51.1785 C241.3853,52.1615 241.7013,53.4605 242.6873,54.0365 C243.6513,54.6005 244.9913,54.2735 245.5463,53.2875" id="Fill-18" fill="#000000"></path>
            <path d="M268.3266,87.6595 C265.1376,83.5295 263.6856,78.2425 263.2076,73.1175 C262.7106,67.7985 263.6406,62.4345 262.8016,57.1405 C262.6386,56.1085 261.3486,55.5355 260.4226,55.7905 C259.3226,56.0935 258.9076,57.1345 259.0716,58.1695 C259.7406,62.3855 258.9806,66.7165 259.1876,70.9585 C259.4306,75.9525 260.3646,80.9345 262.5076,85.4795 C263.5786,87.7535 265.0056,89.8595 266.7146,91.7035 C268.4206,93.5445 270.4796,95.1315 271.8946,97.2235 C273.0886,98.9875 274.1116,101.5135 272.6876,103.4435 C272.0886,104.2555 271.2156,104.6775 270.4946,105.3455 C269.4306,106.3295 269.2426,107.6195 269.3366,108.9985 C269.5156,111.6025 270.2396,114.5835 268.1616,116.6205 C266.3026,118.4435 263.1356,119.2865 260.6176,119.5785 C260.2036,119.6265 259.8136,119.7685 259.4926,119.9895 C259.2856,120.0915 259.0846,120.2385 258.8966,120.4525 C255.3286,124.5405 249.4956,125.8175 244.3556,124.3795 C238.7546,122.8125 234.4316,118.4135 231.6526,113.4585 C231.4686,113.1305 231.2326,112.9055 230.9736,112.7525 C230.6676,112.3025 230.1766,111.9715 229.4856,111.9325 C222.2566,111.5345 215.4416,108.1355 210.6546,102.7275 C209.0016,100.8605 206.2746,103.6035 207.9206,105.4625 C213.1666,111.3895 220.6396,115.0365 228.4956,115.7215 C231.8186,121.4965 237.0926,126.5135 243.6766,128.2025 C249.9206,129.8055 257.1156,128.2185 261.4986,123.3285 C266.3556,122.6075 272.1926,120.4155 273.2566,115.0945 C273.5476,113.6385 273.4656,112.1615 273.3476,110.6945 C273.2916,109.9895 273.2006,109.2805 273.1756,108.5745 C273.1516,107.9145 273.2966,108.0535 273.8516,107.6325 C275.8886,106.0925 277.2316,103.9195 277.242677,101.3135 C277.2666,95.1805 271.6586,91.9725 268.3266,87.6595" id="Fill-20" fill="#000000"></path>
            <path d="M260.1362,62.8617 C261.9072,61.4287 262.0352,55.8727 252.8952,56.3877 C246.2552,56.7607 243.4082,58.9137 244.0682,62.4677 C244.5972,65.3277 249.4942,64.3447 252.9932,64.0827 C256.4572,63.8217 258.5222,64.1677 260.1362,62.8617" id="Fill-22" fill="#FFFFFF"></path>
            <path d="M213.0102,67.9125 C211.2952,67.0065 210.5512,60.7415 220.8862,59.0905 C228.3942,57.8905 233.1782,59.7725 231.5232,64.3465 C230.5222,67.1115 226.5342,66.9475 222.5692,67.5085 C218.6422,68.0615 215.6872,69.3275 213.0102,67.9125" id="Fill-24" fill="#FFFFFF"></path>
            <path d="M214.6127,68.3353 C218.3307,68.3353 218.3367,62.5573 214.6127,62.5573 C210.8947,62.5573 210.8877,68.3353 214.6127,68.3353" id="Fill-26" fill="#000000"></path>
            <path d="M246.6303,64.4242 C250.3483,64.4242 250.3543,58.6472 246.6303,58.6472 C242.9123,58.6472 242.9063,64.4242 246.6303,64.4242" id="Fill-28" fill="#000000"></path>
            <path d="M256.6069,118.2123 C246.5529,118.8603 237.4399,112.3253 234.8979,102.5773 C236.2509,101.8913 237.4219,100.8663 238.2899,99.5673 C238.6639,99.0063 238.3989,98.1843 237.8399,97.8573 C237.2269,97.4993 236.5059,97.7433 236.1299,98.3063 C235.1389,99.7923 233.4309,100.8543 231.6389,101.0083 C229.6939,101.1763 227.8159,100.4033 226.4959,98.9823 C225.3979,97.8003 223.6329,99.5713 224.7269,100.7493 C226.5049,102.6633 229.2009,103.7553 231.8149,103.4913 C232.0569,103.4683 232.2929,103.4233 232.5289,103.3793 C235.3819,114.0683 245.5269,121.4273 256.6069,120.7123 C258.2049,120.6083 258.2149,118.1083 256.6069,118.2123" id="Fill-30" fill="#000000"></path>
            <path d="M271.1528,102.39 C271.1378,102.067 271.0318,101.732 270.7868,101.506 C270.5568,101.296 270.2248,101.105 269.9028,101.14 C269.1728,101.22 268.5278,101.394 267.8638,101.714 C267.3118,101.98 266.7988,102.361 266.3618,102.787 C265.9248,103.214 265.5378,103.723 265.2588,104.267 C264.9228,104.925 264.7488,105.57 264.6508,106.296 C264.6118,106.589 264.8188,106.982 265.0178,107.18 C265.2348,107.397 265.5908,107.56 265.9008,107.546 C266.2248,107.532 266.5598,107.425 266.7858,107.18 C266.8498,107.096 266.9158,107.011 266.9808,106.927 C267.0478,106.812 267.0888,106.69 267.1158,106.564 C267.1608,106.264 267.2438,105.974 267.3478,105.691 C267.4648,105.444 267.6008,105.209 267.7568,104.986 C267.9728,104.72 268.2148,104.479 268.4798,104.262 C268.7038,104.107 268.9378,103.97 269.1848,103.854 C269.4888,103.741 269.7988,103.654 270.1218,103.609 C270.0868,103.614 270.0498,103.619 270.0138,103.623 C270.3068,103.58 270.5628,103.497 270.7868,103.275 C271.0038,103.058 271.1668,102.702 271.1528,102.39" id="Fill-32" fill="#000000"></path>
            <path d="M248.4448,104.4134 C249.1408,104.5724 249.7548,104.2034 249.9828,103.5404 C249.9838,103.5374 249.9838,103.5364 249.9848,103.5334 C249.9888,103.5304 249.9898,103.5304 249.9948,103.5244 C250.0828,103.4254 250.1118,103.3854 249.9978,103.4994 C250.0538,103.4424 250.1178,103.3844 250.1728,103.3254 C250.1738,103.3234 250.1718,103.3254 250.1728,103.3234 C250.1828,103.3194 250.1808,103.3214 250.1978,103.3134 C250.2108,103.3084 250.2598,103.2804 250.3018,103.2554 C250.3488,103.2374 250.4258,103.2064 250.4468,103.2004 C250.4618,103.1964 250.5468,103.1804 250.5958,103.1694 C250.6568,103.1684 250.7748,103.1614 250.7938,103.1614 C250.8138,103.1624 250.9468,103.1764 251.0008,103.1794 C251.0648,103.1944 251.1898,103.2234 251.1848,103.2224 C251.2848,103.2474 251.3818,103.2804 251.4788,103.3134 C251.5028,103.3224 251.5158,103.3264 251.5238,103.3284 C251.5408,103.3374 251.5528,103.3434 251.5768,103.3544 C251.7428,103.4384 251.9048,103.5284 252.0618,103.6284 C252.1368,103.6774 252.2088,103.7314 252.2838,103.7794 C252.2928,103.7844 252.2948,103.7854 252.2998,103.7884 C252.3098,103.7974 252.3148,103.8024 252.3288,103.8124 C252.6028,104.0464 252.8578,104.2964 253.0938,104.5674 C253.1418,104.6224 253.1878,104.6784 253.2348,104.7334 C253.2568,104.7594 253.2688,104.7724 253.2808,104.7864 C253.2898,104.7994 253.2958,104.8064 253.3078,104.8234 C253.4058,104.9564 253.5018,105.0914 253.5928,105.2274 C254.0158,105.8524 254.3818,106.5154 254.7398,107.1784 C255.0508,107.7534 255.8948,107.9834 256.4498,107.6264 C257.0348,107.2494 257.2318,106.5324 256.8988,105.9164 C255.9888,104.2354 254.9728,102.5234 253.3238,101.4704 C252.3358,100.8384 251.1388,100.5154 249.9748,100.7454 C248.8438,100.9694 247.9438,101.8004 247.5718,102.8764 C247.3578,103.4954 247.8158,104.2704 248.4448,104.4134" id="Fill-34" fill="#000000"></path>
            <path d="M237.2436,32.4555 C236.7936,30.9705 237.1936,29.3635 238.2916,28.2665 C243.8426,22.7195 263.7596,1.9285 265.1876,2.7225 C266.7986,3.6155 254.5146,29.4315 251.0266,36.6755 C250.4016,37.9745 249.1316,38.8315 247.6936,38.9195 C245.7606,39.0375 242.9916,38.8095 240.6086,37.1005 C238.6276,35.6785 237.6856,33.9145 237.2436,32.4555" id="Fill-36" fill="#FFD200"></path>
            <path d="M245.1118,22.0453 C245.0878,21.8473 244.9908,21.6983 244.8668,21.5883 C244.5078,21.9523 244.1558,22.3113 243.8108,22.6613 C244.5938,27.5783 247.2018,32.3913 250.8818,35.7223 C251.0438,35.8693 251.2238,35.9193 251.3958,35.9063 C251.5598,35.5663 251.7398,35.1903 251.9278,34.7953 C251.9088,34.7733 251.9018,34.7473 251.8778,34.7263 C248.3428,31.5243 245.7168,26.7973 245.1118,22.0453" id="Fill-38" fill="#FFA800"></path>
            <path d="M249.7055,16.6908 C250.5525,20.7098 252.4725,24.5058 255.4335,27.3778 C255.6425,26.9298 255.8525,26.4768 256.0655,26.0178 C253.3025,23.1638 251.5415,19.3998 250.9085,15.4838 C250.5065,15.8858 250.1055,16.2888 249.7055,16.6908" id="Fill-40" fill="#FFA800"></path>
            <path d="M255.2622,11.1723 C256.0002,14.0893 257.3062,16.8553 259.1782,19.2013 C259.3962,18.7163 259.6122,18.2343 259.8252,17.7523 C258.1522,15.4783 256.9962,12.8213 256.4092,10.0563 C256.0322,10.4213 255.6502,10.7943 255.2622,11.1723" id="Fill-42" fill="#FFA800"></path>
            <path d="M260.9633,5.7787 C260.6063,6.0997 260.2313,6.4427 259.8413,6.8017 C260.4263,8.6537 261.2353,10.4247 262.2923,12.0467 C262.5193,11.5057 262.7343,10.9817 262.9423,10.4707 C262.0803,9.0037 261.4293,7.4177 260.9633,5.7787" id="Fill-44" fill="#FFA800"></path>
            <path d="M239.3305,27.2201 C238.9465,27.6081 238.5945,27.9631 238.2915,28.2661 C238.2365,28.3211 238.1905,28.3821 238.1405,28.4401 C238.7525,31.9261 240.1425,35.2861 242.3275,38.0631 C243.1825,38.4331 244.0435,38.6571 244.8725,38.7861 C241.7955,35.7331 239.8875,31.5751 239.3495,27.2891 C239.3465,27.2641 239.3355,27.2431 239.3305,27.2201" id="Fill-46" fill="#FFA800"></path>
            <g id="Group-50" transform="translate(193.000000, 0.936000)">
                <mask id="mask-2" fill="white">
                    <use xlink:href="#path-1"></use>
                </mask>
                <g id="Clip-49"></g>
                <path d="M22.6831,26.1601 C22.6831,26.1601 21.8371,14.9461 14.0151,7.1181 C9.7181,2.8191 6.4961,-0.8009 4.9461,0.2461 C3.3951,1.2921 -1.6159,14.4041 2.1961,24.8831 C4.9441,32.4391 8.5291,40.2531 8.5291,40.2531 L22.6831,26.1601 Z" id="Fill-48" fill="#F998C5" mask="url(#mask-2)"></path>
            </g>
            <path d="M197.0571,30.8129 C198.4721,35.4519 199.8801,44.0889 196.2031,50.7299 C192.6281,57.1869 181.2581,60.6659 173.7431,57.2409 C166.4241,53.9079 174.6841,46.5649 178.5401,39.9449 C181.5211,34.8299 187.8021,25.6519 192.3701,25.3239 C193.7121,25.2269 196.6541,29.4919 197.0571,30.8129" id="Fill-51" fill="#CD007E"></path>
            <path d="M200.4145,12.7074 C198.3365,18.3224 199.9415,25.0084 204.2825,29.1144 C205.4505,30.2204 207.2225,28.4554 206.0505,27.3474 C202.3035,23.8024 201.0395,18.1974 202.8245,13.3724 C203.3845,11.8604 200.9695,11.2094 200.4145,12.7074" id="Fill-53" fill="#000000"></path>
            <path d="M111.1645,150.2543 C111.1645,150.2543 99.1685,156.1123 92.1935,161.4133 C88.7485,164.0313 81.9675,170.2333 77.1555,174.9783 C81.0835,174.9143 84.8335,174.8583 88.3065,174.8453 C91.8975,174.8323 95.4995,174.8343 99.1045,174.8463 C100.2295,171.4973 102.5165,165.3183 104.7475,161.1343 C108.4635,154.1673 111.1645,150.2543 111.1645,150.2543" id="Fill-55" fill="#701A70"></path>
            <path d="M109.4799,31.0277 C108.9299,31.1327 108.4019,31.2827 107.8829,31.4527 C107.3389,31.4867 106.7929,31.5447 106.2439,31.6497 C68.8899,38.8337 44.3439,75.0687 51.5289,112.4227 C56.9149,140.4277 78.5009,161.9317 106.5219,167.2077 C108.1789,167.5177 109.8229,167.5027 111.3829,167.2017 C116.4749,166.2227 120.6979,162.2327 121.7149,156.8277 C123.0439,149.7657 118.3969,142.9647 111.3349,141.6337 C93.8819,138.3487 80.4359,124.9537 77.0819,107.5077 C72.6069,84.2437 87.8939,61.6767 111.1579,57.2027 C111.7079,57.0967 112.2359,56.9477 112.7539,56.7777 C113.2979,56.7437 113.8449,56.6857 114.3939,56.5807 C137.6589,52.1067 160.2249,67.3927 164.6989,90.6587 C168.0539,108.1027 160.5359,125.5297 145.5449,135.0547 C139.4809,138.9087 137.6879,146.9507 141.5419,153.0147 C144.4919,157.6567 149.8919,159.7967 154.9849,158.8167 C156.5449,158.5157 158.0779,157.9227 159.5009,157.0187 C183.5669,141.7257 195.6379,113.7497 190.2519,85.7437 C183.0689,48.3887 146.8339,23.8427 109.4799,31.0277" id="Fill-57" fill="#005209"></path>
            <path d="M148.728,93.6332 C145.982,79.3522 132.178,70.0022 117.897,72.7482 C103.617,75.4942 94.266,89.2982 97.012,103.5792 C99.758,117.8602 113.562,127.2102 127.843,124.4642 C142.124,121.7182 151.474,107.9142 148.728,93.6332" id="Fill-59" fill="#005209"></path>
            <path d="M116.3569,26.4105 C115.8079,26.5165 115.2799,26.6665 114.7609,26.8355 C114.2169,26.8705 113.6699,26.9285 113.1209,27.0335 C75.7669,34.2175 51.2219,70.4515 58.4059,107.8055 C63.7919,135.8115 85.3779,157.3145 113.3999,162.5905 C115.0569,162.9015 116.6999,162.8855 118.2599,162.5855 C123.3519,161.6055 127.5749,157.6165 128.5919,152.2115 C129.9219,145.1495 125.2749,138.3485 118.2129,137.0175 C100.7589,133.7315 87.3139,120.3375 83.9589,102.8915 C79.4849,79.6275 94.7709,57.0595 118.0359,52.5865 C118.5849,52.4805 119.1139,52.3315 119.6309,52.1615 C120.1749,52.1265 120.7219,52.0695 121.2719,51.9645 C144.5359,47.4895 167.1019,62.7765 171.5769,86.0415 C174.9309,103.4865 167.4129,120.9135 152.4219,130.4385 C146.3579,134.2925 144.5649,142.3335 148.4189,148.3975 C151.3689,153.0405 156.7689,155.1795 161.8619,154.1995 C163.4219,153.8995 164.9559,153.3055 166.3779,152.4015 C190.4449,137.1085 202.5149,109.1325 197.1289,81.1275 C189.9459,43.7725 153.7109,19.2265 116.3569,26.4105" id="Fill-61" fill="#00AE00"></path>
            <path d="M153.8042,89.5648 C151.0582,75.2838 137.2542,65.9328 122.9732,68.6788 C108.6922,71.4258 99.3422,85.2288 102.0882,99.5098 C104.8342,113.7918 118.6382,123.1418 132.9192,120.3948 C147.2002,117.6488 156.5502,103.8448 153.8042,89.5648" id="Fill-63" fill="#00AE00"></path>
            <path d="M71.6176,57.4476 C71.6176,57.4476 82.1086,59.9496 84.7236,59.1946 C87.3396,58.4386 81.6686,46.0826 81.6686,46.0826 C81.6686,46.0826 88.7386,26.8466 72.0506,12.6646 C55.3616,-1.5204 22.9636,10.9656 24.5466,38.1206 C28.9126,71.3066 61.5656,68.8096 71.6176,57.4476" id="Fill-65" fill="#FFB000"></path>
            <path d="M59.4057,30.0717 C59.0547,29.8847 58.6787,29.7167 58.3617,29.4747 C58.4597,29.5497 58.1547,29.2767 58.1507,29.2727 C58.2617,29.3987 58.0387,29.0107 58.0257,29.0417 C58.0077,28.9597 57.9717,28.8067 57.9627,28.7997 C57.9577,28.7067 57.9547,28.6137 57.9587,28.5207 C57.9687,28.3317 57.9727,28.3007 57.9687,28.4267 C57.9767,28.3877 58.1017,27.9867 58.0307,28.1597 C58.0647,28.0777 58.3217,27.6987 58.2537,27.7807 C58.5017,27.4857 58.5967,27.4347 58.9167,27.2627 C59.1347,27.1467 59.0577,27.1837 59.2457,27.1267 C59.3077,27.1067 59.8347,26.9877 59.6567,27.0107 C60.4607,26.9097 61.1567,26.3937 61.1567,25.5107 C61.1567,24.7787 60.4667,23.9077 59.6567,24.0107 C57.7147,24.2567 55.9427,25.2437 55.2217,27.1547 C54.5217,29.0127 55.2467,30.9677 56.8477,32.0657 C57.4787,32.4977 58.2037,32.7707 58.8227,33.2237 C58.9337,33.3047 59.2647,33.5917 59.4347,33.8247 C59.3017,33.6397 59.5467,34.1037 59.5437,34.0487 C59.5587,34.0957 59.5787,34.1597 59.5937,34.2087 C59.5867,34.3377 59.5887,34.3837 59.5997,34.3567 C59.5877,34.4157 59.5727,34.4737 59.5547,34.5327 C59.5417,34.5387 59.4267,34.7877 59.4187,34.8007 C59.5027,34.6737 59.2387,35.0027 59.1857,35.0507 C59.1377,35.0937 59.0847,35.1477 58.9007,35.2427 C58.3177,35.5407 57.5557,35.5167 56.9247,35.3977 C56.1297,35.2467 55.3057,35.6187 55.0787,36.4447 C54.8777,37.1767 55.3267,38.1377 56.1267,38.2907 C58.0557,38.6557 60.2237,38.4677 61.5847,36.8787 C62.9657,35.2667 62.8337,33.1377 61.4507,31.5797 C60.8897,30.9467 60.1467,30.4667 59.4057,30.0717" id="Fill-67" fill="#FFFFFF"></path>
            <path d="M71.4086,23.8881 C71.1516,23.0951 70.3806,22.6411 69.5626,22.8391 C67.3526,23.3761 65.0896,23.6261 62.8796,24.1621 C62.1166,24.3481 61.5876,25.2531 61.8316,26.0071 C62.0886,26.8001 62.8586,27.2531 63.6766,27.0561 C64.1616,26.9381 64.6506,26.8371 65.1386,26.7421 C65.5676,29.4761 65.9996,32.2091 66.4276,34.9441 C66.5486,35.7221 67.5616,36.2211 68.2716,35.9921 C69.1176,35.7181 69.4496,34.9801 69.3196,34.1461 C68.9056,31.4981 68.4876,28.8511 68.0726,26.2021 C68.8386,26.0641 69.6026,25.9161 70.3606,25.7331 C71.1236,25.5471 71.6526,24.6421 71.4086,23.8881" id="Fill-69" fill="#FFFFFF"></path>
            <path d="M55.143,46.6029 C53.354,46.7139 51.562,46.8949 49.794,47.2069 C48.391,38.1639 46.539,29.1969 45.175,20.1459 C44.938,18.5709 42.701,18.8779 42.283,20.1459 C41.302,23.1189 40.142,25.9929 37.708,28.0759 C36.24,29.3329 38.371,31.4469 39.83,30.1969 C41.223,29.0039 42.268,27.5659 43.107,26.0009 C44.333,33.2959 45.742,40.5599 46.879,47.8699 C45.196,48.3469 43.562,48.9749 41.965,49.7029 C41.228,50.0389 41.047,51.1069 41.427,51.7549 C41.87,52.5119 42.739,52.6299 43.479,52.2919 C47.185,50.6049 51.099,49.8549 55.143,49.6029 C55.952,49.5519 56.643,48.9499 56.643,48.1029 C56.643,47.3299 55.955,46.5519 55.143,46.6029" id="Fill-71" fill="#FFFFFF"></path>
            <path d="M84.0346,160.2269 C84.0346,160.2269 87.9366,157.4849 87.1806,150.3019 C86.6966,145.7039 83.0656,143.7669 83.0656,143.7669 C83.0656,143.7669 86.9386,139.4099 86.2136,132.8729 C85.5576,126.9759 81.8556,124.8859 81.8556,124.8859 C81.8556,124.8859 90.3846,118.8379 82.5816,109.3939 C77.9826,103.8259 59.5856,103.8259 59.5856,103.8259 C59.5856,103.8259 60.8686,95.5699 59.5376,89.1889 C58.2586,83.0559 54.3846,76.0449 47.3456,72.8529 C38.8456,68.9979 30.4306,75.7149 34.5956,83.0009 C38.4416,89.7329 39.2526,99.4689 36.1046,104.5519 C32.9586,109.6349 30.7796,107.2149 17.4666,124.1599 C9.0046,134.9299 6.2176,150.6779 5.3066,160.7319 C9.7366,167.2479 16.9186,172.0689 24.6236,173.2579 C43.2706,176.1379 68.6146,174.9769 86.9206,174.8559 C87.7456,172.6839 88.3186,169.9679 87.6656,167.2479 C86.2136,161.1959 84.0346,160.2269 84.0346,160.2269" id="Fill-73" fill="#F998C5"></path>
            <path d="M88.8393,166.7728 C88.4043,164.2988 87.2193,161.8168 84.9343,160.6768 C86.0683,159.5368 87.0723,158.2748 87.7913,156.8368 C90.2093,151.9958 88.6293,146.1158 84.2253,143.0218 C84.1213,142.9498 84.0203,142.9018 83.9183,142.8658 C84.1573,142.6048 84.3913,142.3358 84.6093,142.0438 C88.3913,136.9718 87.3713,130.2048 83.6103,125.4608 C83.5943,125.4428 83.5783,125.4308 83.5633,125.4138 C85.4413,122.7938 86.6773,119.6558 86.5913,116.4048 C86.4913,112.6378 84.4533,109.4598 81.2633,107.5268 C78.1903,105.6648 74.4893,104.8738 70.9813,104.3138 C67.0353,103.6848 63.0393,103.3858 59.0473,103.2608 C54.5453,103.1198 50.0303,103.1998 45.5383,103.5488 C43.9443,103.6728 43.9323,106.1738 45.5383,106.0488 C52.6343,105.4968 59.8373,105.5298 66.9173,106.2808 C70.1283,106.6208 73.3643,107.1338 76.4453,108.1208 C79.5663,109.1198 82.7483,110.9098 83.7483,114.2498 C84.8083,117.7908 83.3813,121.6768 81.1523,124.4918 C74.5933,126.1778 68.0333,127.8648 61.4743,129.5498 C59.9173,129.9508 60.5763,132.3628 62.1393,131.9598 C68.5463,130.3138 74.9533,128.6678 81.3603,127.0208 C81.4893,127.0708 81.6233,127.1048 81.7603,127.1028 C81.7873,127.1448 81.8093,127.1878 81.8423,127.2298 C85.1473,131.3978 85.6603,137.7278 81.6613,141.6478 C79.6733,143.5948 76.7723,144.5758 74.2893,145.7248 C71.3423,147.0878 68.3963,148.4528 65.4493,149.8158 C63.9903,150.4908 65.2593,152.6458 66.7113,151.9738 C70.1003,150.4058 73.4883,148.8368 76.8773,147.2698 C78.8243,146.3688 80.7583,145.4938 82.4163,144.2218 C82.4403,144.5758 82.6003,144.9258 82.9633,145.1808 C86.7673,147.8528 87.4053,153.0408 84.9203,156.8038 C83.6273,158.7608 81.7533,160.3238 79.8913,161.7158 C77.6793,163.3728 75.3393,164.8438 72.9063,166.1518 C71.4883,166.9148 72.7503,169.0738 74.1683,168.3108 C76.9943,166.7918 79.6793,165.0428 82.2083,163.0678 C82.4613,162.8708 82.7133,162.6678 82.9633,162.4618 C83.0903,162.5798 83.2503,162.6748 83.4483,162.7388 C85.4773,163.3858 86.1673,165.7888 86.4663,167.6588 C86.8463,170.0368 86.3993,172.2188 85.0563,174.2178 C84.1563,175.5578 86.3203,176.8098 87.2143,175.4798 C88.9893,172.8368 89.3833,169.8678 88.8393,166.7728" id="Fill-75" fill="#000000"></path>
            <path d="M28.7983,78.3959 C29.4823,78.3959 30.1733,77.9369 30.1743,77.0599 L30.1763,72.4429 C30.1763,71.5649 29.4843,71.1059 28.8003,71.1049 C28.4453,71.1049 28.1123,71.2229 27.8633,71.4369 C27.5763,71.6829 27.4253,72.0309 27.4243,72.4419 L27.4223,77.0589 C27.4223,77.4689 27.5733,77.8169 27.8613,78.0639 C28.1103,78.2779 28.4433,78.3959 28.7983,78.3959" id="Fill-77" fill="#FFFFFF"></path>
            <path d="M24.4721,80.2689 L19.8471,80.2009 C19.3691,80.1929 18.9791,80.3969 18.7531,80.7739 C18.5001,81.1969 18.5031,81.7889 18.7591,82.2469 C19.0031,82.6849 19.4391,82.9409 19.9531,82.9489 L24.5781,83.0169 C24.6131,83.0179 24.6481,83.0169 24.6811,83.0149 C25.1141,82.9939 25.4631,82.7919 25.6721,82.4429 C25.9241,82.0209 25.9221,81.4289 25.6661,80.9709 C25.4221,80.5329 24.9871,80.2769 24.4721,80.2689" id="Fill-79" fill="#FFFFFF"></path>
            <path d="M38.521,80.2269 L33.768,80.2248989 C32.89,80.2239 32.4309984,80.9159 32.4309984,81.5999 C32.43,82.2839 32.889,82.9749 33.767,82.9759 L38.52,82.9779011 C39.398,82.9789 39.857,82.2869 39.858,81.6029 C39.858,80.9189 39.399,80.2279 38.521,80.2269" id="Fill-81" fill="#FFFFFF"></path>
            <path d="M29.8764,84.8109 C29.4234,84.5909 28.8294,84.5869 28.4004,84.8009 C28.0144,84.9959 27.8054,85.3319 27.8124,85.7479 L27.8954,90.2239 L27.8844,90.2749 C27.8684,90.3389 27.8504,90.4189 27.8594,90.5189 L27.9044,90.9459 C27.9824,91.6879 28.6864,92.0829 29.3514,92.1049 C29.3914,92.1059 29.4314,92.1059 29.4694,92.1049 C30.0674,92.0819 30.6664,91.7339 30.6534,91.0009 L30.5624,85.8189 C30.5554,85.3849 30.3054,85.0189 29.8764,84.8109" id="Fill-83" fill="#FFFFFF"></path>
            <path d="M157.5825,12.4467 C158.1645,12.4467 158.7535,12.0557 158.7535,11.3087 L158.7535,7.3777 C158.7535,6.6307 158.1645,6.2397 157.5825,6.2397 C157.2795,6.2397 156.9965,6.3407 156.7845,6.5217 C156.5405,6.7317 156.4115,7.0277 156.4115,7.3777 L156.4115,11.3087 C156.4115,11.6587 156.5405,11.9547 156.7845,12.1647 C156.9975,12.3457 157.2805,12.4467 157.5825,12.4467" id="Fill-85" fill="#FFFFFF"></path>
            <path d="M153.8999,14.0433 L149.9619,13.9863 C149.5559,13.9813 149.2229,14.1543 149.0319,14.4763 C148.8169,14.8353 148.8189,15.3393 149.0379,15.7293 C149.2459,16.1023 149.6169,16.3203 150.0549,16.3263 L153.9919,16.3833 C154.0219,16.3833 154.0509,16.3833 154.0799,16.3813 C154.4479,16.3623 154.7459,16.1913 154.9229,15.8943 C155.1379,15.5343 155.1349,15.0303 154.9179,14.6403 C154.7099,14.2673 154.3379,14.0493 153.8999,14.0433" id="Fill-87" fill="#FFFFFF"></path>
            <path d="M165.8627,14.0014 L161.8157,14.0014 C161.0677,14.0014 160.6767,14.5914 160.6767,15.1734 C160.6767,15.7554 161.0677,16.3444 161.8157,16.3444 L165.8627,16.3444 C166.6097,16.3444 167.0007,15.7544 167.0007,15.1724 C167.0007,14.5904 166.6097,14.0014 165.8627,14.0014" id="Fill-89" fill="#FFFFFF"></path>
            <path d="M158.5043,17.9086 C158.1173,17.7216 157.6113,17.7186 157.2473,17.9006 C156.9183,18.0656 156.7403,18.3526 156.7463,18.7076 L156.8183,22.5176 L156.8103,22.5606 C156.7963,22.6156 156.7803,22.6836 156.7893,22.7686 L156.8273,23.1326 C156.8943,23.7636 157.4933,24.1006 158.0603,24.1186 C158.0933,24.1196 158.1273,24.1196 158.1603,24.1186 C158.6703,24.0996 159.1793,23.8026 159.1683,23.1786 L159.0883,18.7656 C159.0813,18.3966 158.8683,18.0846 158.5043,17.9086" id="Fill-91" fill="#FFFFFF"></path>
            <path d="M15.977,47.8617 C16.341,47.8617 16.71,47.6167 16.71,47.1487 L16.71,44.6837 C16.71,44.2157 16.341,43.9697 15.976,43.9697 C15.787,43.9697 15.609,44.0337 15.476,44.1477 C15.323,44.2787 15.242,44.4647 15.242,44.6837 L15.242,47.1487 C15.242,47.3677 15.323,47.5527 15.476,47.6847 C15.61,47.7997 15.788,47.8617 15.977,47.8617" id="Fill-93" fill="#FFFFFF"></path>
            <path d="M13.6674,48.8627 L11.1994,48.8277 C10.9444,48.8237 10.7354,48.9327 10.6154,49.1337 C10.4804,49.3597 10.4814,49.6747 10.6184,49.9207 C10.7494,50.1537 10.9814,50.2907 11.2574,50.2947 L13.7254,50.3297 C13.7434,50.3307 13.7624,50.3297 13.7804,50.3287 C14.0114,50.3167 14.1974,50.2107 14.3094,50.0237 C14.4434,49.7987 14.4414,49.4817 14.3064,49.2377 C14.1754,49.0037 13.9424,48.8667 13.6674,48.8627" id="Fill-95" fill="#FFFFFF"></path>
            <path d="M21.1674,48.8373 L18.6304,48.8373 C18.1614,48.8373 17.9164,49.2063 17.9164,49.5713 C17.9164,49.9363 18.1614,50.3053 18.6304,50.3053 L21.1674,50.3053 C21.6364,50.3053 21.8814,49.9363 21.8814,49.5703 C21.8814,49.2063 21.6364,48.8373 21.1674,48.8373" id="Fill-97" fill="#FFFFFF"></path>
            <path d="M16.5542,51.2865 C16.3122,51.1695 15.9942,51.1675 15.7662,51.2815 C15.5602,51.3855 15.4492,51.5645 15.4522,51.7875 L15.4972,54.1765 L15.4922,54.2035 C15.4842,54.2375 15.4742,54.2795 15.4792,54.3335 L15.5032,54.5615 C15.5442,54.9575 15.9202,55.1685 16.2762,55.1795 C16.2962,55.1805 16.3182,55.1805 16.3382,55.1795 C16.6582,55.1675 16.9782,54.9805 16.9702,54.5905 L16.9202,51.8235 C16.9162,51.5925 16.7832,51.3965 16.5542,51.2865" id="Fill-99" fill="#FFFFFF"></path>
            <path d="M268.5678,135.9183 C265.5028,132.2393 260.3568,132.5043 256.5268,134.7613 C251.9298,137.4713 248.7858,142.5113 246.2548,147.1573 C238.8108,140.0423 230.6688,133.6593 221.9518,128.1733 C219.7348,126.7783 217.3928,125.1433 214.7118,124.8853 C212.2138,124.6453 210.0188,126.0483 209.1078,128.3693 C207.1148,133.4503 211.7158,138.5753 215.0768,141.8143 C217.4028,144.0543 219.7738,146.2513 222.1588,148.4333 C222.1208,148.4523 222.0838,148.4663 222.0458,148.4893 C219.5028,150.1143 218.3678,153.0093 218.5108,155.9233 C215.3808,156.8093 213.7108,159.8843 213.2958,162.9393 C213.1788,163.7983 213.1558,164.6643 213.2098,165.5243 C211.2318,165.9213 209.7538,167.5993 208.9458,169.4173 C208.0118,171.5193 207.9188,173.8803 208.7768,176.0173 C209.0288,176.6433 209.6108,177.0833 210.3148,176.8903 C210.9088,176.7273 211.4408,175.9823 211.1878,175.3533 C210.5508,173.7693 210.4578,172.2943 211.1098,170.6733 C211.3858,169.9873 211.8478,169.2573 212.3658,168.7243 C212.6528,168.4293 212.8098,168.3213 213.1768,168.1263 C213.2958,168.0643 213.4418,168.0173 213.5938,167.9833 C213.9618,169.4423 214.5648,170.8423 215.4048,172.1033 C216.2938,173.4363 218.4598,172.1863 217.5638,170.8413 C216.1508,168.7203 215.4928,166.2393 215.7088,163.6953 C215.8888,161.5693 216.8418,159.2143 218.9378,158.4243 C219.7938,161.3973 221.7198,163.9313 223.6108,166.3613 C224.0258,166.8953 224.9428,166.7973 225.3788,166.3613 C225.9048,165.8353 225.7948,165.1283 225.3788,164.5943 C223.6008,162.3093 221.7638,159.9073 221.1408,157.0193 C220.6428,154.7063 221.2028,151.9933 223.3078,150.6473 C223.5938,150.4653 223.7578,150.2223 223.8348,149.9633 C226.0308,151.9623 228.2338,153.9543 230.4228,155.9573 C231.6078,157.0423 233.3808,155.2783 232.1908,154.1893 C228.1308,150.4763 224.0728,146.7633 220.0358,143.0263 C218.1818,141.3103 216.2758,139.6273 214.6018,137.7313 C213.0508,135.9763 211.4028,133.7373 211.1728,131.3273 C210.9228,128.7003 212.7728,126.8513 215.3928,127.5353 C217.7108,128.1413 219.8338,129.7743 221.8228,131.0523 C226.0628,133.7733 230.1728,136.7023 234.1138,139.8423 C238.5478,143.3743 242.7738,147.1573 246.7908,151.1573 C247.9308,152.2943 249.6998,150.5273 248.5578,149.3903 C248.4138,149.2463 248.2638,149.1083 248.1198,148.9653 C250.2048,145.0923 252.6608,140.8983 256.0838,138.0973 C257.8168,136.6773 260.0458,135.4823 262.3398,135.5393 C264.0878,135.5833 266.1758,136.3783 267.0338,138.0243 C268.0238,139.9273 266.2518,141.8943 265.0568,143.1473 C263.5968,144.6773 262.1328,146.1693 261.0088,147.9763 C258.6208,151.8173 257.8628,156.5733 256.8578,160.9153 C256.2318,163.6263 255.5728,166.3213 254.7918,168.9913 C254.1348,171.2313 254.0768,173.3643 254.2098,175.6793 C254.2998,177.2783 256.8008,177.2893 256.7098,175.6793 C256.6448,174.5543 256.5568,173.4173 256.6478,172.2923 C256.7458,171.0843 257.1258,169.9403 257.4618,168.7853 C258.2188,166.1833 258.8168,163.5353 259.4268,160.8963 C260.5748,155.9353 261.4758,150.7313 264.9928,146.8293 C266.5528,145.0973 268.6118,143.5503 269.3868,141.2723 C270.0258,139.3973 269.8478,137.4543 268.5678,135.9183" id="Fill-101" fill="#000000"></path>
        </g>
    </g>
</svg>