<?xml version="1.0" encoding="UTF-8"?>
<svg width="313px" height="189px" viewBox="0 0 313 189" version="1.1" xmlns="http://www.w3.org/2000/svg" xmlns:xlink="http://www.w3.org/1999/xlink">
    <title>2010 milestones</title>
    <defs>
        <path d="M259.425,108.34 C258.688,110.155 257.576,111.927 256.293,113.463 L256.293,113.463 C255.276,114.684 254.048,115.786 252.597,116.462 L252.597,116.462 C251.651,116.904 250.601,117.133 249.577,117.313 L249.577,117.313 C248.659,117.477 247.729,117.565 246.796,117.531 L246.796,117.531 C246.154,117.508 245.532,117.438 244.934,117.264 L244.934,117.264 C244.77,117.216 244.611,117.157 244.451,117.097 L244.451,117.097 C244.427,117.088 244.406,117.08 244.388,117.072 L244.388,117.072 C244.395,117.075 244.402,117.079 244.409,117.083 L244.409,117.083 C244.4,117.078 244.391,117.073 244.381,117.069 L244.381,117.069 C244.371,117.064 244.362,117.06 244.354,117.056 L244.354,117.056 C243.713,116.777 243.102,117.706 243.749,118.059 L243.749,118.059 C244.432,118.432 245.25,118.574 246.013,118.656 L246.013,118.656 C248.072,118.878 250.274,118.528 252.224,117.871 L252.224,117.871 C255.426,116.793 257.745,113.915 259.365,111.074 L259.365,111.074 C259.795,110.317 260.21,109.537 260.537,108.727 L260.537,108.727 C260.717,108.285 260.344,107.97 259.972,107.97 L259.972,107.97 C259.751,107.97 259.531,108.08 259.425,108.34 L259.425,108.34 Z" id="path-1"></path>
        <path d="M242.385,117.458 C242.324,118.394 243.031,119.203 243.967,119.265 L243.967,119.265 C244.902,119.328 245.711,118.619 245.773,117.684 L245.773,117.684 C245.835,116.748 245.128,115.94 244.192,115.877 L244.192,115.877 C244.153,115.874 244.115,115.873 244.078,115.873 L244.078,115.873 C243.192,115.873 242.445,116.561 242.385,117.458 L242.385,117.458 Z" id="path-3"></path>
    </defs>
    <g id="2010-milestones" stroke="none" stroke-width="1" fill="none" fill-rule="evenodd">
        <g transform="translate(11.000000, 10.000000)">
            <path d="M161.6147,1.306 C123.0667,0.842 81.5557,0.457 44.7637,0.822 C37.3927,0.895 29.8547,1.077 22.9527,3.688 C14.2017,6.999 7.0117,14.286 3.7637,23.137 C1.5967,29.04 1.1457,35.423 0.7417,41.706 C-1.0363,69.396 1.0397,101.008 0.3037,128.745 C0.0817,137.141 0.0277,143.757 4.2367,150.999 C8.5167,158.363 16.2667,163.919 24.6237,165.209 C43.7397,168.161 69.9137,166.864 88.3057,166.796 C140.5307,166.606 194.2307,169.234 246.5387,168.522 C254.0937,168.418 261.7557,168.228 268.9957,166.043 C276.2357,163.86 283.0417,158.748 286.5857,152.007 C289.7787,145.935 290.0317,139.424 290.0327,132.548 C290.0387,101.294 293.5417,70.04 289.3337,39.077 C288.2077,30.788 286.7957,22.174 281.9557,15.385 C272.4137,2 248.0237,0.423 231.6997,0.077 C207.4417,-0.438 185.8717,1.821 161.6147,1.306" id="Fill-1" fill="#008CAF"></path>
            <path d="M281.9555,15.3851 C272.4135,2.0001 248.0235,0.4231 231.6995,0.0761 C230.8215,0.0581 229.9535,0.0501 229.0825,0.0381 C226.8605,4.2941 224.0755,9.7651 222.5175,11.6081 C218.6815,16.1401 215.5435,15.7911 212.0575,16.8371 C208.5705,17.8831 208.5705,23.1141 200.8995,26.2511 C193.2295,29.3891 174.7505,26.2511 169.8695,26.9481 C164.9875,27.6461 159.8445,33.5291 156.7055,36.6661 C153.5675,39.8041 141.0185,40.0341 133.0005,39.3371 C124.9805,38.6401 114.4335,31.1321 106.4135,29.3891 C98.3935,27.6461 95.6665,30.5351 89.7385,29.1411 C83.8115,27.7461 84.4475,24.5081 82.0075,20.6721 C79.5665,16.8371 81.1125,11.9351 78.4905,8.3211 C77.4915,6.9431 76.0605,3.5701 74.7525,0.6791 C64.5235,0.6831 54.4765,0.7261 44.7645,0.8221 C37.3935,0.8951 29.8545,1.0761 22.9525,3.6881 C14.2015,6.9991 7.0125,14.2861 3.7645,23.1371 C1.5975,29.0401 1.1455,35.4231 0.7415,41.7061 C-1.0365,69.3961 1.0395,101.0081 0.3045,128.7451 C0.0815,137.1411 0.0275,143.7571 4.2365,150.9991 C8.5175,158.3631 16.2675,163.9191 24.6235,165.2091 C43.7395,168.1611 69.9135,166.8641 88.3065,166.7961 C140.5305,166.6061 194.2305,169.2331 246.5385,168.5221 C254.0935,168.4181 261.7555,168.2281 268.9955,166.0431 C276.2355,163.8601 283.0415,158.7481 286.5855,152.0071 C289.7785,145.9351 290.0315,139.4241 290.0325,132.5481 C290.0385,101.2941 293.5415,70.0401 289.3335,39.0761 C288.2075,30.7881 286.7955,22.1741 281.9555,15.3851" id="Fill-4" fill="#76C11C"></path>
            <path d="M95.3842,92.0696 C99.7162,95.4016 101.5702,101.2266 103.2362,108.2246 C104.9022,115.2226 111.9012,126.8866 114.2332,130.5526 C116.5662,134.2176 124.5042,130.7906 127.8962,132.2186 C130.5602,133.3406 128.6102,136.4906 126.8102,139.7916 C126.0752,141.1366 125.4592,143.2426 123.3592,145.9426 C121.7632,147.9956 121.8942,152.5536 122.6092,155.5446 C123.4882,159.2176 129.3602,155.6946 132.2292,154.2136 C135.3762,152.5886 140.0202,150.2896 143.3522,149.6226 C146.6852,148.9566 144.9182,145.1576 147.5972,144.9436 C148.6922,144.8556 152.1702,147.4496 155.9142,151.1936 C159.1002,154.3776 161.9902,158.5256 165.3762,160.5556 C168.3192,162.3196 175.7642,157.4236 178.4302,156.0906 C181.0962,154.7576 182.5492,143.2156 182.5492,134.5516 C182.5492,125.8866 178.0562,121.1986 177.0562,114.8676 C176.0562,108.5356 180.4462,101.2636 190.1102,94.5986 C199.7752,87.9336 209.6912,76.3926 209.8762,67.2346 C209.9972,61.2006 210.2092,62.5696 208.2092,57.5706 C206.2102,52.5716 209.2152,44.3366 208.2152,33.3396 C207.7872,28.6326 206.7482,25.4426 205.6982,23.3246 C204.5192,24.3706 203.0042,25.3896 200.9002,26.2516 C193.2302,29.3886 174.7502,26.2516 169.8692,26.9486 C164.9882,27.6456 159.8442,33.5286 156.7052,36.6666 C153.5682,39.8036 141.0192,40.0346 133.0002,39.3376 C124.9812,38.6396 114.4332,31.1326 106.4132,29.3886 C98.3942,27.6456 95.6662,30.5356 89.7382,29.1406 C87.5522,28.6266 86.2622,27.8596 85.3772,26.9056 C83.0052,26.1896 80.4972,24.8356 78.2412,25.2456 C74.5762,25.9116 67.5772,26.9116 62.2462,31.2436 C56.9142,35.5766 72.2432,63.5696 76.5752,68.5676 C80.9072,73.5666 91.0522,88.7366 95.3842,92.0696" id="Fill-7" fill="#AFE46A"></path>
            <path d="M88.8647,64.5003 C88.8647,64.5003 101.1877,72.8133 102.8607,76.1713 C104.5337,79.5283 86.7057,85.2983 86.7057,85.2983 C86.7057,85.2983 73.7807,110.4113 43.8247,106.7033 C13.8687,102.9983 -3.6783,58.4783 25.3537,34.7593 C63.1007,8.2393 91.0207,43.7033 88.8647,64.5003" id="Fill-9" fill="#006A00"></path>
            <path d="M209.9467,88.0403 C209.9467,88.0403 195.5527,86.9253 192.2547,88.4703 C188.9547,90.0163 199.0357,105.1653 199.0357,105.1653 C199.0357,105.1653 193.7097,132.0733 218.7367,147.3353 C243.7637,162.5993 283.9857,139.3193 276.2167,103.7503 C263.5077,60.7893 220.8597,70.9163 209.9467,88.0403" id="Fill-11" fill="#006A00"></path>
            <path d="M134.5629,84.5599 C135.4709,83.4699 136.3509,82.3579 137.1999,81.2199 C137.5149,80.7979 137.2819,80.0809 136.8389,79.8459 C136.3129,79.5679 135.8009,79.7549 135.4639,80.2059 C134.7079,81.2199 133.9479,82.1829 133.1079,83.1889 C132.8599,83.4879 132.5919,83.7689 132.3379,84.0619 C132.3839,82.6599 132.4289,81.2569 132.4799,79.8549 C132.5259,78.5619 130.5169,78.5639 130.4699,79.8549 C130.3869,82.1519 130.3129,84.4489 130.2469,86.7459 C130.2389,86.8119 130.2369,86.8739 130.2419,86.9409 C130.1959,88.5129 130.1519,90.0869 130.1189,91.6609 C130.0909,92.9549 132.0999,92.9549 132.1269,91.6609 C132.1589,90.1729 132.2019,88.6869 132.2449,87.2009 C132.5549,86.8609 132.8509,86.5069 133.1559,86.1629 C134.2089,88.0169 135.2219,89.8949 136.1749,91.8029 C136.4109,92.2749 137.1139,92.4449 137.5489,92.1639 C138.0319,91.8529 138.1619,91.2929 137.9109,90.7889 C136.8569,88.6789 135.7399,86.6029 134.5629,84.5599" id="Fill-13" fill="#000000"></path>
            <path d="M172.4086,80.0579 C172.4086,79.5379 171.9486,79.0229 171.4046,79.0539 C168.7406,79.2079 166.0766,79.0199 163.4126,79.1729 C162.8716,79.2039 162.4086,79.6129 162.4086,80.1789 C162.4086,80.6989 162.8686,81.2139 163.4126,81.1829 C164.3046,81.1319 165.1946,81.1219 166.0866,81.1219 C165.9996,84.5669 165.9186,88.0119 165.8306,91.4559 C165.7976,92.7499 167.8066,92.7489 167.8406,91.4559 C167.9276,88.0129 168.0086,84.5679 168.0956,81.1239 C169.1976,81.1279 170.3016,81.1269 171.4046,81.0639 C171.9456,81.0329 172.4086,80.6239 172.4086,80.0579" id="Fill-15" fill="#000000"></path>
            <path d="M154.354,85.0325 C154.397,83.5525 154.444,82.0715 154.52,80.5935 C154.788,80.6105 155.057,80.6475 155.3,80.6985 C155.835,80.8075 156.396,80.9395 156.899,81.1575 C156.752,81.0945 157.083,81.2555 157.114,81.2725 C157.171,81.3055 157.229,81.3415 157.284,81.3785 C157.31,81.3965 157.314,81.3995 157.328,81.4085 C157.399,81.4705 157.465,81.5375 157.531,81.6065 C157.54,81.6175 157.539,81.6155 157.545,81.6245 C157.58,81.6735 157.612,81.7255 157.641,81.7775 C157.663,81.8165 157.682,81.8565 157.702,81.8965 C157.706,81.9095 157.708,81.9205 157.723,81.9595 C157.749,82.0595 157.775,82.1575 157.796,82.2575 C157.793,82.2805 157.813,82.4855 157.813,82.5185 C157.813,82.5455 157.801,82.7085 157.799,82.7615 C157.787,82.8155 157.754,82.9695 157.748,82.9955 C157.737,83.0345 157.603,83.3725 157.687,83.1945 C157.632,83.3095 157.571,83.4235 157.502,83.5305 C157.469,83.5835 157.436,83.6345 157.4,83.6825 C157.391,83.6945 157.391,83.6945 157.376,83.7125 C157.235,83.8705 157.085,84.0185 156.923,84.1555 C156.889,84.1775 156.731,84.2945 156.709,84.3085 C156.6,84.3795 156.489,84.4445 156.375,84.5055 C156.261,84.5665 156.145,84.6245 156.026,84.6745 C156.192,84.6045 155.81,84.7455 155.772,84.7575 C155.509,84.8415 155.241,84.9065 154.969,84.9565 C154.786,84.9915 154.574,85.0135 154.354,85.0325 M157.612,86.0875 C158.247,85.7135 158.81,85.2205 159.238,84.5455 C159.808,83.6415 159.992,82.4485 159.661,81.4255 C159.283,80.2545 158.367,79.5535 157.244,79.1465 C155.938,78.6755 154.511,78.4465 153.137,78.6815 C152.618,78.7705 152.28,79.4365 152.435,79.9175 C152.473,80.0335 152.532,80.1265 152.593,80.2145 C152.557,80.3115 152.52,80.4075 152.514,80.5265 C152.424,82.2355 152.365,83.9475 152.321,85.6595 C152.255,85.7905 152.213,85.9325 152.22,86.0865 C152.225,86.2055 152.256,86.3185 152.297,86.4275 C152.258,88.2635 152.242,90.1005 152.254,91.9375 C152.264,93.2295 154.274,93.2325 154.264,91.9375 C154.252,90.3035 154.272,88.6705 154.302,87.0365 C154.782,86.9955 155.261,86.9305 155.728,86.8235 C156.526,88.3055 157.325,89.7865 158.124,91.2685 C158.251,91.5055 158.379,91.7435 158.508,91.9805 C158.757,92.4435 159.437,92.6285 159.882,92.3415 C160.352,92.0385 160.51,91.4625 160.243,90.9665 C159.366,89.3395 158.489,87.7135 157.612,86.0875" id="Fill-17" fill="#000000"></path>
            <path d="M175.7446,86.1429 C176.0636,85.2059 176.3946,84.2759 176.7456,83.3529 C177.0226,84.2459 177.2906,85.1379 177.5496,86.0349 C176.9476,86.0699 176.3466,86.1069 175.7446,86.1429 M180.9256,90.9179 C180.0496,87.3069 179.0216,83.7649 177.8536,80.2389 C177.8246,79.9469 177.6906,79.6749 177.3966,79.5029 C177.3606,79.4819 177.3126,79.4789 177.2716,79.4619 C177.2626,79.4579 177.2506,79.4559 177.2386,79.4519 C177.1506,79.4209 177.0646,79.3939 176.9686,79.3869 C176.3926,79.3169 175.7876,79.6969 175.8286,80.3349 C174.3756,83.7099 173.2856,87.2399 172.1086,90.7159 C171.6936,91.9429 173.6336,92.4699 174.0466,91.2489 C174.3906,90.2359 174.7246,89.2139 175.0606,88.1939 C176.0726,88.1309 177.0846,88.0709 178.0976,88.0109 C178.4066,89.1529 178.7076,90.2979 178.9876,91.4529 C179.2916,92.7079 181.2296,92.1769 180.9256,90.9179" id="Fill-19" fill="#000000"></path>
            <path d="M144.4184,86.1429 C144.7374,85.2059 145.0684,84.2759 145.4204,83.3529 C145.6964,84.2459 145.9654,85.1379 146.2234,86.0349 C145.6214,86.0699 145.0204,86.1069 144.4184,86.1429 M146.5284,80.2389 C146.4984,79.9469 146.3644,79.6749 146.0714,79.5029 C146.0344,79.4819 145.9864,79.4789 145.9464,79.4619 C145.9364,79.4579 145.9244,79.4559 145.9134,79.4519 C145.8254,79.4209 145.7394,79.3939 145.6434,79.3869 C145.0674,79.3169 144.4614,79.6969 144.5034,80.3349 C143.0504,83.7099 141.9604,87.2399 140.7834,90.7159 C140.3674,91.9429 142.3084,92.4699 142.7214,91.2489 C143.0644,90.2359 143.3984,89.2139 143.7344,88.1939 C144.7474,88.1309 145.7594,88.0709 146.7714,88.0109 C147.0814,89.1529 147.3824,90.2979 147.6614,91.4529 C147.9664,92.7079 149.9044,92.1769 149.5994,90.9179 C148.7244,87.3069 147.6954,83.7649 146.5284,80.2389" id="Fill-21" fill="#000000"></path>
            <path d="M122.2016,86.1429 C122.5206,85.2059 122.8516,84.2759 123.2026,83.3529 C123.4796,84.2459 123.7476,85.1379 124.0066,86.0349 C123.4046,86.0699 122.8036,86.1069 122.2016,86.1429 M124.3106,80.2389 C124.2816,79.9469 124.1476,79.6749 123.8536,79.5029 C123.8176,79.4819 123.7696,79.4789 123.7286,79.4619 C123.7196,79.4579 123.7076,79.4559 123.6956,79.4519 C123.6076,79.4209 123.5216,79.3939 123.4256,79.3869 C122.8496,79.3169 122.2446,79.6969 122.2856,80.3349 C120.8326,83.7099 119.7426,87.2399 118.5656,90.7159 C118.1506,91.9429 120.0906,92.4699 120.5046,91.2489 C120.8476,90.2359 121.1816,89.2139 121.5176,88.1939 C122.5296,88.1309 123.5416,88.0709 124.5546,88.0109 C124.8636,89.1529 125.1646,90.2979 125.4446,91.4529 C125.7486,92.7079 127.6866,92.1769 127.3826,90.9179 C126.5066,87.3069 125.4786,83.7649 124.3106,80.2389" id="Fill-23" fill="#000000"></path>
            <path d="M115.7895,82.9271 C115.7455,81.8751 115.7115,80.8201 115.6175,79.7711 C115.5025,78.4921 113.4925,78.4811 113.6075,79.7711 C113.8095,82.0131 113.8565,84.2861 113.8915,86.5361 C113.9095,87.6931 114.0065,89.0961 113.2495,90.0531 C112.7515,90.6851 111.9805,90.9111 111.2305,90.5881 C110.5165,90.2811 110.0575,89.5891 109.7975,88.8821 C109.6095,88.3731 109.1155,88.0291 108.5605,88.1811 C108.0705,88.3161 107.6715,88.9051 107.8595,89.4161 C108.4675,91.0691 109.6785,92.4861 111.5145,92.7121 C113.3425,92.9371 114.8535,91.7221 115.4925,90.0751 C115.9265,88.9571 115.9195,87.7191 115.9005,86.5361 C115.8825,85.3331 115.8385,84.1301 115.7895,82.9271" id="Fill-25" fill="#000000"></path>
            <path d="M123.7895,58.4534 C119.3585,59.4594 117.8515,61.0994 116.9265,65.9154 C116.7645,66.7584 115.6615,66.7584 115.5005,65.9154 C114.5745,61.0994 113.0665,59.4594 108.6365,58.4534 C107.8615,58.2774 107.8615,57.0794 108.6365,56.9034 C113.0665,55.8974 114.5745,54.2584 115.5005,49.4404 C115.6615,48.5994 116.7645,48.5994 116.9265,49.4404 C117.8515,54.2584 119.3585,55.8974 123.7895,56.9034 C124.5645,57.0794 124.5645,58.2774 123.7895,58.4534" id="Fill-27" fill="#FFFFFF"></path>
            <path d="M196.9409,29.5892 C192.5099,30.5952 191.0029,32.2352 190.0779,37.0512 C189.9159,37.8942 188.8129,37.8942 188.6519,37.0512 C187.7259,32.2352 186.2179,30.5952 181.7879,29.5892 C181.0129,29.4132 181.0129,28.2152 181.7879,28.0392 C186.2179,27.0332 187.7259,25.3942 188.6519,20.5762 C188.8129,19.7352 189.9159,19.7352 190.0779,20.5762 C191.0029,25.3942 192.5099,27.0332 196.9409,28.0392 C197.7159,28.2152 197.7159,29.4132 196.9409,29.5892" id="Fill-29" fill="#FFFFFF"></path>
            <path d="M171.2788,131.0355 C168.2658,131.7195 167.2408,132.8335 166.6118,136.1085 C166.5028,136.6815 165.7528,136.6815 165.6418,136.1085 C165.0128,132.8335 163.9878,131.7195 160.9758,131.0355 C160.4488,130.9155 160.4488,130.1005 160.9758,129.9805 C163.9878,129.2975 165.0128,128.1825 165.6418,124.9075 C165.7528,124.3345 166.5028,124.3345 166.6118,124.9075 C167.2408,128.1825 168.2658,129.2975 171.2788,129.9805 C171.8058,130.1005 171.8058,130.9155 171.2788,131.0355" id="Fill-31" fill="#FFFFFF"></path>
            <path d="M91.2856,63.6497 C91.2856,63.6497 102.2616,73.6747 103.4246,77.2427 C104.5886,80.8087 86.1076,83.9077 86.1076,83.9077 C86.1076,83.9077 69.6486,106.8607 40.5566,98.8117 C11.4656,90.7647 0.6196,44.1567 32.8076,24.9387 C74.0276,4.2257 96.4606,43.3917 91.2856,63.6497" id="Fill-33" fill="#FF9000"></path>
            <path d="M91.2856,63.6497 C91.2856,63.6497 102.2616,73.6747 103.4246,77.2427 C104.5886,80.8087 86.1076,83.9077 86.1076,83.9077 C86.1076,83.9077 69.6486,106.8607 40.5566,98.8117 C11.4656,90.7647 0.6196,44.1567 32.8076,24.9387 C74.0276,4.2257 96.4606,43.3917 91.2856,63.6497" id="Fill-35" fill="#FF9000"></path>
            <path d="M50.9077,41.1819 C50.9077,41.1819 49.1227,39.9659 48.2657,40.6809 C47.4107,41.3949 46.6667,44.0779 46.7067,46.1169 C46.7467,48.1549 47.2297,50.0329 47.9747,50.9909 C48.7027,51.9269 50.3217,52.0239 50.3217,52.0239 L50.9077,41.1819 Z" id="Fill-37" fill="#E5E5E5"></path>
            <path d="M61.9204,44.3958 C62.3814,42.9868 62.8794,41.6438 63.6304,41.1598 C64.3474,40.6978 65.2184,41.1768 65.4004,41.3978 C65.8174,41.9018 65.7844,42.7758 65.7074,43.4368 C65.5294,44.9768 65.3294,46.5148 65.1194,48.0518 C64.6864,51.2268 64.1914,54.3948 63.6434,57.5518 C63.5894,57.8628 63.3514,57.9918 63.1074,57.9898 C63.1054,58.0038 60.9754,57.8688 60.9414,57.6258 C60.9094,57.3848 63.1224,50.4688 63.3564,49.6498 C63.5904,48.8318 63.5214,48.7788 62.3354,48.8288 C61.1494,48.8778 61.2674,46.3898 61.9204,44.3958" id="Fill-39" fill="#000000"></path>
            <path d="M44.9487,99.7981 C53.5917,101.3531 60.9917,100.1861 67.0347,97.9011 C67.2707,95.5991 67.3137,92.1511 67.3047,90.4901 C67.2657,82.8331 68.8037,77.2011 69.4797,76.7401 C70.1557,76.2801 74.8547,77.2381 77.5947,76.1941 C80.3347,75.1501 71.7537,63.0891 71.7537,63.0891 C71.7537,63.0891 74.2937,62.3141 73.7787,60.6871 C73.2627,59.0601 59.7317,55.3181 54.6157,56.2321 C49.5007,57.1451 45.8567,64.7771 46.6787,70.5781 C47.5017,76.3801 53.1687,86.2531 50.7967,93.3001 C49.4957,97.1631 46.9717,98.9581 44.9487,99.7981" id="Fill-41" fill="#03AB03"></path>
            <path d="M77.5688,92.1321 C77.0038,88.7491 75.1048,85.0961 72.8588,82.6081 C72.7328,82.4671 72.6028,82.3221 72.4698,82.1771 C70.7668,80.2961 68.1078,79.5301 65.6938,80.3131 C65.6818,80.3171 65.6708,80.3191 65.6598,80.3231 C64.4648,80.7121 62.1968,81.2141 61.9098,82.6741 C61.7438,83.5181 62.1518,84.4821 62.4578,85.2461 C62.8518,86.2311 63.3078,87.1801 63.6348,88.1921 C63.9588,89.1951 64.3788,90.3081 64.3958,91.3731 C64.4078,92.1341 64.0648,92.3851 63.2898,92.4741 C61.8598,92.6391 59.9228,91.9801 58.7198,92.8551 C57.2608,93.9171 56.8928,98.2121 56.7438,100.3111 C65.6228,99.4311 72.6308,95.7781 77.5688,92.1321" id="Fill-43" fill="#005209"></path>
            <path d="M63.3685901,61.2161 C63.3716,62.4651 63.8966,63.7951 64.2886,64.9601 C64.8466,66.6161 65.4786,68.2471 66.1506,69.8611 C66.5816,70.8971 66.9646,72.1701 67.6666,73.0631 C68.5886,74.2351 69.8156,74.6181 71.1786,75.0511 C72.7186,75.5411 74.3066,75.8521 75.9086,76.0611 C76.9426,76.1951 78.1626,76.3981 79.0686,75.7361 C79.8936,75.1331 80.1116,74.0281 79.9626,73.0701 C79.5786,70.6271 78.0936,68.0941 76.5676,66.2001 C73.8456,62.8191 67.5046,60.0201 65.9296,59.6701 C64.5726,59.3691 63.3646,59.5321 63.3685901,61.2161" id="Fill-45" fill="#FDD202"></path>
            <path d="M51.0561,41.2776 C51.6951,41.7286 52.1671,42.2926 52.5171,42.8756 C53.6401,44.7456 54.8181,46.5816 56.2801,48.1996 C58.2031,50.3316 60.3241,52.9856 60.5061,54.1316 C60.6721,55.1726 59.7241,61.8266 59.4341,64.2436 C59.3791,64.6936 58.8591,64.9246 58.4951,64.6536 C57.6031,63.9886 56.5351,62.7566 56.4461,62.3056 C56.3271,61.6946 58.6261,56.1976 58.5671,54.4296 C58.5511,53.9806 58.1911,53.2796 57.6531,52.4676 C56.3441,50.4966 53.7161,50.2746 51.7651,51.6136 C51.3421,51.9026 50.8641,52.0236 50.3221,52.0236 C48.8521,52.0246 47.8681,49.6166 47.8531,47.4176 C47.8381,45.2176 48.7031,39.6156 51.0561,41.2776" id="Fill-47" fill="#006A00"></path>
            <path d="M49.976,66.4544 C49.387,69.5634 51.429,72.5604 54.538,73.1494 C57.646,73.7394 60.644,71.6974 61.233,68.5884 C61.823,65.4794 59.78,62.4824 56.671,61.8924 C53.563,61.3044 50.565,63.3464 49.976,66.4544" id="Fill-49" fill="#006A00"></path>
            <path d="M38.3627,58.2269 C38.3627,58.2269 41.6757,59.9939 45.7667,60.1399 C49.8567,60.2879 52.6707,59.8699 54.6777,62.0449 C56.6857,64.2219 59.1147,68.9889 58.0757,72.3119 C58.0757,72.3119 57.5957,74.2329 56.1747,74.2469 C56.1747,74.2469 54.8797,77.9159 51.9207,76.4529 C51.9207,76.4529 51.1387,77.4189 49.9667,76.8439 C49.1697,76.4529 48.7237,75.5899 48.6967,74.7029 C48.6627,73.5819 48.4137,71.8129 47.2307,71.2889 C45.4587,70.4999 42.8967,71.6989 42.1097,73.2679 C41.3217,74.8359 36.6657,72.1879 34.9907,69.5369 L34.0157,68.1559 L38.3627,58.2269 Z" id="Fill-51" fill="#F6A7AD"></path>
            <path d="M42.0473,73.179 C41.6843,75.098 42.9443,76.949 44.8633,77.312 C46.7823,77.676 48.6333,76.415 48.9963,74.496 C49.3593,72.577 48.0993,70.727 46.1813,70.363 C44.2623,69.999 42.4113,71.26 42.0473,73.179" id="Fill-53" fill="#006A00"></path>
            <path d="M51.476,74.3763 C51.763,72.7023 51.984,70.8383 50.904,69.3893 C50.44,68.7663 51.437,68.0893 51.9,68.7103 C53.172,70.4183 52.999,72.6173 52.66,74.6003 C52.528,75.3643 51.344,75.1413 51.476,74.3763" id="Fill-55" fill="#000000"></path>
            <path d="M55.1381,73.4339 C55.3461,72.3219 55.3961,71.3189 55.2231,70.1829 C55.0141,68.8129 54.3691,67.5839 53.2201,66.7769 C52.9531,66.5889 52.9631,66.1539 53.1601,65.9269 C53.3931,65.6609 53.7431,65.6799 54.0111,65.8679 C56.4721,67.5979 56.8361,70.9109 56.3221,73.6589 C56.1791,74.4199 54.9951,74.1979 55.1381,73.4339" id="Fill-57" fill="#000000"></path>
            <path d="M40.7817,59.2259 L14.3917,49.3439 C12.5227,56.8909 12.8877,64.8479 15.0907,72.1649 L32.7647,74.7589 C32.7647,74.7589 37.9887,62.7449 40.7817,59.2259" id="Fill-59" fill="#00AA13"></path>
            <path d="M36.8706,57.6106 L40.7816,59.2256 C37.9886,62.7446 32.7656,74.7586 32.7656,74.7586 L27.2736,73.8646 C28.4486,67.6696 34.1056,59.3786 36.8706,57.6106" id="Fill-61" fill="#000000"></path>
            <path d="M29.4907,47.5862 C33.2307,47.5612 42.4367,45.0142 44.3737,33.1302 C46.3107,21.2462 31.2557,9.5442 18.9207,17.9872 C6.5887,26.4182 12.3187,47.7452 29.4907,47.5862" id="Fill-63" fill="#FFE85E"></path>
            <path d="M28.6616,128.4896 C40.2256,125.3566 51.7046,121.8666 63.0666,118.0676 C64.8896,117.4586 64.1076,114.5606 62.2696,115.1756 C50.9066,118.9736 39.4286,122.4636 27.8636,125.5956 C26.0026,126.1006 26.7926,128.9956 28.6616,128.4896" id="Fill-65" fill="#24B24C"></path>
            <path d="M78.31,136.8958 C74.343,140.6178 70.375,144.3388 66.409,148.0608 C64.997,149.3848 67.122,151.5028 68.53,150.1828 C72.498,146.4608 76.464,142.7398 80.431,139.0178 C81.842,137.6938 79.718,135.5758 78.31,136.8958" id="Fill-67" fill="#24B24C"></path>
            <path d="M248.8413,8.9446 C240.9743,16.4586 233.1063,23.9706 225.2383,31.4846 C223.8393,32.8206 225.9623,34.9396 227.3603,33.6056 C235.2273,26.0916 243.0953,18.5796 250.9623,11.0656 C252.3623,9.7296 250.2383,7.6106 248.8413,8.9446" id="Fill-69" fill="#24B24C"></path>
            <path d="M232.5561,53.0452 C238.5231,52.0512 244.4901,51.0582 250.4571,50.0652 C251.2571,49.9312 251.7031,48.9412 251.5041,48.2192 C251.2721,47.3712 250.4611,47.0382 249.6601,47.1712 C243.6931,48.1652 237.7251,49.1582 231.7581,50.1522 C230.9581,50.2852 230.5121,51.2742 230.7101,51.9972 C230.9441,52.8462 231.7541,53.1792 232.5561,53.0452" id="Fill-71" fill="#24B24C"></path>
            <path d="M208.6948,85.0579 C208.6948,85.0579 194.2678,85.5769 191.1638,87.4849 C188.0598,89.3929 199.7888,103.3069 199.7888,103.3069 C199.7888,103.3069 197.5368,130.6449 224.1298,142.9799 C250.7198,155.3179 288.0538,127.6429 276.3158,93.1789 C258.8338,51.9299 217.6028,66.8109 208.6948,85.0579" id="Fill-73" fill="#A6419F"></path>
            <path d="M269.684,130.4017 C263.234,121.3687 250.603,118.2727 237.47,116.4667 C222.385,114.3927 210.164,119.5737 205.903,127.0367 C209.503,132.9737 215.177,138.8277 224.129,142.9797 C239.608,150.1617 258.723,143.7827 269.684,130.4017" id="Fill-75" fill="#000000"></path>
            <path d="M249.9438,120.848 C254.9878,121.184 254.4538,124.682 254.4538,124.682 C254.4188,126.214 252.9298,127.643 251.7858,128.659 C250.6408,129.674 243.4608,136.049 243.4608,136.049 C242.9448,136.549 242.5108,136.48 242.2208,135.893 L238.6308,130.249 L233.4748,135.087 C232.9998,135.529 232.6728,135.456 232.4228,134.926 L229.8388,127.193 C229.3958,126.109 229.0678,124.525 229.6858,123.475 C229.6858,123.475 230.4498,120.742 232.5178,120.879 C234.5858,121.017 244.8998,120.512 249.9438,120.848" id="Fill-77" fill="#2D2D2D"></path>
            <path d="M238.1704,129.9202 C237.5124,134.9652 236.8904,140.0242 236.4374,145.0912 C236.3884,145.6322 237.2334,145.6292 237.2804,145.0912 C237.7334,140.0242 238.3564,134.9652 239.0144,129.9202 C239.0844,129.3822 238.2394,129.3882 238.1704,129.9202" id="Fill-79" fill="#2D2D2D"></path>
            <path d="M248.6547,118.2425 C248.6547,118.2425 249.8447,125.0205 257.2967,125.1815 C264.7487,125.3445 270.4447,116.3305 268.0247,106.2145 C265.6047,96.0965 260.1657,83.2745 249.9557,81.5895 C239.7457,79.9045 229.8867,81.7055 224.2707,92.2515 C218.6537,102.7985 216.1027,112.3975 219.2207,117.5045 C222.3397,122.6105 227.8217,121.4285 229.7247,119.9175 L248.6547,118.2425 Z" id="Fill-81" fill="#000000"></path>
            <path d="M247.9223,93.1487 C247.9223,93.1487 237.5523,98.6767 226.5473,96.2687 C226.5473,96.2687 222.5373,107.5857 225.3943,114.7537 C228.2503,121.9217 232.6193,123.7637 237.9433,123.0327 C243.2673,122.3017 248.6543,118.2427 248.6543,118.2427 C248.6543,118.2427 247.2543,108.9997 255.3693,102.4067 C255.3693,102.4067 249.7803,102.4997 247.9223,93.1487" id="Fill-83" fill="#F6A7AD"></path>
            <path d="M239.7085,108.8528 C239.6765,108.7398 239.5885,108.6168 239.4825,108.5598 C239.2685,108.4468 238.9245,108.4868 238.8115,108.7358 C238.7875,108.7888 238.7615,108.8388 238.7295,108.8868 C238.7275,108.8888 238.7265,108.8918 238.7255,108.8938 C238.7115,108.9068 238.6975,108.9228 238.6895,108.9328 C238.6735,108.9508 238.6555,108.9658 238.6385,108.9828 C238.6335,108.9878 238.6295,108.9918 238.6245,108.9958 C238.5845,109.0208 238.5455,109.0488 238.5035,109.0718 C238.4885,109.0798 238.4745,109.0868 238.4585,109.0938 C238.4535,109.0948 238.4555,109.0938 238.4495,109.0968 C238.4005,109.1128 238.3525,109.1238 238.3035,109.1358 C238.2775,109.1358 238.2535,109.1378 238.2285,109.1378 C238.2075,109.1378 238.1865,109.1378 238.1645,109.1358 C238.1185,109.1238 238.0735,109.1128 238.0285,109.0988 C238.0075,109.0858 237.9855,109.0758 237.9655,109.0638 C237.9435,109.0508 237.9245,109.0378 237.9045,109.0248 C237.8635,108.9858 237.8245,108.9488 237.7865,108.9068 C237.7735,108.8878 237.7615,108.8698 237.7505,108.8508 C237.7345,108.8258 237.7215,108.7998 237.7075,108.7748 C237.6935,108.7258 237.6745,108.6788 237.6635,108.6298 C237.6635,108.6278 237.6625,108.6248 237.6625,108.6238 C237.6625,108.6008 237.6595,108.5738 237.6585,108.5568 C237.6575,108.4658 237.6215,108.3798 237.5725,108.3018 C237.5355,108.2108 237.4785,108.1278 237.3835,108.0798 C237.1565,107.9578 236.8405,108.0128 236.7125,108.2548 C236.7055,108.2668 236.6925,108.2878 236.6815,108.3058 C236.6735,108.3148 236.6665,108.3228 236.6585,108.3308 C236.6565,108.3318 236.6575,108.3318 236.6565,108.3318 C236.6395,108.3428 236.6225,108.3548 236.6045,108.3658 C236.5575,108.3918 236.5075,108.3888 236.6055,108.3708 C236.5765,108.3758 236.5445,108.3928 236.5165,108.4018 C236.4865,108.4098 236.4575,108.4158 236.4285,108.4218 C236.4145,108.4248 236.4015,108.4268 236.3895,108.4288 C236.3565,108.4318 236.3135,108.4328 236.3065,108.4328 C236.2675,108.4348 236.2285,108.4348 236.1885,108.4348 C236.1235,108.4338 236.0585,108.4308 235.9925,108.4288 C235.9235,108.4258 235.8545,108.4218 235.7845,108.4168 C235.7525,108.4088 235.7195,108.4038 235.6875,108.3938 L235.6855,108.3918 C235.6875,108.3948 235.6915,108.3968 235.6925,108.3988 C235.6925,108.3988 235.6835,108.3928 235.6795,108.3908 C235.6325,108.3758 235.6455,108.3758 235.6665,108.3818 C235.6565,108.3758 235.6545,108.3758 235.6455,108.3698 C235.6425,108.3678 235.6465,108.3728 235.6295,108.3558 C235.6275,108.3528 235.6245,108.3498 235.6215,108.3468 C235.6025,108.3118 235.5825,108.2748 235.5625,108.2388 C235.5595,108.2298 235.5555,108.2198 235.5535,108.2108 C235.5455,108.1868 235.5375,108.1618 235.5315,108.1358 C235.5255,108.1108 235.5205,108.0848 235.5155,108.0598 C235.5125,108.0478 235.5125,108.0518 235.5115,108.0458 C235.5105,108.0408 235.5115,108.0438 235.5105,108.0388 C235.5055,107.9678 235.5015,107.8978 235.5035,107.8278 C235.5045,107.7948 235.5075,107.7628 235.5085,107.7318 C235.5095,107.7198 235.5085,107.7238 235.5085,107.7178 C235.5095,107.7128 235.5095,107.7158 235.5105,107.7098 C235.5245,107.6338 235.5415,107.5598 235.5645,107.4858 C236.4125,105.1648 237.2295,102.8328 238.0135,100.4918 C238.2145,99.8908 237.2675,99.6338 237.0665,100.2298 C236.2815,102.5728 235.4655,104.9048 234.6175,107.2248 C234.3875,107.9898 234.5505,109.0308 235.3935,109.3298 C235.5695,109.3908 235.7685,109.3998 235.9535,109.4088 C236.1695,109.4178 236.3785,109.4148 236.5925,109.3838 C236.6985,109.3688 236.8035,109.3388 236.9045,109.2998 C237.1205,109.6868 237.4705,109.9998 237.9125,110.0848 C238.5965,110.2148 239.3625,109.8838 239.6585,109.2318 C239.7155,109.1078 239.7455,108.9898 239.7085,108.8528" id="Fill-85" fill="#000000"></path>
            <path d="M235.685,108.3919 C235.679,108.3879 235.674,108.3849 235.666,108.3819 C235.672,108.3859 235.675,108.3879 235.679,108.3909 C235.682,108.3919 235.682,108.3919 235.685,108.3919" id="Fill-87" fill="#000000"></path>
            <path d="M245.2182,104.9593 C245.2182,104.9593 241.7302,104.6053 240.9012,103.6273 C240.0712,102.6473 241.5192,100.9773 243.2812,100.974292 C245.0422,100.9713 247.7192,101.7913 248.2922,102.8343 C248.8652,103.8763 248.8062,105.7933 245.2182,104.9593" id="Fill-89" fill="#FFFFFF"></path>
            <path d="M231.2768,102.0384 C231.2768,102.0384 227.7888,101.6854 226.9588,100.7074 C226.1288,99.7274 227.5768,98.0574 229.3388,98.0543918 C231.0998,98.0514 233.7768,98.8714 234.3498,99.9144 C234.9228,100.9564 234.8638,102.8734 231.2768,102.0384" id="Fill-91" fill="#FFFFFF"></path>
            <path d="M229.4067,103.1302 C229.3237,103.1262 229.2407,103.1182 229.1587,103.1082 C229.2027,103.1132 229.2457,103.1192 229.2897,103.1252 C229.0117,103.0862 228.7417,103.0132 228.4837,102.9052 L228.6007,102.9552 C228.5317,102.9252 228.4637,102.8942 228.3957,102.8592 C228.2777,102.8002 228.1477,102.7752 228.0167,102.8102 C227.9037,102.8422 227.7807,102.9302 227.7237,103.0352 C227.6057,103.2592 227.6557,103.5832 227.8997,103.7072 C228.3737,103.9452 228.8777,104.0812 229.4067,104.1112 C229.6637,104.1262 229.9087,103.8752 229.8967,103.6212 C229.8847,103.3432 229.6807,103.1472 229.4067,103.1302" id="Fill-93" fill="#F37B85"></path>
            <path d="M244.2612,107.1995 C244.6712,107.3095 245.0992,107.3675 245.5232,107.3715 C245.6482,107.3725 245.7822,107.3155 245.8692,107.2275 C245.9542,107.1425 246.0192,107.0035 246.0132,106.8815 C246.0012,106.6125 245.7982,106.3925 245.5232,106.3895 C245.3352,106.3885 245.1492,106.3755 244.9632,106.3505 C245.0062,106.3565 245.0502,106.3625 245.0932,106.3685 C244.9012,106.3425 244.7102,106.3035 244.5232,106.2535 C244.3992,106.2205 244.2552,106.2385 244.1442,106.3035 C244.0422,106.3625 243.9462,106.4785 243.9192,106.5955 C243.8902,106.7215 243.8972,106.8625 243.9682,106.9735 C244.0372,107.0815 244.1362,107.1665 244.2612,107.1995" id="Fill-95" fill="#F37B85"></path>
            <path d="M231.3188,101.6106 C232.8968,101.6106 232.8998,99.1576 231.3188,99.1576 C229.7398,99.1576 229.7378,101.6106 231.3188,101.6106" id="Fill-97" fill="#000000"></path>
            <path d="M244.6352,104.2679 C246.2142,104.2679 246.2162,101.8149 244.6352,101.8149 C243.0572,101.8149 243.0542,104.2679 244.6352,104.2679" id="Fill-99" fill="#000000"></path>
            <path d="M243.7915,97.0481 C244.6075,96.8511 245.5205,96.9421 246.2725,97.3421 C246.6835,97.5611 246.8885,97.7161 247.2045,98.0461 C247.4895,98.3431 247.6745,98.6161 247.8795,99.0451 C248.0515,99.4031 248.5625,99.4971 248.8865,99.3091 C249.2525,99.0941 249.3225,98.6611 249.1495,98.3021 C248.1275,96.1641 245.6835,95.0771 243.4005,95.6291 C243.0145,95.7221 242.7835,96.1591 242.8865,96.5341 C242.9945,96.9281 243.4035,97.1421 243.7915,97.0481" id="Fill-101" fill="#000000"></path>
            <path d="M238.601,130.2874 L250.563,122.1434 C250.563,122.1434 250.053,121.6544 249.363,120.2704 C248.79,119.1224 248.655,118.2424 248.655,118.2424 C248.655,118.2424 240.987,123.5014 235.864,123.2084 L238.601,130.2874 Z" id="Fill-103" fill="#F6A7AD"></path>
            <path d="M225.8374,96.0735 C224.3584,101.0145 223.4474,106.5715 224.0344,111.7145 C224.6644,117.2415 228.1214,122.9145 233.9604,123.9415 C238.2874,124.7025 242.6514,123.1875 246.5184,121.3645 C247.3734,120.9605 246.6274,119.6905 245.7744,120.0935 C240.2334,122.7065 232.8984,124.5165 228.4824,119.0065 C224.6054,114.1675 225.0134,107.5565 226.0344,101.8005 C226.3524,100.0075 226.7344,98.2105 227.2574,96.4645 C227.5294,95.5545 226.1084,95.1665 225.8374,96.0735" id="Fill-105" fill="#000000"></path>
            <path d="M235.2905,113.3196 C235.2755,113.3116 235.2335,117.0846 238.6085,117.7966 C241.9835,118.5066 245.0145,115.4226 245.4545,112.0816 C245.4545,112.0816 245.1625,111.0396 243.9405,112.0916 C242.7195,113.1436 238.8255,115.0376 235.2905,113.3196" id="Fill-107" fill="#000000"></path>
            <path d="M243.3999,111.93 C243.0969,113.811 240.7419,115.514 238.6989,115.49 C237.2769,115.472 236.7479,114.368 236.5559,113.461 C239.3819,114.078 242.1629,112.834 243.3999,111.93" id="Fill-109" fill="#FFFFFF"></path>
            <path d="M244.6215,114.5775 C243.6165,116.3965 241.8615,117.7715 239.8695,117.8905 C240.0355,117.1875 240.6515,116.1265 241.8555,115.2865 C242.8465,114.5965 243.8475,114.4215 244.6215,114.5775" id="Fill-111" fill="#FD2E59"></path>
            <path d="M246.7866,111.5862 C246.6236,111.4212 246.3286,111.3682 246.1296,111.5092 C246.1196,111.5162 246.1136,111.5252 246.1036,111.5332 C246.0906,111.5362 246.0766,111.5402 246.0636,111.5432 C246.0196,111.5542 245.9756,111.5642 245.9326,111.5712 C245.9266,111.5732 245.8976,111.5782 245.8756,111.5822 C245.8536,111.5852 245.8126,111.5892 245.8056,111.5902 C245.7676,111.5922 245.7306,111.5932 245.6946,111.5932 C245.6716,111.5922 245.6466,111.5902 245.6236,111.5882 C245.6036,111.5832 245.5666,111.5742 245.5576,111.5712 C245.5476,111.5692 245.5176,111.5562 245.5006,111.5522 C245.4926,111.5482 245.4856,111.5452 245.4776,111.5412 C245.4376,111.5202 245.3486,111.4822 245.3236,111.4432 C245.3396,111.4552 245.3536,111.4682 245.3696,111.4802 C245.3556,111.4682 245.3416,111.4562 245.3276,111.4432 C245.3046,111.4232 245.2816,111.4022 245.2596,111.3812 C245.2096,111.3342 245.1636,111.2842 245.1196,111.2332 C245.0986,111.2092 245.0776,111.1852 245.0576,111.1592 L245.0556,111.1572 C245.0196,111.1032 244.9806,111.0522 244.9466,110.9972 C244.8736,110.8822 244.8106,110.7612 244.7536,110.6382 C244.7526,110.6362 244.7526,110.6382 244.7526,110.6362 C244.7416,110.6062 244.7286,110.5762 244.7186,110.5462 C244.6956,110.4852 244.6766,110.4242 244.6586,110.3612 C244.6196,110.2252 244.5926,110.0852 244.5726,109.9442 C244.5566,109.8252 244.4326,109.6912 244.3346,109.6342 C244.2236,109.5692 244.0586,109.5422 243.9346,109.5822 C243.8086,109.6222 243.6876,109.7002 243.6256,109.8192 C243.5556,109.9522 243.5536,110.0732 243.5726,110.2202 C243.6256,110.6082 243.7566,111.0032 243.9516,111.3582 C243.4436,111.8842 242.7766,112.1902 242.1006,112.4612 C241.2886,112.7862 240.4476,113.0472 239.5856,113.2002 C237.9006,113.5012 236.1336,113.3072 234.6546,112.4112 C234.0836,112.0652 233.5606,112.9612 234.1326,113.3072 C235.8056,114.3192 237.7776,114.5362 239.6826,114.2302 C240.6676,114.0722 241.6236,113.7712 242.5446,113.3932 C243.2896,113.0872 244.0326,112.7372 244.6076,112.1692 C244.6466,112.2022 244.6786,112.2442 244.7186,112.2752 C244.8926,112.4102 245.0846,112.5192 245.2996,112.5752 C245.5656,112.6482 245.8286,112.6332 246.0976,112.5912 C246.3496,112.5522 246.6596,112.5052 246.8246,112.2922 C246.9886,112.0802 246.9786,111.7802 246.7866,111.5862" id="Fill-113" fill="#000000"></path>
            <path d="M247.1381,84.3226 L247.1421,84.3236 C247.1411,84.3236 247.1401,84.3236 247.1381,84.3226" id="Fill-115" fill="#0F9F49"></path>
            <path d="M255.187,97.6878 L259.482,97.5008 C259.038,92.8128 257.939,89.6058 253.381,85.0318 C250.955,82.5968 246.944,80.4998 244.792,80.4688 C240.49,80.4088 239.657,81.0888 239.301,81.3548 L242.636,81.3818 C242.636,81.3818 247.269,82.2238 250.259,86.3728 C255.285,93.3458 255.187,97.6878 255.187,97.6878" id="Fill-117" fill="#545454"></path>
            <path d="M255.9965,112.4593 C261.0815,113.4953 262.5585,109.3393 262.5585,109.3393 C262.5585,109.3393 264.4455,106.5563 263.1475,101.1483 C261.7715,95.4113 255.3385,94.4623 252.6825,98.4573 C250.0245,102.4523 250.9095,111.4223 255.9965,112.4593" id="Fill-119" fill="#004758"></path>
            <path d="M260.1684,107.0999 C260.8104,107.1419 261.4134,105.9299 261.5164,104.3909 C261.6184,102.8519 261.1814,101.5699 260.5394,101.5269 C259.8974,101.4839 259.2944,102.6969 259.1914,104.2359 C259.0894,105.7749 259.5264,107.0569 260.1684,107.0999" id="Fill-121" fill="#016981"></path>
            <path d="M255.7319,97.3675 C254.8159,97.8535 254.2499,98.8235 253.8499,99.7445 C253.3079,100.9945 253.0139,102.3455 252.8889,103.6985 C252.6409,106.3865 253.1309,110.4015 256.1839,111.3105 C256.7189,111.4705 256.9469,110.6355 256.4149,110.4765 C253.7289,109.6775 253.5279,105.8045 253.7719,103.5185 C253.8919,102.3915 254.1499,101.2505 254.5889,100.2025 C254.9199,99.4105 255.3809,98.5315 256.1689,98.1135 C256.6599,97.8515 256.2229,97.1055 255.7319,97.3675" id="Fill-123" fill="#016981"></path>
            <path d="M219.643,117.8851 C219.643,117.8851 221.307,117.1871 221.061,115.4011 C220.815,113.6151 218.642,113.5991 218.642,113.5991 C219.282,113.5451 220.469,112.3721 220.164,111.0091 C219.857,109.6431 218.124,109.4111 218.124,109.4111 C218.124,109.4111 219.08,109.1031 218.914,107.8941 C218.747,106.6861 217.789,105.7011 215.612,105.6501 C213.434,105.5991 209.83,106.2731 209.83,106.2731 C209.83,106.2731 209.561,105.5691 209.07,104.6091 C208.801,104.0821 208.465,103.4781 208.071,102.8711 C206.51,100.4741 202.972,101.4731 204.647,104.4941 C204.874,104.9051 205.109,105.3351 205.302,105.8051 C205.762,106.9031 205.689,107.8061 205.337,109.4241 C205.032,110.8221 205.019,115.2001 204.839,116.6681 L202.331,119.4971 C203.5,122.7821 205.191,126.2631 207.627,129.6421 L210.961,123.6361 C210.961,123.6361 210.851,123.9071 215.63,122.8391 C220.407,121.7701 221.72,120.1801 221.49,118.9211 C221.257,117.6621 219.643,117.8851 219.643,117.8851" id="Fill-132" fill="#F2A2A9"></path>
            <path d="M207.3266,108.2025 C207.5976,107.7915 207.9186,107.4305 208.2906,107.1065 C208.6476,106.7945 209.0316,106.4645 209.4546,106.2425 C209.9146,106.0015 210.4336,105.9205 210.9386,105.8225 C211.4586,105.7225 211.9816,105.6405 212.5076,105.5765 C213.0166,105.5145 213.0636,106.3105 212.5566,106.3725 C212.0976,106.4285 211.6386,106.4975 211.1836,106.5815 C210.7556,106.6605 210.2706,106.7185 209.8786,106.9165 C209.5196,107.0985 209.1846,107.3805 208.8816,107.6405 C208.5656,107.9135 208.2656,108.2195 208.0356,108.5675 C207.9166,108.7465 207.7046,108.8455 207.4986,108.7395 C207.3226,108.6485 207.2076,108.3835 207.3266,108.2025" id="Fill-134" fill="#000000"></path>
            <path d="M218.1635,109.9095 C217.0615,110.0275 215.9635,110.1805 214.8715,110.3705 C214.0265,110.5175 212.9705,110.6075 212.3605,111.2825 C212.0175,111.6625 211.4245,111.1295 211.7695,110.7475 C212.4695,109.9715 213.5275,109.8065 214.5045,109.6305 C215.7015,109.4145 216.9055,109.2425 218.1135,109.1135 C218.6255,109.0575 218.6735,109.8545 218.1635,109.9095" id="Fill-136" fill="#000000"></path>
            <path d="M218.6127,114.1194 C217.1437,114.3674 215.6897,114.6894 214.2537,115.0804 C213.7587,115.2154 213.5047,114.4594 214.0007,114.3234 C215.5037,113.9154 217.0267,113.5824 218.5627,113.3234 C218.7747,113.2874 218.9727,113.4974 218.9857,113.6964 C218.9997,113.9304 218.8257,114.0834 218.6127,114.1194" id="Fill-138" fill="#000000"></path>
            <path d="M215.4204,118.8597 C216.8644,118.6797 218.2694,118.2687 219.5884,117.6587 C219.7834,117.5677 220.0294,117.7217 220.0934,117.9107 C220.1674,118.1327 220.0374,118.3237 219.8414,118.4147 C218.4584,119.0547 216.9824,119.4677 215.4704,119.6557 C215.2564,119.6817 215.0604,119.4877 215.0474,119.2827 C215.0334,119.0557 215.2064,118.8857 215.4204,118.8597" id="Fill-140" fill="#000000"></path>
            <path d="M206.6704,120.14 C207.5064,121.603 208.6894,122.925 210.4244,123.214 C211.5844,123.408 212.7354,123.113 213.8594,122.849 C214.3564,122.733 214.6114,123.489 214.1114,123.606 C212.8204,123.909 211.5174,124.225 210.1854,123.982 C208.2844,123.633 206.9264,122.192 206.0024,120.577 C205.7484,120.132 206.4144,119.694 206.6704,120.14" id="Fill-142" fill="#000000"></path>
            <path d="M267.225,91.1507 C270.618,90.1527 278.321,85.4367 276.983,74.1307 C275.644,62.8257 258.91,56.1157 249.9,67.0047 C240.889,77.8827 251.66,95.7727 267.225,91.1507" id="Fill-144" fill="#FFE85E"></path>
            <path d="M265.3627,82.4271 C264.4767,82.2281 263.5907,82.0851 262.6997,81.9761 C263.2837,77.8471 263.6667,73.6931 264.2877,69.5701 C264.3547,69.1211 264.2427,68.6791 263.8257,68.4351 C263.4717,68.2291 262.8817,68.2481 262.6077,68.5931 C261.6757,69.7711 260.6587,70.9471 259.2147,71.4881 C258.0137,71.9381 258.5337,73.8811 259.7487,73.4251 C260.5677,73.1181 261.2737,72.6811 261.9217,72.1671 C261.5117,75.3861 261.1757,78.6131 260.7107,81.8231 C259.8967,81.7981 259.0827,81.8041 258.2597,81.8891 C257.7207,81.9451 257.2567,82.3111 257.2567,82.8941 C257.2567,83.3941 257.7167,83.9541 258.2597,83.8981 C260.5477,83.6631 262.6337,83.8731 264.8287,84.3641 C265.3577,84.4821 265.9157,84.2031 266.0647,83.6621 C266.2037,83.1571 265.8947,82.5451 265.3627,82.4271" id="Fill-146" fill="#000000"></path>
            <path d="M26.1352,35.6312 C24.5782,35.8252 23.0182,35.9912 21.4552,36.1422 C22.1962,34.9482 22.9362,33.7542 23.6752,32.5592 C24.5852,31.0872 25.5342,29.4502 25.4052,27.6522 C25.2902,26.0532 24.4302,24.5602 22.8352,24.0682 C21.3012,23.5972 19.6962,24.2062 18.7522,25.4562 C18.4242,25.8902 18.6832,26.5792 19.1122,26.8312 C19.6272,27.1322 20.1582,26.9052 20.4872,26.4702 C20.9572,25.8482 22.0512,25.7482 22.6662,26.1862 C23.5272,26.7982 23.5082,28.0742 23.2442,28.9822 C22.8522,30.3332 21.9462,31.5342 21.2132,32.7182 C20.3652,34.0852 19.5182,35.4542 18.6702,36.8222 C18.2922,37.4342 18.7742,38.4002 19.5382,38.3342 C21.7412,38.1462 23.9422,37.9152 26.1352,37.6402 C26.6742,37.5732 27.1412,37.2272 27.1412,36.6362 C27.1412,36.1462 26.6782,35.5642 26.1352,35.6312" id="Fill-148" fill="#000000"></path>
            <path d="M35.8168,34.4193 C35.5768,34.7013 35.3238,34.9273 35.0388,35.0973 C34.7618,35.2613 34.5158,35.3533 34.2918,35.3803 C34.3308,35.3763 34.1158,35.3823 34.0028,35.3783 C34.0418,35.3723 33.7168,35.3103 33.6518,35.2863 C33.3268,35.1713 32.9648,34.9453 32.6788,34.6943 C31.8848,34.0013 31.3618,33.1103 31.1998,32.0693 C31.0488,31.1113 31.0968,30.0753 31.2578,29.1223 C31.4228,28.1443 31.7058,27.0493 32.4078,26.3153 C32.5878,26.1273 32.8698,25.9253 33.0138,25.8613 C32.9218,25.9013 33.2178,25.8063 33.2918,25.7803 C33.3028,25.7763 33.3058,25.7743 33.3148,25.7713 C33.3308,25.7713 33.3438,25.7733 33.3718,25.7713 C35.2748,25.6583 36.3378,26.8553 36.8378,28.5093 C37.4058,30.3823 37.1218,32.8943 35.8168,34.4193 M38.9788,28.8573 C38.7778,27.6363 38.2558,26.4933 37.4928,25.5233 C36.4888,24.2493 34.9778,23.6673 33.3718,23.7613 C31.1868,23.8413 29.9168,26.0233 29.4568,27.9163 C29.1548,29.1593 29.0368,30.4973 29.1528,31.7713 C29.2898,33.2603 29.7868,34.5053 30.7828,35.6383 C31.5618,36.5223 32.6708,37.2633 33.8668,37.3783 C34.8658,37.4743 35.8258,37.0543 36.5938,36.4463 C38.7628,34.7313 39.4098,31.4603 38.9788,28.8573" id="Fill-150" fill="#000000"></path>
            <mask id="mask-2" fill="white">
                <use xlink:href="#path-1"></use>
            </mask>
            <g id="Clip-127"></g>
            <polygon id="Fill-126" fill="#D9D9D9" mask="url(#mask-2)" points="242.3569 104.8275 262.7079 106.1825 261.6749 121.6775 241.3259 120.3215"></polygon>
            <mask id="mask-4" fill="white">
                <use xlink:href="#path-3"></use>
            </mask>
            <g id="Clip-130"></g>
            <polygon id="Fill-129" fill="#545454" mask="url(#mask-4)" points="240.6704 113.6751 247.9754 114.1621 247.4884 121.4671 240.1834 120.9811"></polygon>
        </g>
    </g>
</svg>