<?xml version="1.0" encoding="UTF-8"?>
<svg width="313px" height="189px" viewBox="0 0 313 189" version="1.1" xmlns="http://www.w3.org/2000/svg" xmlns:xlink="http://www.w3.org/1999/xlink">
    <title>2017 milestones </title>
    <g id="2017-milestones-" stroke="none" stroke-width="1" fill="none" fill-rule="evenodd">
        <g transform="translate(11.000000, 5.000000)">
            <path d="M21.7295,174.9075 C29.2505,177.2055 37.2205,177.4445 45.0795,177.5905 C85.3505,178.3365 120.6975,179.3715 158.4715,179.0285 C171.7355,178.9075 184.9285,178.6855 200.4155,178.5135 C219.5485,178.3015 243.9995,178.1895 263.3905,177.7435 C272.1795,177.5395 282.1035,170.6085 286.5905,163.0035 C291.0045,155.5225 290.9905,146.3115 290.7975,137.6155 C290.1655,108.8805 292.4755,76.1445 290.7545,47.4545 C290.3665,40.9425 289.9265,34.3295 287.7015,28.2035 C284.3645,19.0185 276.9195,11.4335 267.8325,7.9575 C260.6635,5.2155 252.8235,4.9895 245.1555,4.8755 C206.8815,4.3065 182.1135,4.3815 142.0115,4.6615 C116.7735,5.0685 86.5515,2.7775 61.3155,3.1835 C44.3335,3.4585 18.9545,4.9665 8.9625,18.7805 C3.8975,25.7865 1.1175,34.6165 1.1755,43.2835 C1.3985,77.1945 0.1455,107.7275 0.0025,140.1015 C-0.0295,147.2225 0.1205,154.6585 3.4135,160.9655 C7.0675,167.9675 14.2085,172.6075 21.7295,174.9075" id="Fill-1" fill="#76C11C"></path>
            <path d="M248.0576,38.5784 L69.6826,16.3174 C63.9596,15.6034 58.7426,19.6634 58.0276,25.3864 L42.9016,146.5944 C42.1866,152.3164 46.2466,157.5354 51.9696,158.2494 C51.9696,158.2494 209.4656,177.7154 226.4066,179.7144 C243.3456,181.7134 242.6636,166.1264 242.6636,166.1264 L257.1266,50.2334 C257.8406,44.5114 253.7806,39.2924 248.0576,38.5784" id="Fill-4" fill="#004859"></path>
            <path d="M49.1875,141.6741 L48.2155,149.4601 C47.9825,151.3291 49.3085,153.0331 51.1775,153.2671 C51.1775,153.2671 221.3045,175.0441 230.4515,175.5131 C235.8455,175.7891 236.4995,170.0611 236.4995,170.0611 L237.1165,165.1271 L49.1875,141.6741 Z" id="Fill-7" fill="#A4A4A4"></path>
            <path d="M248.416,48.3265 C240.77,45.6155 220.355,38.9725 200.951,37.8255 C170.479,36.0245 157.175,41.0375 157.175,41.0375 L141.758,164.5705 C141.758,164.5705 160.808,162.4695 182.003,162.9205 C198.645,163.2745 226.09,168.2375 236.339,170.8535 L236.988,166.1525 L251.141,52.7495 C251.382,50.8165 250.251,48.9775 248.416,48.3265" id="Fill-9" fill="#E7E7E7"></path>
            <path d="M63.2119,29.2962 L48.2849,148.9012 C48.2849,148.9012 72.8809,148.3372 103.1519,153.0792 C124.0969,156.3602 141.7579,164.5702 141.7579,164.5702 L157.1749,41.0372 C157.1749,41.0372 145.5099,32.9082 115.5289,27.1652 C96.4389,23.5082 75.0189,24.9302 66.9409,25.6792 C65.0009,25.8582 63.4529,27.3632 63.2119,29.2962" id="Fill-11" fill="#E7E7E7"></path>
            <path d="M127.3252,127.1214 C126.8772,130.1094 123.9222,132.0304 121.0122,131.2184 C111.4932,128.5584 91.4052,123.3554 75.9352,122.1354 C60.6162,120.9274 40.2502,122.3594 30.3432,123.2244 C27.2462,123.4944 24.6522,120.9214 24.8972,117.8224 L29.3782,61.0084 C29.5652,58.6294 31.3992,56.7144 33.7662,56.4164 C42.4332,55.3274 63.5372,53.1674 83.3252,54.9514 C106.5712,57.0474 125.0802,64.0694 132.5212,67.2674 C134.6202,68.1704 135.8402,70.3694 135.5012,72.6294 L127.3252,127.1214 Z" id="Fill-13" fill="#B3E7F3"></path>
            <path d="M172.6319,57.9671 L163.2479,117.0101 C162.7909,119.8871 164.9359,122.5201 167.8459,122.6451 C177.1649,123.0441 196.1669,124.0261 206.8419,125.7341 C225.2449,128.6791 242.0079,132.6491 250.1759,134.7021 C252.9819,135.4071 255.7729,133.5281 256.1829,130.6641 L264.9519,69.4911 C265.2749,67.2401 264.0029,65.0711 261.8819,64.2511 C255.0469,61.6121 238.8499,56.2241 216.3049,54.2741 C197.3279,52.6321 183.3969,53.3421 177.0449,53.8741 C174.8049,54.0621 172.9859,55.7471 172.6319,57.9671" id="Fill-15" fill="#AFE46A"></path>
            <path d="M133.9287,145.1897 C116.9497,137.7017 98.4777,133.7747 79.9187,133.6297 C74.7357,133.5887 69.5537,133.8617 64.4027,134.4347 C63.0967,134.5797 61.9697,135.4487 61.9697,136.8667 C61.9697,138.0697 63.0887,139.4447 64.4027,139.2987 C82.2317,137.3157 100.4037,139.0227 117.5627,144.2507 C122.2927,145.6917 126.9487,147.3937 131.4737,149.3897 C132.6747,149.9187 134.0847,149.7407 134.8017,148.5167 C135.4057,147.4837 135.1367,145.7217 133.9287,145.1897" id="Fill-17" fill="#A4A4A4"></path>
            <path d="M143.8252,48.8645 C126.8462,41.3765 108.3742,37.4495 89.8152,37.3045 C84.6322,37.2645 79.4502,37.5365 74.2992,38.1105 C72.9932,38.2555 71.8662,39.1245 71.8662,40.5425 C71.8662,41.7435 72.9842,43.1205 74.2992,42.9735 C92.1282,40.9905 110.3002,42.6975 127.4582,47.9255 C132.1892,49.3665 136.8452,51.0685 141.3702,53.0645 C142.5712,53.5945 143.9812,53.4155 144.6972,52.1925 C145.3022,51.1585 145.0332,49.3975 143.8252,48.8645" id="Fill-19" fill="#A4A4A4"></path>
            <path d="M227.7656,139.7669 C208.1886,134.0849 187.4486,130.6379 167.0046,131.1969 C165.7326,131.2309 164.4546,131.2709 163.1866,131.3819 C161.8776,131.4969 160.7546,132.4169 160.7546,133.8139 C160.7546,135.0399 161.8696,136.3619 163.1866,136.2459 C166.9366,135.9169 170.7436,135.9699 174.4986,136.0669 C184.4086,136.3219 194.2936,137.4129 204.0456,139.1739 C211.6086,140.5399 219.0926,142.3159 226.4726,144.4569 C229.4846,145.3309 230.7706,140.6389 227.7656,139.7669" id="Fill-21" fill="#A4A4A4"></path>
            <path d="M225.167,155.4974 C216.063,152.4694 206.953,149.5924 197.394,148.4334 C189.339,147.4574 181.179,147.2434 173.071,147.2984 C168.805,147.3264 164.537,147.4504 160.278,147.7164 C158.968,147.7974 157.847,148.7744 157.847,150.1474 C157.847,151.4014 158.961,152.6614 160.278,152.5794 C168.066,152.0954 175.892,152.0324 183.688,152.3064 C191.813,152.5914 199.857,153.2924 207.761,155.2734 C213.211,156.6404 218.546,158.4154 223.874,160.1864 C226.851,161.1774 228.127,156.4814 225.167,155.4974" id="Fill-23" fill="#A4A4A4"></path>
            <path d="M53.0195,64.9251 C53.0085,64.9191 52.9985,64.9121 52.9875,64.9061 C53.1455,64.9091 53.1625,64.9161 53.0195,64.9251 M54.4825,62.6831 C53.7685,61.9571 52.5825,62.0921 51.6465,62.0561 C49.6095,61.9781 47.5715,61.9681 45.5345,62.0211 C43.7395,62.0671 43.7335,64.8601 45.5345,64.8141 C46.8375,64.7801 48.1415,64.7711 49.4465,64.7901 C50.0985,64.8001 50.7495,64.8171 51.4015,64.8401 C51.5245,64.8441 51.6475,64.8501 51.7705,64.8551 C51.7675,64.8611 51.7655,64.8661 51.7625,64.8731 C51.5555,65.3761 51.3155,65.8681 51.0955,66.3661 C50.6405,67.3941 50.2025,68.4291 49.7815,69.4711 C48.9525,71.5231 48.1985,73.6031 47.5125,75.7061 C46.9565,77.4191 49.6515,78.1541 50.2065,76.4481 C50.8165,74.5731 51.4815,72.7181 52.2065,70.8851 C52.9205,69.0781 53.7795,67.3331 54.4915,65.5271 C54.8415,64.6391 55.2665,63.4791 54.4825,62.6831" id="Fill-25" fill="#A4A4A4"></path>
            <path d="M41.2217,74.8753 C40.7197,74.8723 40.2197,74.8993 39.7197,74.9113 C39.9367,71.2103 40.2547,67.5123 40.7337,63.8353 C40.7427,63.7823 40.7497,63.7303 40.7527,63.6783 C40.7547,63.6653 40.7557,63.6513 40.7567,63.6403 C40.8147,63.2073 40.5657,62.8133 40.2157,62.5543 C40.2007,62.5423 40.1857,62.5303 40.1707,62.5193 C40.1257,62.4883 40.0797,62.4623 40.0347,62.4373 C39.9967,62.4163 39.9617,62.3963 39.9247,62.3783 C39.8677,62.3533 39.8097,62.3333 39.7507,62.3133 C39.7337,62.3093 39.7157,62.3023 39.6987,62.2963 C39.5847,62.2653 39.4717,62.2433 39.3607,62.2433 C39.1077,62.2433 38.8927,62.3083 38.7077,62.4113 C38.6907,62.4193 38.6727,62.4243 38.6567,62.4343 C38.0367,62.7763 37.4457,63.1703 36.8657,63.5733 C36.2017,64.0353 35.5467,64.5173 34.9327,65.0423 C34.6737,65.2653 34.5247,65.7003 34.5247,66.0303 C34.5247,66.3723 34.6757,66.7813 34.9327,67.0173 C35.1997,67.2623 35.5477,67.4423 35.9207,67.4273 C36.3067,67.4093 36.6147,67.2693 36.9077,67.0173 C37.0437,66.9013 37.1837,66.7913 37.3247,66.6813 C37.4217,66.6063 37.5247,66.5363 37.6237,66.4623 C37.3107,69.3083 37.0847,72.1623 36.9187,75.0193 C36.9187,75.0253 36.9207,75.0323 36.9207,75.0383 C36.1987,75.0913 35.4767,75.1363 34.7567,75.2163 C34.0337,75.2963 33.3247,75.8003 33.3607,76.6123 C33.3917,77.3003 33.9797,78.0963 34.7567,78.0093 C36.9037,77.7713 39.0617,77.6563 41.2217,77.6683 C41.9517,77.6733 42.6517,77.0223 42.6177,76.2713 C42.5827,75.5123 42.0037,74.8803 41.2217,74.8753" id="Fill-27" fill="#A4A4A4"></path>
            <path d="M242.1279,75.9934 C239.0609,75.3124 235.9839,74.6794 232.9309,74.0404 C231.9829,73.8414 231.0329,73.6474 230.0829,73.4534 C230.3639,71.3234 230.6299,69.1914 230.8799,67.0574 C234.4829,67.8744 238.0659,68.7924 241.6219,69.7764 C242.1259,69.9154 242.6319,70.0544 243.1379,70.1924 C242.7879,72.1244 242.4509,74.0564 242.1279,75.9934 M240.7379,84.7064 C237.7589,84.0494 234.7739,83.4334 231.8079,82.8134 C230.8329,82.6084 229.8559,82.4094 228.8779,82.2094 C229.1999,79.9724 229.5129,77.7334 229.8159,75.4944 C233.8189,76.3114 237.8039,77.2004 241.7699,78.1284 C241.4129,80.3174 241.0689,82.5114 240.7379,84.7064 M239.4869,93.3284 C235.5389,92.4624 231.5549,91.7394 227.5819,91.0754 C227.9169,88.7984 228.2499,86.5214 228.5809,84.2444 C232.5469,85.0534 236.4949,85.9314 240.4239,86.8484 C240.1049,89.0074 239.7919,91.1674 239.4869,93.3284 M238.2159,102.4684 C235.1819,101.7854 232.1369,101.1554 229.1149,100.5194 C228.1769,100.3214 227.2369,100.1304 226.2979,99.9394 C226.6179,97.6744 226.9459,95.4094 227.2779,93.1444 C230.4639,93.7064 233.6429,94.3094 236.8079,94.9724 C237.5999,95.1374 238.3919,95.3114 239.1839,95.4834 C238.8579,97.8114 238.5359,100.1394 238.2159,102.4684 M225.0529,109.2404 C225.3569,106.8244 225.6749,104.4094 226.0099,101.9974 C229.9929,102.8104 233.9609,103.6974 237.9169,104.6254 C237.6029,106.9074 237.2849,109.1884 236.9649,111.4684 C233.0049,110.6614 229.0239,109.9384 225.0529,109.2404 M221.6039,108.6364 C217.9049,107.9894 214.1979,107.3634 210.4829,106.7764 C210.9309,104.3254 211.3809,101.8764 211.8199,99.4234 C212.0209,99.4544 212.2219,99.4794 212.4219,99.5114 C216.2829,100.1294 220.1299,100.8414 223.9689,101.6004 C223.6299,104.0254 223.3099,106.4524 223.0019,108.8814 C222.5359,108.8004 222.0689,108.7184 221.6039,108.6364 M198.1629,105.0294 C198.5539,102.6594 198.9439,100.2884 199.3329,97.9174 C202.8159,98.2644 206.2879,98.6374 209.7549,99.1224 C209.3149,101.5674 208.8659,104.0114 208.4209,106.4544 C205.0079,105.9304 201.5879,105.4524 198.1629,105.0294 M188.1529,103.9794 C187.4819,103.9234 186.8039,103.8684 186.1229,103.8144 C186.4229,101.5074 186.7299,99.2004 187.0459,96.8974 C190.4519,97.0594 193.8519,97.3754 197.2549,97.7104 C196.8679,100.0664 196.4819,102.4224 196.0919,104.7774 C193.4489,104.4714 190.8039,104.2004 188.1529,103.9794 M188.2799,88.3914 C188.6609,88.4144 189.0429,88.4344 189.4229,88.4584 C192.5049,88.6474 195.5809,88.9154 198.6539,89.2224 C198.2989,91.3654 197.9449,93.5084 197.5939,95.6514 C194.1749,95.3234 190.7609,95.0014 187.3389,94.8254 C187.6409,92.6794 187.9549,90.5344 188.2799,88.3914 M189.6739,79.7904 C193.1829,79.7844 196.6869,79.9014 200.1839,80.1454 C199.7829,82.4774 199.3899,84.8114 198.9999,87.1454 C196.4019,86.8894 193.8019,86.6664 191.1999,86.4814 C190.3369,86.4204 189.4699,86.3584 188.6009,86.3034 C188.9399,84.1294 189.2979,81.9584 189.6739,79.7904 M192.9739,63.4364 C193.8989,63.4324 194.8259,63.4344 195.7489,63.4384 C198.2319,63.4494 200.7169,63.4954 203.1999,63.5804 C202.8269,65.5014 202.4629,67.4254 202.1069,69.3484 C198.6669,69.1264 195.2099,68.9754 191.7519,68.9464 C192.1389,67.1064 192.5459,65.2704 192.9739,63.4364 M210.6649,63.9534 C212.3549,64.0654 214.0379,64.2334 215.7179,64.4254 C215.3729,66.5144 215.0259,68.6044 214.6769,70.6944 C211.1969,70.1864 207.7049,69.7834 204.1999,69.5084 C204.5619,67.5594 204.9329,65.6134 205.3119,63.6694 C207.0969,63.7454 208.8819,63.8354 210.6649,63.9534 M215.2609,79.7284 C215.6389,77.5144 216.0199,75.2994 216.3919,73.0834 C220.1989,73.6624 223.9939,74.3394 227.7749,75.0864 C227.4739,77.3254 227.1619,79.5634 226.8409,81.8004 C222.9949,81.0344 219.1359,80.3284 215.2609,79.7284 M223.1099,90.3414 C219.9729,89.8334 216.8269,89.3584 213.6759,88.9164 C214.0899,86.5464 214.4969,84.1754 214.9049,81.8044 C218.7989,82.3884 222.6799,83.0764 226.5459,83.8394 C226.2119,86.1384 225.8759,88.4374 225.5369,90.7364 C224.7279,90.6044 223.9169,90.4724 223.1099,90.3414 M213.3139,90.9684 C217.2959,91.5114 221.2729,92.1144 225.2349,92.7884 C224.9049,95.0364 224.5799,97.2844 224.2609,99.5334 C220.2449,98.7414 216.2199,98.0204 212.1769,97.4024 C212.5599,95.2584 212.9369,93.1124 213.3139,90.9684 M203.9459,89.7884 C206.3799,90.0674 208.8139,90.3694 211.2439,90.6884 C210.8689,92.8254 210.4939,94.9604 210.1129,97.0954 C206.7659,96.6124 203.4069,96.1994 200.0329,95.8844 C199.9129,95.8724 199.7929,95.8604 199.6729,95.8494 C200.0239,93.7104 200.3769,91.5714 200.7319,89.4334 C201.8039,89.5484 202.8759,89.6654 203.9459,89.7884 M212.8409,81.5014 C212.4329,83.8774 212.0239,86.2534 211.6079,88.6284 C208.1049,88.1534 204.5929,87.7304 201.0759,87.3614 C201.4689,85.0134 201.8649,82.6634 202.2699,80.3174 C205.8019,80.6094 209.3259,81.0074 212.8409,81.5014 M203.8189,71.5794 C207.3309,71.8784 210.8349,72.2844 214.3299,72.7804 C213.9579,74.9934 213.5769,77.2034 213.1979,79.4134 C209.6889,78.9084 206.1659,78.5114 202.6299,78.2454 C203.0179,76.0204 203.4149,73.8004 203.8189,71.5794 M200.5389,78.0954 C197.0479,77.8764 193.5409,77.7344 190.0349,77.7194 C190.4369,75.4814 190.8649,73.2484 191.3159,71.0184 C194.7919,71.0264 198.2639,71.1554 201.7289,71.4074 C201.3229,73.6344 200.9269,75.8644 200.5389,78.0954 M228.8379,66.6114 C228.5879,68.7574 228.3229,70.9014 228.0419,73.0424 C224.2879,72.2944 220.5199,71.6004 216.7359,71.0094 C217.0899,68.8974 217.4409,66.7874 217.7879,64.6754 C221.4949,65.1654 225.1789,65.8274 228.8379,66.6114 M254.6079,73.9944 C255.8279,74.5424 256.8949,72.7374 255.6649,72.1854 C252.4169,70.7274 248.9559,69.6984 245.5319,68.7104 C245.6419,68.1234 245.7419,67.5334 245.8559,66.9464 C246.1079,65.6294 244.0899,65.0654 243.8349,66.3894 C243.7239,66.9714 243.6239,67.5554 243.5149,68.1374 C239.4149,66.9734 235.2819,65.9154 231.1219,64.9844 C231.1789,64.4774 231.2439,63.9714 231.2989,63.4644 C231.4419,62.1254 229.3469,62.1354 229.2039,63.4644 C229.1649,63.8254 229.1179,64.1854 229.0779,64.5474 C228.3869,64.3994 227.6959,64.2434 227.0039,64.1024 C224.0499,63.5034 221.0889,63.0374 218.1229,62.6594 C218.1749,62.3464 218.2279,62.0324 218.2789,61.7184 C218.4949,60.3994 216.4769,59.8324 216.2589,61.1614 C216.1909,61.5754 216.1209,61.9874 216.0539,62.4014 C212.6179,62.0164 209.1729,61.7644 205.7129,61.5984 C205.7549,61.3854 205.7949,61.1714 205.8379,60.9564 C206.1009,59.6394 204.0819,59.0774 203.8169,60.3994 C203.7429,60.7704 203.6749,61.1414 203.6019,61.5134 C201.6719,61.4404 199.7389,61.3874 197.7999,61.3614 C196.3619,61.3434 194.9179,61.3274 193.4719,61.3274 C193.6099,60.7564 193.7339,60.1824 193.8779,59.6124 C194.2059,58.3054 192.1869,57.7474 191.8569,59.0564 C191.6669,59.8164 191.4999,60.5814 191.3169,61.3434 C188.5359,61.3844 185.7569,61.5164 183.0109,61.8604 C181.6899,62.0264 181.6739,64.1244 183.0109,63.9564 C185.5929,63.6324 188.2039,63.5134 190.8149,63.4674 C190.3949,65.2894 189.9959,67.1154 189.6159,68.9444 C186.8499,68.9624 184.0849,69.0614 181.3329,69.2714 C179.9969,69.3744 179.9859,71.4704 181.3329,71.3664 C183.9499,71.1664 186.5669,71.0554 189.1809,71.0184 C188.7329,73.2494 188.3099,75.4834 187.9109,77.7224 C185.3389,77.7504 182.7699,77.8484 180.2099,78.0454 C178.8739,78.1474 178.8629,80.2434 180.2099,80.1394 C182.6609,79.9524 185.1089,79.8484 187.5559,79.8064 C187.1899,81.9294 186.8429,84.0564 186.5109,86.1844 C184.1509,86.0714 181.7839,86.0404 179.4419,86.2324 C178.1079,86.3414 178.0969,88.4364 179.4419,88.3274 C181.6799,88.1434 183.9389,88.1814 186.1899,88.2844 C185.8659,90.4334 185.5519,92.5864 185.2509,94.7404 C182.8809,94.6664 180.5069,94.6714 178.1239,94.8234 C176.7849,94.9094 176.7749,97.0054 178.1239,96.9184 C180.4069,96.7714 182.6849,96.7554 184.9579,96.8174 C184.6459,99.0984 184.3429,101.3844 184.0459,103.6694 C181.3349,103.5074 178.6009,103.4754 175.9449,103.8894 C174.6169,104.0964 175.1809,106.1144 176.5019,105.9094 C178.8019,105.5524 181.3179,105.6084 183.7779,105.7574 C183.6029,107.1224 183.4269,108.4874 183.2529,109.8544 C183.0839,111.1884 185.1809,111.1764 185.3489,109.8544 C185.5159,108.5344 185.6869,107.2174 185.8569,105.8974 C186.1409,105.9194 186.4269,105.9404 186.7069,105.9614 C189.7269,106.1824 192.7389,106.4954 195.7469,106.8524 C195.5569,107.9944 195.3679,109.1364 195.1769,110.2764 C194.9549,111.5964 196.9739,112.1634 197.1959,110.8344 C197.4049,109.5914 197.6109,108.3474 197.8169,107.1034 C199.2319,107.2824 200.6459,107.4684 202.0579,107.6634 C204.0539,107.9384 206.0479,108.2394 208.0419,108.5384 C207.8599,109.5264 207.6849,110.5164 207.5029,111.5054 C207.2589,112.8234 209.2779,113.3884 209.5229,112.0614 C209.7209,110.9894 209.9109,109.9144 210.1079,108.8414 C214.3289,109.4914 218.5409,110.2084 222.7469,110.9584 C222.6379,111.8524 222.5199,112.7474 222.4169,113.6414 C222.2629,114.9784 224.3579,114.9684 224.5109,113.6414 C224.6009,112.8684 224.7019,112.0974 224.7959,111.3244 C228.2399,111.9524 231.6799,112.6004 235.1099,113.2904 C235.6279,113.3944 236.1459,113.5014 236.6629,113.6054 C236.5849,114.1534 236.5089,114.7024 236.4309,115.2494 C236.2409,116.5674 238.2589,117.1384 238.4499,115.8064 C238.5359,115.2124 238.6179,114.6174 238.7019,114.0234 C241.6689,114.6384 244.6299,115.2924 247.5539,116.0744 C248.8569,116.4234 249.4139,114.4034 248.1099,114.0544 C245.1009,113.2494 242.0599,112.5424 239.0029,111.8914 C239.3209,109.6284 239.6379,107.3624 239.9489,105.0954 C242.8459,105.7864 245.7669,106.4584 248.6119,107.3394 C249.9029,107.7394 250.4549,105.7184 249.1689,105.3194 C246.2369,104.4114 243.2519,103.6404 240.2469,102.9344 C240.5679,100.6024 240.8919,98.2704 241.2179,95.9384 C244.5709,96.7074 247.9069,97.5714 251.1609,98.6794 C252.4409,99.1134 252.9889,97.0914 251.7179,96.6584 C248.3829,95.5244 244.9709,94.5914 241.5219,93.7834 C241.8249,91.6304 242.1369,89.4774 242.4549,87.3264 C242.8329,87.4164 243.2119,87.5034 243.5889,87.5934 C246.6639,88.3274 249.7679,89.0344 252.7899,89.9714 C254.0799,90.3704 254.6319,88.3484 253.3469,87.9514 C249.8769,86.8764 246.3349,85.9774 242.7739,85.1624 C243.1049,82.9734 243.4479,80.7894 243.8029,78.6064 C244.1059,78.6784 244.4089,78.7484 244.7119,78.8204 C247.7869,79.5544 250.8909,80.2614 253.9129,81.1984 C255.2029,81.5974 255.7549,79.5764 254.4699,79.1784 C251.0869,78.1304 247.6359,77.2514 244.1649,76.4524 C244.4819,74.5504 244.8139,72.6504 245.1569,70.7534 C248.3699,71.6554 251.5929,72.6414 254.6079,73.9944" id="Fill-29" fill="#95D34C"></path>
            <path d="M252.8526,66.7464 L245.4416,69.9094 C244.7696,70.1964 244.6346,71.1134 245.1956,71.5894 L246.6726,72.8424 C242.7096,77.5424 238.7466,82.2434 234.7826,86.9434 C233.7396,85.3924 232.6536,83.8754 231.4736,82.4094 C230.8606,81.6474 229.4636,81.7264 228.8396,82.4094 C224.8896,86.7244 220.8166,90.9244 216.8116,95.1884 C213.9406,92.3664 211.0686,89.5444 208.1976,86.7224 C207.4416,85.9794 206.3316,86.0584 205.5636,86.7224 C196.7536,94.3404 188.9406,103.6884 181.1516,112.3254 C179.5496,114.1004 182.1746,116.7434 183.7846,114.9584 C191.1636,106.7764 198.5746,97.9754 206.8236,90.5934 C209.7306,93.4504 212.6386,96.3084 215.5456,99.1664 C216.2456,99.8524 217.4876,99.9094 218.1796,99.1664 C222.1066,94.9504 226.1186,90.8144 230.0366,86.5914 C231.0886,88.0064 232.0616,89.4604 232.9876,90.9824 C233.5656,91.9334 235.1166,92.3034 235.9126,91.3594 C240.4426,85.9874 244.9726,80.6144 249.5026,75.2424 L250.8866,76.4154 C251.4436,76.8884 252.2916,76.5894 252.4476,75.8644 L254.1666,67.8734 C254.3356,67.0904 253.5756,66.4374 252.8526,66.7464" id="Fill-31" fill="#005400"></path>
            <path d="M221.2735,118.1048 L218.2965,115.1038 C217.6935,114.4598 217.3715,114.4438 216.5865,114.8618 L212.8875,116.9998 C212.5195,117.2118 212.5935,117.7928 213.3205,117.8938 L214.4235,118.0478 L213.7775,122.5118 C213.7015,123.0398 214.0665,123.5298 214.5945,123.6058 L217.7775,124.0668 C218.3045,124.1428 218.7945,123.7778 218.8715,123.2498 L219.5215,118.7588 L220.6955,118.9228 C221.4175,119.0238 221.5745,118.4098 221.2735,118.1048" id="Fill-33" fill="#00AE00"></path>
            <path d="M226.5283,120.1849 C226.6333,120.1229 226.7433,120.0689 226.8403,119.9919 C227.3733,119.5619 227.6263,118.8359 227.3883,118.1769 C226.9303,116.9109 224.9123,116.3909 223.9523,117.4069 C223.5203,117.8639 224.2103,118.5559 224.6433,118.0969 C225.0843,117.6309 226.2453,117.8549 226.4673,118.5029 C226.8003,119.4679 225.1743,119.6689 224.5853,119.6379 C224.3203,119.6239 224.0953,119.8729 224.0953,120.1259 C224.0953,120.4149 224.3213,120.5859 224.5853,120.6159 C225.2753,120.6929 226.1013,120.8999 226.5943,121.4269 C226.9993,121.8599 226.7583,122.4219 226.2883,122.7029 C226.1433,122.7889 225.8893,122.8369 225.6873,122.8509 C225.3923,122.8719 225.0923,122.8589 224.7993,122.8219 C224.5343,122.7869 224.2693,122.7279 224.0123,122.6519 C223.7793,122.5809 223.7253,122.5789 223.5323,122.4379 C223.3173,122.2829 222.9873,122.4019 222.8633,122.6129 C222.7183,122.8609 222.8243,123.1259 223.0383,123.2829 C223.4183,123.5579 223.9553,123.6679 224.4083,123.7439 C225.0183,123.8449 225.6593,123.8919 226.2653,123.7459 C226.9133,123.5909 227.4543,123.0889 227.6883,122.4679 C227.9593,121.7529 227.6593,121.0229 227.0893,120.5559 C226.9123,120.4129 226.7243,120.2899 226.5283,120.1849" id="Fill-35" fill="#000000"></path>
            <path d="M232.7246,122.6712 C232.6896,123.1032 232.4896,123.5482 232.0526,123.6872 C231.6516,123.8152 231.2076,123.7502 230.8406,123.5522 C230.3816,123.3062 230.1416,122.9292 230.0396,122.5032 C230.0616,122.1572 230.1836,121.8452 230.4336,121.5912 C230.6626,121.3592 230.8716,121.2432 231.1546,121.1872 C231.5966,121.1002 232.0896,121.1652 232.4106,121.5122 C232.6886,121.8142 232.7566,122.2762 232.7246,122.6712 M231.5886,120.1752 C231.1396,120.1592 230.7196,120.2762 230.3496,120.4742 C230.7686,119.5412 231.4846,118.7542 232.5696,118.6482 C232.8326,118.6212 233.0586,118.4412 233.0586,118.1582 C233.0586,117.9142 232.8336,117.6442 232.5696,117.6692 C231.7856,117.7472 231.0576,118.0402 230.4726,118.5782 C229.9206,119.0862 229.5646,119.7732 229.2996,120.4642 C229.0436,121.1362 228.9436,121.8762 229.0596,122.5562 C229.0596,122.5812 229.0526,122.6052 229.0536,122.6302 C229.0546,122.7432 229.0946,122.8292 229.1476,122.9012 C229.3266,123.4962 229.6876,124.0252 230.3116,124.3762 C230.8966,124.7062 231.6116,124.8252 232.2646,124.6442 C232.9866,124.4432 233.4776,123.8512 233.6376,123.1282 C233.7796,122.4912 233.7106,121.7802 233.3886,121.2062 C233.0276,120.5642 232.3116,120.1982 231.5886,120.1752" id="Fill-37" fill="#000000"></path>
            <path d="M238.0498,124.6009 C237.3298,125.0179 236.4428,124.9149 235.8518,124.3279 C235.1348,123.6149 235.2338,122.6029 235.5558,121.7199 C235.7248,121.2549 236.0088,120.8299 236.3998,120.5229 C236.7788,120.2249 237.2008,120.1549 237.6718,120.1789 C238.6268,120.2259 239.0838,121.2519 239.1078,122.0839 C239.1328,123.0089 238.9088,124.1039 238.0498,124.6009 M237.6718,119.2019 C236.3888,119.1349 235.3158,119.8879 234.7848,121.0439 C234.2198,122.2759 234.0848,123.7469 234.9988,124.8409 C235.7988,125.7999 237.1238,126.0799 238.2568,125.5859 C239.5368,125.0299 240.0288,123.6909 240.0828,122.3769 C240.1448,120.8939 239.3088,119.2809 237.6718,119.2019" id="Fill-39" fill="#000000"></path>
            <path d="M245.207,125.679 C244.571,126.396 243.523,126.54 242.747,125.944 C242.02,125.386 241.8,124.433 242.06,123.577 C242.36,122.584 243.238,121.955 244.211,121.719 C244.264,121.723 244.317,121.724 244.37,121.714 C244.708,121.652 245.098,121.803 245.374,121.995 C245.722,122.237 245.841,122.654 245.892,123.057 C246.009,123.972 245.835,124.973 245.207,125.679 M246.879,123.152 C246.815,122.413 246.597,121.699 245.985,121.238 C245.537,120.9 244.981,120.726 244.424,120.749 C244.336,120.723 244.243,120.71 244.147,120.729 C242.848,120.97 241.697,121.82 241.207,123.064 C240.734,124.261 240.994,125.694 241.972,126.563 C243.009,127.486 244.571,127.546 245.635,126.632 C246.623,125.783 246.987,124.411 246.879,123.152" id="Fill-41" fill="#000000"></path>
            <path d="M126.0664,81.9925 L126.0664,74.7165 C126.0664,73.9855 125.4234,73.2855 124.6704,73.3195 C123.9134,73.3535 123.2734,73.9325 123.2734,74.7165 L123.2734,81.9925 C123.2734,82.7225 123.9164,83.4235 124.6704,83.3885 C125.4264,83.3545 126.0664,82.7755 126.0664,81.9925" id="Fill-43" fill="#FFFFFF"></path>
            <path d="M126.0664,99.6194 L126.0664,92.3434 C126.0664,91.6124 125.4234,90.9134 124.6704,90.9464 C123.9134,90.9804 123.2734,91.5594 123.2734,92.3434 L123.2734,99.6194 C123.2734,100.3494 123.9164,101.0504 124.6704,101.0154 C125.4264,100.9824 126.0664,100.4024 126.0664,99.6194" id="Fill-45" fill="#FFFFFF"></path>
            <path d="M129.8457,88.5647 L137.1217,88.5647 C137.8527,88.5647 138.5517,87.9217 138.5187,87.1687 C138.4847,86.4117 137.9047,85.7717 137.1217,85.7717 L129.8457,85.7717 C129.1147,85.7717 128.4147,86.4137 128.4487,87.1687 C128.4827,87.9237 129.0627,88.5647 129.8457,88.5647" id="Fill-47" fill="#FFFFFF"></path>
            <path d="M112.2178,88.5647 L119.4938,88.5647 C120.2248,88.5647 120.9248,87.9217 120.8908,87.1687 C120.8578,86.4117 120.2778,85.7717 119.4938,85.7717 L112.2178,85.7717 C111.4878,85.7717 110.7878,86.4137 110.8218,87.1687 C110.8558,87.9237 111.4358,88.5647 112.2178,88.5647" id="Fill-49" fill="#FFFFFF"></path>
            <path d="M266.0225,134.6614 C265.2645,134.6944 264.6255,135.2744 264.6255,136.0574 L264.6255,141.2084 C264.6255,141.9384 265.2675,142.6384 266.0225,142.6044 C266.7785,142.5714 267.4185,141.9914 267.4185,141.2084 L267.4185,136.0574 C267.4185,135.3274 266.7765,134.6284 266.0225,134.6614" id="Fill-51" fill="#FFFFFF"></path>
            <path d="M266.0225,147.138 C265.2645,147.172 264.6255,147.751 264.6255,148.534 L264.6255,153.685 C264.6255,154.415 265.2675,155.116 266.0225,155.081 C266.7785,155.048 267.4185,154.468 267.4185,153.685 L267.4185,148.534 C267.4185,147.804 266.7765,147.105 266.0225,147.138" id="Fill-53" fill="#FFFFFF"></path>
            <path d="M274.835,143.4749 L269.685,143.4749 C268.954,143.4749 268.255,144.1179 268.288,144.8709 C268.322,145.6279 268.902,146.2679 269.685,146.2679 L274.835,146.2679 C275.565,146.2679 276.266,145.6259 276.231,144.8709 C276.198,144.1149 275.618,143.4749 274.835,143.4749" id="Fill-55" fill="#FFFFFF"></path>
            <path d="M262.3584,143.4749 L257.2084,143.4749 C256.4774,143.4749 255.7784,144.1179 255.8114,144.8709 C255.8454,145.6279 256.4244,146.2679 257.2084,146.2679 L262.3584,146.2679 C263.0884,146.2679 263.7894,145.6259 263.7544,144.8709 C263.7214,144.1149 263.1414,143.4749 262.3584,143.4749" id="Fill-57" fill="#FFFFFF"></path>
            <path d="M265.002,30.9036 C265.759,30.8706 266.398,30.2906 266.398,29.5076 L266.398,25.8626 C266.398,25.1326 265.756,24.4316 265.002,24.4666 C264.245,24.4996 263.606,25.0796 263.606,25.8626 L263.606,29.5076 C263.606,30.2376 264.247,30.9376 265.002,30.9036" id="Fill-59" fill="#FFFFFF"></path>
            <path d="M265.002,33.2962 C264.245,33.3312 263.606,33.9102 263.606,34.6922 L263.606,38.3392 C263.606,39.0692 264.247,39.7692 265.002,39.7352 C265.759,39.7012 266.398,39.1222 266.398,38.3392 L266.398,34.6922 C266.398,33.9622 265.756,33.2632 265.002,33.2962" id="Fill-61" fill="#FFFFFF"></path>
            <path d="M271.2403,30.7044 L267.5943,30.7044 C266.8643,30.7044 266.1653,31.3474 266.1983,32.1004 C266.2313,32.8564 266.8113,33.4974 267.5943,33.4974 L271.2403,33.4974 C271.9703,33.4974 272.6713,32.8544 272.6363,32.1004 C272.6023,31.3444 272.0233,30.7044 271.2403,30.7044" id="Fill-63" fill="#FFFFFF"></path>
            <path d="M262.4092,30.7044 L258.7632,30.7044 C258.0332,30.7044 257.3332,31.3474 257.3672,32.1004 C257.4012,32.8564 257.9802,33.4974 258.7632,33.4974 L262.4092,33.4974 C263.1392,33.4974 263.8392,32.8544 263.8052,32.1004 C263.7712,31.3444 263.1922,30.7044 262.4092,30.7044" id="Fill-65" fill="#FFFFFF"></path>
            <path d="M45.2959,108.8899 C46.0529,108.8549 46.6919,108.2759 46.6919,107.4939 L46.6919,104.1729 C46.6919,103.8139 46.5369,103.4389 46.2839,103.1849 C46.0419,102.9429 45.6439,102.7609 45.2959,102.7759 C44.5399,102.8099 43.8999,103.3899 43.8999,104.1729 L43.8999,107.4939 C43.8999,107.8509 44.0559,108.2269 44.3089,108.4799 C44.5509,108.7219 44.9479,108.9059 45.2959,108.8899" id="Fill-67" fill="#FFFFFF"></path>
            <path d="M45.2959,110.8196 C44.5399,110.8526 43.8999,111.4326 43.8999,112.2156 L43.8999,115.5366 C43.8999,115.8946 44.0559,116.2706 44.3089,116.5236 C44.5509,116.7666 44.9479,116.9486 45.2959,116.9326 C46.0529,116.8996 46.6919,116.3196 46.6919,115.5366 L46.6919,112.2156 C46.6919,111.8586 46.5369,111.4816 46.2839,111.2286 C46.0419,110.9866 45.6439,110.8036 45.2959,110.8196" id="Fill-69" fill="#FFFFFF"></path>
            <path d="M50.9785,108.4583 L47.6585,108.4583 C47.2995,108.4583 46.9235,108.6133 46.6705,108.8663 C46.4285,109.1083 46.2465,109.5073 46.2605,109.8543 C46.2955,110.6103 46.8745,111.2513 47.6585,111.2513 L50.9785,111.2513 C51.3365,111.2513 51.7115,111.0953 51.9655,110.8423 C52.2075,110.6003 52.3905,110.2023 52.3745,109.8543 C52.3405,109.0983 51.7605,108.4583 50.9785,108.4583" id="Fill-71" fill="#FFFFFF"></path>
            <path d="M44.3311,109.8548 C44.2981,109.0978 43.7181,108.4588 42.9351,108.4588 L39.6141,108.4588 C39.2561,108.4588 38.8801,108.6138 38.6271,108.8668 C38.3851,109.1088 38.2021,109.5068 38.2181,109.8548 C38.2511,110.6108 38.8311,111.2508 39.6141,111.2508 L42.9351,111.2508 C43.2931,111.2508 43.6691,111.0948 43.9221,110.8418 C44.1641,110.5998 44.3471,110.2028 44.3311,109.8548" id="Fill-73" fill="#FFFFFF"></path>
            <path d="M232.5576,18.2054 L224.3696,19.2614 C223.8526,19.3284 223.3336,19.1364 222.9856,18.7464 L217.4746,12.6014 C216.5956,11.6214 214.9746,12.0744 214.7316,13.3684 L213.2056,21.4794 C213.1086,21.9934 212.7656,22.4274 212.2876,22.6384 L204.7406,25.9804 C203.5366,26.5134 203.4666,28.1954 204.6216,28.8264 L211.8656,32.7844 C212.3246,33.0344 212.6296,33.4954 212.6836,34.0154 L213.5306,42.2264 C213.6646,43.5354 215.2436,44.1224 216.2006,43.2184 L222.2026,37.5524 C222.5816,37.1934 223.1146,37.0444 223.6256,37.1544 L231.6966,38.8874 C232.9836,39.1634 234.0286,37.8434 233.4646,36.6534 L229.9306,29.1944 C229.7066,28.7224 229.7306,28.1694 229.9936,27.7184 L234.1336,20.5774 C234.7946,19.4384 233.8626,18.0374 232.5576,18.2054" id="Fill-75" fill="#FFCF00"></path>
            <path d="M245.7002,5.3743 L242.5792,4.1853 C242.3822,4.1103 242.2332,3.9423 242.1832,3.7363 L241.3932,0.4913 C241.2682,-0.0267 240.6032,-0.1757 240.2682,0.2393 L238.1732,2.8413 C238.0402,3.0053 237.8352,3.0943 237.6242,3.0773 L234.2932,2.8253 C233.7622,2.7863 233.4152,3.3723 233.7062,3.8183 L235.5322,6.6153 C235.6482,6.7923 235.6692,7.0153 235.5892,7.2113 L234.3192,10.3013 C234.1172,10.7943 234.5682,11.3053 235.0822,11.1653 L238.3062,10.2933 C238.5112,10.2373 238.7292,10.2863 238.8902,10.4233 L241.4372,12.5853 C241.8432,12.9313 242.4692,12.6593 242.4952,12.1283 L242.6622,8.7913 C242.6732,8.5803 242.7862,8.3883 242.9662,8.2763 L245.8092,6.5223 C246.2622,6.2433 246.1982,5.5643 245.7002,5.3743" id="Fill-77" fill="#FFCF00"></path>
            <path d="M74.9717,23.2024 C74.9717,35.4334 65.0567,45.3484 52.8257,45.3484 C40.5937,45.3484 30.6787,35.4334 30.6787,23.2024 C30.6787,10.9714 40.5937,1.0564 52.8257,1.0564 C65.0567,1.0564 74.9717,10.9714 74.9717,23.2024" id="Fill-80" fill="#008AAD"></path>
            <path d="M43.8965,24.5813 C43.3305,23.8593 42.5715,23.3943 41.6635,23.2493 C41.2565,23.1843 40.7245,23.2573 40.3525,23.0833 C39.7355,22.7963 39.8645,22.0783 39.7545,21.4773 C39.3645,19.3393 37.8605,17.2903 35.5685,17.0383 C33.8365,16.8493 31.2115,18.0383 30.9465,19.9503 C30.2505,24.6043 30.9125,29.0743 32.7645,33.3883 C33.6105,35.3573 35.4675,39.0243 38.2335,38.2743 C39.8825,37.8273 40.0405,36.1333 40.4805,34.7723 C40.7745,33.8643 41.6135,33.2703 42.2715,32.6313 C43.0645,31.8593 43.7205,30.9313 44.1895,29.9283 C44.9975,28.1983 45.1295,26.1513 43.8965,24.5813" id="Fill-82" fill="#AFE46A"></path>
            <path d="M62.8381,26.1903 C62.8291,26.2083 62.8231,26.2283 62.8141,26.2453 C62.8001,26.2823 62.7781,26.3193 62.7671,26.3573 C62.5051,26.9153 62.2941,27.4973 62.1841,28.1043 C62.1431,28.3333 62.1181,28.5443 62.1631,28.7743 C62.2171,29.0453 62.3901,29.2643 62.6101,29.4203 C62.9041,29.6283 63.3301,29.6783 63.6691,29.5543 C64.3801,29.2933 64.7651,28.5403 65.0161,27.8733 C65.2731,27.1943 65.4551,26.3043 64.9131,25.7133 C64.5611,25.3313 64.0261,25.2313 63.5591,25.4473 C63.2531,25.5903 62.9811,25.8733 62.8381,26.1903 L62.8381,26.1903 Z" id="Fill-84" fill="#AFE46A"></path>
            <path d="M63.1221,5.6556 C62.9201,4.2186 62.0641,2.4756 60.6161,1.9796 C57.8061,1.0166 54.7981,0.5876 51.8341,0.7986 C47.9061,1.2166 43.4311,2.1166 40.2231,4.5926 C38.6401,5.8136 40.0741,7.7046 41.4811,8.3196 C42.1241,8.6006 42.8051,8.7436 43.5001,8.8236 C44.6531,8.9556 45.9191,8.6526 47.0331,8.9326 C48.1111,9.2036 49.0491,9.8996 50.0421,10.3746 C51.0961,10.8776 52.2221,11.0986 53.3731,11.2596 C56.8581,11.7456 63.8041,10.5056 63.1221,5.6556" id="Fill-86" fill="#AFE46A"></path>
            <path d="M59.7256,16.0931 C58.5076,15.9471 57.4106,16.3201 56.3146,16.7911 C56.2196,16.8061 56.1226,16.8421 56.0246,16.9171 C55.9056,16.9701 55.8266,17.0431 55.7676,17.1241 C53.8016,18.7361 52.2536,21.3351 53.7236,23.8161 C54.0676,24.3981 54.4176,24.8891 54.5596,25.5651 C54.7046,26.2531 54.7026,26.9641 54.7976,27.6591 C54.9926,29.0681 55.7886,30.0461 57.2266,30.2931 C58.5706,30.5251 59.6666,29.9001 60.1646,28.6381 C60.6906,27.3081 60.3176,25.8541 61.1006,24.5961 C61.8376,23.4131 62.9286,22.5101 63.4756,21.2021 C63.9666,20.0291 63.8996,18.7481 63.0896,17.7361 C62.2666,16.7061 60.9966,16.2451 59.7256,16.0931" id="Fill-88" fill="#AFE46A"></path>
            <path d="M64.0459,39.4974 C63.6139,39.3004 63.1709,39.1294 62.7409,38.9274 C62.2749,38.7084 61.8619,38.4014 61.4109,38.1534 C60.2419,37.5094 59.0749,37.1264 57.7759,37.6464 C56.6499,38.0984 55.7709,39.0604 55.2629,40.1484 C55.0869,40.5234 54.9499,40.9154 54.7609,41.2844 C54.4289,41.9314 53.9789,42.4884 53.4889,43.0224 C53.0289,43.4604 52.8429,44.2494 52.6569,44.8374 C52.5729,45.1044 52.7079,45.5044 52.9789,45.6264 C53.5219,45.8714 54.2329,45.6594 54.7889,45.5654 C55.7679,45.4014 56.7399,45.1984 57.7069,44.9794 C59.9419,44.4724 62.0429,43.8154 64.0799,42.7454 C64.6849,42.4274 65.6849,42.0804 65.7369,41.2824 C65.7989,40.3394 64.7689,39.8274 64.0459,39.4974" id="Fill-90" fill="#AFE46A"></path>
            <path d="M75.2285,22.0892 C75.2045,21.6052 75.1525,21.1252 75.0385,20.6532 C74.9115,20.1302 74.7195,19.6182 74.6415,19.0832 C74.6105,18.8682 74.4365,18.7182 74.2345,18.6402 C74.0945,18.5812 73.9385,18.5562 73.7835,18.5962 C72.9385,18.8142 72.1135,19.1552 71.4625,19.7522 C70.8525,20.3142 70.4325,21.1182 70.4415,21.9592 C70.4485,22.7142 70.7845,23.4852 71.4365,23.8942 C71.9105,24.1912 72.4835,24.3742 73.0235,24.5032 C73.6205,24.6472 74.3705,24.7932 74.9365,24.4762 C75.1475,24.3582 75.2865,24.1142 75.2825,23.8722 C75.2725,23.2782 75.2585,22.6832 75.2285,22.0892" id="Fill-92" fill="#AFE46A"></path>
            <path d="M47.2774,36.3811 C46.8934,36.1181 46.4254,36.0791 45.9774,36.0381 C45.9374,36.0351 45.8984,36.0311 45.8584,36.0271 C45.8914,36.0301 45.9214,36.0321 45.8554,36.0271 C45.8564,36.0271 45.8574,36.0271 45.8584,36.0271 C45.8534,36.0271 45.8484,36.0271 45.8424,36.0271 L45.8554,36.0271 C45.8444,36.0271 45.8344,36.0251 45.8294,36.0241 C45.7234,36.0031 45.6214,35.9801 45.5184,35.9501 C45.3154,35.8931 45.1154,35.8231 44.9084,35.7781 C44.4054,35.6711 43.8274,35.6671 43.3894,35.9781 C42.9954,36.2591 42.7554,36.7101 42.7844,37.1891 C42.6494,37.4001 42.6354,37.6631 42.7564,37.9151 C43.1284,38.6851 44.0734,39.0091 44.8504,39.1721 C45.7114,39.3541 46.7214,39.4051 47.4094,38.7551 C47.7184,38.4621 47.9134,38.0341 47.9294,37.6091 C47.9494,37.1051 47.6874,36.6611 47.2774,36.3811" id="Fill-94" fill="#AFE46A"></path>
            <path d="M72.999,88.9788 C73.456,84.2008 77.698,80.6998 82.476,81.1578 C87.253,81.6158 90.755,85.8608 90.298,90.6378 C89.842,95.4158 85.599,98.9168 80.822,98.4588 C76.045,97.9998 72.543,93.7558 72.999,88.9788" id="Fill-96" fill="#00AE00"></path>
            <path d="M83.8535,66.7405 C71.1155,65.5175 59.8015,74.8555 58.5835,87.5955 C57.6695,97.1585 62.6655,105.8775 70.7085,110.2345 C71.1565,110.4755 71.7535,110.6735 72.3465,110.7295 C74.7355,110.9595 76.8565,109.2085 77.0845,106.8195 C77.2565,105.0225 76.3075,103.3785 74.8115,102.5755 L74.8125,102.5735 C69.8235,99.8965 66.6615,94.4145 67.2335,88.4255 C67.9945,80.4625 75.0655,74.6275 83.0265,75.3905 C90.9885,76.1545 96.8255,83.2285 96.0645,91.1915 C95.4925,97.1795 91.3495,101.9615 85.9435,103.6405 L85.9445,103.6435 C84.3225,104.1465 83.0795,105.5815 82.9075,107.3785 C82.6795,109.7665 84.4305,111.8885 86.8195,112.1185 C87.4115,112.1755 88.0365,112.0945 88.5205,111.9425 C97.2445,109.1945 103.7995,101.5835 104.7135,92.0205 C105.9315,79.2805 96.5915,67.9625 83.8535,66.7405" id="Fill-98" fill="#00AE00"></path>
        </g>
    </g>
</svg>