<?xml version="1.0" encoding="UTF-8"?>
<svg width="313px" height="189px" viewBox="0 0 313 189" version="1.1" xmlns="http://www.w3.org/2000/svg" xmlns:xlink="http://www.w3.org/1999/xlink">
    <title>2020 milestones</title>
    <g id="2020-milestones" stroke="none" stroke-width="1" fill="none" fill-rule="evenodd">
        <g transform="translate(11.000000, 4.000000)">
            <path d="M21.7295,176.6348 C29.2505,178.9328 37.2205,179.1718 45.0795,179.3178 C85.3505,180.0638 120.6975,181.0998 158.4715,180.7558 C171.7355,180.6348 184.9285,180.4128 200.4155,180.2408 C219.5485,180.0288 243.9995,179.9168 263.3905,179.4708 C272.1795,179.2668 282.1035,172.3358 286.5905,164.7308 C291.0045,157.2498 290.9905,148.0388 290.7975,139.3428 C290.1655,110.6078 292.4755,77.8718 290.7545,49.1818 C290.3665,42.6698 289.9265,36.0568 287.7015,29.9308 C284.3645,20.7458 276.9195,13.1608 267.8325,9.6848 C260.6635,6.9428 252.8235,6.7168 245.1555,6.6028 C206.8815,6.0338 182.1135,6.1088 142.0115,6.3888 C116.7735,6.7958 86.5515,4.5048 61.3155,4.9118 C44.3335,5.1858 18.9545,6.6938 8.9625,20.5078 C3.8975,27.5148 1.1175,36.3438 1.1755,45.0108 C1.3985,78.9218 0.1455,109.4548 0.0025,141.8288 C-0.0295,148.9498 0.1205,156.3858 3.4135,162.6928 C7.0675,169.6948 14.2085,174.3348 21.7295,176.6348" id="Fill-1" fill="#76C11C"></path>
            <path d="M187.5488,19.0948 L82.5048,19.0948 C73.9988,19.0978 67.5238,26.7238 68.9018,35.1178 L92.7888,180.2688 C116.6318,180.7238 139.2588,180.9638 163.0248,180.7578 C175.1658,180.6558 187.2458,180.4578 201.4218,180.3118 C208.4958,180.2348 216.3698,180.1748 224.4148,180.1058 L201.1688,30.7638 C200.1228,24.0498 194.3438,19.0978 187.5488,19.0948" id="Fill-4" fill="#004656"></path>
            <path d="M66.5567,59.9259 C66.3387,62.6529 66.4707,65.3959 66.9487,68.0899 L86.8477,180.1549 L96.4637,180.3369 L68.7157,32.8379 L66.5567,59.9259 Z" id="Fill-6" fill="#000000"></path>
            <path d="M256.9717,179.6036 C252.0347,168.9576 240.8057,144.5346 232.5617,129.9136 C221.7947,110.8436 209.8867,99.0036 209.8867,99.0036 L222.7567,180.1236 C230.5067,180.0486 238.4527,179.9706 246.0297,179.8626 C249.8937,179.8066 256.9717,179.6036 256.9717,179.6036" id="Fill-8" fill="#B45125"></path>
            <path d="M168.0781,37.5821 L102.6151,38.6451 C84.4881,38.6451 83.5171,51.2801 84.5491,57.8681 L103.7461,180.4641 C123.6401,180.8161 142.9511,180.9301 163.0241,180.7581 C175.1661,180.6551 187.2451,180.4581 201.4221,180.3111 C204.5041,180.2771 207.7401,180.2521 211.0811,180.2171 L189.7531,54.1101 C188.8701,48.8861 184.3421,37.5821 168.0781,37.5821" id="Fill-10" fill="#E7E7E7"></path>
            <path d="M114.8447,25.63 L147.0407,25.63 C150.7847,25.63 150.7797,31.44 147.0407,31.44 L114.8447,31.44 C111.1007,31.44 111.1067,25.63 114.8447,25.63" id="Fill-13" fill="#006982"></path>
            <path d="M114.8447,31.4395 L147.0407,31.4395 C150.7797,31.4395 150.7847,25.6295 147.0407,25.6295 L114.8447,25.6295 C111.1067,25.6295 111.1007,31.4395 114.8447,31.4395" id="Fill-15" fill="#006982"></path>
            <path d="M158.9727,28.5343 C158.9727,30.1353 157.6747,31.4313 156.0757,31.4313 C154.4747,31.4313 153.1777,30.1353 153.1777,28.5343 C153.1777,26.9343 154.4747,25.6383 156.0757,25.6383 C157.6747,25.6383 158.9727,26.9343 158.9727,28.5343" id="Fill-17" fill="#006982"></path>
            <path d="M282.6407,97.7579 C282.6407,119.7579 264.8057,137.5929 242.8047,137.5929 C220.8047,137.5929 202.9697,119.7579 202.9697,97.7579 C202.9697,75.7569 220.8047,57.9219 242.8047,57.9219 C264.8057,57.9219 282.6407,75.7569 282.6407,97.7579" id="Fill-19" fill="#F9A7AD"></path>
            <path d="M135.5781,112.2764 C134.6961,104.2454 140.3691,97.5244 148.2491,97.2644 C156.1291,97.0054 163.2311,103.3064 164.1141,111.3394 C164.9961,119.3704 159.3231,126.0904 151.4431,126.3494 C143.5631,126.6084 136.4611,120.3074 135.5781,112.2764" id="Fill-21" fill="#24B24C"></path>
            <path d="M145.5869,73.0284 C124.5739,73.7184 109.4459,91.6404 111.7989,113.0574 C113.5649,129.1324 124.5999,142.5474 139.0849,148.0634 C139.8909,148.3704 140.9239,148.5704 141.9009,148.5384 C145.8409,148.4084 148.6779,145.0484 148.2359,141.0324 C147.9049,138.0114 145.8129,135.4834 143.1199,134.4694 L143.1209,134.4664 C134.1459,131.0864 127.1729,122.6574 126.0659,112.5894 C124.5969,99.2034 134.0509,88.0024 147.1849,87.5704 C160.3169,87.1384 172.1549,97.6394 173.6259,111.0264 C174.7319,121.0934 169.6539,129.9194 161.4829,133.8624 L161.4839,133.8664 C159.0329,135.0494 157.5099,137.6964 157.8419,140.7164 C158.2819,144.7324 161.8339,147.8824 165.7739,147.7534 C166.7519,147.7204 167.7339,147.4554 168.4659,147.0984 C181.6409,140.6724 189.6589,126.6324 187.8939,110.5574 C185.5409,89.1394 166.5999,72.3384 145.5869,73.0284" id="Fill-23" fill="#24B24C"></path>
            <path d="M191.6944,126.7442 C199.8414,132.1702 201.4654,144.1142 216.9354,155.2412 C227.3594,162.7372 240.3574,173.5622 247.7424,179.8402 C232.4164,180.0712 215.3744,180.1562 201.4224,180.3122 C197.0174,180.3552 192.8174,180.4052 188.7484,180.4582 C183.7864,175.1262 176.1434,165.2102 172.9664,151.9872 C168.0834,131.6302 183.5534,121.3092 191.6944,126.7442" id="Fill-25" fill="#F8A9AF"></path>
            <path d="M188.7481,180.4581 C192.8171,180.4051 197.0181,180.3551 201.4221,180.3121 C215.3741,180.1561 233.4981,180.0421 248.8241,179.8111 C241.4391,173.5331 227.3591,162.7371 216.9351,155.2411 C201.4651,144.1141 199.8421,132.1701 191.6941,126.7441 C183.5541,121.3101 168.0831,131.6301 172.9671,151.9871 C176.1441,165.2101 183.7861,175.1261 188.7481,180.4581" id="Fill-27" fill="#B45125"></path>
            <path d="M201.8047,137.9786 C203.5267,141.0606 205.6337,143.8806 208.0527,146.4496 C212.3337,150.9936 217.3967,154.7056 222.6837,157.9896 C228.1677,161.3956 234.1627,164.2346 238.6147,169.0366 C239.7407,170.2506 237.9217,172.0756 236.7927,170.8576 C234.2187,168.0806 231.0887,165.9906 227.8567,164.0576 C222.3357,160.7596 216.8307,157.5396 211.8337,153.4576 C206.9677,149.4816 202.6557,144.7866 199.5797,139.2796 C198.7707,137.8296 200.9957,136.5316 201.8047,137.9786" id="Fill-29" fill="#000000"></path>
            <path d="M211.834,153.4581 C216.831,157.5391 222.336,160.7601 227.856,164.0581 C231.089,165.9901 234.219,168.0801 236.793,170.8571 C237.922,172.0751 239.74,170.2511 238.614,169.0361 C234.163,164.2341 228.168,161.3951 222.684,157.9891 C217.396,154.7051 212.334,150.9931 208.053,146.4491 C205.634,143.8811 203.526,141.0611 201.805,137.9791 C200.996,136.5311 198.771,137.8291 199.58,139.2791 C202.655,144.7861 206.968,149.4811 211.834,153.4581" id="Fill-31" fill="#000000"></path>
            <path d="M203.9151,61.6885 L247.7871,35.6375 C249.4191,34.6685 247.9361,32.1165 246.2981,33.0895 C231.6741,41.7735 217.0491,50.4575 202.4251,59.1395 C200.7931,60.1095 202.2761,62.6615 203.9151,61.6885" id="Fill-33" fill="#24B24C"></path>
            <path d="M258.7061,29.7501 C260.6431,28.8021 262.5781,27.8531 264.5141,26.9041 C265.2091,26.5631 265.4531,25.5211 265.0441,24.8851 C264.5841,24.1731 263.7681,23.9911 263.0241,24.3551 C261.0891,25.3051 259.1521,26.2531 257.2171,27.2021 C256.5211,27.5421 256.2771,28.5851 256.6871,29.2211 C257.1461,29.9331 257.9631,30.1141 258.7061,29.7501" id="Fill-35" fill="#24B24C"></path>
            <path d="M109.1797,51.0518 C98.5087,37.0278 87.3857,23.3538 75.8137,10.0628 C74.5647,8.6278 72.4837,10.7228 73.7267,12.1508 C85.1327,25.2498 96.1137,38.7178 106.6307,52.5408 C107.7657,54.0328 110.3297,52.5648 109.1797,51.0518" id="Fill-37" fill="#24B24C"></path>
            <path d="M100.5205,139.0333 C87.3025,148.5843 74.0845,158.1363 60.8675,167.6863 C59.3415,168.7893 60.8135,171.3503 62.3575,170.2353 C75.5745,160.6833 88.7915,151.1333 102.0095,141.5823 C103.5355,140.4793 102.0635,137.9183 100.5205,139.0333" id="Fill-39" fill="#24B24C"></path>
            <path d="M144.9834,169.0108 L144.9484,169.2808 C144.9684,169.1338 144.9704,169.1148 144.9564,169.2238 C144.9334,169.3798 144.9124,169.5368 144.8894,169.6938 C144.8494,169.9618 144.8084,170.2298 144.7644,170.4968 C144.6714,171.0768 144.5664,171.6568 144.4534,172.2328 C144.2254,173.3858 143.9604,174.5308 143.6584,175.6668 C143.4614,176.4118 143.9074,177.3038 144.6894,177.4828 C145.4624,177.6578 146.2934,177.2498 146.5044,176.4508 C147.1534,174.0038 147.6144,171.5218 147.9344,169.0108 C148.0334,168.2418 147.1854,167.5028 146.4594,167.5348 C145.5764,167.5748 145.0874,168.1878 144.9834,169.0108" id="Fill-41" fill="#24B24C"></path>
            <path d="M13.2969,50.2716 C13.3949,50.3326 13.4889,50.3996 13.5829,50.4676 C13.6519,50.5176 13.7189,50.5716 13.7879,50.6216 C13.9409,50.7286 13.4719,50.3686 13.7889,50.6226 C14.2089,50.9586 14.6269,51.2956 15.0409,51.6386 C16.1829,52.5826 17.3099,53.5436 18.4339,54.5076 C20.7699,56.5116 23.0909,58.5336 25.4049,60.5616 C25.9149,61.0086 26.4249,61.4566 26.9339,61.9046 C27.5309,62.4306 28.4319,62.4936 29.0209,61.9046 C29.5579,61.3676 29.6209,60.3466 29.0209,59.8176 C25.1749,56.4296 21.3229,53.0406 17.3829,49.7626 C16.5479,49.0686 15.7119,48.2946 14.7859,47.7236 C13.1659,46.7226 11.6819,49.2746 13.2969,50.2716" id="Fill-43" fill="#24B24C"></path>
            <path d="M272.5869,145.5831 C276.9609,148.0911 281.3349,150.5991 285.7099,153.1051 C287.3599,154.0521 288.8489,151.5031 287.1989,150.5581 C282.8249,148.0501 278.4499,145.5421 274.0759,143.0341 C272.4259,142.0881 270.9379,144.6381 272.5869,145.5831" id="Fill-45" fill="#24B24C"></path>
            <path d="M277.9424,37.8887 L277.9424,34.0367 C277.9424,33.4577 277.4324,32.9037 276.8354,32.9297 C276.2354,32.9567 275.7284,33.4157 275.7284,34.0367 L275.7284,37.8887 C275.7284,38.4677 276.2374,39.0227 276.8354,38.9957 C277.4344,38.9687 277.9424,38.5097 277.9424,37.8887" id="Fill-47" fill="#FFFFFF"></path>
            <path d="M277.9424,48.961 L277.9424,45.108 C277.9424,44.529 277.4324,43.975 276.8354,44.002 C276.2354,44.028 275.7284,44.488 275.7284,45.108 L275.7284,48.961 C275.7284,49.54 276.2374,50.095 276.8354,50.067 C277.4344,50.041 277.9424,49.581 277.9424,48.961" id="Fill-49" fill="#FFFFFF"></path>
            <path d="M280.8262,42.4854 L284.6792,42.4854 C285.2582,42.4854 285.8122,41.9754 285.7852,41.3784 C285.7592,40.7784 285.2992,40.2714 284.6792,40.2714 L280.8262,40.2714 C280.2472,40.2714 279.6922,40.7804 279.7202,41.3784 C279.7462,41.9774 280.2062,42.4854 280.8262,42.4854" id="Fill-51" fill="#FFFFFF"></path>
            <path d="M269.7549,42.4854 L273.6069,42.4854 C274.1859,42.4854 274.7399,41.9754 274.7139,41.3784 C274.6869,40.7784 274.2279,40.2714 273.6069,40.2714 L269.7549,40.2714 C269.1759,40.2714 268.6209,40.7804 268.6479,41.3784 C268.6749,41.9774 269.1339,42.4854 269.7549,42.4854" id="Fill-53" fill="#FFFFFF"></path>
            <path d="M228.6387,96.7159 L224.3387,100.2449 C224.3387,100.2449 221.7597,100.0139 217.9457,103.1439 C214.1307,106.2739 218.8047,123.9579 236.2167,125.3079 C247.5017,126.1829 251.4187,113.9369 251.4187,113.9369 C251.4187,113.9369 253.4527,108.6479 244.0327,106.2299 C238.0977,104.7059 228.6387,96.7159 228.6387,96.7159" id="Fill-55" fill="#09A815"></path>
            <path d="M237.0635,106.5577 C237.0635,106.5577 234.4435,107.7137 231.2845,104.8087 C228.1245,101.9047 228.6385,96.7157 228.6385,96.7157 L234.5715,84.6897 C234.5715,84.6897 238.7215,83.4117 243.6255,84.4767 C248.5285,85.5407 251.6485,88.1067 251.4185,89.3567 C251.1895,90.6077 249.5825,101.8287 245.4095,105.6077 C241.2365,109.3857 237.0635,106.5577 237.0635,106.5577" id="Fill-57" fill="#DD7B6B"></path>
            <path d="M232.4453,94.7091 C233.7063,95.5471 234.9663,96.3851 236.2253,97.2231 C236.4813,97.3931 236.8853,97.2811 237.0273,97.0121 C237.1833,96.7181 237.0913,96.3921 236.8173,96.2101 C235.5573,95.3721 234.2983,94.5341 233.0373,93.6961 C232.7813,93.5261 232.3783,93.6381 232.2353,93.9061 C232.0803,94.2011 232.1733,94.5261 232.4453,94.7091" id="Fill-59" fill="#B1E5F1"></path>
            <path d="M234.7217,100.919 C233.1697,99.716 231.6177,98.512 230.0667,97.308 L229.4017,96.792 C229.1517,96.599 228.8157,96.549 228.5727,96.792 C228.3697,96.994 228.3207,97.426 228.5727,97.621 C230.1237,98.825 231.6757,100.028 233.2277,101.232 L233.8927,101.748 C234.1427,101.942 234.4777,101.992 234.7217,101.748 C234.9237,101.546 234.9727,101.114 234.7217,100.919" id="Fill-61" fill="#B1E5F1"></path>
            <path d="M246.3897,88.6925 C246.9407,88.3135 247.6247,88.1515 248.2787,88.3395 C248.8577,88.5075 249.3147,88.9315 249.5557,89.4855 C249.6517,89.7035 249.9697,89.7535 250.1577,89.6425 C250.3817,89.5115 250.4107,89.2595 250.3157,89.0415 C249.9877,88.2905 249.2937,87.7185 248.5117,87.4925 C247.6497,87.2415 246.6807,87.4275 245.9467,87.9335 C245.7507,88.0685 245.6617,88.3195 245.7877,88.5355 C245.9017,88.7285 246.1937,88.8285 246.3897,88.6925" id="Fill-63" fill="#000000"></path>
            <path d="M241.5205,85.9766 C240.3385,84.9736 238.6525,84.6336 237.1885,85.1776 C236.9655,85.2606 236.8145,85.4756 236.8805,85.7186 C236.9405,85.9326 237.1985,86.1096 237.4215,86.0266 C238.5815,85.5946 239.9455,85.7896 240.8985,86.5976 C241.0795,86.7516 241.3425,86.7756 241.5205,86.5976 C241.6775,86.4406 241.7025,86.1306 241.5205,85.9766" id="Fill-65" fill="#000000"></path>
            <path d="M243.8936,92.6885 C244.1896,94.1605 244.5536,95.6165 244.9856,97.0535 C245.1476,97.5945 245.9966,97.3645 245.8326,96.8205 C245.4026,95.3825 245.0376,93.9255 244.7416,92.4555 C244.6946,92.2215 244.4176,92.0875 244.2006,92.1475 C243.9576,92.2145 243.8456,92.4555 243.8936,92.6885" id="Fill-67" fill="#000000"></path>
            <path d="M249.1885,98.6895 C249.1885,98.6895 245.4665,95.7355 240.7985,95.4965 C236.1305,95.2565 235.2755,96.0775 235.2755,96.0775 C235.2755,96.0775 233.9125,98.8755 233.7025,100.9685 C233.7025,100.9685 232.9155,106.2365 240.4745,107.296511 C240.4745,107.296511 246.9905,107.3565 249.1885,98.6895" id="Fill-69" fill="#B1E5F1"></path>
            <path d="M235.5938,102.088 C238.5848,103.882 241.9458,105.101 245.3528,105.813 C245.6198,105.869 245.7358,105.458 245.4658,105.401 C242.0918,104.696 238.7718,103.496 235.8098,101.72 C235.5728,101.578 235.3588,101.947 235.5938,102.088" id="Fill-71" fill="#31CFE8"></path>
            <path d="M236.1602,99.9122 C238.0222,100.2692 239.8832,100.6922 241.6542,101.3792 C243.4342,102.0682 245.2002,102.9422 246.8232,103.9442 C247.0572,104.0892 247.2712,103.7202 247.0382,103.5762 C245.4332,102.5862 243.6972,101.7362 241.9452,101.0372 C240.1212,100.3092 238.1972,99.8702 236.2732,99.5012 C236.0062,99.4492 235.8902,99.8602 236.1602,99.9122" id="Fill-73" fill="#31CFE8"></path>
            <path d="M237.0156,97.6983 C239.1886,97.8123 241.3806,98.0963 243.4656,98.7363 C245.1396,99.2503 246.6126,100.3673 248.2006,101.0893 C248.4486,101.2023 248.6646,100.8353 248.4156,100.7203 C246.7916,99.9823 245.2936,98.8483 243.5796,98.3253 C241.4576,97.6773 239.2256,97.3873 237.0156,97.2713 C236.7416,97.2583 236.7426,97.6833 237.0156,97.6983" id="Fill-75" fill="#31CFE8"></path>
            <path d="M222.975342,87.4825 C223.0106,92.5295 223.7306,97.4055 227.7246,97.5675 C231.7176,97.7305 233.2156,95.3725 234.2786,91.5115 C235.3416,87.6505 235.3976,85.8235 235.3976,85.8235 C235.3976,85.8235 245.7316,83.9005 251.4186,89.3565 C251.4186,89.3565 250.1126,96.3325 249.1886,98.6895 C249.1886,98.6895 250.7286,99.2895 252.7436,94.0295 C254.7576,88.7695 257.0246,80.1025 248.9946,75.1175 C232.3206,64.7655 222.9186,79.2005 222.975342,87.4825" id="Fill-77" fill="#004656"></path>
            <path d="M232.5645,83.5089 C230.7825,90.5209 226.5675,87.2079 227.4585,85.7249 C228.3495,84.2469 228.5665,82.7059 228.0565,80.0679 C227.8515,78.9889 227.2355,78.1149 226.5905,77.4589 C227.4885,76.2749 228.5435,75.1909 229.7625,74.2809 C231.8735,75.5069 233.8665,78.3789 232.5645,83.5089" id="Fill-79" fill="#09A815"></path>
            <path d="M250.2051,88.3575 C248.3291,86.9975 246.1301,86.2575 244.0021,85.8715 C244.6121,83.6265 245.3561,78.5545 241.2121,74.8265 C239.0021,72.8335 236.1001,72.2645 233.4331,72.2945 C237.4361,70.8755 242.5251,71.2265 248.5991,74.8785 C252.0281,79.7685 250.8261,86.0465 250.2051,88.3575" id="Fill-81" fill="#09A815"></path>
            <path d="M228.1094,97.9669 C230.0464,97.2589 230.8154,95.3529 231.2624,93.4889 C231.7934,91.2779 232.1634,89.0119 232.1014,86.7319 C232.0814,85.9789 230.9084,85.9759 230.9284,86.7319 C230.9824,88.7089 230.7024,90.6589 230.2694,92.5849 C229.9204,94.1399 229.4964,96.2149 227.7974,96.8359 C227.0944,97.0939 227.3984,98.2269 228.1094,97.9669" id="Fill-83" fill="#000000"></path>
            <path d="M233.792,84.0538 C233.792,84.0538 232.978,88.3468 230.971,88.2078 C228.964,88.0698 228.04,81.6878 235.142,77.1788 C242.243,72.6698 254.031,71.4218 256.091,77.1788 C258.149,82.9368 256.588,87.0988 256.588,87.0988 C256.588,87.0988 249.628,81.9098 233.792,84.0538" id="Fill-85" fill="#02ACD4"></path>
            <path d="M250.8496,84.6934 C249.1206,84.2354 246.9806,83.8374 244.4126,83.6494 C244.6706,81.1054 244.2886,77.5934 241.2116,74.8264 C241.1066,74.7264 240.9956,74.6324 240.8836,74.5454 C242.5546,74.0054 244.2716,73.6364 245.9246,73.4554 C246.7926,73.8534 247.6836,74.3284 248.5986,74.8794 C250.8266,78.0564 251.1016,81.8144 250.8496,84.6934" id="Fill-87" fill="#0089A9"></path>
            <path d="M256.5889,87.0968 C255.8449,89.5818 254.2439,89.5648 254.1389,89.5588 C254.3969,88.4158 254.5779,87.2258 254.6369,86.0238 C255.9559,86.6218 256.5889,87.0968 256.5889,87.0968" id="Fill-89" fill="#000000"></path>
            <path d="M241.459,89.5714 C241.459,89.5714 240.622,88.4424 238.209,88.5974 C235.796,88.7524 235.84,90.6564 236.946,90.8114 C238.054,90.9664 238.762,90.8554 239.803,91.3424 C240.843,91.8294 241.521,91.1434 241.68,90.5674 C241.839,89.9924 241.459,89.5714 241.459,89.5714" id="Fill-91" fill="#FFFFFF"></path>
            <path d="M238.6397,90.9776 C239.7717,90.9776 239.7737,89.2186 238.6397,89.2186 C237.5087,89.2186 237.5067,90.9776 238.6397,90.9776" id="Fill-93" fill="#000000"></path>
            <path d="M249.7852,91.8995 C249.7852,91.8995 248.9422,90.8595 246.7832,91.0025 C244.6242,91.1445 244.8142,92.8985 245.8232,93.0415 C246.8312,93.1845 247.4602,93.0825 248.4342,93.5315 C249.4092,93.9795 249.9652,93.3475 250.0622,92.8175 C250.1602,92.2875 249.7852,91.8995 249.7852,91.8995" id="Fill-95" fill="#FFFFFF"></path>
            <path d="M246.9863,93.2159 C248.1183,93.2159 248.1203,91.4569 246.9863,91.4569 C245.8543,91.4569 245.8523,93.2159 246.9863,93.2159" id="Fill-97" fill="#000000"></path>
            <path d="M234.1563,105.0665 C235.7923,106.8625 238.1683,107.8345 240.5843,107.8805 C243.1983,107.9315 245.2373,106.5925 246.8163,104.5915 C248.3113,102.6975 249.2343,100.4285 249.9433,98.1405 C250.8183,95.3185 251.4673,92.4205 251.9843,89.5125 C252.1163,88.7745 250.9863,88.4585 250.8533,89.2015 C250.4013,91.7445 249.8353,94.2665 249.1313,96.7535 C248.5483,98.8135 247.8463,100.8655 246.7163,102.6975 C245.4813,104.6985 243.6723,106.5445 241.2033,106.6995 C238.8873,106.8455 236.5493,105.9545 234.9853,104.2375 C234.4763,103.6775 233.6493,104.5085 234.1563,105.0665" id="Fill-99" fill="#000000"></path>
            <path d="M224.9082,86.2872 C224.2172,88.0112 223.4362,88.1282 222.9792,87.9992 C222.9792,87.8292 222.9732,87.6532 222.9732,87.4832 C222.9622,85.2562 223.6302,82.5832 224.9432,80.0672 C226.1042,81.4282 225.8112,84.0362 224.9082,86.2872" id="Fill-101" fill="#09A815"></path>
            <path d="M256.5889,87.0968 C256.5889,87.0968 255.9559,86.6218 254.6369,86.0238 C254.8239,82.0668 253.6099,77.9868 248.9969,75.1198 C247.9469,74.4688 246.9279,73.9118 245.9369,73.4498 C250.6919,72.9148 254.9299,73.9358 256.0909,77.1778 C258.1489,82.9348 256.5889,87.0968 256.5889,87.0968" id="Fill-103" fill="#B1E5F1"></path>
            <path d="M269.4756,118.4952 C269.4366,116.9742 269.4616,115.4542 269.5496,113.9362 C269.5686,113.6202 269.2666,113.3502 268.9636,113.3502 C268.6306,113.3502 268.3956,113.6192 268.3766,113.9362 C268.2886,115.4542 268.2646,116.9742 268.3026,118.4952 C268.3226,119.2482 269.4956,119.2512 269.4756,118.4952" id="Fill-105" fill="#000000"></path>
            <path d="M242.6611,109.5538 C240.4071,111.2728 237.5331,111.4788 234.8471,110.8898 C235.4891,109.8048 235.8061,108.5238 235.6991,107.2678 C235.6751,106.9908 235.4781,106.7508 235.1821,106.7508 C234.9221,106.7508 234.6421,106.9888 234.6671,107.2678 C234.7681,108.4678 234.4841,109.6098 233.8191,110.6178 C233.8181,110.6208 233.8181,110.6238 233.8161,110.6268 C233.4111,110.5058 233.0131,110.3688 232.6251,110.2168 C230.6531,109.4468 228.7511,108.2268 227.6251,106.3978 C226.7411,104.9608 226.2061,103.3328 225.8371,101.6958 C225.6901,101.0468 224.6951,101.3218 224.8411,101.9688 C225.2471,103.7668 225.8561,105.5758 226.8671,107.1288 C228.0881,109.0058 230.0381,110.2678 232.0821,111.1048 C232.5811,111.3098 233.1001,111.4888 233.6301,111.6428 C233.9481,113.6928 234.0961,115.7908 233.7451,117.8458 C233.3781,119.9928 232.5271,121.9938 231.5111,123.9078 C231.1991,124.4948 232.0901,125.0178 232.4011,124.4298 C233.4871,122.3868 234.4071,120.2338 234.7701,117.9358 C235.0881,115.9258 234.9811,113.9158 234.7021,111.9148 C237.6161,112.5408 240.7581,112.2948 243.1821,110.4458 C243.7031,110.0468 243.1891,109.1508 242.6611,109.5538" id="Fill-107" fill="#007D00"></path>
            <path d="M256.8828,111.4014 C256.7828,111.3274 255.8678,106.8564 255.9008,106.2874 C255.9318,105.7184 254.7098,100.6704 254.3908,100.1434 C254.0708,99.6174 251.6188,96.4614 251.8558,95.4744 C252.0918,94.4874 253.5368,94.2894 254.7688,95.1964 C256.0008,96.1044 258.6458,99.5694 259.4888,100.2044 C260.3318,100.8394 268.2608,100.9894 268.6348,101.0674 C269.0088,101.1444 268.7278,105.3054 267.2408,108.3354 C265.7558,111.3634 262.6828,115.7514 256.8828,111.4014" id="Fill-109" fill="#DD7B6B"></path>
            <path d="M258.2491,101.002 L269.1701,101.787 L269.0521,104.076 C268.0841,104.28 259.6741,103.643 258.4361,103.595 L258.2491,101.002 Z M252.2431,129.237 C252.2431,129.237 257.7101,129.698 262.2691,129.868 C265.4751,129.987 268.5021,130.175 270.1621,130.031 C270.9181,129.966 271.3201,129.988 271.6491,129.06 C271.7291,128.832 271.7291,128.824 271.9881,128.072 C273.4391,123.851 277.2081,112.881 276.8621,111.892 C276.4561,110.728 271.9051,105.354 271.3971,104.659 C271.0861,104.233 271.5351,102.094 271.3461,101.109 C271.1311,99.995 270.4731,99.959 269.1321,99.88 C267.7901,99.802 255.5401,98.82 255.5401,98.82 C255.5401,98.82 250.8601,128.303 252.2431,129.237 L252.2431,129.237 Z" id="Fill-111" fill="#FFB31C"></path>
            <path d="M258.2012,110.3057 C258.2252,110.1427 256.7332,106.1697 255.8212,103.8137 C255.6942,103.4867 256.0502,99.2617 255.6222,98.8487 C255.1942,98.4357 253.3782,102.4347 252.5992,102.9207 C251.8202,103.4077 249.0022,105.3407 247.7052,106.4177 C246.8662,107.1157 241.9852,122.3737 241.8782,123.2157 C241.7852,123.9477 249.3482,127.9777 251.6962,129.0637 C252.0522,129.2287 252.2592,129.2787 252.3902,129.2037 C252.5232,129.1307 252.5862,129.0307 252.7982,128.4837 C254.1792,124.9307 258.0392,111.3967 258.2012,110.3057" id="Fill-113" fill="#F07600"></path>
            <path d="M273.585,110.7442 C271.59,110.7272 269.591,110.5962 267.599,110.5062 C265.607,110.4172 263.607,110.3682 261.621,110.2062 C261.022,110.1572 261.024,111.0932 261.621,111.1412 C263.607,111.3042 265.607,111.3512 267.599,111.4412 C269.591,111.5312 271.59,111.6622 273.585,111.6792 C274.187,111.6842 274.188,110.7492 273.585,110.7442" id="Fill-115" fill="#000000"></path>
            <path d="M271.5791,121.5528 C270.6281,124.7528 267.1661,127.3088 263.8371,127.2128 C260.4811,127.1158 258.6181,124.3668 259.6851,121.1238 C260.7341,117.9358 264.2181,115.5028 267.4591,115.6428 C270.6741,115.7818 272.5151,118.4068 271.5791,121.5528" id="Fill-117" fill="#EE2737"></path>
            <path d="M265.5274,120.9884 C265.7784,120.2824 265.9584,119.5334 266.0654,118.8244 C266.1024,118.5814 265.9324,118.4074 265.6934,118.4424 C265.4514,118.4734 265.2234,118.6964 265.1864,118.9394 C265.1104,119.4264 265.0564,119.7574 264.8724,120.3514 C264.8194,120.5204 264.6464,120.6524 264.4864,120.6464 C264.3264,120.6404 264.2404,120.5004 264.2944,120.3324 L264.8314,118.6334 C264.9004,118.4124 264.8224,118.2024 264.6254,118.1584 C264.3754,118.1024 264.0774,118.3064 263.9914,118.5764 L263.4424,120.3004 C263.3884,120.4684 263.2114,120.5994 263.0504,120.5934 C262.8894,120.5884 262.8034,120.4454 262.8594,120.2764 C263.0544,119.6804 263.2094,119.3534 263.4424,118.8724 C263.5594,118.6324 263.4774,118.3964 263.2584,118.3464 C263.0404,118.2924 262.7694,118.4504 262.6524,118.6914 C262.3334,119.3454 262.0484,120.0454 261.8524,120.7084 C261.6424,121.4204 261.8054,122.0384 262.2354,122.3994 C262.4314,122.5634 262.5194,122.8294 262.4354,123.1344 L262.1494,124.1744 C262.0754,124.4474 262.2174,124.6684 262.4754,124.6764 C262.7314,124.6844 263.0104,124.4774 263.1094,124.2064 L263.4734,123.2064 C263.5854,122.9014 263.8424,122.6524 264.1394,122.5094 C264.7554,122.2144 265.2914,121.6534 265.5274,120.9884" id="Fill-119" fill="#FFFFFF"></path>
            <path d="M268.8516,118.3204 C267.7096,118.2754 266.6196,119.9194 266.2736,121.0274 C266.0856,121.6304 266.2616,122.1634 266.6296,122.4874 C266.8066,122.6424 266.8896,122.8824 266.8186,123.1554 L266.5156,124.3164 C266.4456,124.5874 266.5956,124.8064 266.8566,124.8154 C267.1186,124.8234 267.3986,124.6184 267.4936,124.3484 L267.9026,123.1924 C267.9976,122.9204 268.2236,122.6914 268.4916,122.5514 C269.0456,122.2604 269.5386,121.7534 269.7196,121.1534 C270.0546,120.0494 269.9896,118.3664 268.8516,118.3204" id="Fill-121" fill="#FFFFFF"></path>
            <polygon id="Fill-123" fill="#000000" points="258.9219 99.1798 260.4249 99.1928 259.4559 97.6228"></polygon>
            <path d="M256.211,98.1622 C256.211,98.1622 258.107,94.9482 259.019,94.4142 C259.931,93.8812 260.948,94.4962 261.472,94.8272 C261.996,95.1582 262.626,94.2412 263.696,94.5612 C264.767,94.8822 265.428,95.7512 265.428,95.7512 C265.428,95.7512 266.837,95.6962 267.738,96.7452 L268.437,97.6252 C268.437,97.6252 269.496,97.7872 270.176,99.2032 C270.857,100.6202 271.509,105.2382 271.442,105.6072 C271.377,105.9762 270.076,106.2922 269.61,105.2032 C269.144,104.1142 268.568,102.7642 268.568,102.7642 C268.568,102.7642 267.562,104.0462 266.767,104.1462 C265.971,104.2462 264.556,103.6822 264.556,103.6822 C264.556,103.6822 263.56,103.3812 262.029,102.5922 C262.029,102.5922 259.831,102.9502 258.916,100.8922 L260.08,100.8812 L260.711,99.3072 L256.808,99.1052 L256.211,98.1622 Z" id="Fill-125" fill="#DD7B6B"></path>
            <path d="M269.2168,99.1895 C269.1048,98.9625 268.7838,98.9015 268.5768,99.0225 C268.3458,99.1575 268.2968,99.4345 268.4088,99.6625 C268.6608,100.1735 268.8828,100.7455 268.9638,101.3145 C269.0408,101.8475 268.5768,102.2835 268.2298,102.6275 C267.8798,102.9745 267.4778,103.4285 267.0148,103.6195 C266.6278,103.7775 266.2098,103.7105 265.8468,103.5315 C266.1918,103.2625 266.4908,102.9215 266.7398,102.6055 C267.2768,101.9215 267.7788,101.0675 267.8228,100.1785 C267.8678,99.2745 267.3658,98.4455 266.8998,97.7105 C266.5778,97.2055 265.7688,97.6735 266.0928,98.1835 C266.4508,98.7485 266.8908,99.3875 266.8898,100.0845 C266.8898,100.7525 266.4548,101.4495 266.0628,101.9645 C265.7338,102.3955 265.1778,103.0815 264.5828,103.0925 C264.2418,103.0995 263.8998,102.9275 263.5958,102.7915 C263.3828,102.6965 263.1708,102.6005 262.9588,102.5055 C263.2798,102.3775 263.5658,102.1745 263.7758,101.8435 C264.0378,101.4315 264.1958,100.9305 264.3638,100.4735 C264.5588,99.9475 264.7388,99.4125 264.8828,98.8695 C265.0258,98.3295 264.9208,97.9295 264.6108,97.4725 C264.3118,97.0335 263.9598,96.6335 263.5588,96.2855 C263.1068,95.8915 262.4428,96.5505 262.8978,96.9455 C263.2118,97.2195 263.5058,97.5215 263.7468,97.8645 C263.8368,97.9925 263.9738,98.1495 264.0168,98.3035 C264.0638,98.4695 263.9698,98.6655 263.9228,98.8245 C263.6918,99.6255 263.4438,100.4765 263.0558,101.2185 C262.8938,101.5285 262.6908,101.6705 262.3428,101.7215 C262.0178,101.7695 261.6708,101.7695 261.3428,101.7585 C260.6238,101.7365 259.9848,101.4895 259.4308,101.0275 C259.2378,100.8655 258.9598,100.8375 258.7698,101.0275 C258.6038,101.1935 258.5748,101.5255 258.7698,101.6885 C259.5198,102.3145 260.3638,102.6635 261.3428,102.6945 C261.4798,102.6985 261.6178,102.6995 261.7578,102.6985 C261.7628,102.8575 261.8288,103.0175 261.9778,103.0845 C262.4398,103.2915 262.8998,103.5035 263.3638,103.7055 C263.7798,103.8855 264.2198,104.0525 264.6818,104.0235 C264.7898,104.0165 264.8968,103.9985 265.0008,103.9715 C265.0268,104.0755 265.0848,104.1735 265.1978,104.2475 C265.7778,104.6195 266.5338,104.7585 267.1978,104.5435 C267.8638,104.3265 268.4038,103.7715 268.8908,103.2895 C269.3908,102.7945 269.9418,102.1685 269.9098,101.4195 C269.8778,100.6565 269.5498,99.8665 269.2168,99.1895" id="Fill-127" fill="#000000"></path>
            <path d="M260.1016,99.0567 C260.1166,99.0797 260.1666,99.1877 260.1606,99.1667 C260.1646,99.1897 260.1676,99.1977 260.1696,99.2057 C260.1676,99.2147 260.1666,99.2207 260.1616,99.2387 C260.1366,99.3297 260.0536,99.4607 259.9946,99.5747 C259.8416,99.8647 259.6886,100.1547 259.5366,100.4457 C259.4186,100.6687 259.4796,100.9537 259.7046,101.0857 C259.9146,101.2087 260.2256,101.1427 260.3436,100.9177 C260.5166,100.5897 260.6886,100.2617 260.8606,99.9337 C260.9486,99.7667 261.0466,99.5937 261.0806,99.4067 C261.1236,99.1657 261.0866,98.9517 260.9866,98.7307 C260.8406,98.4127 260.5836,98.1307 260.3606,97.8657 C260.1326,97.5937 259.8896,97.3357 259.6326,97.0917 C259.4506,96.9177 259.1536,96.9107 258.9716,97.0917 C258.7956,97.2677 258.7886,97.5777 258.9716,97.7527 C259.3806,98.1437 259.8056,98.5757 260.1016,99.0567" id="Fill-129" fill="#000000"></path>
            <path d="M256.0323,95.4551 C255.8703,95.2711 255.5363,95.2761 255.3723,95.4551 C255.1923,95.6501 255.1983,95.9211 255.3723,96.1161 C255.9543,96.7711 256.5373,97.4281 257.1203,98.0841 C257.2833,98.2681 257.6173,98.2621 257.7813,98.0841 C257.9613,97.8881 257.9553,97.6181 257.7813,97.4221 C257.1983,96.7671 256.6163,96.1111 256.0323,95.4551" id="Fill-131" fill="#000000"></path>
            <path d="M168.9346,5.9112 L172.9106,4.2962 C174.4246,3.6812 176.1106,4.6732 176.3076,6.2962 L176.8246,10.5562 C176.9726,11.7702 177.9836,12.6962 179.2056,12.7362 L183.4956,12.8782 C185.1286,12.9322 186.2646,14.5232 185.7846,16.0862 L184.5246,20.1882 C184.1646,21.3582 184.7116,22.6142 185.8126,23.1482 L189.6736,25.0222 C191.1446,25.7362 191.5346,27.6522 190.4606,28.8852 L187.6406,32.1202 C186.8366,33.0422 186.8256,34.4132 187.6146,35.3482 L190.3786,38.6312 C191.4316,39.8812 191.0086,41.7902 189.5266,42.4792 L185.6346,44.2882 C184.5256,44.8042 183.9566,46.0512 184.2966,47.2262 L185.4876,51.3492 C185.9416,52.9202 184.7786,54.4922 183.1446,54.5182 L178.8536,54.5882 C177.6296,54.6072 176.6036,55.5152 176.4356,56.7272 L175.8466,60.9782 C175.6216,62.5982 173.9206,63.5612 172.4166,62.9212 L168.4686,61.2382 C167.3426,60.7592 166.0366,61.1722 165.3896,62.2102 L163.1226,65.8542 C162.2586,67.2422 160.3126,67.4302 159.1996,66.2332 L156.2766,63.0912 C155.4436,62.1952 154.0806,62.0402 153.0686,62.7262 L149.5146,65.1332 C148.1616,66.0492 146.3066,65.4302 145.7776,63.8832 L144.3846,59.8232 C143.9886,58.6662 142.8066,57.9712 141.6026,58.1852 L137.3776,58.9392 C135.7686,59.2252 134.3266,57.9052 134.4706,56.2772 L134.8506,52.0022 C134.9586,50.7842 134.1626,49.6682 132.9746,49.3752 L128.8086,48.3442 C127.2216,47.9522 126.4416,46.1592 127.2366,44.7302 L129.3216,40.9792 C129.9156,39.9102 129.6426,38.5672 128.6766,37.8152 L125.2896,35.1802 C123.9996,34.1762 124.0166,32.2212 125.3236,31.2382 L128.7536,28.6602 C129.7326,27.9262 130.0286,26.5872 129.4526,25.5082 L127.4296,21.7232 C126.6606,20.2812 127.4696,18.5012 129.0636,18.1362 L133.2466,17.1762 C134.4386,16.9022 135.2526,15.8002 135.1656,14.5802 L134.8586,10.3002 C134.7416,8.6692 136.2056,7.3732 137.8096,7.6862 L142.0216,8.5112 C143.2216,8.7462 144.4136,8.0712 144.8306,6.9212 L146.2906,2.8852 C146.8466,1.3482 148.7116,0.7592 150.0496,1.6982 L153.5616,4.1652 C154.5626,4.8672 155.9266,4.7362 156.7756,3.8542 L159.7506,0.7622 C160.8836,-0.4168 162.8276,-0.1948 163.6666,1.2062 L165.8716,4.8882 C166.5006,5.9372 167.8006,6.3722 168.9346,5.9112" id="Fill-133" fill="#FFB000"></path>
            <path d="M48.0928,138.8399 L48.0928,131.1509 C48.0928,130.3789 47.4138,129.6389 46.6168,129.6749 C45.8178,129.7099 45.1408,130.3229 45.1408,131.1509 L45.1408,138.8399 C45.1408,139.6109 45.8198,140.3509 46.6168,140.3159 C47.4158,140.2789 48.0928,139.6669 48.0928,138.8399" id="Fill-135" fill="#FFFFFF"></path>
            <path d="M48.0928,157.4669 L48.0928,149.7779 C48.0928,149.0059 47.4138,148.2669 46.6168,148.3019 C45.8178,148.3379 45.1408,148.9499 45.1408,149.7779 L45.1408,157.4669 C45.1408,158.2379 45.8198,158.9789 46.6168,158.9429 C47.4158,158.9069 48.0928,158.2939 48.0928,157.4669" id="Fill-137" fill="#FFFFFF"></path>
            <path d="M52.086,145.7843 L59.775,145.7843 C60.547,145.7843 61.286,145.1053 61.251,144.3083 C61.215,143.5093 60.603,142.8333 59.775,142.8333 L52.086,142.8333 C51.314,142.8333 50.574,143.5123 50.61,144.3083 C50.646,145.1083 51.259,145.7843 52.086,145.7843" id="Fill-139" fill="#FFFFFF"></path>
            <path d="M33.459,145.7843 L41.147,145.7843 C41.92,145.7843 42.659,145.1053 42.623,144.3083 C42.588,143.5093 41.976,142.8333 41.147,142.8333 L33.459,142.8333 C32.687,142.8333 31.947,143.5123 31.982,144.3083 C32.019,145.1083 32.631,145.7843 33.459,145.7843" id="Fill-141" fill="#FFFFFF"></path>
            <path d="M108.9131,74.3175 C112.1581,88.9275 95.5941,105.0345 71.9171,110.2925 C48.2391,115.5505 26.4151,107.9695 23.1701,93.3595 C19.9261,78.7505 36.4891,62.6435 60.1671,57.3845 C83.8441,52.1275 105.6681,59.7075 108.9131,74.3175" id="Fill-143" fill="#00C4DF"></path>
            <path d="M147.2227,46.2159 C146.8537,46.1949 146.4847,46.1739 146.1157,46.1529 C146.2567,43.7069 146.3977,41.2619 146.5387,38.8179 C146.5687,38.3109 146.0857,37.8769 145.5987,37.8769 C145.4327,37.8769 145.2877,37.9299 145.1587,38.0039 C145.0297,38.0469 144.9097,38.1119 144.8237,38.2149 C144.1187,39.0569 143.4277,39.9099 142.7527,40.7759 C142.5927,40.9819 142.4777,41.1679 142.4777,41.4419 C142.4777,41.6719 142.5787,41.9469 142.7527,42.1059 C142.9317,42.2709 143.1667,42.3929 143.4167,42.3809 C143.6487,42.3709 143.9327,42.2969 144.0827,42.1059 C144.2177,41.9319 144.3617,41.7649 144.4977,41.5919 C144.4117,43.0759 144.3267,44.5599 144.2417,46.0439 L143.0257,45.9739 C142.5337,45.9449 142.0637,46.4259 142.0847,46.9139 C142.1087,47.4469 142.4987,47.8239 143.0257,47.8549 C143.7247,47.8949 144.4247,47.9359 145.1237,47.9759 C145.8237,48.0159 146.5227,48.0569 147.2227,48.0969 C147.7147,48.1249 148.1847,47.6449 148.1627,47.1559 C148.1397,46.6229 147.7487,46.2459 147.2227,46.2159" id="Fill-145" fill="#FFFFFF"></path>
            <path d="M151.5635,42.461 C151.5155,42.461 151.3505,42.445 151.3115,42.445 C151.1405,42.416 150.9715,42.377 150.8055,42.324 C150.7715,42.313 150.7385,42.3 150.7055,42.287 C150.6315,42.246 150.5555,42.203 150.4815,42.166 C150.4635,42.158 150.4635,42.16 150.4545,42.157 C150.4525,42.151 150.4575,42.152 150.4505,42.143 C150.4265,42.109 150.3235,41.988 150.3135,41.985 C150.1535,41.752 150.0825,41.602 150.0325,41.324 C149.9345,40.791 150.1395,40.119 150.6615,39.815 C151.2215,39.487 151.5695,39.579 152.0755,39.711 C152.0835,39.713 152.0805,39.711 152.0865,39.713 C152.1155,39.727 152.1445,39.738 152.1715,39.754 C152.2315,39.787 152.3265,39.835 152.3605,39.864 C152.5775,40.049 152.6945,40.404 152.7745,40.681 C152.8575,40.963 152.8855,41.246 152.8875,41.529 C152.8585,41.6 152.8265,41.669 152.7775,41.756 C152.7095,41.873 152.6455,41.967 152.6455,41.967 C152.5675,42.061 152.4775,42.149 152.3815,42.227 C152.3705,42.232 152.3665,42.236 152.3485,42.246 C152.2785,42.289 152.2085,42.326 152.1355,42.364 C152.3055,42.275 152.0515,42.391 151.9925,42.407 C151.9385,42.422 151.8095,42.443 151.7945,42.449 C151.7175,42.455 151.6415,42.461 151.5635,42.461 M154.7695,41.522 C154.7645,40.924 154.6675,40.327 154.4445,39.77 C154.0825,38.859 153.5045,38.221 152.5755,37.897 C151.6705,37.582 150.6865,37.682 149.8405,38.119 C148.7825,38.668 148.1695,39.8 148.1315,40.972 C148.0815,42.539 149.0925,43.863 150.5965,44.221 C150.9985,44.316 151.4175,44.352 151.8305,44.322 C151.7245,44.471 151.6175,44.613 151.5125,44.748 C151.0165,45.386 150.4135,45.926 149.7765,46.419 C149.3755,46.731 149.4495,47.422 149.7765,47.749 C150.1725,48.146 150.7045,48.063 151.1065,47.749 C152.6205,46.573 154.0305,44.91 154.5685,43.037 C154.6805,42.645 154.7335,42.238 154.7545,41.828 C154.7775,41.726 154.7885,41.623 154.7695,41.522" id="Fill-147" fill="#FFFFFF"></path>
            <path d="M161.6445,44.6114 C161.5015,45.2404 161.2465,45.7974 160.7635,46.2314 C160.4015,46.5564 159.8935,46.7504 159.4885,46.6894 C158.3215,46.5154 157.8255,45.1584 157.7865,44.0434 C157.7595,43.2904 157.8155,42.5954 157.9985,41.8984 C158.1535,41.3144 158.4115,40.7304 158.8745,40.4044 C159.3525,40.1074 159.8845,40.0154 160.3445,40.1144 C160.8525,40.2234 161.0675,40.3414 161.3125,40.7774 C161.6175,41.3204 161.7055,41.9654 161.7435,42.5794 C161.7845,43.2534 161.7945,43.9494 161.6445,44.6114 M157.9245,38.7814 C156.3625,39.8804 155.9385,41.8044 155.9015,43.6174 C155.8635,45.5704 156.6315,47.6794 158.6085,48.3964 C160.5815,49.1104 162.5055,47.6564 163.2185,45.8774 C163.5825,44.9664 163.6695,43.9514 163.6415,42.9764 C163.6135,41.9964 163.4915,41.0074 163.0785,40.1094 C162.1815,38.1644 159.6805,37.6884 157.9245,38.7814" id="Fill-149" fill="#FFFFFF"></path>
            <path d="M174.64,47.6582 C174.252,44.8212 173.816,41.9902 173.384,39.1602 C173.264,38.3732 171.998,38.2362 171.665,38.9352 C170.983,40.3632 170.513,41.9102 169.978,43.3962 C169.817,43.8402 169.654,44.2832 169.493,44.7262 C169.255,44.0162 169.021,43.3062 168.791,42.5932 C168.423,41.4472 168.06,40.3012 167.704,39.1512 C167.44,38.3012 166.11,38.2132 165.89,39.1512 C165.255,41.8562 164.784,44.6212 164.409,47.3732 C164.341,47.8772 164.53,48.3832 165.065,48.5312 C165.505,48.6502 166.154,48.3812 166.223,47.8732 C166.439,46.2872 166.692,44.6972 166.985,43.1172 L167.006,43.1812 C167.51,44.7462 167.976,46.3482 168.634,47.8572 C168.9,48.4672 169.696,48.3832 170.111,48.0472 C170.491,47.7402 170.633,47.0452 170.798,46.6132 C171.108,45.8012 171.401,44.9802 171.696,44.1612 C171.826,43.7992 171.958,43.4372 172.089,43.0762 C172.344,44.7692 172.594,46.4632 172.825,48.1582 C172.895,48.6622 173.539,48.9372 173.982,48.8162 C174.525,48.6662 174.708,48.1642 174.64,47.6582" id="Fill-151" fill="#FFFFFF"></path>
            <path d="M158.1026,26.8887 C158.1136,26.9027 158.1286,26.9067 158.1406,26.9177 C158.2456,27.0277 158.3626,27.1247 158.5036,27.1927 C158.5046,27.1937 158.5056,27.1937 158.5066,27.1937 C158.5166,27.1977 158.5266,27.1977 158.5366,27.2017 C158.6656,27.2607 158.8016,27.2917 158.9396,27.3047 C158.9846,27.3097 159.0266,27.3067 159.0716,27.3057 C159.1806,27.3047 159.2866,27.2907 159.3916,27.2627 C159.4356,27.2507 159.4776,27.2417 159.5206,27.2247 C159.6616,27.1697 159.7946,27.0997 159.9116,26.9957 C159.9136,26.9947 159.9146,26.9947 159.9146,26.9937 C159.9146,26.9937 159.9156,26.9937 159.9156,26.9927 C159.9166,26.9927 159.9176,26.9927 159.9186,26.9927 L165.5916,21.9047 C166.1206,21.4307 166.1656,20.6177 165.6906,20.0897 C165.2176,19.5627 164.4056,19.5157 163.8766,19.9917 L160.5236,22.9977 L160.9806,15.0837 C161.0216,14.3767 160.4806,13.7697 159.7726,13.7287 C159.0636,13.6877 158.4566,14.2287 158.4156,14.9367 L157.9576,22.8657 L154.9356,19.4717 C154.6996,19.2067 154.3786,19.0627 154.0506,19.0427 C153.7226,19.0247 153.3866,19.1307 153.1226,19.3677 C152.5926,19.8387 152.5446,20.6507 153.0176,21.1797 L158.1026,26.8887 Z" id="Fill-153" fill="#FFFFFF"></path>
            <path d="M153.6416,31.8829 C153.6716,31.8889 153.6976,31.9059 153.7296,31.9089 L153.8256,31.9169 C153.8296,31.9179 153.8346,31.9199 153.8406,31.9199 L153.9986,31.9339 L153.9986,31.9319 L161.3476,32.5489 C161.3536,32.5499 161.3586,32.5469 161.3646,32.5469 L162.8116,32.6689 L162.8116,32.6739 L162.9696,32.6839 C162.9756,32.6849 162.9796,32.6839 162.9856,32.6839 L163.0246,32.6879 C163.0426,32.6889 163.0596,32.6799 163.0786,32.6809 C164.3526,32.7089 165.4406,31.7419 165.5356,30.4579 L165.7196,27.9549 C165.7706,27.2479 165.2376,26.6339 164.5296,26.5839 C164.1756,26.5589 163.8446,26.6799 163.5966,26.8949 C163.3486,27.1109 163.1826,27.4199 163.1576,27.7749 L162.9936,30.1069 L155.6206,29.4869 C155.6146,29.4869 155.6106,29.4889 155.6046,29.4879 L154.2006,29.3709 L154.3836,27.0369 C154.4116,26.6839 154.2926,26.3519 154.0786,26.1019 C153.8666,25.8519 153.5576,25.6839 153.2046,25.6559 C152.4956,25.5999 151.8776,26.1279 151.8226,26.8359 L151.6336,29.3379 C151.5396,30.5899 152.4246,31.6799 153.6416,31.8829" id="Fill-155" fill="#FFFFFF"></path>
            <path d="M85.8252,80.5626 C86.7392,91.6906 78.4582,101.4526 67.3302,102.3666 C56.2012,103.2796 46.4402,94.9986 45.5262,83.8706 C44.6132,72.7426 52.8942,62.9806 64.0222,62.0666 C75.1502,61.1536 84.9122,69.4346 85.8252,80.5626" id="Fill-157" fill="#008AAD"></path>
            <path d="M73.7617,65.5919 C73.5067,64.2799 72.5737,62.6969 71.2147,62.3339 C68.5457,61.6179 65.7057,61.5099 62.9837,61.9269 C60.6217,62.3749 58.3567,63.1269 56.1607,64.1019 C54.9387,64.6449 53.6317,65.3819 52.6847,66.3459 C51.4057,67.6469 53.2127,69.2179 54.4357,69.5899 C55.0817,69.7849 55.7847,69.8399 56.4567,69.8369 C57.5447,69.8319 58.6467,69.4669 59.7137,69.7509 C60.7077,70.0159 61.5997,70.5689 62.5737,70.8949 C63.4847,71.1989 64.4967,71.2769 65.4517,71.3239 C68.6157,71.4829 74.5787,69.7969 73.7617,65.5919" id="Fill-159" fill="#AFE46A"></path>
            <path d="M57.5313,84.001 C57.0113,83.497 56.3603,83.177 55.6413,83.1 C55.2553,83.059 54.8053,83.154 54.4313,83.057 C53.7213,82.872 53.8073,82.144 53.6343,81.543 C53.0723,79.598 51.4663,77.82 49.2993,77.893 C47.6733,77.945 45.6143,79.267 45.5163,81.01 C45.2353,85.224 46.1963,89.212 48.1573,92.938 C49.0793,94.689 51.0503,97.903 53.5283,97.016 C54.9763,96.496 55.0073,94.973 55.2973,93.715 C55.4953,92.855 56.1843,92.264 56.7433,91.621 C57.4153,90.848 57.9433,89.97 58.3103,89.011 C58.9543,87.331 58.8913,85.32 57.5313,84.001" id="Fill-161" fill="#AFE46A"></path>
            <path d="M67.8252,86.2413 C68.1162,87.4353 68.8982,88.1743 70.1262,88.3263 C71.3692,88.4803 72.3622,87.8543 72.7492,86.6643 C73.1502,85.4263 72.6742,84.1083 73.2852,82.9123 C73.8632,81.7813 74.7762,80.8753 75.2022,79.6573 C75.5922,78.5413 75.4262,77.3183 74.5912,76.4513 C73.7642,75.5953 72.5632,75.2653 71.4072,75.2273 C70.2212,75.1873 69.1802,75.6753 68.1612,76.2303 C68.1212,76.2523 68.1002,76.2833 68.0692,76.3083 C68.0562,76.3183 68.0442,76.3203 68.0322,76.3303 C66.2672,77.9213 64.9822,80.5583 66.5642,82.7383 C66.9282,83.2383 67.2702,83.6683 67.4392,84.2773 C67.6182,84.9223 67.6672,85.5933 67.8252,86.2413" id="Fill-163" fill="#AFE46A"></path>
            <path d="M76.711,95.713 C75.721,95.383 74.837,94.807 73.829,94.524 C72.45,94.137 70.976,94.746 70.119,95.868 C69.685,96.438 69.613,97.076 69.318,97.706 C69.033,98.317 68.544,98.82 68.156,99.365 C67.685,100.055 67.126,101.025 67.427,101.896 C67.664,102.58 68.345,102.426 68.9,102.301 C70.837,101.867 72.779,101.255 74.62,100.516 C75.742,100.066 76.802,99.48 77.815,98.822 C78.429,98.424 79.35,97.973 79.005,97.087 C78.678,96.245 77.473,95.967 76.711,95.713" id="Fill-165" fill="#AFE46A"></path>
            <path d="M85.9776,79.5723 C85.9186,79.1303 85.8486,78.7003 85.7066,78.2753 C85.5526,77.8123 85.3426,77.3663 85.2346,76.8883 C85.1966,76.7243 85.0836,76.5953 84.9426,76.5143 C84.7956,76.4243 84.6186,76.3853 84.4506,76.4443 C83.7116,76.7013 82.9796,77.0473 82.4336,77.6243 C81.9096,78.1773 81.5406,78.9393 81.6086,79.7173 C81.6666,80.3903 81.9876,81.1043 82.6126,81.4293 C83.0696,81.6683 83.5906,81.8013 84.0976,81.8803 C84.6336,81.9633 85.3626,82.0773 85.8446,81.7523 C86.0206,81.6343 86.1826,81.4283 86.1616,81.2013 C86.1076,80.6583 86.0486,80.1143 85.9776,79.5723" id="Fill-167" fill="#AFE46A"></path>
            <path d="M74.5436,86.119 C74.5086,86.523 74.6616,86.924 75.0236,87.135 C75.3606,87.331 75.7806,87.316 76.1186,87.137 C76.6636,86.848 76.9556,86.143 77.1126,85.581 C77.2856,84.964 77.4166,84.109 76.8866,83.621 C76.5496,83.312 76.0526,83.198 75.6416,83.437 C75.3386,83.611 75.0376,83.941 74.9696,84.293 C74.7376,84.878 74.6006,85.492 74.5436,86.119" id="Fill-169" fill="#AFE46A"></path>
            <path d="M61.3447,94.5069 C61.1457,94.4399 60.9267,94.4159 60.7187,94.4079 C60.6177,94.4039 60.5177,94.4049 60.4167,94.4039 C60.3717,94.4039 60.3267,94.4029 60.2827,94.4019 C60.2387,94.4009 60.1947,94.3969 60.1497,94.3929 C60.2007,94.4029 60.2037,94.4029 60.1587,94.3949 C59.7417,94.3249 59.3247,94.1899 58.8997,94.2309 C58.3937,94.2789 57.9717,94.4999 57.7207,94.9519 C57.5457,95.2659 57.4087,95.7029 57.5047,96.0689 C57.5047,96.0699 57.5047,96.0699 57.5057,96.0709 C57.5127,96.0999 57.5117,96.1309 57.5227,96.1569 C57.5297,96.1779 57.5437,96.1939 57.5537,96.2129 C57.5657,96.2439 57.5677,96.2779 57.5857,96.3099 C58.0287,97.0649 58.9607,97.2609 59.7627,97.3569 C60.5947,97.4549 61.5297,97.3379 62.0407,96.5969 C62.2727,96.2629 62.3527,95.8219 62.2587,95.4299 C62.1517,94.9739 61.7727,94.6529 61.3447,94.5069" id="Fill-171" fill="#AFE46A"></path>
            <path d="M71.2373,97.7051 C71.0593,97.7051 70.8863,97.6091 70.7973,97.4411 L67.5433,91.3891 C67.4123,91.1451 67.5043,90.8431 67.7473,90.7121 C67.9883,90.5821 68.2933,90.6731 68.4243,90.9161 L71.6773,96.9691 C71.8083,97.2121 71.7163,97.5151 71.4733,97.6451 C71.3983,97.6851 71.3173,97.7051 71.2373,97.7051" id="Fill-173" fill="#000000"></path>
            <path d="M62.5254,88.7598 C62.9234,86.0908 65.3524,84.2418 67.9484,84.6298 C70.5454,85.0188 72.3274,87.4958 71.9274,90.1648 C71.5294,92.8338 69.1004,94.6838 66.5044,94.2948 C63.9074,93.9068 62.1264,91.4288 62.5254,88.7598" id="Fill-175" fill="#ED2938"></path>
            <polygon id="Fill-177" fill="#FFC41E" points="67.4209 88.1622 68.9839 87.5972 68.4609 89.2112 69.4559 90.5582 67.8019 90.5582 66.8539 91.9562 66.3559 90.3422 64.7749 89.8582 66.1199 88.8602 66.0909 87.1642"></polygon>
            <path d="M83.4424,79.0274 C83.2244,79.0274 83.0244,78.8844 82.9624,78.6654 L81.4944,73.5294 C81.4184,73.2634 81.5714,72.9864 81.8374,72.9114 C82.1044,72.8314 82.3794,72.9884 82.4554,73.2544 L83.9224,78.3894 C83.9994,78.6554 83.8454,78.9324 83.5804,79.0074 C83.5344,79.0214 83.4874,79.0274 83.4424,79.0274" id="Fill-179" fill="#000000"></path>
            <path d="M86.0117,69.6632 C86.5277,72.1952 84.8597,74.6492 82.2857,75.1432 C79.7137,75.6382 77.2097,73.9852 76.6947,71.4522 C76.1787,68.9192 77.8467,66.4662 80.4197,65.9722 C82.9917,65.4772 85.4957,67.1302 86.0117,69.6632" id="Fill-181" fill="#E7E7E7"></path>
            <path d="M80.4199,65.9718 C77.8469,66.4658 76.1789,68.9188 76.6939,71.4518 L86.0119,69.6628 C85.4959,67.1298 82.9919,65.4778 80.4199,65.9718" id="Fill-183" fill="#D4001D"></path>
            <path d="M80.6319,66.9991 C80.1789,67.1391 79.8449,67.4161 79.6509,67.8601 C79.5509,68.0871 79.5169,68.3361 79.5479,68.5821 C79.6059,69.0251 79.8159,69.3821 80.1779,69.6371 C80.4899,69.8551 80.8389,69.9391 81.2249,69.9051 C81.2379,69.9031 81.2449,69.9231 81.2329,69.9301 C80.7829,70.1841 80.0419,70.2371 79.4509,69.7581 C78.8439,69.2661 78.6899,68.4501 79.0539,67.7851 C79.4189,67.1191 80.1309,66.9051 80.6299,66.9741 C80.6439,66.9761 80.6459,66.9951 80.6319,66.9991" id="Fill-185" fill="#FFFFFF"></path>
            <path d="M81.0586,67.1661 L81.1816,67.3531 C81.1836,67.3581 81.1886,67.3601 81.1936,67.3591 L81.4126,67.3291 C81.4246,67.3271 81.4316,67.3411 81.4246,67.3491 L81.2806,67.5161 C81.2776,67.5201 81.2766,67.5241 81.2796,67.5291 L81.3796,67.7291 C81.3846,67.7401 81.3736,67.7511 81.3636,67.7461 L81.1536,67.6601 C81.1496,67.6581 81.1436,67.6591 81.1406,67.6621 L80.9816,67.8191 C80.9726,67.8271 80.9586,67.8211 80.9596,67.8101 L80.9746,67.5881 C80.9756,67.5831 80.9726,67.5781 80.9676,67.5761 L80.7686,67.4751 C80.7586,67.4701 80.7606,67.4551 80.7716,67.4521 L80.9866,67.3991 C80.9906,67.3981 80.9946,67.3951 80.9956,67.3901 L81.0356,67.1701 C81.0376,67.1591 81.0516,67.1561 81.0586,67.1661" id="Fill-187" fill="#FFFFFF"></path>
            <path d="M80.3399,67.9405 L80.4629,68.1285 C80.4659,68.1325 80.4709,68.1345 80.4759,68.1335 L80.6949,68.1035 C80.7059,68.1015 80.7139,68.1155 80.7059,68.1235 L80.5629,68.2905 C80.5599,68.2945 80.5589,68.2995 80.5609,68.3035 L80.6609,68.5035 C80.6659,68.5145 80.6559,68.5255 80.6459,68.5205 L80.4359,68.4345 C80.4309,68.4325 80.4259,68.4335 80.4219,68.4365 L80.2629,68.5935 C80.2549,68.6025 80.2409,68.5955 80.2419,68.5855 L80.2569,68.3625 C80.2569,68.3575 80.2549,68.3525 80.2499,68.3505 L80.0509,68.2495 C80.0409,68.2445 80.0419,68.2295 80.0539,68.2265 L80.2679,68.1735 C80.2729,68.1725 80.2769,68.1695 80.2779,68.1645 L80.3179,67.9445 C80.3189,67.9335 80.3339,67.9305 80.3399,67.9405" id="Fill-189" fill="#FFFFFF"></path>
            <path d="M82.0176,67.6182 L82.1396,67.8062 C82.1426,67.8102 82.1476,67.8122 82.1526,67.8112 L82.3716,67.7812 C82.3836,67.7802 82.3906,67.7932 82.3836,67.8022 L82.2396,67.9692 C82.2366,67.9722 82.2356,67.9772 82.2386,67.9812 L82.3376,68.1822 C82.3436,68.1922 82.3326,68.2032 82.3226,68.1992 L82.1126,68.1122 C82.1086,68.1102 82.1026,68.1112 82.0986,68.1152 L81.9406,68.2722 C81.9316,68.2802 81.9176,68.2732 81.9186,68.2632 L81.9336,68.0402 C81.9336,68.0352 81.9316,68.0302 81.9266,68.0282 L81.7276,67.9282 C81.7176,67.9222 81.7196,67.9072 81.7306,67.9042 L81.9456,67.8512 C81.9496,67.8502 81.9536,67.8472 81.9546,67.8422 L81.9946,67.6232 C81.9966,67.6112 82.0106,67.6092 82.0176,67.6182" id="Fill-191" fill="#FFFFFF"></path>
            <path d="M81.9072,68.6651 L82.0302,68.8531 C82.0322,68.8571 82.0372,68.8591 82.0422,68.8581 L82.2612,68.8281 C82.2732,68.8271 82.2802,68.8401 82.2732,68.8491 L82.1292,69.0161 C82.1262,69.0191 82.1252,69.0241 82.1282,69.0281 L82.2282,69.2291 C82.2332,69.2391 82.2222,69.2501 82.2122,69.2461 L82.0022,69.1591 C81.9982,69.1571 81.9922,69.1581 81.9892,69.1621 L81.8302,69.3191 C81.8212,69.3271 81.8072,69.3201 81.8082,69.3101 L81.8232,69.0871 C81.8242,69.0821 81.8212,69.0771 81.8162,69.0751 L81.6172,68.9751 C81.6072,68.9691 81.6092,68.9541 81.6202,68.9511 L81.8352,68.8981 C81.8392,68.8971 81.8432,68.8941 81.8442,68.8891 L81.8852,68.6701 C81.8862,68.6581 81.9002,68.6561 81.9072,68.6651" id="Fill-193" fill="#FFFFFF"></path>
            <path d="M80.8613,68.8663 L80.9833,69.0543 C80.9863,69.0583 80.9913,69.0603 80.9963,69.0593 L81.2153,69.0293 C81.2273,69.0273 81.2343,69.0413 81.2273,69.0493 L81.0833,69.2163 C81.0803,69.2203 81.0793,69.2253 81.0823,69.2293 L81.1813,69.4293 C81.1873,69.4403 81.1763,69.4513 81.1663,69.4463 L80.9563,69.3603 C80.9523,69.3583 80.9463,69.3593 80.9433,69.3623 L80.7843,69.5193 C80.7753,69.5283 80.7613,69.5213 80.7623,69.5113 L80.7773,69.2883 C80.7783,69.2833 80.7753,69.2783 80.7703,69.2763 L80.5713,69.1753 C80.5613,69.1703 80.5633,69.1553 80.5743,69.1523 L80.7893,69.0993 C80.7933,69.0983 80.7973,69.0953 80.7983,69.0903 L80.8383,68.8703 C80.8403,68.8593 80.8543,68.8563 80.8613,68.8663" id="Fill-195" fill="#FFFFFF"></path>
            <path d="M62.5283,68.7676 C62.3103,68.7676 62.1103,68.6246 62.0483,68.4056 L60.5813,63.2686 C60.5053,63.0026 60.6593,62.7256 60.9243,62.6506 C61.1913,62.5696 61.4663,62.7286 61.5423,62.9936 L63.0083,68.1296 C63.0853,68.3956 62.9303,68.6726 62.6663,68.7476 C62.6203,68.7616 62.5733,68.7676 62.5283,68.7676" id="Fill-197" fill="#000000"></path>
            <path d="M65.2119,59.2843 C65.8649,61.8263 64.3339,64.4183 61.7919,65.0713 C59.2489,65.7253 56.6579,64.1943 56.0039,61.6513 C55.3499,59.1093 56.8809,56.5173 59.4239,55.8643 C61.9669,55.2103 64.5579,56.7413 65.2119,59.2843" id="Fill-199" fill="#DD263A"></path>
            <path d="M59.4238,55.8643 C58.0558,56.2163 56.9848,57.1323 56.3848,58.2963 L63.2588,56.5283 C62.1718,55.7983 60.7918,55.5113 59.4238,55.8643" id="Fill-201" fill="#DD263A"></path>
            <path d="M61.792,65.0714 C63.187,64.7134 64.274,63.7684 64.866,62.5714 L57.893,64.3654 C58.988,65.1284 60.396,65.4304 61.792,65.0714" id="Fill-203" fill="#DD263A"></path>
            <path d="M56.0039,61.6514 C56.1429,62.1894 56.3709,62.6784 56.6649,63.1154 L65.3389,60.8844 C65.3849,60.3614 65.3499,59.8224 65.2119,59.2844 C65.0669,58.7254 64.8259,58.2184 64.5169,57.7704 L55.8829,59.9914 C55.8279,60.5334 55.8599,61.0924 56.0039,61.6514" id="Fill-205" fill="#073654"></path>
            <path d="M64.5166,57.7706 C64.1756,57.2766 63.7476,56.8576 63.2586,56.5286 L56.3846,58.2956 C56.1156,58.8206 55.9436,59.3936 55.8826,59.9916 L64.5166,57.7706 Z" id="Fill-207" fill="#E8E7E7"></path>
            <path d="M56.6651,63.1153 C56.9961,63.6093 57.4131,64.0323 57.8931,64.3653 L64.8661,62.5713 C65.1251,62.0493 65.2861,61.4773 65.3391,60.8853 L56.6651,63.1153 Z" id="Fill-209" fill="#E8E7E7"></path>
            <path d="M51.586,88.4913 C51.395,88.4913 51.212,88.3813 51.129,88.1943 L48.365,81.9953 C48.253,81.7433 48.366,81.4483 48.619,81.3353 C48.867,81.2243 49.167,81.3363 49.279,81.5893 L52.043,87.7883 C52.155,88.0403 52.042,88.3353 51.789,88.4483 C51.724,88.4773 51.654,88.4913 51.586,88.4913" id="Fill-211" fill="#000000"></path>
            <path d="M52.5635,78.2706 C53.5365,80.7356 52.3465,83.5466 49.9055,84.5476 C47.4645,85.5496 44.6985,84.3636 43.7255,81.8976 C42.7515,79.4316 43.9425,76.6216 46.3825,75.6196 C48.8235,74.6186 51.5905,75.8046 52.5635,78.2706" id="Fill-213" fill="#E7E7E7"></path>
            <path d="M46.3828,75.6192 C43.9428,76.6212 42.7518,79.4322 43.7258,81.8972 L52.5638,78.2702 C51.5908,75.8052 48.8228,74.6182 46.3828,75.6192" id="Fill-215" fill="#D4001D"></path>
        </g>
    </g>
</svg>