<?xml version="1.0" encoding="UTF-8"?>
<svg width="313px" height="189px" viewBox="0 0 313 189" version="1.1" xmlns="http://www.w3.org/2000/svg" xmlns:xlink="http://www.w3.org/1999/xlink">
    <title>2019 milestones</title>
    <g id="2019-milestones" stroke="none" stroke-width="1" fill="none" fill-rule="evenodd">
        <g transform="translate(11.000000, 8.000000)">
            <path d="M0.2685,57.5503 C0.2685,77.8343 -0.6435,133.5473 0.8945,146.3743 C1.3555,150.2653 2.8465,154.3313 5.2115,157.9093 C6.3355,159.6183 7.6615,161.2453 9.1745,162.6313 C10.4885,163.8473 12.0025,164.9913 13.5765,165.8163 C20.7085,169.5853 27.6065,170.9633 36.1945,171.170324 L67.2255,170.1433 L96.5995,170.1883 L193.3685,170.6563 C193.3685,170.6563 234.4415,171.1133 239.5395,171.1653 C244.6385,171.2293 270.0015,170.8133 278.4715,162.0073 C286.9425,153.2133 290.2065,142.6273 290.4435,136.7383 C291.9115,101.3803 292.4665,87.1963 290.6685,49.0243 C289.9825,34.4833 290.3615,26.7723 285.4755,19.1123 C279.7965,10.2123 269.6945,5.5153 256.2195,4.8993 L247.9395,4.9633 C188.7535,4.3733 138.5005,3.2773 77.1985,5.1093 C57.6555,5.6963 32.3865,3.3523 17.7765,13.2703 C1.8895,24.0583 0.2565,37.2653 0.2685,57.5503" id="Fill-1" fill="#811584"></path>
            <path d="M215.83,153.0327 C216.045,161.3187 212.847,167.1827 209.853,170.8307 C200.866,170.7367 193.365,170.6527 193.365,170.6527 L96.595,170.1847 L67.228,170.1377 L43.454,170.9247 L40.536,166.3417 C32.062,148.3937 35.093,136.4887 57.885,97.5627 C80.677,58.6297 112.747,52.5037 112.747,52.5037 L169.03,61.5377 C169.03,61.5377 178.308,64.8857 204.728,79.2047 C231.158,93.5227 233.179,105.8307 233.179,105.8307 L208.768,129.0247 C208.768,129.0247 215.428,137.7047 215.83,153.0327" id="Fill-3" fill="#E5E5E5"></path>
            <path d="M58.9609,141.6137 L56.3139,143.3437 C52.1979,146.2617 50.7389,151.0317 51.0019,160.5807 C51.1139,164.5737 52.0589,167.9877 53.1249,170.6057 L42.3979,170.9617 C33.4289,160.7397 43.0149,142.5767 48.3549,140.2857 C54.8549,137.5077 58.9609,141.6137 58.9609,141.6137" id="Fill-5" fill="#A2A3A3"></path>
            <path d="M236.0351,139.643 C236.0351,139.643 247.3901,137.225 248.2311,125.66 C249.0731,114.094 238.0781,101.428 230.1701,99.665 C222.2621,97.903 215.1121,100.426 215.1121,100.426 L236.0351,139.643 Z" id="Fill-7" fill="#A2A3A3"></path>
            <path d="M90.8281,162.5639 C90.8281,162.5639 80.9711,172.3769 91.6031,172.5649 C102.2351,172.7519 116.8541,167.1039 124.1641,160.0159 C131.4741,152.9279 122.9751,151.3399 113.4911,152.1339 C104.0071,152.9279 100.7961,153.1499 90.8281,162.5639" id="Fill-9" fill="#FFAD00"></path>
            <path d="M96.0791,155.5717 C96.0791,155.5717 99.3801,160.0807 104.1301,158.4707 C108.8811,156.8607 109.1381,152.5927 107.8821,149.9357 L100.6681,149.2927 L96.0791,155.5717 Z" id="Fill-12" fill="#FFAD00"></path>
            <path d="M101.167,80.0024 C101.167,80.0024 113.942,82.0284 116.762,93.0424 C119.581,104.0554 111.211,114.4514 106.277,114.7164 L105.925,108.1964 C105.925,108.1964 112.073,105.0244 111.157,95.8614 C110.242,86.6984 98.436,86.7864 98.436,86.7864 L101.167,80.0024 Z" id="Fill-14" fill="#FF5900"></path>
            <path d="M82.4521,143.3501 C82.4521,143.3501 58.5311,134.5021 48.7001,123.3611 C40.8361,114.4481 36.8511,99.0681 35.5721,93.2721 C35.2301,91.7241 35.6011,90.1071 36.5861,88.8651 C39.4181,85.2911 46.6421,77.9251 61.1521,72.6851 C75.6831,67.4361 88.3661,66.5631 94.1031,66.4703975 C96.1341,66.4381 97.9911,67.5701 98.9081,69.3821 C102.8201,77.1161 112.4181,99.2511 106.8651,121.0671 C99.9831,148.1011 90.5111,146.7231 82.4521,143.3501" id="Fill-16" fill="#FFAD00"></path>
            <path d="M99.8134,125.9633 C99.8134,125.9633 101.1634,118.0223 99.8924,114.8463 C98.6224,111.6703 103.2764,108.8943 106.1354,111.2753 C108.9944,113.6573 107.9924,120.2783 107.9924,120.2783 L99.8134,125.9633 Z" id="Fill-18" fill="#FFA4AD"></path>
            <path d="M112.6894,48.9731 C112.6894,48.9731 111.0694,56.1281 111.2614,64.8561 C111.5054,75.9231 116.4094,90.4691 124.8814,92.9701 C136.8784,96.5121 141.3724,86.5711 141.3724,86.5711 L116.9604,48.4951 L112.6894,48.9731 Z" id="Fill-20" fill="#A2A3A3"></path>
            <path d="M171.0049,53.3276 C171.0049,53.3276 146.4109,48.0226 146.434882,48.6816 C146.4569,49.3416 148.1229,84.6866 148.1229,84.6866 C148.1229,84.6866 155.9649,92.9456 163.4989,90.5306 C173.5039,87.3256 171.0049,53.3276 171.0049,53.3276" id="Fill-22" fill="#A2A3A3"></path>
            <path d="M105.3291,37.771 C105.3291,37.771 102.4701,26.104 108.1461,15.486 C114.1861,4.189 125.1771,-0.88 142.0831,0.125 C158.9901,1.13 166.7961,12.71 170.5321,23.331 L125.5471,34.379 L130.0871,53.501 L119.2991,54.229 L105.3291,37.771 Z" id="Fill-24" fill="#000000"></path>
            <path d="M116.0595,41.9858 C116.0595,41.9858 113.8145,34.6318 109.1345,34.1018 C104.4555,33.5728 103.0135,36.7948 104.0465,42.0418 C105.0795,47.2888 109.3645,52.1678 114.6885,50.3338 C114.6885,50.3338 117.5205,58.1748 120.7665,64.2458 C125.0125,72.1848 135.7995,85.2248 147.0525,92.6408 L151.3805,82.7248 C151.3805,82.7248 166.9555,82.0448 173.8005,65.4598 C180.6465,48.8758 169.5985,23.4648 169.5985,23.4648 C169.5985,23.4648 165.9475,15.0998 159.3935,12.9528 C152.8405,10.8048 154.1975,14.9928 150.1965,17.0718 C146.1965,19.1498 136.5805,16.3148 133.0335,13.9008 C129.4875,11.4858 124.3075,12.7788 122.3985,15.7688 C120.4885,18.7578 121.3245,22.7018 123.0555,25.5898 C124.7865,28.4758 120.9865,31.5718 120.9875,33.3898 C120.9885,35.2098 123.0745,41.9038 125.2485,47.9388 C127.4245,53.9728 125.7885,54.0568 122.4685,53.6358 C119.1495,53.2158 118.9315,49.3298 116.0595,41.9858" id="Fill-26" fill="#FFA4AD"></path>
            <path d="M158.4905,42.8417 C158.4875,42.8147 158.4925,42.7887 158.4885,42.7617 C158.0255,39.6887 156.9195,36.7777 155.8105,33.8917 C155.6285,33.4207 155.1815,33.0957 154.6605,33.2387 C154.2085,33.3627 153.8245,33.9157 154.0065,34.3887 C155.0835,37.1877 156.1505,40.0117 156.6355,42.9817 C156.6345,43.0687 156.6295,43.1567 156.6625,43.2447 C156.7145,43.3927 156.7535,43.5427 156.7905,43.6957 C156.7925,43.7097 156.7925,43.7077 156.7955,43.7157 C156.7955,43.7187 156.7945,43.7157 156.7945,43.7197 C156.7965,43.7977 156.8055,43.8747 156.8055,43.9537 C156.8055,44.0177 156.8015,44.0827 156.7985,44.1467 C156.7975,44.1577 156.7975,44.1607 156.7975,44.1687 C156.7935,44.1797 156.7915,44.1877 156.7865,44.2067 C156.7655,44.2807 156.7435,44.3557 156.7235,44.4307 C156.7215,44.4377 156.7225,44.4347 156.7215,44.4407 C156.6715,44.5297 156.6255,44.6447 156.5545,44.7207 C156.5375,44.7357 156.5185,44.7517 156.5085,44.7617 C156.4825,44.7877 156.4455,44.8317 156.4075,44.8627 C156.3955,44.8687 156.3845,44.8737 156.3635,44.8857 C156.3175,44.9157 156.2675,44.9397 156.2205,44.9677 C156.2165,44.9697 156.2185,44.9697 156.2155,44.9707 C156.2075,44.9727 156.2125,44.9697 156.1995,44.9727 C156.1465,44.9857 156.0955,44.9987 156.0445,45.0107 C156.0255,45.0107 155.9885,45.0137 155.9495,45.0147 C155.8655,45.0167 155.7825,45.0137 155.6995,45.0087 C155.6285,45.0047 155.5605,44.9947 155.4915,44.9897 C155.7045,45.0067 155.4385,44.9807 155.4105,44.9747 C155.2605,44.9487 155.1125,44.9147 154.9685,44.8677 C154.9435,44.8597 154.9195,44.8507 154.8965,44.8427 C154.8925,44.8407 154.8955,44.8427 154.8905,44.8397 C154.8415,44.8067 154.7855,44.7847 154.7355,44.7547 C154.7005,44.7317 154.5805,44.6727 154.5595,44.6357 C154.6465,44.7017 154.6635,44.7147 154.6115,44.6707 C154.5835,44.6477 154.5565,44.6247 154.5315,44.5997 C154.4435,44.5197 154.3605,44.4337 154.2805,44.3447 C154.2325,44.2917 154.1855,44.2367 154.1405,44.1807 C154.1165,44.1517 153.9545,43.9777 154.1075,44.1427 C154.0115,44.0397 153.9355,43.9067 153.8535,43.7927 C153.8135,43.7367 153.7585,43.6947 153.7095,43.6467 C153.6765,43.6097 153.6475,43.5717 153.6075,43.5417 C153.3115,43.3167 152.9165,43.2357 152.5745,43.4577 C152.4735,43.5217 152.3845,43.6077 152.3105,43.7087 C152.2935,43.7267 152.2905,43.7547 152.2755,43.7757 C152.2045,43.8867 152.1585,44.0087 152.1325,44.1367 C152.1175,44.2207 152.1025,44.3047 152.0775,44.3867 C152.0745,44.3957 152.0685,44.4207 152.0635,44.4417 C152.0615,44.4457 152.0635,44.4397 152.0555,44.4577 C152.0415,44.4857 152.0285,44.5137 152.0135,44.5417 C151.9835,44.5977 151.9515,44.6527 151.9165,44.7057 C151.9155,44.7097 151.9085,44.7197 151.9045,44.7247 C151.8945,44.7347 151.8475,44.8017 151.8335,44.8167 C151.7905,44.8637 151.7465,44.9087 151.7005,44.9527 C151.6745,44.9757 151.5595,45.1087 151.6505,45.0017 C151.7385,44.8997 151.6285,45.0157 151.5935,45.0397 C151.5415,45.0737 151.4875,45.1057 151.4315,45.1357 C151.4195,45.1417 151.3845,45.1577 151.3565,45.1707 C151.3365,45.1777 151.3195,45.1837 151.3105,45.1857 C151.2535,45.2037 151.1955,45.2177 151.1365,45.2307 C151.0615,45.2307 150.9865,45.2377 150.9105,45.2347 C150.8695,45.2337 150.8295,45.2307 150.7895,45.2267 C150.8185,45.2317 150.8475,45.2357 150.8775,45.2407 C150.8595,45.2527 150.7115,45.2077 150.6915,45.2027 C150.6405,45.1897 150.4145,45.1527 150.3905,45.1057 C150.5055,45.1567 150.5325,45.1687 150.4685,45.1377 C150.4395,45.1257 150.4115,45.1117 150.3825,45.0957 C150.3355,45.0727 150.2905,45.0477 150.2445,45.0197 C150.1995,44.9927 150.1545,44.9657 150.1105,44.9347 C150.0835,44.9177 150.0585,44.8987 150.0335,44.8797 C149.9775,44.8387 149.9995,44.8557 150.0975,44.9277 C150.0465,44.9307 149.9015,44.7487 149.8665,44.7117 C149.8555,44.7017 149.8305,44.6777 149.8065,44.6557 C149.8115,44.6617 149.8085,44.6577 149.7915,44.6327 C149.7715,44.6067 149.7535,44.5807 149.7365,44.5537 C149.6775,44.4657 149.6295,44.3737 149.5785,44.2797 C149.5745,44.2727 149.5765,44.2777 149.5725,44.2717 C149.5525,44.2117 149.5325,44.1507 149.5135,44.0907 C149.3765,43.6217 148.8495,43.2797 148.3635,43.4367 C147.8875,43.5917 147.5625,44.0847 147.7105,44.5887 C148.1265,46.0067 149.4265,47.0487 150.9105,47.1057 C151.8265,47.1407 152.7075,46.6857 153.2905,45.9877 C153.4625,46.1427 153.6455,46.2877 153.8525,46.4047 C154.2315,46.6197 154.6495,46.7407 155.0775,46.8047 C155.5805,46.8817 156.0665,46.9227 156.5685,46.8107 C157.3315,46.6407 158.0235,46.0497 158.3545,45.3477 C158.7255,44.5617 158.7595,43.6647 158.4905,42.8417" id="Fill-28" fill="#000000"></path>
            <path d="M137.7538,22.5952 C135.7718,22.9132 134.0278,24.1702 132.9438,25.8342 C132.5408,26.4502 132.7988,27.4102 133.4458,27.7532 C134.1468,28.1232 134.9378,27.9082 135.3658,27.2502 C135.4098,27.1822 135.6728,26.8292 135.5278,27.0062 C135.6528,26.8552 135.7828,26.7092 135.9208,26.5722 C136.0448,26.4492 136.1738,26.3342 136.3068,26.2212 C136.3198,26.2082 136.3148,26.2122 136.3218,26.2052 C136.3278,26.2012 136.3238,26.2042 136.3308,26.2002 C136.4018,26.1492 136.4728,26.1002 136.5448,26.0512 C136.7078,25.9442 136.8768,25.8432 137.0498,25.7522 C137.1038,25.7242 137.3298,25.6252 137.3648,25.6042 C137.6968,25.4852 138.0298,25.4122 138.3708,25.3232 C138.3798,25.3202 138.3828,25.3192 138.3898,25.3172 L138.3958,25.3172 C138.4868,25.3102 138.5778,25.2992 138.6698,25.2952 C138.8538,25.2842 139.0358,25.2842 139.2198,25.2922 C139.3118,25.2962 139.4028,25.3042 139.4938,25.3112 C139.5108,25.3122 139.5178,25.3132 139.5278,25.3132 L139.5298,25.3132 C139.7348,25.3472 139.9358,25.3902 140.1348,25.4452 C140.3128,25.4932 140.4858,25.5512 140.6578,25.6162 C140.6758,25.6212 140.6938,25.6292 140.7108,25.6372 C140.7918,25.6742 140.8718,25.7132 140.9508,25.7532 C141.1348,25.8482 141.3128,25.9532 141.4848,26.0682 C141.4948,26.0752 141.5668,26.1232 141.6098,26.1532 C141.6498,26.1882 141.8038,26.3112 141.7998,26.3082 C142.3558,26.7852 143.2448,26.8952 143.7838,26.3082 C144.2658,25.7832 144.3778,24.8352 143.7838,24.3252 C142.0998,22.8752 139.9508,22.2422 137.7538,22.5952" id="Fill-30" fill="#000000"></path>
            <path d="M165.8095,22.9282 C162.7775,20.7062 158.4785,21.1432 155.8345,23.7552 C155.3115,24.2722 155.2795,25.2292 155.8345,25.7392 C156.3975,26.2562 157.2605,26.2892 157.8185,25.7392 C157.9455,25.6142 158.0785,25.4972 158.2085,25.3772 C158.2565,25.3382 158.2715,25.3262 158.2865,25.3152 C158.3415,25.2742 158.3975,25.2332 158.4555,25.1942 C158.7485,24.9932 159.0595,24.8242 159.3805,24.6702 C159.5315,24.6032 159.5425,24.5982 159.4135,24.6572 C159.4965,24.6242 159.5795,24.5942 159.6635,24.5652 C159.7885,24.5222 159.9155,24.4842 160.0445,24.4492 C160.2165,24.4022 160.3905,24.3692 160.5635,24.3302 C160.6145,24.3232 160.6455,24.3172 160.6655,24.3142 C160.7275,24.3072 160.7885,24.3012 160.8505,24.2962 C161.1895,24.2722 161.5235,24.2852 161.8605,24.3092 C161.8315,24.3112 162.0955,24.3392 162.1155,24.3432 C162.2945,24.3772 162.4725,24.4202 162.6485,24.4692 C162.8255,24.5192 162.9965,24.5802 163.1695,24.6402 C163.2105,24.6572 163.2155,24.6582 163.2375,24.6662 C163.3125,24.7012 163.3885,24.7372 163.4625,24.7742 C163.7895,24.9392 164.0975,25.1342 164.3935,25.3512 C164.9885,25.7852 165.9845,25.4702 166.3125,24.8482 C166.6995,24.1172 166.4435,23.3932 165.8095,22.9282" id="Fill-32" fill="#000000"></path>
            <path d="M141.9297,83.8755 C147.6807,84.6235 153.8527,83.6785 159.2737,81.6865 C165.0517,79.5625 169.5737,75.7245 172.8097,70.4795 C176.5577,64.4025 178.0797,57.1335 177.7567,50.0455 C177.4377,43.0335 175.3997,36.1575 173.2527,29.5185 C171.4717,24.0105 169.3747,18.1375 165.8687,13.4745 C164.7967,12.0485 162.3597,13.4445 163.4467,14.8905 C166.4827,18.9275 168.3567,23.8605 169.9917,28.6005 C171.9397,34.2525 173.7167,40.1185 174.5757,46.0435 C176.3427,58.2495 172.2067,73.0485 160.0347,78.3795 C154.4887,80.8095 147.9417,81.8515 141.9297,81.0695 C140.1447,80.8375 140.1607,83.6455 141.9297,83.8755" id="Fill-34" fill="#000000"></path>
            <path d="M108.2197,40.3481 C108.2897,40.3471 108.3657,40.3571 108.4357,40.3511 C108.5687,40.3391 108.3117,40.3201 108.4407,40.3471 C108.5667,40.3731 108.6877,40.4041 108.8107,40.4411 C109.0577,40.5161 108.7287,40.3951 108.8627,40.4581 C108.9257,40.4891 108.9897,40.5211 109.0517,40.5561 C109.1017,40.5841 109.1507,40.6151 109.1987,40.6451 C109.2157,40.6571 109.3987,40.7871 109.3147,40.7231 C109.2357,40.6621 109.4247,40.8201 109.4207,40.8171 C109.4647,40.8561 109.5067,40.8961 109.5487,40.9371 C109.6007,40.9901 109.6507,41.0431 109.6987,41.0981 C109.7097,41.1101 109.8217,41.2411 109.7667,41.1731 C109.7027,41.0941 109.8397,41.2751 109.8517,41.2921 C109.8847,41.3411 109.9167,41.3911 109.9487,41.4411 C110.0257,41.5671 110.0937,41.6971 110.1567,41.8281 C110.1877,41.8921 110.1997,41.9381 110.1657,41.8471 C110.1977,41.9291 110.2267,42.0131 110.2537,42.0971 C110.3027,42.2471 110.3447,42.4011 110.3797,42.5551 C110.4557,42.8931 110.4697,43.0081 110.4937,43.3541 C110.5417,44.0301 110.5137,44.7081 110.4827,45.3851 C110.4607,45.8741 110.9287,46.3421 111.4177,46.3201 C111.9437,46.2961 112.3297,45.9101 112.3537,45.3851 C112.4237,43.8111 112.4457,42.1611 111.6947,40.7271 C111.0247,39.4491 109.7007,38.4531 108.2197,38.4771 C107.7307,38.4861 107.2617,38.9021 107.2837,39.4121 C107.3067,39.9121 107.6957,40.3571 108.2197,40.3481" id="Fill-36" fill="#000000"></path>
            <path d="M163.5527,60.2221 C163.4667,60.2801 163.3787,60.3331 163.2867,60.3811 C163.2647,60.3931 163.1837,60.4221 163.1617,60.4321 C163.0117,60.4811 162.8657,60.5321 162.7087,60.5621 C162.6757,60.5691 162.6427,60.5741 162.6097,60.5791 C162.5957,60.5801 162.5977,60.5801 162.5727,60.5821 C162.4937,60.5861 162.4157,60.5941 162.3377,60.5961 C162.1487,60.6021 161.9637,60.5881 161.7757,60.5751 C161.7407,60.5731 161.7377,60.5731 161.7247,60.5731 C161.7157,60.5711 161.7127,60.5691 161.6797,60.5631 C161.5667,60.5411 161.4517,60.5221 161.3387,60.4961 C161.1407,60.4531 160.9447,60.4021 160.7487,60.3451 C160.5537,60.2871 160.3607,60.2271 160.1667,60.1621 C160.1567,60.1591 160.1417,60.1521 160.1277,60.1461 C159.8637,59.8031 159.2987,59.6971 158.9447,59.9251 C158.4847,60.2211 158.3887,60.7291 158.6087,61.2051 C158.8577,61.7431 159.4847,61.9111 160.0017,62.0731 C160.5277,62.2371 161.0567,62.3581 161.6037,62.4251 C162.5917,62.5481 163.6547,62.3951 164.4967,61.8371 C164.9047,61.5681 165.1167,60.9981 164.8317,60.5581 C164.5707,60.1511 163.9897,59.9341 163.5527,60.2221" id="Fill-38" fill="#000000"></path>
            <path d="M161.7207,50.1176 C160.1057,52.3316 160.6677,55.8516 162.7927,55.7376 C164.9177,55.6246 165.2807,53.1426 165.2807,53.1426 C166.0327,48.6256 163.3357,47.9036 161.7207,50.1176" id="Fill-40" fill="#000000"></path>
            <path d="M114.2588,36.7895 L129.7078,32.1245 L172.3318,26.1545 L173.3988,28.9065 C173.5638,29.4145 173.3318,29.9665 172.8548,30.2055 L172.1548,30.5555 L172.6608,32.4165 C172.8238,33.0165 172.4478,33.6295 171.8398,33.7555 L169.2748,34.2875 L169.5148,35.0755 C169.6998,35.6855 169.3198,36.3225 168.6938,36.4475 L164.4078,37.3035 C163.9788,37.3895 163.5498,37.1515 163.3958,36.7415 L162.9318,35.5125 L160.5598,35.9965 C160.1168,36.0865 159.6768,35.8335 159.5318,35.4055 L158.9578,33.7065 L157.1968,33.9775 C156.7788,34.0425 156.3708,33.8045 156.2228,33.4075 L155.5248,31.5495 L152.2708,31.9335 L152.8418,33.4515 C153.0148,33.9115 152.7228,34.4145 152.2378,34.4915 L149.8228,34.8775 L150.3228,36.4775 C150.4638,36.9285 150.1798,37.4005 149.7148,37.4875 L147.2228,37.9515 L147.5388,39.2685 C147.6418,39.6935 147.3628,40.1165 146.9308,40.1895 L140.7548,41.2315 C140.2608,41.3145 139.7828,41.0105 139.6508,40.5265 L139.3448,39.4115 L136.8138,39.8555 C136.3338,39.9395 135.8648,39.6605 135.7108,39.1995 L135.2918,37.9515 L132.7298,38.4645 C132.2638,38.5575 131.7988,38.3055 131.6218,37.8645 L130.7028,35.5655 L115.8648,39.0845 L114.2588,36.7895 Z" id="Fill-42" fill="#000000"></path>
            <path d="M126.3828,138.5737 C125.9988,141.9597 123.0068,141.8287 123.9138,143.7737 C124.8298,145.7197 126.7758,150.1337 121.1928,153.1267 C115.6088,156.1097 113.3918,155.4647 112.8778,152.6027 C112.8778,152.6027 106.2748,153.6407 103.7308,152.7337 C103.7308,152.7337 94.8268,163.8357 82.2578,170.1667 L82.2478,170.1667 L67.2288,170.1377 L47.9808,170.7747 C47.1388,168.7257 46.4378,165.9117 46.2228,162.2547 C45.5958,151.3487 50.3748,142.4367 58.9608,141.6137 C58.9608,141.6137 72.6058,132.8597 92.4798,131.4377 C92.4798,131.4377 105.7328,117.0157 115.7308,114.5477 C125.7368,112.0787 127.5328,115.0707 126.3078,117.5307 C125.0828,119.9997 118.3298,120.6547 113.2708,124.0307 C113.2708,124.0307 124.0448,123.1517 125.7368,126.9677 C127.4208,130.7837 123.7918,132.2147 123.7918,133.8977 C123.7918,133.8977 126.7758,135.1977 126.3828,138.5737" id="Fill-44" fill="#FFA4AD"></path>
            <path d="M117.042,133.4487 C119.096,133.3477 121.127,133.2507 123.065,133.8857 C123.545,134.0427 124.087,133.7027 124.216,133.2317 C124.355,132.7237 124.044,132.2387 123.563,132.0817 C121.46,131.3927 119.222,131.4707 117.042,131.5787 C116.537,131.6027 116.107,131.9907 116.107,132.5127 C116.107,133.0007 116.535,133.4737 117.042,133.4487" id="Fill-46" fill="#000000"></path>
            <path d="M117.4482,143.4223 C118.3642,143.2223 119.0422,143.1273 119.9832,143.0813 C120.8862,143.0373 121.7882,143.0683 122.6862,143.1683 C123.1742,143.2233 123.6422,142.6993 123.6212,142.2343 C123.5962,141.6803 123.2092,141.3563 122.6862,141.2983 C120.7702,141.0853 118.8332,141.2073 116.9512,141.6183 C116.4722,141.7233 116.1482,142.3063 116.2982,142.7693 C116.4612,143.2723 116.9352,143.5333 117.4482,143.4223" id="Fill-48" fill="#000000"></path>
            <path d="M117.8828,148.8833 C117.1608,149.4183 116.3888,149.8803 115.5718,150.2563 C115.4818,150.2983 115.3908,150.3383 115.2988,150.3783 C115.4788,150.3003 115.1588,150.4363 115.1278,150.4473 C114.9158,150.5313 114.7008,150.6103 114.4858,150.6823 C114.0528,150.8263 113.6128,150.9463 113.1678,151.0463 C112.6898,151.1533 112.3638,151.7333 112.5148,152.1963 C112.6768,152.6983 113.1528,152.9643 113.6648,152.8503 C115.5208,152.4363 117.2998,151.6303 118.8258,150.4983 C119.2178,150.2073 119.4558,149.6753 119.1618,149.2183 C118.9118,148.8303 118.3028,148.5713 117.8828,148.8833" id="Fill-50" fill="#000000"></path>
            <path d="M117.5341,150.978 C117.6381,151.078 117.7561,151.164 117.8711,151.249 C117.9281,151.29 117.9871,151.327 118.0491,151.36 C118.0781,151.375 118.1071,151.389 118.1381,151.403 C118.2401,151.449 118.3431,151.494 118.4481,151.533 C118.5131,151.557 118.5811,151.577 118.6491,151.591 C118.7731,151.63 118.8981,151.635 119.0221,151.608 C119.1461,151.602 119.2631,151.565 119.3701,151.497 C119.4791,151.438 119.5661,151.358 119.6331,151.256 C119.7151,151.165 119.7711,151.06 119.8001,150.938 C119.8111,150.855 119.8221,150.772 119.8331,150.689 C119.8331,150.52 119.7901,150.363 119.7061,150.217 C119.6571,150.154 119.6081,150.091 119.5591,150.028 C119.4421,149.912 119.3051,149.832 119.1461,149.788 C119.0591,149.768 118.9731,149.742 118.8901,149.707 C118.9651,149.739 119.0401,149.77 119.1141,149.802 C118.9961,149.751 118.8851,149.687 118.7821,149.609 C118.8461,149.658 118.9081,149.706 118.9711,149.754 C118.9311,149.723 118.8931,149.691 118.8561,149.656 C118.7721,149.564 118.6721,149.499 118.5551,149.462 C118.4441,149.404 118.3241,149.376 118.1951,149.381 C118.0661,149.376 117.9461,149.404 117.8351,149.462 C117.7191,149.499 117.6191,149.564 117.5341,149.656 C117.4851,149.718 117.4361,149.782 117.3881,149.845 C117.3041,149.991 117.2611,150.148 117.2601,150.317 C117.2711,150.4 117.2821,150.483 117.2941,150.566 C117.3381,150.724 117.4181,150.862 117.5341,150.978" id="Fill-52" fill="#000000"></path>
            <path d="M46.4277,104.7368 C45.8817,103.1868 44.2277,102.3158 42.6507,102.7738 C38.8837,103.8668 32.7097,107.1048 32.1197,116.6258 C31.3137,129.6388 45.2877,142.6528 64.0947,132.7958 C65.8907,131.8538 66.2957,129.4498 64.9297,127.9508 C63.9387,126.8638 62.3297,126.6218 61.0607,127.3658 C58.2547,129.0088 52.9247,131.2098 47.2517,128.7078 C39.6427,125.3498 36.3427,113.5788 45.1617,109.6718 C46.6327,109.0198 47.3407,107.3328 46.8077,105.8158 L46.4277,104.7368 Z" id="Fill-54" fill="#FFC000"></path>
            <path d="M68.9091,137.1128 C76.2811,134.4188 84.0241,132.9718 91.8741,132.8488 C93.0761,132.8298 93.0801,130.9598 91.8741,130.9778 C83.8681,131.1038 75.9321,132.5598 68.4121,135.3088 C67.2911,135.7188 67.7751,137.5278 68.9091,137.1128" id="Fill-56" fill="#000000"></path>
            <path d="M92.7441,132.2143 C94.7191,129.4863 97.2971,127.0833 99.8581,124.9163 C102.4701,122.7073 105.2901,120.7623 108.2611,119.0693 C109.3061,118.4733 108.3641,116.8573 107.3161,117.4543 C104.2081,119.2263 101.2671,121.2823 98.5361,123.5933 C95.8421,125.8733 93.2041,128.4023 91.1291,131.2703 C90.4221,132.2463 92.0441,133.1813 92.7441,132.2143" id="Fill-58" fill="#000000"></path>
            <path d="M103.7295,95.4887 C103.7295,105.7707 95.3935,114.1067 85.1115,114.1067 C74.8295,114.1067 66.4935,105.7707 66.4935,95.4887 C66.4935,85.2057 74.8295,76.8697 85.1115,76.8697 C95.3935,76.8697 103.7295,85.2057 103.7295,95.4887" id="Fill-60" fill="#FFFFFF"></path>
            <path d="M197.3828,91.7749 C197.3828,91.7749 221.3038,82.9269 231.1338,71.7869 C238.9988,62.8739 242.9838,47.4929 244.2628,41.6979 C244.6048,40.1489 244.2338,38.5329 243.2478,37.2899 C240.4168,33.7169 233.1918,26.3509 218.6818,21.1099 C204.1518,15.8619 191.4688,14.9889 185.7318,14.8952389 C183.6998,14.8639 181.8438,15.9959 180.9268,17.8079 C177.0148,25.5409 167.4168,47.6759 172.9698,69.4929 C179.8518,96.5269 189.3238,95.1489 197.3828,91.7749" id="Fill-62" fill="#FFAD00"></path>
            <path d="M199.0185,86.7739 C199.0185,86.7739 198.2315,84.5559 199.4475,80.4769 C200.6645,76.3979 200.8805,72.6759 196.3345,73.0339 C191.7895,73.3919 191.3615,81.4789 191.3615,81.4789 L199.0185,86.7739 Z" id="Fill-64" fill="#FFA4AD"></path>
            <path d="M233.4072,53.1616 C233.9522,51.6126 235.6072,50.7416 237.1842,51.1996 C240.9512,52.2916 247.1252,55.5306 247.7152,65.0516 C248.5212,78.0646 234.5472,91.0786 215.7402,81.2216 C213.9442,80.2796 213.5392,77.8746 214.9052,76.3766 C215.8962,75.2896 217.5052,75.0476 218.7742,75.7906 C221.5802,77.4336 226.9102,79.6356 232.5822,77.1326 C240.1912,73.7756 243.4912,62.0046 234.6722,58.0976 C233.2022,57.4456 232.4942,55.7586 233.0272,54.2416 L233.4072,53.1616 Z" id="Fill-66" fill="#FFC000"></path>
            <path d="M176.1045,43.9135 C176.1045,54.1965 184.4405,62.5325 194.7235,62.5325 C205.0055,62.5325 213.3415,54.1965 213.3415,43.9135 C213.3415,33.6315 205.0055,25.2955 194.7235,25.2955 C184.4405,25.2955 176.1045,33.6315 176.1045,43.9135" id="Fill-68" fill="#FFFFFF"></path>
            <path d="M240.8945,136.2114 C240.8945,136.2114 247.6335,126.1614 237.0425,111.7134 C226.4515,97.2654 205.2685,92.6414 205.2685,92.6414 C205.2685,92.6414 197.0675,80.9724 187.9825,77.8394 C178.8985,74.7064 174.2785,78.5444 177.2535,84.8094 C177.2535,84.8094 173.1035,85.2254 172.1645,89.2454 C171.2235,93.2674 174.0425,94.7064 174.0425,94.7064 C174.0425,94.7064 172.2495,96.3204 172.2065,98.2004 C172.1645,100.0804 174.3565,100.7844 174.3565,100.7844 C174.3565,100.7844 184.6155,113.6904 196.1265,114.7164 C196.1265,114.7164 206.4645,131.2484 215.5485,139.0014 C224.6325,146.7544 236.8725,142.8964 240.8945,136.2114" id="Fill-70" fill="#FFA4AD"></path>
            <path d="M174.4843,101.2827 C176.6153,100.8497 178.8993,101.1047 180.8773,102.0167 C181.3353,102.2287 181.8833,102.1467 182.1563,101.6817 C182.3923,101.2787 182.2813,100.6147 181.8203,100.4017 C179.3583,99.2657 176.6473,98.9387 173.9873,99.4787 C173.4923,99.5807 173.2073,100.1667 173.3343,100.6307 C173.4753,101.1447 173.9873,101.3847 174.4843,101.2827" id="Fill-72" fill="#000000"></path>
            <path d="M147.292,92.9428 C149.054,97.6668 150.816,102.3908 152.578,107.1158 C154.333,111.8198 156.184,116.5048 157.528,121.3478 C158.877,126.2068 159.93,131.1598 161.011,136.0838 C162.09,140.9978 163.077,145.9378 163.771,150.9228 C164.564,156.6298 164.936,162.3948 164.66,168.1538 C164.603,169.3568 166.473,169.3538 166.53,168.1538 C167.015,158.0158 165.439,147.9388 163.346,138.0488 C162.297,133.0938 161.196,128.1368 159.958,123.2258 C158.714,118.2868 156.961,113.5318 155.183,108.7658 C153.154,103.3258 151.125,97.8848 149.096,92.4458 C148.679,91.3278 146.87,91.8108 147.292,92.9428" id="Fill-74" fill="#A2A3A3"></path>
            <path d="M194.2646,126.0708 C191.3136,131.9318 181.4436,128.1628 170.0946,122.2158 C158.7456,116.2678 150.7866,109.3348 153.8326,103.5218 C156.8786,97.7098 169.7766,95.2198 181.1246,101.1668 C192.4726,107.1138 198.0656,118.5238 194.2646,126.0708" id="Fill-76" fill="#FFAD00"></path>
            <path d="M194.2646,126.0708 C191.2186,131.8828 179.5496,131.7738 168.2026,125.8268 C156.8536,119.8798 150.1226,110.3468 153.1686,104.5348 C156.2146,98.7218 167.8836,98.8318 179.2316,104.7788 C190.5796,110.7248 197.3106,120.2588 194.2646,126.0708" id="Fill-78" fill="#FF5900"></path>
            <path d="M178.6826,85.644 C181.4536,85.249 184.2946,85.462 186.9896,86.203 C188.1516,86.522 188.6476,84.718 187.4866,84.399 C184.4476,83.564 181.3006,83.397 178.1856,83.84 C177.6846,83.912 177.4106,84.548 177.5326,84.991 C177.6796,85.529 178.1806,85.715 178.6826,85.644" id="Fill-80" fill="#000000"></path>
            <path d="M175.0703,95.0893 C177.7133,94.7103 180.4553,94.3413 183.0753,95.0483 C184.2393,95.3613 184.7353,93.5583 183.5723,93.2443 C180.6093,92.4453 177.5583,92.8583 174.5723,93.2853 C174.0723,93.3573 173.7983,93.9923 173.9203,94.4363 C174.0673,94.9733 174.5683,95.1603 175.0703,95.0893" id="Fill-82" fill="#000000"></path>
            <path d="M82.9629,81.7505 L87.8199,86.6265 C88.1459,86.9535 88.6099,87.0995 89.0639,87.0165 L95.8339,85.7785 C96.9759,85.5705 97.8609,86.7625 97.3319,87.7945 L94.1949,93.9215 C93.9849,94.3315 93.9909,94.8185 94.2099,95.2245 L97.4789,101.2815 C98.0289,102.3025 97.1699,103.5125 96.0249,103.3285 L89.2289,102.2385 C88.7739,102.1655 88.3119,102.3205 87.9929,102.6545 L83.2419,107.6355 C82.4419,108.4755 81.0259,108.0315 80.8459,106.8855 L79.7829,100.0845 C79.7119,99.6295 79.4209,99.2385 79.0059,99.0385 L72.8009,96.0605 C71.7549,95.5575 71.7379,94.0735 72.7739,93.5485 L78.9119,90.4365 C79.3229,90.2285 79.6059,89.8305 79.6669,89.3735 L80.5829,82.5525 C80.7369,81.4015 82.1439,80.9285 82.9629,81.7505" id="Fill-84" fill="#FFD200"></path>
            <path d="M196.5888,30.9604 L191.7318,35.8374 C191.4058,36.1634 190.9418,36.3094 190.4868,36.2264 L183.7168,34.9894 C182.5748,34.7804 181.6908,35.9724 182.2188,37.0054 L185.3558,43.1314 C185.5658,43.5414 185.5608,44.0284 185.3418,44.4354 L182.0728,50.4914 C181.5228,51.5134 182.3818,52.7234 183.5268,52.5394 L190.3228,51.4484 C190.7778,51.3764 191.2398,51.5314 191.5578,51.8644 L196.3088,56.8454 C197.1098,57.6854 198.5258,57.2414 198.7048,56.0954 L199.7688,49.2954 C199.8398,48.8404 200.1298,48.4484 200.5458,48.2494 L206.7498,45.2704 C207.7968,44.7684 207.8128,43.2834 206.7768,42.7594 L200.6388,39.6464 C200.2278,39.4384 199.9448,39.0404 199.8838,38.5844 L198.9678,31.7624 C198.8138,30.6124 197.4068,30.1384 196.5888,30.9604" id="Fill-86" fill="#FFD200"></path>
            <path d="M33.1074,85.5698 C30.3564,86.3278 29.4584,87.3998 29.0154,90.4478 C28.9384,90.9808 28.2474,91.0128 28.1214,90.4888 C27.4024,87.4938 26.4094,86.5078 23.6004,86.0048 C23.1094,85.9168 23.0754,85.1648 23.5554,85.0318 C26.3064,84.2738 27.2064,83.2028 27.6474,80.1538 C27.7254,79.6208 28.4174,79.5888 28.5434,80.1128 C29.2604,83.1078 30.2534,84.0928 33.0624,84.5968 C33.5534,84.6848 33.5884,85.4368 33.1074,85.5698" id="Fill-88" fill="#FFBF00"></path>
            <path d="M250.1562,27.31 C248.1542,27.862 247.5002,28.642 247.1782,30.861 C247.1222,31.248 246.6192,31.272 246.5272,30.89 C246.0042,28.71 245.2812,27.994 243.2372,27.626 C242.8802,27.563 242.8552,27.015 243.2052,26.919 C245.2072,26.368 245.8612,25.587 246.1822,23.369 C246.2392,22.981 246.7422,22.957 246.8342,23.339 C247.3572,25.519 248.0802,26.236 250.1242,26.602 C250.4812,26.666 250.5062,27.213 250.1562,27.31" id="Fill-90" fill="#FFBF00"></path>
            <path d="M266.705,70.3647 C265.46,70.7087 265.054,71.1927 264.853,72.5727 C264.818,72.8137 264.506,72.8277 264.449,72.5917 C264.124,71.2357 263.674,70.7897 262.403,70.5617 C262.181,70.5217 262.166,70.1817 262.383,70.1217 C263.628,69.7787 264.035,69.2937 264.234,67.9147 C264.269,67.6737 264.583,67.6587 264.64,67.8957 C264.965,69.2517 265.414,69.6967 266.684,69.9257 C266.907,69.9647 266.923,70.3047 266.705,70.3647" id="Fill-92" fill="#FFBF00"></path>
            <path d="M240.2881,91.2036 C237.9341,91.8516 237.1651,92.7696 236.7871,95.3786 C236.7211,95.8346 236.1291,95.8616 236.0211,95.4136 C235.4061,92.8496 234.5561,92.0076 232.1521,91.5756 C231.7321,91.5006 231.7031,90.8566 232.1141,90.7436 C234.4691,90.0946 235.2381,89.1776 235.6161,86.5676 C235.6831,86.1116 236.2741,86.0846 236.3821,86.5326 C236.9971,89.0976 237.8471,89.9396 240.2501,90.3706 C240.6711,90.4466 240.7001,91.0906 240.2881,91.2036" id="Fill-94" fill="#FFBF00"></path>
            <path d="M92.8408,37.3803 C89.2848,38.3593 88.1228,39.7453 87.5518,43.6863 C87.4518,44.3743 86.5588,44.4153 86.3958,43.7383 C85.4668,39.8663 84.1838,38.5933 80.5528,37.9423 C79.9178,37.8283 79.8738,36.8573 80.4948,36.6853 C84.0508,35.7053 85.2128,34.3193 85.7838,30.3793 C85.8838,29.6903 86.7788,29.6493 86.9408,30.3263 C87.8688,34.1983 89.1528,35.4713 92.7828,36.1223 C93.4178,36.2363 93.4628,37.2083 92.8408,37.3803" id="Fill-96" fill="#FFBF00"></path>
            <path d="M48.9297,84.4966 C51.3797,95.3856 53.9427,106.4306 59.5597,116.1946 C60.4597,117.7596 62.8857,116.3486 61.9827,114.7786 C56.4887,105.2276 54.0317,94.3986 51.6347,83.7506 C51.2387,81.9896 48.5337,82.7346 48.9297,84.4966" id="Fill-98" fill="#FFFFFF"></path>
            <path d="M63.1582,121.2661 C63.4202,121.7101 63.7232,122.1201 64.0412,122.5251 C64.2902,122.8441 64.5602,123.1451 64.8492,123.4271 C65.1092,123.6811 65.4772,123.8381 65.8422,123.8381 C66.0352,123.8461 66.2152,123.8051 66.3832,123.7171 C66.5562,123.6611 66.7072,123.5641 66.8342,123.4271 C67.0792,123.1611 67.2622,122.8091 67.2452,122.4361 C67.2282,122.0661 67.1042,121.7071 66.8342,121.4441 C66.5322,121.1491 66.2522,120.8341 65.9942,120.5011 L66.2142,120.7861 C65.9842,120.4871 65.7722,120.1751 65.5812,119.8501 C65.4012,119.5451 65.0842,119.3001 64.7432,119.2051 C64.5562,119.1471 64.3702,119.1391 64.1832,119.1811 C63.9972,119.1891 63.8232,119.2451 63.6622,119.3471 C63.3622,119.5401 63.0982,119.8281 63.0172,120.1861 C62.9332,120.5531 62.9632,120.9351 63.1582,121.2661" id="Fill-100" fill="#FFFFFF"></path>
            <path d="M227.5791,34.2817 C226.9141,38.8867 225.3901,43.2787 223.8021,47.6347 C222.3811,51.5337 220.9291,55.5577 218.0721,58.6647 C216.8511,59.9917 218.8311,61.9807 220.0561,60.6487 C223.0661,57.3747 224.7151,53.2717 226.2251,49.1527 C227.9151,44.5467 229.5801,39.9047 230.2851,35.0277 C230.5401,33.2607 227.8371,32.4987 227.5791,34.2817" id="Fill-102" fill="#FFFFFF"></path>
            <path d="M211.3144,67.6743 L210.1574,68.7493 C210.0204,68.8763 209.9234,69.0273 209.8674,69.2003 C209.7794,69.3683 209.7394,69.5483 209.7474,69.7413 C209.7394,69.9353 209.7794,70.1143 209.8674,70.2813 C209.9234,70.4553 210.0204,70.6073 210.1574,70.7343 C210.2524,70.8073 210.3464,70.8793 210.4414,70.9523 C210.6604,71.0793 210.8964,71.1443 211.1494,71.1443 C211.2744,71.1273 211.3984,71.1113 211.5224,71.0943 C211.7604,71.0283 211.9664,70.9073 212.1414,70.7343 L213.2984,69.6583 C213.4354,69.5313 213.5324,69.3813 213.5884,69.2073 C213.6764,69.0393 213.7164,68.8603 213.7104,68.6663 C213.7164,68.4733 213.6764,68.2933 213.5884,68.1263 C213.5324,67.9513 213.4354,67.8013 213.2984,67.6743 C213.2044,67.6013 213.1094,67.5283 213.0144,67.4553 C212.7954,67.3283 212.5594,67.2643 212.3064,67.2643 C212.1824,67.2803 212.0574,67.2973 211.9334,67.3143 C211.6964,67.3803 211.4894,67.5003 211.3144,67.6743" id="Fill-104" fill="#FFFFFF"></path>
        </g>
    </g>
</svg>