<?xml version="1.0" encoding="UTF-8"?>
<svg width="313px" height="176px" viewBox="0 0 313 176" version="1.1" xmlns="http://www.w3.org/2000/svg" xmlns:xlink="http://www.w3.org/1999/xlink">
    <title>component / spot image</title>
    <defs>
        <rect id="path-1" x="0" y="0" width="313" height="176"></rect>
        <polygon id="path-3" points="3.47494013e-14 0 34 0 34 67 3.47494013e-14 67"></polygon>
    </defs>
    <g id="Phase-2-Re-design" stroke="none" stroke-width="1" fill="none" fill-rule="evenodd">
        <g id="About-us/-desktop" transform="translate(-338.000000, -2269.000000)">
            <g id="component-/-card-/-spot-illustration-+-brand-accent-copy" transform="translate(338.000000, 2086.000000)">
                <g id="component-/-spot-image" transform="translate(0.000000, 183.000000)">
                    <mask id="mask-2" fill="white">
                        <use xlink:href="#path-1"></use>
                    </mask>
                    <g id="container"></g>
                    <g id="Group-15" mask="url(#mask-2)">
                        <g transform="translate(-58.000000, 55.000000)">
                            <path d="M84,33.5007645 C84,52.0018713 69.0018713,67 50.5007645,67 C31.9981287,67 17,52.0018713 17,33.5007645 C17,14.9981287 31.9981287,0 50.5007645,0 C69.0018713,0 84,14.9981287 84,33.5007645" id="Fill-1" fill="#FFFFFF"></path>
                            <path d="M116.499235,0 C97.9981287,0 83,14.9981287 83,33.5007645 C83,52.0018713 97.9981287,67 116.499235,67 C135.001871,67 150,52.0018713 150,33.5007645 C150,14.9981287 135.001871,0 116.499235,0 M116.499235,17.0026701 C125.596887,17.0026701 132.99733,24.4031128 132.99733,33.5007645 C132.99733,42.5968872 125.596887,49.9973299 116.499235,49.9973299 C107.403113,49.9973299 100.00267,42.5968872 100.00267,33.5007645 C100.00267,24.4031128 107.403113,17.0026701 116.499235,17.0026701 L116.499235,17.0026701" id="Fill-6" fill="#000000"></path>
                            <path d="M217,33.5007645 C217,52.0018713 202.001871,67 183.500765,67 C164.998129,67 150,52.0018713 150,33.5007645 C150,14.9981287 164.998129,0 183.499235,0 C202.001871,0 217,14.9981287 217,33.5007645" id="Fill-8" fill="#FFFFFF"></path>
                            <path d="M248.499235,0 C229.998129,0 215,14.9981287 215,33.5007645 C215,52.0003423 229.998129,67 248.499235,67 C267.001871,67 282,52.0003423 282,33.5007645 C282,14.9981287 267.001871,0 248.499235,0 M248.499235,17.0026701 C257.596887,17.0026701 264.99733,24.4031128 264.99733,33.5007645 C264.99733,42.5968872 257.596887,49.9973299 248.499235,49.9973299 C239.403113,49.9973299 232.001141,42.5968872 232.001141,33.5007645 C232.001141,24.4031128 239.403113,17.0026701 248.499235,17.0026701" id="Fill-10" fill="#000000"></path>
                            <g id="Group-14" stroke-width="1" fill="none" transform="translate(348.000000, 0.000000)">
                                <mask id="mask-4" fill="white">
                                    <use xlink:href="#path-3"></use>
                                </mask>
                                <g id="Clip-13"></g>
                                <path d="M67.6369563,33.5007645 C67.6369563,52.0018713 52.4962433,67 33.8177064,67 C15.140713,67 3.47494013e-14,52.0018713 3.47494013e-14,33.5007645 C3.47494013e-14,14.9981287 15.140713,0 33.8177064,0 C52.4962433,0 67.6369563,14.9981287 67.6369563,33.5007645" id="Fill-12" fill="#000000" mask="url(#mask-4)"></path>
                            </g>
                        </g>
                    </g>
                </g>
            </g>
        </g>
    </g>
</svg>