<?xml version="1.0" encoding="UTF-8"?>
<svg width="313px" height="176px" viewBox="0 0 313 176" version="1.1" xmlns="http://www.w3.org/2000/svg" xmlns:xlink="http://www.w3.org/1999/xlink">
    <title>social impact</title>
    <defs>
        <rect id="path-1" x="0" y="0" width="313" height="176"></rect>
    </defs>
    <g id="Phase-2-Re-design" stroke="none" stroke-width="1" fill="none" fill-rule="evenodd">
        <g id="About-us/-desktop" transform="translate(-1028.000000, -2269.000000)">
            <g id="component-/-card-/-spot-illustration-+-brand-accent-copy-3" transform="translate(1028.000000, 2086.000000)">
                <g id="social-impact" transform="translate(0.000000, 183.000000)">
                    <mask id="mask-2" fill="white">
                        <use xlink:href="#path-1"></use>
                    </mask>
                    <g id="container"></g>
                    <g id="Group-7" mask="url(#mask-2)">
                        <g transform="translate(63.000000, 16.000000)">
                            <path d="M128.446046,30 C121.884898,30 115.579887,31.0976752 109.704916,33.1179364 C112.984816,40.3491246 114.812824,48.3776424 114.812824,56.8331089 C114.812824,82.0338467 98.5858794,103.448615 76,111.214499 C85.0416314,131.139662 105.122762,145 128.446046,145 C160.232631,145 186,119.256485 186,87.5006734 C186,55.7435147 160.232631,30 128.446046,30 M128.446046,39.6002811 C154.882067,39.6002811 176.389475,61.0891257 176.389475,87.5006734 C176.389475,113.912221 154.882067,135.399719 128.446046,135.399719 C112.947069,135.399719 98.5589176,127.874919 89.6426584,115.637524 C110.825177,103.996779 124.423349,81.5866956 124.423349,56.8331089 C124.423349,51.0834456 123.708862,45.4509574 122.293369,39.9908649 C124.32359,39.7309246 126.378078,39.6002811 128.446046,39.6002811" id="Fill-1" fill="#000000"></path>
                            <path d="M110,33.785501 C100.959717,13.8603385 80.87589,0 57.5539542,0 C25.768717,0 0,25.7435147 0,57.5006734 C0,89.2564853 25.768717,115 57.5539542,115 C64.1164504,115 70.4214616,113.902325 76.2950844,111.882064 C73.0138363,104.652222 71.1885241,96.6223576 71.1885241,88.1668911 C71.1885241,62.9661533 87.4154687,41.5527317 110,33.785501" id="Fill-3" fill="#000000"></path>
                            <path d="M115,57.6858498 C115,49.2408381 113.169987,41.2222471 109.882716,34 C87.2567298,41.757627 71,63.1445719 71,88.3154954 C71,96.7591619 72.8286626,104.779098 76.1159336,112 C98.7432702,104.242373 115,82.8554281 115,57.6858498" id="Fill-5" fill="#FFFFFF"></path>
                        </g>
                    </g>
                </g>
            </g>
        </g>
    </g>
</svg>