<?xml version="1.0" encoding="UTF-8"?>
<svg width="161px" height="24px" viewBox="0 0 161 24" version="1.1" xmlns="http://www.w3.org/2000/svg" xmlns:xlink="http://www.w3.org/1999/xlink">
    <title>logo/24/text/color/gobizmerchant</title>
    <g id="logo/24/text/color/gobizmerchant" stroke="none" stroke-width="1" fill="none" fill-rule="evenodd">
        <g id="Group" transform="translate(0.000000, 0.880000)" fill-rule="nonzero">
            <path d="M9.6,2.72 C4.96,2.72 1.2,6.48 1.2,11.12 C1.2,15.76 4.96,19.52 9.6,19.52 C14.24,19.52 18,15.76 18,11.12 C18,6.48 14.24,2.72 9.6,2.72 Z M9.6,1.52 C14.88,1.52 19.2,5.84 19.2,11.12 C19.2,16.4 14.88,20.72 9.6,20.72 C4.32,20.72 3.64153152e-13,16.4 3.64153152e-13,11.12 C3.64153152e-13,5.84 4.32,1.52 9.6,1.52 Z M12.64,11.68 C12.96,12.08 13.44,12.4 14,12.48 C14,13.44 14,14.4 13.92,14.8 C13.84,15.68 13.2,16.4 12.32,16.56 C10.64,16.88 8.8,16.96 7.12,16.56 C6.24,16.4 5.6,15.68 5.44,14.8 C5.36,14.4 5.28,13.44 5.28,12.48 C5.76,12.48 6.32,12.16 6.64,11.76 L6.8,11.92 C6.96,12 7.04,12.08 7.2,12.16 L7.2,13.68 C7.2,13.92 7.36,14.08 7.6,14.08 L11.76,14.08 C12,14.08 12.16,13.92 12.16,13.68 L12.16,12.08 C12.32,12 12.48,11.92 12.56,11.76 C12.56,11.76 12.64,11.68 12.64,11.68 Z M9.6,16.24 C10.08,16.24 10.56,15.84 10.48,15.36 C10.48,14.88 10.08,14.48 9.6,14.48 C9.12,14.48 8.72,14.88 8.72,15.36 C8.72,15.84 9.12,16.24 9.6,16.24 Z M15.6,10.56 C15.6,10.8 15.6,10.96 15.36,11.28 C15.12,11.76 14.56,12.08 14,12.08 L13.92,12.08 C13.44,12.08 12.96,11.76 12.72,11.28 C12.72,11.2 12.64,11.2 12.56,11.2 C12.48,11.2 12.4,11.2 12.4,11.28 C12.32,11.36 12.24,11.52 12.16,11.6 L12.08,11.68 C11.52,12.24 10.64,12.24 10.08,11.68 C9.92,11.6 9.84,11.44 9.76,11.28 C9.76,11.2 9.68,11.2 9.6,11.2 C9.52,11.2 9.44,11.2 9.44,11.28 C9.36,11.44 9.28,11.6 9.12,11.68 C8.8,11.92 8.48,12.08 8.08,12.08 C7.76,12.08 7.36,11.92 7.12,11.68 L7.04,11.6 C6.88,11.44 6.8,11.36 6.72,11.2 C6.72,11.12 6.64,11.12 6.56,11.12 C6.48,11.12 6.4,11.12 6.4,11.2 C6.16,11.68 5.76,12 5.2,12 L5.12,12 C4.48,12 3.92,11.6 3.68,11.04 C3.6,10.88 3.6,10.72 3.6,10.56 C3.6,10.48 3.68,10.32 3.68,10.24 L3.68,10.08 C3.92,9.04 4.32,8 4.8,7.04 C5.12,6.4 5.68,5.92 6.4,5.84 C7.12,5.68 7.76,5.6 8.4,5.6 L10.8,5.6 L12.72,5.84 C13.44,5.92 14.08,6.4 14.4,7.04 C14.88,8 15.28,9.04 15.52,10.08 L15.52,10.24 C15.6,10.32 15.6,10.48 15.6,10.56 Z" id="Shape" fill="#93328E"></path>
            <path d="M26.96,15.92 C27.76,17.12 29.12,17.76 30.56,17.68 C32.24,17.68 33.44,16.64 33.44,15.2 L33.44,14.4 L33.36,14.4 C32.48,15.28 31.2,15.76 29.92,15.68 C26.8,15.76 24.24,13.36 24.16,10.24 C24.08,7.12 26.48,4.56 29.6,4.48 L29.84,4.48 C31.12,4.4 32.4,4.88 33.36,5.76 L33.44,5.76 L33.44,4.72 L36.32,4.72 L36.32,15.12 C36.32,18.16 33.92,20.24 30.56,20.24 C28.32,20.32 26.24,19.44 24.8,17.68 L26.96,15.92 Z M33.28,9.44 C33.28,8.24 31.92,7.12 30.4,7.12 C28.48,7.12 27.2,8.32 27.2,10.08 C27.12,11.6 28.24,12.96 29.84,13.12 L30.32,13.12 C32,13.12 33.36,12.08 33.36,10.8 L33.28,9.44 Z M43.76,4.4 C47.28,4.4 49.76,6.88 49.76,10.08 C49.76,13.28 47.2,15.76 43.76,15.76 C40.64,16 37.92,13.6 37.76,10.48 C37.52,7.36 39.92,4.64 43.04,4.48 C43.28,4.4 43.52,4.4 43.76,4.4 Z M43.76,7.04 C42.08,7.04 40.72,8.4 40.72,10.08 C40.72,11.76 42.08,13.12 43.76,13.12 C45.44,13.12 46.8,11.76 46.8,10.08 C46.88,8.48 45.6,7.12 44.08,7.04 C44,7.04 43.84,7.04 43.76,7.04 Z M54.16,14.4 L54.16,15.44 L51.36,15.44 L51.36,0.72 L54.32,0.72 L54.32,5.6 C55.28,4.8 56.56,4.4 57.76,4.48 C60.8,4.4 63.36,6.8 63.44,9.92 L63.44,10.16 C63.52,13.2 61.12,15.76 58.08,15.84 L57.68,15.84 C56.48,15.84 55.2,15.28 54.16,14.4 Z M57.44,7.04 C55.84,7.04 54.4,8.08 54.4,9.36 L54.4,10.72 C54.4,12 55.76,13.04 57.44,13.04 C59.36,13.04 60.64,11.84 60.64,10 C60.64,8.4 59.36,7.04 57.76,6.96 C57.6,7.04 57.52,7.04 57.44,7.04 Z M65.12,1.84741111e-13 L68.24,1.84741111e-13 L68.24,2.96 L65.12,2.96 L65.12,1.84741111e-13 Z M65.2,4.72 L68.16,4.72 L68.16,15.44 L65.2,15.44 L65.2,4.72 Z M69.68,13.12 L76.88,7.28 L76.88,7.2 L69.92,7.2 L69.92,4.72 L81.36,4.72 L81.36,7.04 L74.16,12.88 L81.52,12.88 L81.52,15.36 L69.76,15.36 L69.76,13.12 L69.68,13.12 Z" id="Shape" fill="#000000"></path>
        </g>
    </g>
</svg>