<?xml version="1.0" encoding="UTF-8"?>
<svg width="107px" height="16px" viewBox="0 0 107 16" version="1.1" xmlns="http://www.w3.org/2000/svg" xmlns:xlink="http://www.w3.org/1999/xlink">
    <title>midtrans color</title>
    <defs>
        <polygon id="path-1" points="0 0 1.85175238 0 1.85175238 8.55464662 0 8.55464662"></polygon>
        <polygon id="path-3" points="0 0 6.32464598 0 6.32464598 8.53447421 0 8.53447421"></polygon>
    </defs>
    <g id="midtrans-color" stroke="none" stroke-width="1" fill="none" fill-rule="evenodd">
        <g id="midtrans" transform="translate(0.000000, 1.000000)">
            <g id="Fill-1-Clipped" transform="translate(0.000000, 2.743943)">
                <mask id="mask-2" fill="white">
                    <use xlink:href="#path-1"></use>
                </mask>
                <g id="path-1"></g>
                <path d="M0.926436825,8.55464662 C0.415279626,8.55464662 0.000587332436,8.14048826 -0.000124585668,7.62933106 L-0.000124585668,0.893517927 C0.0182073055,0.382182751 0.447671901,-0.0175592636 0.959007078,0.000594648053 C1.44471321,0.0180366416 1.83448836,0.407811804 1.85175238,0.893517927 L1.85175238,7.62933106 C1.85104046,8.1401323 1.43723806,8.55411269 0.926436825,8.55464662" id="Fill-1" fill="#88D5F7" fill-rule="nonzero" mask="url(#mask-2)"></path>
            </g>
            <path d="M12.0371291,11.298595 C11.5254379,11.2998352 11.1096778,10.8862108 11.1082539,10.3745196 L11.1082539,10.3732738 L11.1082539,3.63746065 C11.0899221,3.12612547 11.4896641,2.69666088 12.0009992,2.67850697 C12.5123344,2.66017508 12.941799,3.05991709 12.9601309,3.57125225 C12.9608428,3.59332174 12.9608428,3.6153912 12.9601309,3.63746065 L12.9601309,10.3732738 C12.959419,10.8831851 12.5468624,11.2966316 12.0371291,11.298595" id="Fill-4" fill="#0094D3" fill-rule="nonzero"></path>
            <path d="M6.48178294,14 C5.97009181,14.0007101 5.5548656,13.5863738 5.55415367,13.0746826 L5.55415367,0.945377942 C5.55415367,0.433864786 5.96884595,0.0189943962 6.48053708,0.0189943962 C6.99222825,0.0188165312 7.40709849,0.433686805 7.40709849,0.945199963 L7.40709849,0.945377942 L7.40709849,13.0746826 C7.4063866,13.5854839 6.99258418,13.9994642 6.48178294,14" id="Fill-6" fill="#005DAC" fill-rule="nonzero"></path>
            <path d="M35.4128268,3.31722209 C35.4115894,2.97977291 35.6805166,2.70337071 36.0179659,2.69542423 C36.3566608,2.69091214 36.6348429,2.96179698 36.6394702,3.30049201 C36.6396482,3.30618736 36.6396482,3.31170472 36.6394702,3.31722209 L36.6394702,10.568286 C36.6512171,10.8989719 36.3927908,11.17662 36.0621048,11.1883666 C36.0528499,11.1888663 36.043595,11.1888663 36.0345177,11.1888663 C35.6963568,11.193884 35.4181747,10.924245 35.4128268,10.5860839 C35.4128268,10.5802106 35.4128268,10.5741593 35.4128268,10.568286 L35.4128268,3.31722209 Z" id="Fill-8" fill="#002855" fill-rule="nonzero"></path>
            <path d="M47.0032357,10.5718099 L47.0032357,10.5718099 C47.0032357,10.910505 46.7287913,11.1851274 46.3899183,11.1851274 C46.0512234,11.1851274 45.776601,10.910505 45.776601,10.5718099 L45.776601,9.69027736 C45.107754,10.6782417 44.1363416,11.2903133 42.6238718,11.2903133 C40.6502567,11.2903133 38.6908802,9.73050073 38.6908802,7.02307618 L38.6908802,6.99121784 C38.6908802,4.30034539 40.6502567,2.70742864 42.6238718,2.70742864 C44.1528938,2.70742864 45.1396121,3.30419399 45.776601,4.22719582 L45.776601,0.621686578 C45.7643204,0.29100062 46.0222127,0.0128186212 46.3528986,0.000538033879 C46.3628656,5.54272248e-05 46.3728325,5.54272248e-05 46.3827991,5.54272248e-05 C46.7209603,-0.00444539283 46.9987864,0.265727527 47.0032357,0.603888625 C47.003336,0.609761951 47.003336,0.615813256 47.0032357,0.621686578 L47.0032357,10.5718099 Z M39.9495514,6.97235203 L39.9495514,7.00421034 C39.9495514,8.94703486 41.3025518,10.188976 42.847058,10.188976 C44.3917422,10.188976 45.8250112,8.89969228 45.8250112,7.00421034 L45.8250112,6.97235203 C45.8250112,5.08149754 44.376258,3.80413847 42.847058,3.80413847 C41.2541412,3.80413847 39.9495514,4.98574455 39.9495514,6.97235203 L39.9495514,6.97235203 Z" id="Fill-10" fill="#002855" fill-rule="nonzero"></path>
            <g id="Fill-12-Clipped" transform="translate(78.641712, 2.733413)">
                <mask id="mask-4" fill="white">
                    <use xlink:href="#path-3"></use>
                </mask>
                <g id="path-3"></g>
                <path d="M0.222119599,7.50041317 C0.0818717329,7.39487132 -0.000354808075,7.22935036 -1.1435596e-06,7.05368455 C0.00445063912,6.75912843 0.246680774,6.5240175 0.541236888,6.52793303 C0.650160358,6.52526335 0.756592114,6.55925745 0.843802083,6.62475392 C1.68742503,7.19784798 2.5630843,7.50041317 3.45547363,7.50041317 C4.44201416,7.50041317 5.15944963,6.9899679 5.15944963,6.1935095 L5.15944963,6.16271905 C5.15944963,5.3354702 4.18803738,5.01528506 3.10432004,4.71271987 C1.81521433,4.346438 0.3863947,3.90095523 0.3863947,2.38830725 L0.3863947,2.35644892 C0.3863947,0.938308059 1.56817875,0 3.18832637,0 C4.10794659,0.0193997683 5.00923491,0.259672128 5.81655002,0.700705393 C6.00129279,0.804111497 6.11662352,0.998465139 6.11893724,1.2100828 C6.1150217,1.50446093 5.87332549,1.73992784 5.57912534,1.73601229 L5.57770151,1.73601229 C5.48372831,1.73565633 5.39117895,1.71394283 5.30717263,1.67211764 C4.60628927,1.27397745 3.85841928,1.03512892 3.15753592,1.03512892 C2.18612367,1.03512892 1.56461916,1.54450633 1.56461916,2.22990548 L1.56461916,2.26176381 C1.56461916,3.04184807 2.58444184,3.3442353 3.68221957,3.67990469 C4.95139154,4.06042491 6.32468158,4.55431809 6.32468158,6.03510775 L6.32468158,6.06696606 C6.32468158,7.62677865 5.0353979,8.53447421 3.39513859,8.53447421 C2.25802739,8.51400658 1.15295252,8.15395399 0.222119599,7.50041317" id="Fill-12" fill="#002855" fill-rule="nonzero" mask="url(#mask-4)"></path>
            </g>
            <path d="M76.8738066,6.16637174 C76.8738066,4.31467274 75.2490314,2.70146633 73.2896549,2.70146633 C71.3087429,2.70146633 69.7030116,4.3071976 69.7030116,6.28810972 L69.7030116,6.28917762 L69.7030116,10.5316756 C69.6971383,10.884075 69.97799,11.1745376 70.3303895,11.180534 C70.3371524,11.180534 70.3439157,11.180534 70.350679,11.180534 C70.6964932,11.1845044 70.9803706,10.9075683 70.9844642,10.5615761 C70.9846422,10.5516093 70.9844642,10.5416424 70.9841082,10.5316756 L70.9841082,6.16637174 C71.0248655,4.89364013 72.0895389,3.89499704 73.3622707,3.93575434 C74.5776928,3.97473186 75.5539106,4.95094957 75.592888,6.16637174 L75.592888,10.5316756 C75.592888,10.8853209 75.879613,11.1720459 76.2332584,11.1720459 C76.5870816,11.1720459 76.8738066,10.8853209 76.8738066,10.5316756 C76.8738066,10.5316756 76.8855532,6.56575778 76.8738066,6.16637174" id="Fill-15" fill="#002855" fill-rule="nonzero"></path>
            <path d="M63.5226549,10.1830849 L63.5226549,10.1830849 C62.4070792,10.1830849 61.5278603,9.71037123 61.5278603,8.67275062 L61.5278603,8.64089227 C61.5278603,7.60576334 62.3882134,6.93691628 63.9327195,6.93691628 C64.9349221,6.93691628 66.3518173,7.25816935 66.352885,7.29127352 C66.352885,8.7980482 64.9418634,10.1830849 63.5226549,10.1830849 L63.5226549,10.1830849 Z M67.5145576,6.07780912 L67.5145576,6.07780912 C67.4034982,4.30513305 65.8294472,2.81152886 63.9421525,2.81152886 L63.3927296,2.81152886 C63.0725445,2.79693454 62.8013037,3.04486002 62.7868875,3.36486722 C62.7724709,3.68505237 63.0202186,3.95629317 63.3404037,3.97070952 C63.3578455,3.97159942 63.3752877,3.97159942 63.3927296,3.97070952 L63.9398388,3.97070952 C65.2125702,3.97070952 66.3386468,5.00352471 66.3386468,6.27625629 L66.3386468,6.3814422 C65.5169154,6.13992399 64.6640373,6.02049972 63.8074219,6.02690697 C61.7216797,6.02690697 60.2882327,6.95097667 60.2882327,8.68574311 L60.2882327,8.71777942 C60.2882327,10.4064492 61.7761416,11.2821084 63.303918,11.2821084 C64.6925141,11.2821084 65.7856642,10.573038 66.355377,9.65359575 L66.355377,10.599023 C66.355377,10.9200981 66.6155829,11.1804821 66.9366579,11.1804821 C67.257733,11.1804821 67.5181172,10.9200981 67.5181172,10.599023 L67.5181172,6.07780912 L67.5145576,6.07780912 Z" id="Fill-17" fill="#002855" fill-rule="nonzero"></path>
            <path d="M60.054316,3.38926819 C60.054316,3.06890506 59.7944643,2.80905495 59.4741009,2.80905495 L59.0770288,2.80905495 C57.0955828,2.80905495 55.4893175,4.41532016 55.4893175,6.39676621 L55.4893175,10.5328324 C55.4839782,10.8859438 55.7658976,11.1762284 56.119009,11.1815678 C56.1254163,11.1816679 56.1316456,11.1816679 56.1380529,11.1815678 C56.4833331,11.1858393 56.7664985,10.9092591 56.7705921,10.5641568 C56.7707701,10.553656 56.7705921,10.5431552 56.7702361,10.5328324 L56.7702361,6.27858783 C56.7709481,5.00585622 57.8030514,3.97428689 59.0757828,3.97428689 L59.4753469,3.97428689 C59.79571,3.973575 60.0548482,3.7133689 60.054316,3.39282779 L60.054316,3.38926819 Z" id="Fill-19" fill="#002855" fill-rule="nonzero"></path>
            <path d="M53.4542996,3.3597236 C53.4542996,3.06089598 53.2120695,2.81848786 52.913064,2.81848786 L50.763605,2.81848786 L50.763605,0.657104505 C50.7660966,0.308620593 50.4946782,0.0195818431 50.146728,0.000170936468 C49.8112367,-0.00124176138 49.5382159,0.269465097 49.5367922,0.604956503 C49.5367922,0.610473869 49.5367922,0.615991234 49.5369702,0.621686578 L49.5369702,8.92799105 C49.5369702,10.5990408 50.5402408,11.2525816 51.8613828,11.2525816 C52.2755411,11.2597008 52.6870298,11.1837036 53.0714657,11.0292173 C53.2780997,10.9630089 53.4203055,10.7732828 53.4260008,10.5565037 C53.4233312,10.267287 53.1892881,10.0337778 52.9000714,10.0318201 C52.8043182,10.0318201 52.580954,10.1428793 52.1520234,10.1428793 C51.3249525,10.1428793 50.7669866,9.77659743 50.7669866,8.77332684 L50.7669866,3.89989146 L52.9166233,3.89989146 C53.2136712,3.89775571 53.4537656,3.65677143 53.4542996,3.3597236" id="Fill-21" fill="#002855" fill-rule="nonzero"></path>
            <path d="M29.4392374,2.69559223 C28.3087114,2.69505906 27.2508011,3.25213498 26.6113207,4.18456973 C25.9780695,3.25640649 24.9271004,2.70146633 23.8035157,2.70146633 C21.9074998,2.70146633 20.3701127,4.23831953 20.3694251,6.1345134 L20.3694251,10.5670935 C20.3642394,10.9050766 20.6338783,11.1834366 20.9720394,11.188776 C20.9782687,11.188776 20.984676,11.188776 20.9910832,11.188776 C21.3219472,11.1921576 21.59301,10.9267901 21.5965696,10.5959262 C21.5965696,10.5863153 21.5965696,10.5767044 21.5962136,10.5670935 L21.5962136,6.01740288 C21.6243344,4.79931099 22.6347242,3.83466196 23.852816,3.86278273 C25.0313965,3.89001361 25.9802053,4.83900044 26.0074362,6.01740288 L26.0074362,10.0600298 C26.0074362,10.3989028 26.2820586,10.6735252 26.6209316,10.6735252 C26.9594486,10.6735252 27.2340711,10.3989028 27.2340711,10.0600298 L27.2340711,6.01046167 C27.2340711,4.79183585 28.2218574,3.80404947 29.4404833,3.80404947 C30.6589311,3.80404947 31.6467175,4.79183585 31.6467175,6.01046167 L31.6467175,10.562466 C31.6317672,10.9008051 31.894109,11.1871742 32.2324481,11.2019464 C32.5709651,11.2168967 32.8573342,10.9545549 32.8722844,10.6162158 C32.8729964,10.5982399 32.8729964,10.580264 32.8722844,10.562466 L32.8722844,6.1345134 C32.8651653,4.24045528 31.3332955,2.70591581 29.4392374,2.69559223" id="Fill-23" fill="#002855" fill-rule="nonzero"></path>
        </g>
    </g>
</svg>