<?xml version="1.0" encoding="UTF-8"?>
<svg width="107px" height="16px" viewBox="0 0 107 16" version="1.1" xmlns="http://www.w3.org/2000/svg" xmlns:xlink="http://www.w3.org/1999/xlink">
    <title>selly color</title>
    <defs>
        <polygon id="path-1" points="0 1.13866276e-16 1.75123927 1.13866276e-16 1.75123927 8.74249691 0 8.74249691"></polygon>
        <polygon id="path-3" points="2.12913091e-17 0 1.76333951 0 1.76333951 7.00448611 2.12913091e-17 7.00448611"></polygon>
    </defs>
    <g id="selly-color" stroke="none" stroke-width="1" fill="none" fill-rule="evenodd">
        <text id="Product-page" font-family="MaisonNeue-Bold, Maison Neue" font-size="24" font-weight="bold" fill="#FFFFFF">
            <tspan x="0" y="-35">Product page</tspan>
        </text>
        <g id="selly" transform="translate(0.000000, 1.000000)">
            <path d="M6.99375499,7.00414972 C6.99375499,9.04070522 6.99442778,11.0774289 6.9930822,13.1139844 C6.99291399,13.5092525 6.76096734,13.8310175 6.39765715,13.9538029 C6.04494349,14.0730561 5.65623523,13.9568305 5.42294297,13.6582769 C5.30099859,13.5020199 5.24212886,13.323897 5.24212886,13.12374 C5.24313808,9.03952782 5.24246526,4.95531564 5.24330626,0.871103486 C5.24347448,0.383998699 5.62259539,0.0109329459 6.11306418,0.00821258887 C6.60286014,0.00555057251 6.99005461,0.373570348 6.9922412,0.861347933 C6.9969508,1.93176743 6.99375499,3.00235513 6.99375499,4.07277463 L6.99375499,7.00414972 Z" id="Fill-1" fill="#39BC9E" fill-rule="nonzero"></path>
            <g id="Fill-3-Clipped" transform="translate(-0.000000, 5.253598)">
                <mask id="mask-2" fill="white">
                    <use xlink:href="#path-1"></use>
                </mask>
                <g id="path-1"></g>
                <path d="M0.000117739417,4.36157464 C0.000117739417,3.20873755 -0.000218658917,2.05573226 0.000117739417,0.90289517 C0.000285938584,0.372226799 0.363596139,-0.0010071534 0.877108196,-2.03335835e-06 C1.37783711,0.0010112366 1.75039827,0.380468556 1.75056647,0.89482161 C1.75140746,3.2171475 1.75157566,5.5394734 1.75039827,7.86179931 C1.75023007,8.30500409 1.42426009,8.68429322 1.00830355,8.73475296 C0.535159288,8.79210889 0.134845272,8.52652241 0.0204698386,8.08197201 C-0.000386858083,8.00056362 0.000285938584,7.91898702 0.000285938584,7.83690581 C0.000117739417,6.67834997 0.000117739417,5.5199623 0.000117739417,4.36157464" id="Fill-3" fill="#39BC9E" fill-rule="nonzero" mask="url(#mask-2)"></path>
            </g>
            <g id="Fill-6-Clipped" transform="translate(10.485075, -0.000000)">
                <mask id="mask-4" fill="white">
                    <use xlink:href="#path-3"></use>
                </mask>
                <g id="path-3"></g>
                <path d="M0.000544965299,3.4931603 C0.000544965299,2.64224071 0.000544965299,1.79132113 0.000544965299,0.940233343 C0.000544965299,0.396781834 0.378152095,-0.00420497916 0.885440783,-6.50246254e-05 C1.38549691,0.00437317832 1.76007645,0.400314019 1.76159024,0.937205758 C1.76444963,1.99686051 1.76243124,3.05634706 1.76243124,4.11600182 C1.76243124,4.76373681 1.76495423,5.41163998 1.76159024,6.059375 C1.75873086,6.60921806 1.3868425,7.0043179 0.880226607,7.00448611 C0.388916841,7.00448611 0.00222695697,6.6221694 0.0010495628,6.12833665 C-0.000968827202,5.25000061 0.000544965299,4.37166456 0.000544965299,3.4931603" id="Fill-6" fill="#39BC9E" fill-rule="nonzero" mask="url(#mask-4)"></path>
            </g>
            <path d="M29.753373,6.42317297 C30.5265846,6.42317297 31.299796,6.41964077 32.0731758,6.42641803 C32.2132857,6.42754614 32.2412069,6.3786002 32.2213594,6.25497381 C32.1688813,5.92967662 32.09521,5.6109392 31.9675467,5.30548952 C31.4045842,3.95821419 30.1424176,3.56193694 29.0713253,3.91599618 C27.9654158,4.28166118 27.4742742,5.16134281 27.2779858,6.24925502 C27.2530923,6.38768294 27.290769,6.42754614 27.4335701,6.42641803 C28.2067816,6.41964077 28.9801614,6.42317297 29.753373,6.42317297 M30.1144966,7.29646305 C29.2142946,7.29646305 28.3140927,7.29915422 27.4138907,7.29377186 C27.2811816,7.29293085 27.2559517,7.32186112 27.273949,7.45726145 C27.440298,8.70899966 28.2570732,9.63325406 29.4484279,9.85494056 C30.4034627,10.0325589 31.2629605,9.78564251 32.0171655,9.17423853 C32.0854544,9.118901 32.1493702,9.05851751 32.2173226,9.00284359 C32.4455688,8.81597433 32.7532051,8.8378402 32.9394015,9.05313515 C33.1134878,9.25446954 33.0894352,9.5459587 32.8835594,9.7484705 C32.0395359,10.5785334 31.0205855,10.9579907 29.8435277,10.9226689 C27.9124331,10.8646402 26.3903988,9.49953574 26.1286809,7.58627021 C25.942989,6.22923931 26.2215268,4.99179806 27.164115,3.96511034 C27.9879545,3.06776777 29.0354989,2.71656792 30.2419915,2.84137171 C31.8928665,3.01243026 32.9975986,4.2554221 33.3104489,5.81378739 C33.3698232,6.11015431 33.4048086,6.40938063 33.4043148,6.71180272 C33.4034631,7.06956238 33.1753852,7.29562205 32.8151025,7.29612663 C31.9149003,7.29747224 31.0146985,7.29646305 30.1144966,7.29646305" id="Fill-9" fill="#7D7D7D" fill-rule="nonzero"></path>
            <path d="M45.3618185,9.42981717 C45.4563462,9.19265635 45.5438099,8.97584763 45.629255,8.75836609 C46.332832,6.96822237 47.0365776,5.17791044 47.7389771,3.38726211 C47.8387192,3.13311317 47.9741195,2.92454619 48.2832697,2.91479064 C48.6980489,2.90167111 48.981128,3.24530202 48.8660796,3.64511143 C48.7525454,4.04071585 48.5648349,4.40924025 48.4065598,4.78819295 C47.5273826,6.89169174 46.6463553,8.99451773 45.7616277,11.0958299 C45.5569295,11.5825983 45.3101813,12.0464916 44.9557856,12.446301 C44.5193088,12.9391246 43.9719885,13.180154 43.317694,13.1991605 C42.8457269,13.2127846 42.3880572,13.1450004 41.9448522,12.9835292 C41.6372159,12.8715085 41.4913873,12.6049128 41.5805329,12.3248612 C41.6691739,12.0461552 41.9451888,11.9127733 42.2607302,12.0110016 C42.5182432,12.0914008 42.7774382,12.1546437 43.0472295,12.1714636 C43.6229752,12.2074582 44.0530607,11.9647468 44.3649019,11.4895842 C44.5159448,11.2593195 44.6646328,11.0233361 44.7436865,10.7621228 C44.8306454,10.475175 44.5961758,10.263244 44.4880237,10.0311292 C43.5294565,7.97422159 42.5560879,5.92421014 41.5875971,3.87201211 C41.5142624,3.71642789 41.455561,3.55663867 41.4898735,3.38019774 C41.535119,3.14623269 41.7255205,2.95835423 41.9514121,2.92067761 C42.2311272,2.87408644 42.4588689,2.97248296 42.5909053,3.21704454 C42.6817327,3.38541192 42.7535539,3.56437583 42.8314302,3.73980755 C43.6554379,5.59891296 44.479109,7.45835473 45.3031168,9.31746014 C45.3162363,9.34723138 45.3332244,9.37532065 45.3618185,9.42981717" id="Fill-11" fill="#7D7D7D" fill-rule="nonzero"></path>
            <path d="M22.2033833,10.8972876 C21.1723224,10.9092298 20.2847354,10.6407839 19.4857894,10.0840447 C19.273522,9.93602938 19.1889178,9.73738618 19.239714,9.51990464 C19.28866,9.30999208 19.4428986,9.1658454 19.6588663,9.13119638 C19.8136096,9.10630289 19.9474961,9.15373507 20.0758321,9.24187143 C20.5705058,9.58180193 21.10437,9.82955932 21.7093824,9.88859723 C22.1694071,9.93367458 22.6292636,9.95133552 23.0714592,9.7711942 C23.6544375,9.53369699 23.9635876,8.99663705 23.8298693,8.45436291 C23.7730179,8.22376188 23.6340854,8.05371252 23.4475525,7.91663018 C23.0871017,7.65205289 22.6674448,7.52287592 22.2471151,7.39739937 C21.6856663,7.22970478 21.1137891,7.09178147 20.5822797,6.83662334 C19.972726,6.544125 19.4777158,6.1397742 19.3804967,5.42240473 C19.2302948,4.31195383 19.7813153,3.42588062 20.8391199,3.04440491 C21.6565678,2.74971998 22.4788936,2.81464486 23.2985281,3.03481757 C23.6963191,3.14162404 24.0791404,3.29165769 24.4416096,3.48895531 C24.6749019,3.61594569 24.7980237,3.83578199 24.766234,4.05057234 C24.7108965,4.4236381 24.3240384,4.60966635 23.9730068,4.42178791 C23.5698334,4.20632477 23.155727,4.02080109 22.7078126,3.92307738 C22.1744531,3.80651536 21.6432801,3.77472571 21.1274133,4.00650414 C20.6615016,4.21574391 20.4041568,4.67223646 20.491284,5.13310219 C20.538548,5.38304614 20.698169,5.55292728 20.8969804,5.68967322 C21.2449845,5.92868424 21.6427755,6.05617919 22.0397255,6.18300139 C22.6602123,6.3809718 23.2958369,6.53857442 23.8720873,6.85562984 C24.4138568,7.15351058 24.8271221,7.55920696 24.9354424,8.1981956 C25.1174339,9.27147446 24.5500981,10.2584672 23.5291291,10.660295 C23.3193848,10.7428808 23.1040898,10.8062919 22.882908,10.8471643 C22.6393556,10.8920734 22.3929438,10.9062022 22.2033833,10.8972876" id="Fill-13" fill="#7D7D7D" fill-rule="nonzero"></path>
            <path d="M35.126714,5.40502976 C35.126714,3.80831509 35.1263777,2.21160038 35.1270503,0.614885694 C35.1272186,0.330797302 35.292222,0.097505057 35.5388019,0.0248430169 C35.7818498,-0.0469780275 36.0459223,0.0482227011 36.1902374,0.259144456 C36.2812331,0.392189998 36.297212,0.542391853 36.297212,0.698648878 C36.2963711,3.74927718 36.2967074,6.80007367 36.2965391,9.85087015 C36.2965391,9.97701953 36.3002396,10.1033371 36.2958665,10.2294865 C36.2832515,10.6001974 36.0486137,10.8314713 35.6950589,10.8261128 C35.3626974,10.8208747 35.1270503,10.5679032 35.1268823,10.2116574 C35.1263777,8.60939209 35.126714,7.00712682 35.126714,5.40502976" id="Fill-15" fill="#7D7D7D" fill-rule="nonzero"></path>
            <path d="M38.7129388,5.42186649 C38.7129388,3.84163533 38.713948,2.26123596 38.7119264,0.681004788 C38.7115932,0.455281506 38.7628941,0.256974687 38.9539682,0.116696582 C39.2905349,-0.130387994 39.7715844,0.0460529318 39.8630847,0.453431315 C39.8832688,0.543249669 39.8864644,0.638282199 39.8864644,0.730959941 C39.8876419,3.85307288 39.8874736,6.97518582 39.886801,10.0972987 C39.886801,10.1736612 39.8829325,10.2508646 39.8714948,10.3262178 C39.8217077,10.654038 39.5995168,10.8365341 39.2683325,10.8259375 C38.9723022,10.8166866 38.737496,10.5855809 38.7171439,10.2777764 C38.7097431,10.168447 38.7131071,10.0584447 38.7131071,9.94877888 C38.7129388,8.43969596 38.7129388,6.93078123 38.7129388,5.42186649" id="Fill-17" fill="#7D7D7D" fill-rule="nonzero"></path>
        </g>
    </g>
</svg>