<svg width="144" height="32" viewBox="0 0 144 32" fill="none" xmlns="http://www.w3.org/2000/svg">
<path fill-rule="evenodd" clip-rule="evenodd" d="M15.0016 1.01711C7.51617 1.35316 1.42097 7.27443 1.02129 14.6037C0.695458 20.6186 4.14057 25.8805 9.25393 28.3264C11.1611 29.2367 13.4289 28.0925 13.7938 26.0464C14.0415 24.6682 13.3246 23.3027 12.043 22.6901C9.13663 21.2949 7.18599 18.279 7.41625 14.8462C7.6856 10.8306 11.0047 7.56794 15.1058 7.29144C19.9542 6.9639 23.9945 10.72 23.9945 15.3949C23.9945 18.6065 22.0916 21.38 19.3286 22.6987C18.0687 23.3027 17.378 24.6596 17.6212 26.0124L17.6343 26.0804C17.9949 28.0925 20.2235 29.2367 22.096 28.3477C27.0051 26.0209 30.3938 21.095 30.3938 15.3949C30.3938 7.21913 23.4341 0.63427 15.0016 1.01711Z" fill="#00AED6"/>
<path fill-rule="evenodd" clip-rule="evenodd" d="M15.7097 20.4567C12.8554 20.4567 10.5355 18.1852 10.5355 15.3905C10.5355 12.5957 12.8554 10.3242 15.7097 10.3242C18.5639 10.3242 20.8839 12.5957 20.8839 15.3905C20.8839 18.1852 18.5639 20.4567 15.7097 20.4567Z" fill="#00AED6"/>
<g clip-path="url(#clip0_65_231)">
<path fill-rule="evenodd" clip-rule="evenodd" d="M65.8255 7.04248C61.3206 7.04248 57.669 10.7034 57.669 15.2199C57.669 19.7365 61.3206 23.3974 65.8255 23.3974C70.3305 23.3974 73.982 19.7365 73.982 15.2199C73.982 10.7034 70.3305 7.04248 65.8255 7.04248ZM65.8255 19.7237C63.3459 19.7237 61.3333 17.7059 61.3333 15.2199C61.3333 12.7339 63.3459 10.7162 65.8255 10.7162C68.3052 10.7162 70.3178 12.7339 70.3178 15.2199C70.3178 17.7059 68.3052 19.7237 65.8255 19.7237Z" fill="#454545"/>
<path fill-rule="evenodd" clip-rule="evenodd" d="M55.2021 7.26393H51.9369C51.7714 7.26393 51.6397 7.39589 51.6397 7.56191V7.9578V8.60058C51.058 7.92374 50.1367 7.54914 49.7715 7.42143C48.952 7.14473 48.0731 7 47.156 7C42.7147 7.01277 39.0632 10.6311 38.9995 15.0838C38.9358 19.6684 42.6213 23.406 47.1815 23.406C48.0901 23.406 48.969 23.257 49.7842 22.9803C50.1579 22.8483 51.0665 22.4737 51.644 21.8054V22.4439V22.5972C51.644 23.9849 51.1642 25.1172 50.2513 25.8749C49.4616 26.5348 48.3534 26.8966 47.1305 26.8966C45.3557 26.8966 43.6531 26.1687 42.6553 25.0065C42.5449 24.8788 42.3496 24.8703 42.2264 24.9895L40.061 27.1052C39.9421 27.2201 39.9421 27.4074 40.0567 27.5266C41.8995 29.4167 44.2942 30.383 47.1772 30.4H48.0986C52.1747 30.4 55.4781 27.0882 55.4781 23.0016V21.5585C55.4781 21.5585 55.4781 21.5372 55.4781 21.5244L55.4951 7.55765C55.4951 7.39163 55.3634 7.25967 55.1978 7.25967L55.2021 7.26393ZM51.6397 15.2498C51.6143 17.6975 49.6271 19.6727 47.1815 19.6727C44.7358 19.6727 42.7232 17.672 42.7232 15.203C42.7232 12.734 44.7188 10.7333 47.1815 10.7333C49.6441 10.7333 51.6143 12.7085 51.6397 15.1562V15.2498Z" fill="#454545"/>
<path fill-rule="evenodd" clip-rule="evenodd" d="M101.768 7.02124C97.2584 7.02124 93.6026 10.6864 93.6026 15.2072C93.6026 19.728 97.2584 23.3932 101.768 23.3932C106.277 23.3932 109.933 19.728 109.933 15.2072C109.933 10.6864 106.277 7.02124 101.768 7.02124ZM101.768 19.7152C99.2837 19.7152 97.2711 17.6975 97.2711 15.2072C97.2711 12.7169 99.2837 10.6992 101.768 10.6992C104.251 10.6992 106.264 12.7169 106.264 15.2072C106.264 17.6975 104.251 19.7152 101.768 19.7152Z" fill="#454545"/>
<path fill-rule="evenodd" clip-rule="evenodd" d="M133.604 7.00011C131.952 6.9916 130.411 7.47262 129.124 8.31123V7.60033C129.124 7.43431 128.993 7.30235 128.827 7.30235H125.6C125.435 7.30235 125.303 7.43431 125.303 7.60033V29.5658C125.303 29.7318 125.435 29.8637 125.6 29.8637H128.831C128.997 29.8637 129.129 29.7318 129.129 29.5658V28.5271V22.1162C130.407 22.9463 131.931 23.4274 133.57 23.4274C138.134 23.4274 141.824 19.6856 141.76 15.0967C141.692 10.644 138.045 7.0214 133.604 7.00011ZM133.561 19.6898C131.256 19.6898 129.362 17.9403 129.12 15.6969V14.7306C129.362 12.4872 131.256 10.7376 133.561 10.7376C136.028 10.7376 138.028 12.7426 138.028 15.2159C138.028 17.6891 136.028 19.6941 133.561 19.6941V19.6898Z" fill="#454545"/>
<path d="M115.754 23.1334H112.438C112.272 23.1334 112.14 23.0015 112.14 22.8354V7.60437C112.14 7.43835 112.272 7.30639 112.438 7.30639H115.482C115.648 7.30639 115.779 7.43835 115.779 7.60437V9.41354L116.28 8.80906L116.319 8.76649C117.461 7.59585 118.976 7.00415 120.832 7.00415C121.524 7.00415 122.203 7.0978 122.968 7.30213C123.057 7.32342 123.108 7.41281 123.091 7.49795L122.352 10.6651C122.335 10.7374 122.267 10.7928 122.191 10.7928C122.178 10.7928 122.165 10.7928 122.152 10.7885C121.469 10.6225 120.938 10.5629 120.195 10.5629C117.52 10.5629 116.047 12.4061 116.047 15.752V22.8354C116.047 23.0015 115.915 23.1334 115.75 23.1334H115.754Z" fill="#454545"/>
<path d="M88.1423 17.7444C87.2719 19.0513 85.7391 19.8814 84.0237 19.7451C81.8922 19.5749 80.1387 17.8806 79.9051 15.7479C79.6037 13.0193 81.7267 10.7078 84.3889 10.7078C85.9684 10.7078 87.3568 11.5251 88.1635 12.7554C88.2484 12.8831 88.4225 12.9214 88.5542 12.8448L91.2418 11.291C91.3862 11.2059 91.4372 11.0228 91.348 10.8781C89.811 8.40911 87.0001 6.81704 83.8369 7.02563C79.6504 7.30233 76.3046 10.7972 76.1899 14.9987C76.0625 19.6472 79.782 23.4571 84.3931 23.4571C87.3143 23.4571 89.8746 21.9247 91.331 19.6217C91.4202 19.4812 91.3692 19.2939 91.2249 19.2088L88.5372 17.655C88.4055 17.5784 88.2272 17.6125 88.1423 17.7402V17.7444Z" fill="#454545"/>
</g>
<defs>
<clipPath id="clip0_65_231">
<rect width="102.757" height="23.4" fill="white" transform="translate(38.9995 7)"/>
</clipPath>
</defs>
</svg>
