<svg width="134" height="32" viewBox="0 0 134 32" fill="none" xmlns="http://www.w3.org/2000/svg">
<path fill-rule="evenodd" clip-rule="evenodd" d="M15.0016 1.01711C7.51617 1.35316 1.42097 7.27443 1.02129 14.6037C0.695458 20.6186 4.14057 25.8805 9.25393 28.3264C11.1611 29.2367 13.4289 28.0925 13.7938 26.0464C14.0415 24.6682 13.3246 23.3027 12.043 22.6901C9.13663 21.2949 7.18599 18.279 7.41625 14.8462C7.6856 10.8306 11.0047 7.56794 15.1058 7.29144C19.9542 6.9639 23.9945 10.72 23.9945 15.3949C23.9945 18.6065 22.0916 21.38 19.3286 22.6987C18.0687 23.3027 17.378 24.6596 17.6212 26.0124L17.6343 26.0804C17.9949 28.0925 20.2235 29.2367 22.096 28.3477C27.0051 26.0209 30.3938 21.095 30.3938 15.3949C30.3938 7.21913 23.4341 0.63427 15.0016 1.01711Z" fill="#00AED6"/>
<path fill-rule="evenodd" clip-rule="evenodd" d="M15.7096 20.4567C12.8554 20.4567 10.5355 18.1852 10.5355 15.3905C10.5355 12.5957 12.8554 10.3242 15.7096 10.3242C18.5639 10.3242 20.8838 12.5957 20.8838 15.3905C20.8838 18.1852 18.5639 20.4567 15.7096 20.4567Z" fill="#00AED6"/>
<g clip-path="url(#clip0_65_335)">
<path fill-rule="evenodd" clip-rule="evenodd" d="M65.4796 7.04199C61.0327 7.04199 57.4283 10.657 57.4283 15.1169C57.4283 19.5768 61.0327 23.1918 65.4796 23.1918C69.9265 23.1918 73.5309 19.5768 73.5309 15.1169C73.5309 10.657 69.9265 7.04199 65.4796 7.04199ZM65.4796 19.5642C63.0319 19.5642 61.0453 17.5718 61.0453 15.1169C61.0453 12.6621 63.0319 10.6696 65.4796 10.6696C67.9273 10.6696 69.9139 12.6621 69.9139 15.1169C69.9139 17.5718 67.9273 19.5642 65.4796 19.5642Z" fill="#454545"/>
<path fill-rule="evenodd" clip-rule="evenodd" d="M54.9928 7.26062H51.7698C51.6063 7.26062 51.4764 7.39093 51.4764 7.55486V7.94579V8.58052C50.9022 7.91216 49.9927 7.54225 49.6323 7.41615C48.8234 7.14292 47.9558 7 47.0505 7C42.6665 7.01261 39.062 10.5856 38.9992 14.9824C38.9363 19.5096 42.5743 23.2003 47.0756 23.2003C47.9725 23.2003 48.8401 23.0532 49.6448 22.7799C50.0137 22.6496 50.9106 22.2797 51.4806 21.6198V22.2503V22.4016C51.4806 23.772 51.007 24.8901 50.1059 25.6383C49.3263 26.2899 48.2324 26.6472 47.0253 26.6472C45.2734 26.6472 43.5927 25.9284 42.6078 24.7808C42.4988 24.6547 42.306 24.6463 42.1845 24.764L40.047 26.8531C39.9296 26.9666 39.9296 27.1516 40.0428 27.2693C41.8618 29.1356 44.2256 30.0898 47.0714 30.1066H47.9809C52.0045 30.1066 55.2653 26.8363 55.2653 22.801V21.376C55.2653 21.376 55.2653 21.355 55.2653 21.3423L55.282 7.55066C55.282 7.38672 55.1521 7.25641 54.9886 7.25641L54.9928 7.26062ZM51.4764 15.1464C51.4512 17.5634 49.4898 19.5138 47.0756 19.5138C44.6615 19.5138 42.6748 17.5382 42.6748 15.1001C42.6748 12.6621 44.6447 10.6865 47.0756 10.6865C49.5065 10.6865 51.4512 12.6369 51.4764 15.0539V15.1464Z" fill="#454545"/>
<path fill-rule="evenodd" clip-rule="evenodd" d="M128.243 17.442C128.109 17.3621 127.937 17.4041 127.853 17.5344C127.057 18.7534 125.686 19.5605 124.127 19.5605C122.069 19.5605 120.339 18.1608 119.827 16.2566H131.856C132.003 16.2566 132.128 16.1473 132.145 16.0002C132.179 15.7017 132.195 15.3991 132.195 15.0922C132.195 10.4936 128.373 6.79449 123.746 7.00887C119.613 7.19803 116.256 10.565 116.063 14.7139C115.85 19.3588 119.542 23.1881 124.123 23.1881C127.011 23.1881 129.538 21.6665 130.967 19.384C131.055 19.2411 131.014 19.0561 130.867 18.972L128.239 17.4462L128.243 17.442ZM124.127 10.6239C125.967 10.6239 127.547 11.742 128.226 13.3393H120.028C120.707 11.742 122.287 10.6239 124.127 10.6239Z" fill="#454545"/>
<path d="M97.2406 7.25317H94.0301C93.8681 7.25317 93.7368 7.38491 93.7368 7.54742V22.6338C93.7368 22.7963 93.8681 22.928 94.0301 22.928H97.2406C97.4026 22.928 97.534 22.7963 97.534 22.6338V7.54742C97.534 7.38491 97.4026 7.25317 97.2406 7.25317Z" fill="#454545"/>
<path fill-rule="evenodd" clip-rule="evenodd" d="M91.2639 7.2607H88.0366C87.8732 7.2607 87.7433 7.39101 87.7433 7.55495V7.94588V8.5806C87.1691 7.91225 86.2554 7.54234 85.8949 7.41623C85.0818 7.14301 84.2143 6.99588 83.309 7.00009C78.9166 7.0127 75.3079 10.5899 75.2451 14.9951C75.1822 19.5265 78.8244 23.2214 83.3299 23.2214C84.231 23.2214 85.0944 23.0743 85.9033 22.801C86.2721 22.6707 87.1691 22.3008 87.7391 21.6409V22.2714V22.4227C87.7391 23.7931 87.2655 24.9154 86.3644 25.6636C85.5848 26.3152 84.4909 26.6725 83.2796 26.6725C81.5235 26.6725 79.8428 25.9495 78.8579 24.8061C78.7489 24.68 78.5519 24.6716 78.4346 24.7893L76.2929 26.8784C76.1755 26.9919 76.1755 27.1769 76.2887 27.2946C78.1119 29.1609 80.4757 30.1151 83.3299 30.1362H84.2394C88.2672 30.1362 91.5321 26.8616 91.5321 22.8221V21.3929C91.5321 21.3929 91.5321 21.3719 91.5321 21.3592L91.5489 7.55075C91.5489 7.38681 91.419 7.2565 91.2555 7.2565L91.2639 7.2607ZM87.7433 15.1549C87.7181 17.5761 85.7566 19.5307 83.3341 19.5307C80.9116 19.5307 78.9249 17.5509 78.9249 15.1086C78.9249 12.6664 80.899 10.6866 83.3341 10.6866C85.7692 10.6866 87.7181 12.6412 87.7433 15.0624V15.1549Z" fill="#454545"/>
<path d="M114.865 7.25738H111.361C111.239 7.25738 111.13 7.33304 111.088 7.44653L111.038 7.63149L107.442 17.5896L103.783 7.44653C103.741 7.33304 103.632 7.25738 103.511 7.25738H100.007C99.8014 7.25738 99.6589 7.46335 99.7343 7.65671L105.455 22.7389C105.497 22.8524 105.606 22.928 105.728 22.928H109.068C109.253 22.928 109.42 22.8145 109.487 22.638L115.137 7.65251C115.208 7.45915 115.07 7.25317 114.865 7.25317V7.25738Z" fill="#454545"/>
</g>
<defs>
<clipPath id="clip0_65_335">
<rect width="93.2" height="23.3" fill="white" transform="translate(38.9995 7)"/>
</clipPath>
</defs>
</svg>
