<svg xmlns="http://www.w3.org/2000/svg" xmlns:xlink="http://www.w3.org/1999/xlink" width="822" height="617" viewBox="0 0 822 617">
  <defs>
    <rect id="transport-&amp;-logistics-a" width="822" height="617" x="0" y="0"/>
  </defs>
  <g fill="none" fill-rule="evenodd">
    <mask id="transport-&amp;-logistics-b" fill="#fff">
      <use xlink:href="#transport-&amp;-logistics-a"/>
    </mask>
    <g mask="url(#transport-&amp;-logistics-b)">
      <g transform="translate(139.473 18.433)">
        <path fill="#EB1B34" d="M577.950772 372.8197C607.703017 353.4357 616.959667 415.5967 587.206432 431.6387 564.424866 443.9227 548.307335 392.1317 577.950772 372.8197M469.273469 458.5697C499.025715 439.1857 511.280538 506.2987 478.52913 517.3887 454.047181 525.6797 439.630032 477.8817 469.273469 458.5697"/>
        <path fill="#78111D" d="M681.033034,413.6996 L598.192052,466.2226 C591.171915,472.1546 582.136839,475.0776 573.014716,474.3686 L474.541886,466.7106 L519.464038,420.4996 L497.39764,414.9226 L448.80468,463.2666 C447.858045,464.2086 447.096384,465.3186 446.576081,466.5536 C445.503821,469.0916 444.324731,473.5866 446.06468,478.9576 C447.392146,483.0536 449.825503,485.5806 451.905727,487.0786 C453.638752,488.3266 455.698204,489.0246 457.820962,489.1756 L578.449214,497.7326 C586.135063,498.2786 593.745734,495.9036 599.791539,491.0736 L681.033034,442.7506 L681.033034,413.6996 Z"/>
        <path fill="#C42029" d="M306.340606,113.2318 L288.947046,271.0368 C288.085479,278.8518 297.060216,283.7648 303.063487,278.7648 L421.379061,180.2368 L306.340606,113.2318 Z"/>
        <polygon fill="#78111D" points="300.52 166.05 386.565 185.963 390.544 162.276 306.341 113.232"/>
        <path fill="#EB1B34" d="M595.760673,476.4106 C625.512918,457.0266 636.258269,527.3536 605.016334,535.2296 C579.964622,541.5456 566.117236,495.7226 595.760673,476.4106"/>
        <path fill="#F38797" d="M602.457846,501.8109 C608.185139,498.0799 610.660041,510.4679 604.24033,513.1339 C599.899853,514.9359 596.750337,505.5289 602.457846,501.8109"/>
        <path fill="#F9B2BF" d="M342.884886,162.2895 C342.884886,162.2895 373.562994,195.5625 421.379456,180.2365 C469.194929,164.9105 471.787543,107.9915 455.489983,71.2935 C439.191435,34.5965 437.339709,18.1195 442.525926,8.0085 C447.712142,-2.1025 444.006713,-4.3495 429.561868,11.3785 C415.115045,27.1055 375.851933,30.8515 348.071103,33.0985 C320.289283,35.3445 289.058229,68.2935 306.341001,113.2315 C306.341001,113.2315 308.066113,154.0515 342.884886,162.2895"/>
        <path fill="#EF525F" d="M449.322016,56.599 C449.246839,67.722 447.585034,80.526 442.926045,94.017 C428.524723,135.507 392.014471,152.028 365.074435,151.264 C338.107691,150.526 342.891316,162.286 342.891316,162.286 C310.310045,154.573 306.684738,118.326 306.357323,113.718 C306.357323,113.54 306.331604,113.388 306.331604,113.235 C305.249453,98.955 318.819871,84.013 339.844673,82.766 C360.869474,81.519 393.022435,78.515 410.320045,65.253 C427.088449,52.424 439.351186,18.697 440.106911,16.61 C439.276009,25.213 441.768716,37.483 449.322016,56.599"/>
        <path fill="#F9B2BF" d="M421.373126,180.2309 C373.558642,195.5549 342.891414,162.2859 342.891414,162.2859 C342.891414,162.2859 338.10779,150.5259 365.074534,151.2639 C392.01457,152.0279 428.523833,135.5069 442.926144,94.0169 C447.585133,80.5259 449.246938,67.7219 449.322115,56.5989 C451.084815,61.1039 453.124483,65.9919 455.490577,71.2869 C471.781212,107.9919 469.188599,164.9079 421.373126,180.2309"/>
        <path fill="#EC2737" d="M310.481864,275.8207 C325.300614,263.0227 340.329069,250.4767 355.480181,238.0837 C369.512542,226.6047 383.627004,215.2297 397.632658,203.7167 C406.263163,196.6237 414.851134,189.4767 423.383712,182.2617 C424.557856,181.2687 424.397611,179.2367 423.383712,178.2107 C422.220448,177.0357 420.552708,177.2157 419.375596,178.2107 C404.716102,190.6077 389.875589,202.7817 374.98364,214.8917 C360.836535,226.3957 346.669647,237.8767 332.661026,249.5527 C323.869286,256.8827 315.138874,264.2867 306.473748,271.7687 C305.309495,272.7747 305.451936,274.7877 306.473748,275.8207 C307.628109,276.9877 309.314643,276.8287 310.481864,275.8207"/>
        <path fill="#ED455E" d="M350.98757,208.4086 C353.316076,209.1706 355.703931,209.7516 358.175866,210.0956 C356.212365,211.3196 354.150935,212.3846 352.033123,213.3286 C351.502928,211.7426 351.155729,210.0906 350.98757,208.4086 M341.376798,216.9186 C334.116292,218.6516 326.618386,219.0876 319.079924,218.8216 C317.319202,213.0226 316.422025,206.8036 316.27365,200.6986 C316.222213,198.5946 316.250899,196.4896 316.340913,194.3876 C317.892921,193.9526 319.365794,193.3096 320.680401,192.3786 C322.053368,193.3366 323.44513,194.2566 324.85074,195.1326 C329.982552,198.3296 335.339895,201.1826 340.701195,203.9646 C342.187917,204.7356 343.682552,205.4706 345.193014,206.1506 C345.156415,209.3036 345.69848,212.4296 346.730184,215.3866 C344.968473,215.9706 343.181043,216.4866 341.376798,216.9186 M380.762567,204.9916 C374.485296,204.9396 368.162523,205.0966 361.894155,204.7336 C355.965072,204.3896 350.555303,202.5316 345.263245,199.8846 C339.971188,197.2376 334.728588,194.4006 329.645245,191.3636 C325.216733,188.7176 320.939563,185.8036 317.108509,182.3256 C316.808791,181.6966 316.233094,181.1796 315.588155,180.8896 C311.536516,176.9206 308.264343,172.5046 305.995188,167.2046 C305.385859,165.7846 303.32443,165.4636 302.117643,166.1776 C300.666531,167.0356 300.489469,168.6716 301.099787,170.0966 C303.51435,175.7346 307.167354,180.5966 311.482112,184.8296 C311.291202,186.4066 311.124032,187.9886 310.991484,189.5726 C310.633404,189.6136 310.271368,189.6476 309.89944,189.6766 C306.805318,189.9056 303.819014,189.6996 300.886126,189.0416 C299.39248,188.7076 297.8197,189.4986 297.399303,191.0436 C297.00957,192.4786 297.878061,194.2306 299.378632,194.5666 C303.056365,195.3906 306.857744,195.7066 310.611643,195.3456 C310.624502,195.3446 310.639339,195.3426 310.653188,195.3406 C310.438538,202.0116 310.867838,208.6876 312.274437,215.2426 C312.507881,216.3276 312.771989,217.4026 313.061816,218.4706 C308.072444,218.0696 303.106812,217.4276 298.157996,216.6736 C296.645556,216.4436 295.112343,217.0576 294.671173,218.6746 C294.304191,220.0276 295.12817,221.9676 296.651491,222.1986 C302.703231,223.1206 308.842018,223.9006 314.980805,224.2866 C317.09565,229.7886 319.994906,234.9646 323.646921,239.6146 C324.742921,241.0086 325.912119,242.3306 327.141657,243.5936 C320.03744,245.1756 312.765065,245.9296 305.450155,245.8116 C304.011903,245.7886 302.556834,245.7246 301.103744,245.6376 C300.950422,245.2316 300.803036,244.8186 300.661585,244.3816 C299.65461,241.2596 299.219375,238.3296 299.039347,235.1486 C298.953289,233.6026 297.798928,232.2836 296.205375,232.2836 C294.739426,232.2836 293.284357,233.5956 293.372394,235.1486 C293.562314,238.5166 294.063823,241.8626 294.994632,245.0576 C294.911542,245.0466 294.825484,245.0386 294.742394,245.0276 C293.226986,244.8186 291.698718,245.3966 291.25557,247.0286 C290.892545,248.3646 291.70861,250.3436 293.234899,250.5536 C294.613801,250.7426 295.994682,250.8966 297.378531,251.0296 C298.278675,252.7476 299.348957,254.3866 300.623996,255.9176 C305.062401,261.2466 311.587953,264.5356 318.427072,265.0946 C319.95435,265.2196 321.261043,263.6876 321.261043,262.2286 C321.261043,260.5756 319.959296,259.4896 318.427072,259.3646 C315.87996,259.1566 313.023238,258.2496 310.690776,256.9356 C308.298964,255.5886 306.470978,254.0746 304.632112,251.8656 C304.631123,251.8646 304.401635,251.5776 304.305686,251.4606 C313.722581,251.7216 323.146401,250.6656 332.292264,248.2336 C333.089534,248.8676 333.900653,249.4856 334.731556,250.0776 C335.983845,250.9686 337.883051,250.3046 338.609101,249.0496 C339.144242,248.1246 339.081924,247.1346 338.636798,246.3066 C340.638877,245.6206 342.620184,244.8736 344.575773,244.0566 C345.988307,243.4676 346.996271,242.1566 346.555101,240.5336 C346.18713,239.1816 344.492682,237.9376 343.068278,238.5326 C339.964264,239.8286 336.804856,240.9526 333.601924,241.9086 C328.866769,237.6636 325.008018,232.4726 322.140415,226.6476 C321.799152,225.9546 321.47965,225.2456 321.169051,224.5306 C330.663101,224.6746 340.092856,223.6736 349.151671,220.5806 C351.42874,224.4136 354.591116,227.7116 358.391505,230.0376 C359.702155,230.8386 361.505412,230.3296 362.269051,229.0096 C363.054451,227.6516 362.565801,225.8926 361.253173,225.0896 C358.509217,223.4116 356.236105,221.1266 354.51396,218.4746 C359.057217,216.4496 363.255253,213.8036 367.086307,210.6106 C367.922155,210.6186 368.758004,210.6226 369.592863,210.6296 C373.316097,210.6596 377.039332,210.6906 380.762567,210.7216 C382.292812,210.7336 383.596538,209.3946 383.596538,207.8556 C383.596538,206.2926 382.298747,205.0046 380.762567,204.9916"/>
        <path fill="#EF525F" d="M340.887159,164.3119 C345.241484,168.7389 350.549368,172.4359 355.823621,175.6249 C367.330632,182.5829 380.403498,187.0409 393.849282,187.6269 C403.463022,188.0459 413.119296,186.3819 422.126675,182.9939 C423.559982,182.4549 424.536292,181.0549 424.106004,179.4689 C423.727152,178.0769 422.06139,176.9259 420.619181,177.4679 C412.870025,180.3829 404.845881,181.9849 396.598184,181.9609 C389.530567,181.9419 382.995123,180.8429 376.173809,178.6859 C370.368372,176.8499 365.53331,174.6639 360.139368,171.5399 C357.984957,170.2909 355.880993,168.9529 353.834401,167.5309 C352.956018,166.9199 352.088516,166.2939 351.232884,165.6529 C350.857,165.3719 350.485072,165.0829 350.111166,164.7979 C350.041924,164.7459 350.554314,165.1509 350.09435,164.7839 C349.887614,164.6199 349.679888,164.4559 349.474141,164.2899 C347.896415,163.0189 346.31869,161.7079 344.895274,160.2599 C342.319477,157.6409 338.311361,161.6929 340.887159,164.3119"/>
        <path fill="#EC2737" d="M312.210932 128.5004C312.107069 128.2834 312.017055 128.0604 311.917149 127.8414 311.688651 127.3434 312.230716 128.6364 312.009142 128.0614 311.954737 127.9194 311.896376 127.7784 311.840983 127.6374 311.699531 127.2754 311.565004 126.9124 311.434434 126.5464 310.669806 124.3934 310.08125 122.1724 309.67569 119.9204 309.610405 119.5584 309.552044 119.1944 309.493683 118.8304 309.469943 118.6824 309.45016 118.5324 309.428398 118.3834 309.528304 119.0524 309.444225 118.5174 309.42543 118.3474 309.34234 117.5984 309.266174 116.8494 309.222651 116.0964 309.126701 114.4974 309.136593 112.8924 309.266174 111.2964 309.302773 110.8574 309.347286 110.4214 309.40169 109.9844 309.328492 110.5714 309.490716 109.4524 309.518412 109.2884 309.669755 108.4334 309.855719 107.5844 310.083228 106.7464 310.614412 104.7884 311.019972 103.7304 311.885495 102.0664 315.826347 94.4894 323.772347 89.5014 331.843972 86.9154 340.662419 84.0884 349.820152 83.7914 359.014484 83.2144 371.20699 82.4474 383.332232 81.0334 394.825394 76.6144 396.254744 76.0644 397.237979 74.6844 396.804723 73.0904 396.428838 71.7064 394.756152 70.5364 393.3179 71.0894 382.900954 75.0954 372.011185 76.6224 360.95029 77.3584 351.177293 78.0104 341.181734 78.2174 331.702521 80.9734 322.498297 83.6474 313.407827 88.8924 308.132586 97.1944 304.149199 103.4654 302.887019 111.1364 303.771336 118.4624 304.305488 122.8834 305.373791 127.3694 307.31751 131.3924 307.988167 132.7824 309.943755 133.1594 311.195055 132.4204 312.598687 131.5904 312.885546 129.8964 312.210932 128.5004M397.825348 146.5776C414.741139 139.2706 429.61924 126.3376 439.087572 110.3616 442.141139 105.2116 444.40337 99.6756 445.079962 93.6806 445.254056 92.1406 443.653579 90.8156 442.245991 90.8156 440.570337 90.8156 439.587103 92.1366 439.413009 93.6806 438.889738 98.3126 436.937117 102.6996 434.647189 106.6936 432.469038 110.4896 429.931817 114.0886 427.143348 117.4506 421.614879 124.1146 415.131861 129.9576 407.903998 134.6796 403.794987 137.3646 399.463413 139.6856 394.96368 141.6296 393.557081 142.2376 393.243514 144.3336 393.947803 145.5496 394.798489 147.0216 396.410835 147.1876 397.825348 146.5776"/>
        <path fill="#78111D" d="M535.702346,91.2221 C535.702346,91.2221 532.479631,109.2031 533.616187,121.1541 C535.01883,135.9011 541.794642,151.8591 541.794642,151.8591 L564.473335,153.2001 C564.473335,153.2001 556.338404,134.7661 555.777544,118.0341 C555.360115,105.5801 558.443357,92.6081 558.443357,92.6081 L535.702346,91.2221 Z"/>
        <path fill="#C42029" d="M528.646796,152.7445 L365.908601,285.6535 C363.349619,287.7435 362.429692,291.2705 363.637468,294.3635 L412.088977,418.4865 C413.643952,422.4715 417.356305,425.1725 421.587973,425.3965 L537.635381,432.7325 C540.92437,432.9075 544.183684,432.0265 546.948414,430.2165 L681.473511,343.0085 L680.907706,157.5965 L535.463165,150.4935 C532.995186,150.3735 530.568753,151.1745 528.646796,152.7445"/>
        <path fill="#F9B2BF" d="M511.165399,297.9408 L680.978135,180.6208 L680.907904,157.5958 L535.462373,150.4938 C532.994395,150.3738 530.568951,151.1738 528.646994,152.7438 L365.90781,285.6538 C364.332063,286.9418 363.380482,288.7758 363.161875,290.7168 L501.143131,300.6798 C504.694251,300.9368 508.225586,299.9708 511.165399,297.9408"/>
        <path fill="#ED455E" d="M390.792945 321.2406L422.965689 405.9696C423.989479 408.6636 426.479219 410.5036 429.330006 410.6706L449.809775 411.8706C454.862454 412.1666 458.658887 407.2826 457.181068 402.3896L431.738635 318.1776C430.853328 315.2496 428.263682 313.1816 425.23979 312.9916L398.02971 311.2756C392.748534 310.9416 388.895718 316.2456 390.792945 321.2406M513.146606 405.8285L489.880347 322.0035C489.044498 318.9955 486.419242 316.8505 483.335011 316.6555L458.301105 315.0765C453.223697 314.7565 449.401545 319.6725 450.906072 324.5845L476.683834 408.6685C477.580022 411.5945 480.17956 413.6495 483.20444 413.8275L505.728823 415.1475C510.710282 415.4395 514.493856 410.6845 513.146606 405.8285"/>
        <path fill="#F9B2BF" d="M680.907508,157.5961 L535.462967,150.4931 C533.95844,150.4201 532.472707,150.6941 531.104685,151.2701 L563.542526,261.7541 L680.977739,180.6201 L680.907508,157.5961 Z"/>
        <path fill="#ED455E" d="M531.188369,153.7709 C540.842665,188.2179 551.548448,222.3539 561.203734,256.8009 C562.205762,260.3789 567.731264,258.8589 566.72429,255.2619 C557.069994,220.8149 546.363221,186.6789 536.708925,152.2319 C535.705907,148.6539 530.179416,150.1739 531.188369,153.7709"/>
        <path fill="#F9B2BF" d="M248.923362,585.4535 C245.255521,584.0075 242.514531,580.8525 241.514481,577.0035 L224.75399,512.4855 C221.135607,498.5565 223.370142,483.7335 230.929376,471.5265 L255.229318,431.4495 L316.083037,425.4365 L352.576474,457.6775 C361.709477,465.7445 367.195412,477.2245 367.772098,489.4725 L371.173853,561.6865 C371.363773,565.7225 369.682185,569.6385 366.577181,572.1815 C359.088178,578.3145 342.22877,588.4665 311.050142,590.5675 C275.296604,592.9765 257.198755,588.7185 248.923362,585.4535"/>
        <polygon fill="#78111D" points="311.43 430.454 296.438 427.377 255.23 431.45 237.773 460.24"/>
        <path fill="#EB1B34" d="M325.182211,502.4311 L308.382153,505.0831 C307.512673,505.2201 306.697597,504.6191 306.562081,503.7401 L303.936825,486.7551 C303.802297,485.8761 302.987222,485.2751 302.117742,485.4121 L288.137806,487.6191 C287.267337,487.7571 286.672846,488.5801 286.808362,489.4591 L289.43164,506.4451 C289.568146,507.3241 288.973655,508.1481 288.104175,508.2851 L271.302139,510.9371 C270.432658,511.0751 269.838168,511.8991 269.973684,512.7781 L272.15777,526.9101 C272.293287,527.7891 273.108362,528.3911 273.977843,528.2541 L290.77889,525.6011 C291.64837,525.4641 292.463445,526.0651 292.599951,526.9451 L295.223229,543.9291 C295.358745,544.8081 296.173821,545.4101 297.043301,545.2721 L311.024225,543.0651 C311.892716,542.9281 312.488196,542.1041 312.351691,541.2251 L309.728413,524.2401 C309.591908,523.3611 310.187388,522.5361 311.056868,522.4001 L327.856926,519.7471 C328.726406,519.6101 329.321886,518.7851 329.18637,517.9071 L327.002283,503.7741 C326.866767,502.8951 326.051691,502.2931 325.182211,502.4311"/>
        <path fill="#EB1B34" d="M291.025193,523.5141 C292.786904,523.5141 294.338911,524.8131 294.619835,526.6251 L297.173871,543.1591 L310.261575,541.0931 L307.708529,524.5591 C307.558175,523.5881 307.79063,522.6171 308.363359,521.8231 C308.937077,521.0291 309.781828,520.5081 310.742312,520.3571 L327.097243,517.7761 L325.05164,504.5441 L308.697698,507.1251 C307.734247,507.2781 306.775742,507.0411 305.99133,506.4621 C305.205929,505.8821 304.690572,505.0291 304.541207,504.0571 L301.987171,487.5261 L288.898478,489.5911 L291.451525,506.1251 C291.602868,507.0961 291.369424,508.0681 290.796695,508.8621 C290.222976,509.6561 289.379214,510.1761 288.417742,510.3271 L272.063799,512.9091 L274.107424,526.1421 L290.462355,523.5591 C290.652276,523.5291 290.839229,523.5141 291.025193,523.5141 L291.025193,523.5141 Z M296.789084,547.3601 C296.024456,547.3601 295.28159,547.1161 294.652478,546.6521 C293.867077,546.0721 293.35172,545.2181 293.202355,544.2461 L290.649308,527.7131 L274.294377,530.2961 C272.311092,530.6141 270.446507,529.2331 270.137886,527.2311 L267.954788,513.0971 C267.6432,511.0941 269.003308,509.2081 270.985604,508.8951 L287.341525,506.3131 L284.788478,489.7791 C284.479857,487.7751 285.840955,485.8911 287.821272,485.5771 L301.801207,483.3701 C302.764658,483.2151 303.723164,483.4541 304.508565,484.0331 C305.293965,484.6131 305.808334,485.4661 305.957698,486.4381 L308.511734,502.9701 L324.866666,500.3891 C325.832095,500.2381 326.788622,500.4741 327.573034,501.0511 C328.358435,501.6311 328.872803,502.4851 329.023157,503.4561 L331.206254,517.5871 C331.514875,519.5911 330.153778,521.4761 328.17346,521.7891 L311.818529,524.3711 L314.371575,540.9061 C314.522918,541.8761 314.289474,542.8481 313.716745,543.6421 C313.143027,544.4361 312.299265,544.9561 311.337792,545.1081 L297.358846,547.3141 C297.168926,547.3441 296.977027,547.3601 296.789084,547.3601 L296.789084,547.3601 Z"/>
        <path fill="#C42029" d="M248.230745,409.8744 L253.200334,434.6174 C253.200334,434.6174 262.632066,443.4364 287.778738,438.8354 C312.330918,434.3424 316.362774,425.4594 316.362774,425.4594 L312.184521,396.5614 C311.79281,393.8494 310.361482,391.4044 308.192232,389.7584 C303.216709,385.9814 292.780969,380.4944 276.217323,383.1614 C260.478644,385.6964 253.377395,392.1344 250.179409,397.6244 C248.0339,401.3064 247.388962,405.6874 248.230745,409.8744"/>
        <path fill="#ED455E" d="M250.961645 408.8481C270.748995 415.6021 292.878699 412.4871 310.066511 400.4861 313.078533 398.3831 310.218843 393.3651 307.176157 395.4891 291.135782 406.6881 270.95771 409.5731 252.483977 403.2661 248.985284 402.0721 247.483724 407.6611 250.961645 408.8481M329.649895 460.2152C335.186277 465.3392 343.128321 470.2462 346.291685 477.3472 349.566826 484.6942 350.724155 493.3252 352.311772 501.1732 353.049692 504.8192 358.570248 503.2772 357.833317 499.6352 356.124032 491.1892 354.888559 481.8092 351.081245 474.0102 347.444068 466.5602 339.604898 461.5892 333.698566 456.1222 330.985274 453.6112 326.924732 457.6932 329.649895 460.2152"/>
        <path fill="#C42029" d="M103.557954,164.2963 C106.496777,163.4073 107.846004,159.9863 106.317737,157.2983 C104.591636,154.2623 102.07321,150.2273 98.802026,145.9993 C95.8097877,142.1303 88.8311957,133.9463 80.455896,129.1963 C73.063831,125.0053 64.2256,123.9923 61.1552173,123.7823 C56.1332029,123.4413 50.5503292,123.6643 45.5570007,125.1163 C39.8603726,126.7743 30.9034412,131.4673 25.4936722,138.9573 C19.4963365,147.2633 17.3082931,158.5023 16.8562426,161.9543 C15.7028708,170.7663 16.054026,179.0853 16.3893545,184.4753 C16.5802643,187.5603 19.5645892,189.6533 22.4935206,188.7683 C22.4905531,188.7773 22.4895639,188.7913 22.4865964,188.7993 L31.281304,186.1413 C33.368452,185.5103 34.7651596,183.5313 34.6662426,181.3313 C34.0856,168.3233 34.7513112,146.2363 51.8886758,141.1003 C69.8816722,135.7083 82.9505819,154.4263 88.6066542,164.8373 C89.6838599,166.8203 91.9826903,167.7663 94.1262209,167.1173 L96.2054556,166.4893 C96.2094123,166.4973 96.2143581,166.5063 96.2183148,166.5143 L103.557954,164.2963 Z"/>
        <path fill="#EF525F" d="M10.2601625,183.8559 C4.32118773,185.6419 0.211187726,191.1149 0.115238267,197.3769 C-0.183490975,216.7789 -0.22701444,257.6509 4.2143574,273.9399 C9.36001805,292.8209 16.0804368,308.3809 38.21113,315.2339 C40.8621047,316.0539 43.697065,316.0899 46.3608989,315.3139 L159.100523,282.4509 C163.576516,281.1449 167.127635,277.7089 168.621282,273.2469 C171.433491,264.8439 174.293181,249.7599 168.506538,230.7459 C161.652581,208.2269 137.045007,174.0709 125.514256,158.8319 C121.93544,154.1019 115.843144,152.1049 110.197953,153.8019 L10.2601625,183.8559 Z"/>
        <path fill="#C42029" d="M43.7730332 202.3197C43.7730332 208.5827 38.7520079 213.6597 32.5568383 213.6597 26.3616686 213.6597 21.3406433 208.5827 21.3406433 202.3197 21.3406433 196.0577 26.3616686 190.9807 32.5568383 190.9807 38.7520079 190.9807 43.7730332 196.0577 43.7730332 202.3197M115.25993 181.1537C115.25993 187.4167 110.237916 192.4927 104.042746 192.4927 97.8475762 192.4927 92.8265509 187.4167 92.8265509 181.1537 92.8265509 174.8907 97.8475762 169.8147 104.042746 169.8147 110.237916 169.8147 115.25993 174.8907 115.25993 181.1537"/>
        <path fill="#F4C1CC" d="M77.6550621 64.9369C84.527813 71.3249 91.6122462 77.4599 98.9113292 83.3449 101.347654 85.3089 104.623784 85.7059 107.008672 83.3449 109.029546 81.3469 109.421257 77.1049 107.008672 75.1599 99.7095892 69.2749 92.625156 63.1389 85.7524051 56.7509 80.3337336 51.7169 72.2156181 59.8819 77.6550621 64.9369M173.178485 37.5004C175.238926 42.1604 177.243973 46.8444 179.175821 51.5604 180.358868 54.4454 182.973243 56.5044 186.219698 55.6034 188.916175 54.8534 191.408882 51.3884 190.217922 48.4824 187.907222 42.8424 185.529258 37.2314 183.066225 31.6574 181.805034 28.8034 177.694045 28.1254 175.232991 29.5814 172.325821 31.3004 171.913337 34.6354 173.178485 37.5004M121.153403 563.4399C124.353367 559.4129 127.553331 555.3849 130.752305 551.3579 132.687121 548.9219 133.106529 545.5509 130.752305 543.1719 128.749237 541.1469 124.601648 540.7219 122.655952 543.1719 119.455988 547.1999 116.257013 551.2269 113.05606 555.2539 111.121244 557.6899 110.703814 561.0609 113.05606 563.4399 115.060118 565.4649 119.206717 565.8899 121.153403 563.4399M51.4526498 497.9984C57.773444 496.1034 64.0942383 494.2094 70.4150325 492.3154 77.4638556 490.2024 74.4627148 479.0274 67.3703682 481.1524 61.049574 483.0474 54.729769 484.9414 48.4089747 486.8354 41.3601516 488.9484 44.3612924 500.1234 51.4526498 497.9984"/>
        <path fill="#F07083" d="M566.401425 293.7445C565.233215 289.0525 559.786847 286.9845 555.852919 289.7415L529.243266 308.3915C526.884096 310.0455 525.794031 313.0105 526.513157 315.8195L547.276818 396.9465C548.439092 401.4895 553.641136 403.5735 557.566161 401.0685L584.039309 384.1795C586.544876 382.5805 587.750674 379.5355 587.02858 376.6315L566.401425 293.7445zM667.654118 222.9672C666.581858 218.1792 661.058335 216.0062 657.067035 218.8042L635.333988 234.0352C633.073736 235.6192 631.969822 238.4172 632.529692 241.1392L650.908465 330.4552C651.882797 335.1882 657.230248 337.4832 661.273974 334.9032L680.522227 322.6222C680.701266 322.5082 680.866458 322.3762 681.032638 322.2472L681.032638 282.7132 667.654118 222.9672zM617.962883 257.7943C616.890623 253.0053 611.3671 250.8333 607.376789 253.6313L583.542746 270.3353C581.233035 271.9533 580.136045 274.8333 580.773071 277.6003L600.422926 362.8503C601.492219 367.4893 606.767461 369.6793 610.751836 367.1363L634.390024 352.0553C636.845143 350.4883 638.056876 347.5283 637.416883 344.6673L617.962883 257.7943z"/>
        <polygon fill="#ED455E" points="681.329 201.8 681.739 203.795 681.7 201.539"/>
        <path fill="#ED455E" d="M681.033034,55.0365 L539.035749,55.0255 C531.214384,55.0245 524.354492,60.4725 522.685763,68.1975 C522.374175,69.6425 522.143698,71.1865 522.035879,72.8225 C522.030933,72.8895 522.026976,72.9565 522.02203,73.0235 C521.394897,83.4815 529.708868,92.2915 540.071409,92.4745 L681.033034,94.9515 L681.033034,55.0365 Z"/>
      </g>
    </g>
  </g>
</svg>
