<svg xmlns="http://www.w3.org/2000/svg" xmlns:xlink="http://www.w3.org/1999/xlink" width="822" height="617" viewBox="0 0 822 617">
  <defs>
    <rect id="payment-a" width="822" height="617" x="0" y="0"/>
  </defs>
  <g fill="none" fill-rule="evenodd">
    <mask id="payment-b" fill="#fff">
      <use xlink:href="#payment-a"/>
    </mask>
    <g mask="url(#payment-b)">
      <g transform="translate(135.516 12.854)">
        <path fill="#A8DEEB" d="M472.095373,96.9889393 L384.044434,218.446971 C380.182716,223.64401 372.002282,221.921551 370.56403,215.608178 L367.754788,203.264223 C366.874427,199.397096 363.160095,196.862848 359.236058,197.451173 L340.581308,200.248438 C336.545495,200.852583 332.754997,198.156175 332.003228,194.146664 L328.896246,177.556878 C328.220643,173.948813 325.0553,171.342383 321.382513,171.373035 L308.541113,171.475869 C302.280658,171.526297 298.660297,164.401133 302.392434,159.377132 L407.170232,15.3946444 L466.567892,59.4864136 C478.456723,68.3192037 480.931625,85.103779 472.095373,96.9889393"/>
        <path fill="#00ACD4" d="M394.909177 63.4061434C413.365105 76.0091595 431.820043 88.6111867 450.27696 101.213214 455.821256 105.000249 461.034181 95.9884896 455.529451 92.2291402 437.074513 79.627113 418.618585 67.0250857 400.163646 54.4230585 394.617372 50.6360232 389.406426 59.6477829 394.909177 63.4061434M686.407094 90.0945575L686.407094 369.318699 466.412791 206.230965C453.753397 196.831602 451.112314 178.953434 460.514372 166.298013L561.309773 30.6311825C570.713809 17.9747723 588.600964 15.3367018 601.261347 24.7370527L686.407094 90.0945575z"/>
        <path fill="#0089A9" d="M637.174635,321.190523 C638.783025,318.831289 640.391415,316.473044 642.000794,314.114799 C645.840751,308.482696 649.681697,302.852571 653.520664,297.221458 C658.191523,290.374142 662.861394,283.526826 667.530274,276.67951 C671.569054,270.756706 675.608823,264.83489 679.647603,258.913075 C681.599235,256.051539 683.7487,253.246365 685.53613,250.27903 C685.560859,250.237501 685.590534,250.19795 685.618231,250.158398 C686.521343,248.834419 685.86948,246.86872 684.552895,246.100437 C683.086946,245.242174 681.398433,245.836432 680.493343,247.164366 C678.884953,249.5236 677.275574,251.881845 675.667184,254.241079 C671.827227,259.871204 667.986282,265.503307 664.146325,271.133432 C659.476455,277.980748 654.806585,284.829052 650.136715,291.675379 C646.097935,297.598183 642.058166,303.519999 638.019386,309.442804 C636.068744,312.304339 633.919278,315.108525 632.131848,318.076849 C632.107119,318.118377 632.077444,318.15694 632.049747,318.196491 C631.146635,319.521459 631.798498,321.486169 633.115083,322.254453 C634.581032,323.111727 636.269545,322.518458 637.174635,321.190523"/>
        <path fill="#008BAC" d="M393.893992,5.63773862 C381.195032,-3.77250016 363.246548,-1.13640721 353.83262,11.556588 L345.831227,22.3254133 C343.293017,25.7426441 343.995328,30.5688893 347.402028,33.1209357 L415.688368,84.2617322 C419.11584,86.8286104 423.977609,86.1216313 426.531645,82.6856136 L435.526165,70.5839101 L435.528144,70.5848989 C443.784743,59.4403364 454.482613,53.7736264 466.557407,59.4838428 L393.893992,5.63773862 Z"/>
        <path fill="#006A81" d="M93.8529134,471.877348 L83.0294188,471.877348 C82.2440181,471.877348 81.6060036,471.239584 81.6060036,470.45548 L81.6060036,459.635238 C81.6060036,458.849156 80.9689783,458.21238 80.1825884,458.21238 L71.2909422,458.21238 C70.5055415,458.21238 69.8685162,458.849156 69.8685162,459.635238 L69.8685162,470.45548 C69.8685162,471.239584 69.2305018,471.877348 68.4451011,471.877348 L57.6216065,471.877348 C56.8352166,471.877348 56.1981913,472.515113 56.1981913,473.299217 L56.1981913,482.187379 C56.1981913,482.97346 56.8352166,483.610236 57.6216065,483.610236 L68.4451011,483.610236 C69.2305018,483.610236 69.8685162,484.247012 69.8685162,485.033093 L69.8685162,495.852347 C69.8685162,496.638428 70.5055415,497.275204 71.2909422,497.275204 L80.1825884,497.275204 C80.9689783,497.275204 81.6060036,496.638428 81.6060036,495.852347 L81.6060036,485.033093 C81.6060036,484.247012 82.2440181,483.610236 83.0294188,483.610236 L93.8529134,483.610236 C94.6393032,483.610236 95.2753394,482.97346 95.2753394,482.187379 L95.2753394,473.299217 C95.2753394,472.515113 94.6393032,471.877348 93.8529134,471.877348"/>
        <path fill="#00ACD4" d="M427.559492 128.104724C433.103788 131.891759 438.316712 122.88 432.812972 119.12065 414.356055 106.518623 397.584683 94.7491502 379.129744 82.1471229 373.584459 78.3600877 368.146004 87.2126534 373.649744 90.9710139 373.649744 90.9710139 409.103564 115.502697 427.559492 128.104724M410.82096 153.703896C416.366245 157.489942 421.578181 148.479171 416.07444 144.719822 397.618513 132.117795 380.847141 120.348322 362.391213 107.746295 356.846917 103.958271 351.408462 112.811825 356.912202 116.570186 356.912202 116.570186 392.366022 141.101868 410.82096 153.703896M390.208742 179.204684C395.753038 182.99073 400.965962 173.979959 395.462222 170.22061 377.006294 157.618583 360.233933 145.84911 341.778994 133.247083 336.233709 129.459059 330.795254 138.312613 336.298994 142.070974 336.298994 142.070974 371.752814 166.602656 390.208742 179.204684"/>
        <path fill="#65CCE4" d="M609.625666,135.197159 L578.806107,176.677554 C572.402222,185.296768 560.221587,187.095362 551.598995,180.695965 L486.002208,132.007348 L540.010872,59.2923157 L605.608648,107.99972 C614.230251,114.402083 616.029551,126.577946 609.625666,135.197159"/>
        <path fill="#0089A9" d="M540.962453,63.6726202 C547.147731,68.264524 553.33202,72.8564279 559.516309,77.4493205 C570.292323,85.4505449 581.069327,93.4517692 591.845342,101.453982 C595.291609,104.011962 598.736887,106.570929 602.183154,109.129897 C602.811277,109.596603 603.451269,110.052431 604.071479,110.53199 C606.958865,112.761694 609.039089,115.928763 609.964952,119.467614 C611.034244,123.557216 610.501082,128.003769 608.309082,131.801681 C607.615674,133.00404 606.765977,134.099611 605.94002,135.211002 C602.867659,139.347077 599.794309,143.484141 596.720959,147.619228 C590.027248,156.629998 583.332547,165.63978 576.637847,174.648574 C576.507277,174.826554 576.375717,175.003546 576.243168,175.180538 C575.286641,176.467933 576.031486,178.492958 577.307515,179.239489 C578.819955,180.122471 580.409551,179.464931 581.369045,178.175559 C587.335717,170.143683 593.303378,162.111806 599.271038,154.079929 L609.808663,139.89684 C610.570323,138.870484 611.33693,137.847095 612.095623,136.818761 C614.544807,133.500409 615.932612,129.608562 616.336194,125.51896 C617.141378,117.370407 613.106555,109.893237 606.681897,105.123353 C603.993334,103.126013 601.302793,101.129662 598.61324,99.1313333 C588.04693,91.2863365 577.478641,83.4393622 566.911342,75.5933766 C559.388706,70.006758 551.981804,64.199641 544.31376,58.8127564 C544.193082,58.7287099 544.07636,58.6367532 543.957659,58.5487516 C542.670749,57.5935881 540.64493,58.338141 539.898107,59.6146587 C539.013789,61.1255176 539.671587,62.7135016 540.962453,63.6726202"/>
        <path fill="#00ACD4" d="M574.930342 129.546368C574.930342 139.724891 566.675721 147.976277 556.493209 147.976277 546.310696 147.976277 538.057064 139.724891 538.057064 129.546368 538.057064 119.367846 546.310696 111.116459 556.493209 111.116459 566.675721 111.116459 574.930342 119.367846 574.930342 129.546368M167.490067 204.887902C162.120854 199.021458 154.387526 187.28066 159.941713 172.26996 160.895273 169.693194 160.463995 166.811883 158.735916 164.676113 153.565526 158.285615 141.399728 144.730402 121.931879 131.576634 102.466009 118.422867 85.347439 112.190573 77.4884859 109.776956 74.8612513 108.97011 72.0253018 109.64446 69.9895906 111.488538 58.1245004 122.236599 44.3433884 119.439335 36.8969191 116.646025 33.5020888 115.372474 29.673013 116.631194 27.6847819 119.661811-24.3900556 199.035301 10.7215112 253.220557 22.9545726 268.204561 25.3058289 271.084883 28.4454534 273.206809 31.9945942 274.314245 50.4653596 280.075878 113.852342 292.44653 168.125114 214.556213 170.196435 211.582945 169.937273 207.561569 167.490067 204.887902"/>
        <path fill="#0089A9" d="M20.8562469,270.302954 C26.2798643,276.807162 35.0834744,278.620588 43.0532144,280.00785 C51.0130628,281.394122 59.11733,281.936963 67.1879653,281.538484 C77.5643552,281.027284 87.8843625,279.059608 97.7068173,275.678962 C109.889431,271.487515 121.304449,265.270053 131.604673,257.551621 C145.026716,247.494718 156.525814,235.238765 166.532254,221.818026 C167.948745,219.918576 169.331604,217.995395 170.687756,216.053427 C171.604716,214.739335 170.927135,212.757816 169.623409,211.994476 C168.143612,211.130281 166.482796,211.741348 165.561879,213.058406 C156.105417,226.601754 145.109806,239.159286 132.253568,249.583026 C127.179128,253.697348 121.526023,257.606004 115.701792,260.970829 C113.038947,262.509374 110.318731,263.948052 107.547077,265.276975 C106.195871,265.924627 104.832796,266.546571 103.458839,267.140829 C103.275843,267.219931 102.622001,267.497779 102.765431,267.438452 C103.073063,267.308922 102.530998,267.534364 102.465713,267.56205 C102.291619,267.633242 102.117525,267.704435 101.94442,267.774638 C101.252991,268.05743 100.559583,268.331322 99.8641964,268.598294 C94.8263552,270.536306 89.648052,272.107481 84.3797343,273.282154 C81.929561,273.826973 79.4605935,274.286757 76.9787668,274.659528 C76.7077343,274.700068 76.4357126,274.739619 76.163691,274.77917 C75.9045285,274.815755 75.2902542,274.896835 75.9094744,274.815755 C75.2981675,274.895846 74.6868606,274.972971 74.0745646,275.042186 C72.9132794,275.175672 71.7500159,275.289382 70.584774,275.384305 C66.3026585,275.732356 61.9997704,275.821346 57.706774,275.651276 C55.7590989,275.574151 53.8143913,275.442643 51.8746296,275.258729 C50.9913011,275.174683 50.1089617,275.07976 49.2295899,274.97396 C49.0001025,274.946274 48.7725935,274.9176 48.5431061,274.888925 C48.4036332,274.871127 47.7349545,274.784114 48.2621819,274.854318 C48.8151278,274.926499 48.1128173,274.832564 47.9891711,274.814766 C47.7418787,274.780159 47.4945863,274.744563 47.248283,274.707978 C44.2501097,274.265992 41.272709,273.693487 38.3269617,272.980576 C35.2180014,272.229101 31.9250556,271.480593 29.1850556,269.789776 C27.5905141,268.806927 26.2492,267.542274 25.0523047,266.107552 C24.0255466,264.876518 21.9166368,265.047577 20.8562469,266.107552 C19.6366007,267.325731 19.8265213,269.067965 20.8562469,270.302954"/>
        <path fill="#A8DEEB" d="M42.8275848 170.857979L42.8275848 170.857979C49.6835199 168.840863 56.9183069 172.540886 59.2913249 179.279436L64.8969495 195.189928C65.8168773 197.803279 68.4846679 199.375442 71.2187329 198.913681L119.752343 190.7147C127.550957 189.396654 134.941043 194.650053 136.25565 202.446599 137.57817 210.288629 132.251491 217.703506 124.396495 218.958271L62.5120614 228.841147C54.1377509 230.17798 46.0334838 225.227149 43.4032816 217.167586L33.8528484 187.902604C31.5045596 180.708226 35.5651011 172.995726 42.8275848 170.857979M209.302764 415.37587L185.043378 415.37587C183.787132 415.37587 182.769277 414.358413 182.769277 413.10266L182.769277 388.85278C182.769277 387.597027 181.751421 386.57957 180.496165 386.57957L160.30919 386.57957C159.052944 386.57957 158.035089 387.597027 158.035089 388.85278L158.035089 413.10266C158.035089 414.358413 157.017233 415.37587 155.760988 415.37587L131.501601 415.37587C130.245356 415.37587 129.2275 416.393327 129.2275 417.64908L129.2275 437.827155C129.2275 439.082908 130.245356 440.100365 131.501601 440.100365L155.760988 440.100365C157.017233 440.100365 158.035089 441.117822 158.035089 442.373575L158.035089 466.623455C158.035089 467.879208 159.052944 468.896665 160.30919 468.896665L180.496165 468.896665C181.751421 468.896665 182.770266 467.879208 182.770266 466.623455L182.770266 442.373575C182.770266 441.117822 183.787132 440.100365 185.043378 440.100365L209.302764 440.100365C210.559009 440.100365 211.576865 439.082908 211.576865 437.827155L211.576865 417.64908C211.576865 416.393327 210.559009 415.37587 209.302764 415.37587"/>
        <polygon fill="#004757" points="415.689 84.261 371.681 64.162 377.738 55.84"/>
        <polygon fill="#004757" points="551.599 180.696 475.106 146.648 486.003 132.008"/>
        <path fill="#004757" d="M272.723575,43.7502439 L258.44689,43.7502439 C257.25494,43.7502439 256.288521,42.7832151 256.288521,41.5907439 L256.288521,27.3206413 C256.288521,26.1281702 255.321113,25.1621301 254.129164,25.1621301 L242.481691,25.1621301 C241.288752,25.1621301 240.321344,26.1281702 240.321344,27.3206413 L240.321344,41.5907439 C240.321344,42.7832151 239.355915,43.7502439 238.162976,43.7502439 L223.885301,43.7502439 C222.693352,43.7502439 221.725944,44.716284 221.725944,45.9087551 L221.725944,57.5516638 C221.725944,58.7431462 222.693352,59.710175 223.885301,59.710175 L238.162976,59.710175 C239.355915,59.710175 240.321344,60.6762151 240.321344,61.8676974 L240.321344,76.1397776 C240.321344,77.3312599 241.288752,78.2973 242.481691,78.2973 L254.129164,78.2973 C255.321113,78.2973 256.288521,77.3312599 256.288521,76.1397776 L256.288521,61.8676974 C256.288521,60.6762151 257.25494,59.710175 258.44689,59.710175 L272.723575,59.710175 C273.916514,59.710175 274.882933,58.7431462 274.882933,57.5516638 L274.882933,45.9087551 C274.882933,44.716284 273.916514,43.7502439 272.723575,43.7502439"/>
        <path fill="#006A81" d="M347.937169,281.015419 L333.332079,281.015419 C332.230144,281.015419 331.337913,280.123537 331.337913,279.021045 L331.337913,264.421678 C331.337913,263.320175 330.443703,262.427305 329.342757,262.427305 L317.36688,262.427305 C316.263956,262.427305 315.370736,263.320175 315.370736,264.421678 L315.370736,279.021045 C315.371725,280.123537 314.478505,281.015419 313.37657,281.015419 L298.77049,281.015419 C297.669544,281.015419 296.775335,281.908289 296.775335,283.009792 L296.775335,294.981965 C296.775335,296.082479 297.669544,296.976338 298.77049,296.976338 L313.37657,296.976338 C314.478505,296.976338 315.371725,297.86822 315.371725,298.969723 L315.371725,313.570079 C315.371725,314.670593 316.263956,315.563463 317.36688,315.563463 L329.342757,315.563463 C330.443703,315.563463 331.337913,314.670593 331.337913,313.570079 L331.337913,298.969723 C331.337913,297.86822 332.230144,296.976338 333.332079,296.976338 L347.937169,296.976338 C349.039104,296.976338 349.932324,296.082479 349.932324,294.980976 L349.932324,283.009792 C349.932324,281.908289 349.039104,281.015419 347.937169,281.015419"/>
        <path fill="#00ACD4" d="M514.494449,584.341715 L339.763561,468.459425 C331.893727,463.066608 329.334745,452.623092 333.81964,444.204602 C333.81964,444.204602 385.287128,342.511334 386.736261,341.130994 C390.492139,337.55457 398.715106,330.668691 411.179633,325.232368 C421.514478,320.726488 431.947251,319.734739 438.346189,320.012587 C443.084312,320.219243 447.556348,321.031033 451.948261,322.979922 L607.205366,427.694908 C610.752529,430.035355 613.429222,433.502025 614.710196,437.554054 C616.332435,442.686821 618.234608,448.051953 618.412658,459.646411 C618.628297,473.755342 615.756738,484.857387 613.59837,490.696145 C612.861438,492.690518 539.517474,580.852304 539.517474,580.852304 C533.332196,588.304754 522.483973,589.81759 514.494449,584.341715"/>
        <path fill="#A8DEEB" d="M592.183835,476.335569 C584.475236,471.296735 576.768615,466.257902 569.060016,461.219069 C571.545799,453.321667 574.727958,442.268072 576.194897,433.271144 C577.830983,423.223141 577.738991,413.428266 576.642991,407.082263 L564.620622,398.97425 C564.771965,406.299147 564.606774,417.150042 563.023113,424.78245 C560.586788,436.528192 557.418478,445.861306 554.989077,452.020429 C542.964731,444.159612 530.942362,436.298795 518.918016,428.437977 C512.819785,424.450219 506.720565,420.46345 500.622334,416.476681 C500.011027,416.036673 499.380926,415.62534 498.730052,415.240703 C492.642702,411.260856 486.556341,407.281008 480.468001,403.302149 C468.415958,395.424522 456.363915,387.546896 444.310882,379.671247 C443.425575,379.093798 442.543236,378.516349 441.657929,377.9389 C446.894594,371.853936 455.300557,363.024112 464.659092,356.860045 C473.732745,350.881868 482.011106,347.902668 486.799677,345.970588 L475.488521,338.509239 C468.433763,340.288058 458.828926,342.937005 443.618464,354.102332 C435.297568,360.20905 429.960009,365.085723 426.827308,368.252792 C422.373077,365.344783 417.920825,362.435787 413.466594,359.527779 C405.829214,354.54234 398.191835,349.558878 390.548521,344.583327 C389.130052,343.657827 387.709604,342.733316 386.290146,341.808804 C385.303944,343.43634 382.816182,347.905634 379.392666,354.148804 C386.119019,358.523176 392.839438,362.904469 399.558868,367.289718 C409.28933,373.638687 419.017814,379.991612 428.744319,386.345525 C440.419489,393.97299 452.094658,401.602433 463.769828,409.232864 C466.895604,411.275687 470.02237,413.321477 473.149135,415.364301 C465.803561,419.803933 460.941792,427.908979 461.083243,437.108607 C461.294926,450.886296 472.638723,461.884519 486.421814,461.67292 C498.975366,461.481096 509.217229,452.057014 510.78803,439.969154 C520.681705,446.437766 530.577359,452.907367 540.472023,459.376968 C552.521099,467.253606 564.570175,475.131232 576.621229,483.008859 C586.032189,489.160072 595.443149,495.311285 604.856088,501.461509 C610.096709,495.198564 613.449005,491.103029 613.59837,490.69565 C613.63398,490.602705 613.66959,490.494928 613.7052,490.398027 C606.530752,485.710211 599.357294,481.023384 592.183835,476.335569"/>
        <path fill="#0089A9" d="M520.371502 590.566C525.481552 592.792737 531.330513 593.218902 536.46826 590.806274 538.939206 589.645443 541.093617 587.72424 542.92457 585.715035 545.05722 583.373599 547.061278 580.908565 549.078195 578.46924 556.402996 569.605798 563.578433 560.617769 570.729141 551.613919 578.849235 541.392879 586.915913 531.127344 594.87774 520.780729 601.142152 512.638108 607.762664 504.484612 612.792592 495.49856 617.03613 487.917568 619.093603 479.811533 619.553567 471.15969 620.110469 460.651903 618.867083 450.196522 616.664202 439.930987 616.097408 437.296871 615.479177 434.67561 614.843141 432.057315 613.940029 428.349383 608.215704 429.919568 609.119805 433.635411 611.507661 443.440174 613.500838 453.303275 613.727357 463.423459 613.830231 468.062825 613.71252 473.013657 612.995372 477.417692 612.408794 481.013892 611.267292 485.037246 609.934881 488.019413 605.648809 497.608621 598.720664 506.063697 592.372173 514.370455 591.573913 515.415597 590.774664 516.458762 589.972448 517.500939 589.55304 518.045758 589.134621 518.590576 588.714224 519.135395 588.486715 519.430052 588.260195 519.723721 588.032686 520.0164 587.931791 520.148897 587.828917 520.281394 587.728022 520.412902 587.984217 520.08166 587.807155 520.310068 587.652845 520.509802 585.798152 522.905621 583.939502 525.298474 582.074917 527.686383 578.089552 532.793442 574.084404 537.885669 570.06343 542.965043 562.686202 552.288269 555.273365 561.58282 547.747762 570.786403 545.315394 573.761649 542.878079 576.734916 540.372513 579.647868 537.573162 582.902939 534.546303 586.178774 529.96348 586.489251 527.732903 586.640535 525.430116 586.342911 523.366708 585.44312 521.899769 584.804367 520.18356 585.012011 519.307155 586.508038 518.572202 587.763791 518.894671 589.923291 520.371502 590.566M472.342665 462.423109C479.098694 465.725641 486.949734 466.502823 494.187488 464.347279 500.810968 462.374658 506.451214 458.02204 510.2793 452.298969 512.366448 449.176396 513.852181 445.592061 514.584167 441.908847 514.895755 440.33965 514.136073 438.706182 512.510867 438.260242 511.051842 437.858796 509.174398 438.753644 508.860831 440.33174 507.504679 447.158291 503.326427 453.179974 497.251936 456.645655 490.644282 460.414892 482.166109 460.637368 475.337871 457.300229 473.898629 456.597205 472.129004 456.910649 471.278318 458.365147 470.51369 459.670339 470.896499 461.717118 472.342665 462.423109"/>
      </g>
    </g>
  </g>
</svg>
