<svg xmlns="http://www.w3.org/2000/svg" xmlns:xlink="http://www.w3.org/1999/xlink" width="822" height="617" viewBox="0 0 822 617">
  <defs>
    <rect id="business-a" width="822" height="617" x="0" y="0"/>
  </defs>
  <g fill="none" fill-rule="evenodd">
    <mask id="business-b" fill="#fff">
      <use xlink:href="#business-a"/>
    </mask>
    <g mask="url(#business-b)">
      <g transform="translate(60.34 8.899)">
        <path fill="#DDB1DD" d="M484.030496,212.910385 L665.43729,347.903855 C667.884496,349.725191 670.873767,350.672444 673.924366,350.593342 L760.935687,346.780598 L760.935687,135.645967 L589.646121,46.4172857 L480.895817,194.337103 C476.797687,200.368674 478.179557,208.556778 484.030496,212.910385"/>
        <path fill="#9B4A9C" d="M566.304486 171.008867C562.093591 167.928811 556.189237 168.792018 553.037742 172.948857L508.779323 231.327538 557.618587 267.671212 607.591439 201.211215 566.304486 171.008867zM672.63251 260.490676C675.674207 256.230014 674.721637 250.316109 670.496893 247.225176L607.591637 201.211215 557.618785 267.671212 629.376121 321.069397 672.63251 260.490676z"/>
        <path fill="#67246C" d="M669.927725,350.090447 C671.22057,350.449375 672.564851,350.629333 673.92397,350.594726 L760.936281,346.780005 L760.936281,220.524402 L669.927725,350.090447 Z"/>
        <path fill="#9B4A9C" d="M206.670781 76.2373704L206.670781 88.1096764C206.670781 94.9589697 217.317214 94.9738014 217.317214 88.1096764L217.317214 76.2373704C217.317214 69.3880771 206.670781 69.3781893 206.670781 76.2373704M206.670781 39.2304223L206.670781 51.1027284C206.670781 57.9559768 217.317214 57.9668534 217.317214 51.1027284L217.317214 39.2304223C217.317214 32.381129 206.670781 32.3712412 206.670781 39.2304223M199.423926 58.349512L187.546966 58.349512C180.691031 58.349512 180.68015 68.992762 187.546966 68.992762L199.423926 68.992762C206.274916 68.992762 206.285796 58.349512 199.423926 58.349512M236.443404 58.349512L224.566443 58.349512C217.710508 58.349512 217.699627 68.992762 224.566443 68.992762L236.443404 68.992762C243.289447 68.992762 243.305274 58.349512 236.443404 58.349512M676.4877 576.725226L676.4877 592.922465C676.4877 602.266455 691.013657 602.288208 691.013657 592.922465L691.013657 576.725226C691.013657 567.381236 676.4877 567.366404 676.4877 576.725226M676.4877 526.236531L676.4877 542.434759C676.4877 551.785671 691.013657 551.800503 691.013657 542.434759L691.013657 526.236531C691.013657 516.89353 676.4877 516.878698 676.4877 526.236531M666.600851 552.321492L650.398251 552.321492C641.043674 552.321492 641.028836 566.841756 650.398251 566.841756L666.600851 566.841756C675.948504 566.841756 675.963342 552.321492 666.600851 552.321492M717.106469 552.321492L700.90387 552.321492C691.549292 552.321492 691.534455 566.841756 700.90387 566.841756L717.106469 566.841756C726.446209 566.841756 726.46896 552.321492 717.106469 552.321492"/>
        <path fill="#DDB1DD" d="M485.150038 92.0540269L485.150038 100.51899C485.150038 105.400607 492.739937 105.412472 492.739937 100.51899L492.739937 92.0540269C492.739937 87.1724099 485.150038 87.1644997 485.150038 92.0540269M485.150038 65.6717397L485.150038 74.1357141C485.150038 79.022275 492.739937 79.0301853 492.739937 74.1357141L492.739937 65.6717397C492.739937 60.789134 485.150038 60.7812237 485.150038 65.6717397M479.984001 79.3021992L471.516708 79.3021992C466.628232 79.3021992 466.620318 86.8901127 471.516708 86.8901127L479.984001 86.8901127C484.867531 86.8901127 484.875445 79.3021992 479.984001 79.3021992M506.375641 79.3021992L497.908349 79.3021992C493.019872 79.3021992 493.012948 86.8901127 497.908349 86.8901127L506.375641 86.8901127C511.256204 86.8901127 511.267085 79.3021992 506.375641 79.3021992M383.77172 184.440482C391.555496 190.665854 402.20094 201.962689 406.330723 213.010351 413.877099 233.200292 395.162009 241.109559 395.162009 241.109559 395.162009 241.109559 417.945554 235.092821 414.659532 210.336684 412.892875 197.030644 405.095251 184.525518 396.750615 174.690103 394.502232 172.039178 391.433828 169.145013 388.054825 166.270623 374.148088 154.43688 354.245005 152.764849 338.535012 162.071266L334.6545 164.369196C334.6545 164.369196 361.520348 166.643394 383.77172 184.440482M395.073775 339.721683C393.437688 333.179901 382.11763 288.993209 370.182309 269.860276 367.979428 266.329335 364.79628 262.538345 360.933573 258.620791 356.650468 265.192236 342.371804 284.702883 326.516403 280.051653 314.89267 276.641343 311.479045 266.214637 310.798497 260.186033 310.736179 259.64418 310.268302 259.251633 309.723269 259.281297 303.865406 259.602651 289.640157 259.166598 284.20467 244.886608 279.543703 232.644497 289.61345 217.68027 294.53358 211.397549 291.591789 209.775946 288.801342 208.295739 286.24137 207.000435 263.316374 195.404988 220.757349 191.692111 213.825248 191.154214 213.273291 191.110707 212.776728 191.486444 212.665941 192.028297L204.380656 232.522877C204.266901 233.083517 204.60124 233.638223 205.15023 233.797417L244.56963 245.221805 204.554749 298.109779 301.627905 371.383473 337.057984 326.112087 357.431912 359.035563C357.734598 359.544786 358.385471 359.722767 358.904786 359.437008L394.534677 340.942829C394.97189 340.703544 395.194453 340.205198 395.073775 339.721683"/>
        <path fill="#802985" d="M284.20467,244.886509 C289.640157,259.166499 303.865406,259.602552 309.723269,259.282187 C310.268302,259.251535 310.736179,259.644081 310.798497,260.185934 C311.479045,266.214538 314.89267,276.641245 326.516403,280.051554 C342.371804,284.703773 356.650468,265.192137 360.933573,258.62168 C360.931594,258.620692 360.929616,258.618714 360.928627,258.616737 C360.230273,257.90778 359.511147,257.196846 358.769269,256.480967 L312.412822,255.873855 L298.78602,213.778437 C297.346778,212.958737 295.940179,212.171666 294.566222,211.414259 L294.53358,211.39745 C289.61345,217.680171 279.543703,232.644398 284.20467,244.886509"/>
        <path fill="#B478B1" d="M385.985778 307.937779C380.493908 311.048487 370.56858 317.550718 372.738818 322.032867 374.644948 325.969208 383.657273 323.02857 389.817822 320.442905 388.67632 316.539194 387.388421 312.298307 385.985778 307.937779M234.918104 209.435212C239.362443 210.487276 243.877014 200.529252 245.93053 195.259043 241.271541 194.436377 236.790602 193.759061 232.708299 193.206332 231.98027 196.849005 229.97918 208.264494 234.918104 209.435212"/>
        <path fill="#802985" d="M395.073775 339.721683C394.693934 338.203903 393.791811 334.657142 392.483139 329.870448L352.652244 350.991821 357.431912 359.035563C357.734598 359.544786 358.385471 359.722767 358.904786 359.437008L394.534677 340.942829C394.97189 340.703544 395.194453 340.205198 395.073775 339.721683M205.150329 233.797516L214.278386 236.442508 224.148321 192.149027C219.176755 191.592343 215.482206 191.282854 213.825347 191.154312 213.27339 191.110806 212.776827 191.486543 212.66604 192.028396L204.380755 232.522976C204.266011 233.083615 204.601339 233.638322 205.150329 233.797516"/>
        <path fill="#CFA4CD" d="M336.422937,174.685851 C332.949962,174.878663 327.307739,177.16275 325.559876,180.108332 C306.98228,211.405261 369.22776,245.668537 391.123031,242.246362 C403.542056,240.304394 406.155443,233.708229 407.436417,227.173368 C406.426475,228.416267 405.129674,231.740553 398.416179,232.670997 C383.395638,234.750405 352.641363,219.013939 340.102648,199.116678 C335.195378,191.331008 330.875674,180.152827 336.422937,174.685851"/>
        <path fill="#9B4A9C" d="M337.904812,327.537713 C349.834199,309.980899 365.631238,293.359473 376.666415,282.609434 C374.56344,277.770335 372.38331,273.388053 370.182408,269.860078 C369.75113,269.169908 369.278307,268.466884 368.774819,267.756939 L333.915491,303.544917 C332.804653,304.68696 331.017224,304.819457 329.748119,303.857372 L260.771339,251.524104 C259.43596,250.510602 259.125361,248.631917 260.06804,247.244655 C264.615253,240.543679 277.503144,221.595649 287.349339,207.569775 C286.981368,207.379929 286.601527,207.182173 286.241469,207.000237 C282.25017,204.982133 277.66339,203.202325 272.772935,201.637083 C266.01196,212.451392 255.030199,229.124235 242.531051,244.631304 C232.446466,257.144341 221.37469,268.894038 210.738148,276.189272 C197.240928,285.448227 179.950242,283.145354 171.452285,279.762731 C165.917881,277.559724 145.492516,270.210107 125.156177,275.224221 C91.0397148,283.63579 78.9411805,345.467298 55.6511805,360.414716 C32.3186462,375.38982 3.68020578,360.803308 3.68020578,360.803308 L0.000494584838,384.893993 C0.000494584838,384.893993 41.5406751,400.700663 73.2415848,362.026431 C88.9436643,342.870756 91.1228051,313.995354 116.643383,295.426027 C133.174386,283.399471 146.90604,286.92349 154.535505,290.896417 L86.283787,376.256982 C75.2060758,390.092021 79.4051011,408.949083 92.9577148,420.370505 C125.063195,447.429514 184.866415,490.548322 219.424047,514.171314 C234.595931,524.54166 255.309144,520.695298 265.884357,505.667788 L324.475845,421.276229 C328.285137,428.276806 331.655238,439.703171 325.795397,454.183884 C319.333152,470.158647 294.687989,498.105583 301.786271,522.762841 C310.854978,554.260493 346.030841,557.16949 346.030841,557.16949 L350.838206,539.678925 C350.838206,539.678925 315.679159,541.435001 315.543643,514.763594 C315.458574,498.074931 349.742206,466.466535 344.181094,429.478176 C342.18396,416.195867 333.989679,403.821259 331.683924,400.753069 C327.202986,394.788735 318.808892,382.481365 321.565708,363.701428 C323.241361,352.29286 329.646235,339.692811 337.904812,327.537713"/>
        <path fill="#B478B1" d="M263.672673,279.603932 C271.15772,271.435604 309.059734,298.284992 300.113684,307.771367 C292.676117,315.658881 255.846362,288.143054 263.672673,279.603932"/>
        <path fill="#802985" d="M328.459429,183.342539 C338.806144,165.9113 365.522627,169.287991 383.771819,184.440087 C362.400808,161.547805 324.752021,140.504545 310.356635,163.1348 C299.220562,180.640197 316.522129,203.852845 338.969357,220.784749 C327.172519,209.939787 320.742916,196.343045 328.459429,183.342539"/>
        <path fill="#67246C" d="M401.294762 209.343453C405.051628 214.689797 406.088278 221.865389 403.430379 227.930578 400.918877 233.662547 395.604069 237.757094 389.511773 238.988127 388.121989 239.26993 387.320762 240.91823 387.677852 242.216501 388.076487 243.663089 389.512762 244.331506 390.907491 244.049703 398.36583 242.54181 405.058552 237.234028 408.110141 230.248283 411.429794 222.646526 410.616697 213.51018 405.828126 206.694506 405.015029 205.536642 403.533253 204.995778 402.236451 205.753185 401.090004 206.423579 400.475729 208.177679 401.294762 209.343453M562.173911 266.769146C573.942063 250.708359 585.710214 234.647572 597.478366 218.586785 600.786149 214.072995 604.092944 209.561183 607.399738 205.047392 608.347362 203.754066 607.617355 201.737939 606.335391 200.989431 604.830864 200.109415 603.224453 200.756078 602.27485 202.05336L566.969406 250.235721 557.049023 263.776102C556.101399 265.068441 556.831406 267.083578 558.114359 267.834064 559.617897 268.713091 561.223319 268.066428 562.173911 266.769146M571.749766 218.927124C568.998885 222.188127 566.432979 225.608324 564.092604 229.174861 563.305225 230.375242 563.813658 232.254917 565.074849 232.919379 566.44386 233.643167 567.98004 233.21898 568.820835 231.938507 569.9109 230.277353 571.046466 228.64784 572.232481 227.054912 572.524286 226.662366 572.822026 226.273775 573.117788 225.884194 573.339362 225.590526 572.798286 226.29355 573.024806 226.002848L573.251326 225.713135C573.401679 225.521311 573.552033 225.329488 573.705355 225.137664 574.331499 224.347627 574.972481 223.568467 575.622365 222.798206 576.099145 222.232622 576.424582 221.626499 576.424582 220.86217 576.424582 220.190787 576.125853 219.389874 575.622365 218.927124 574.605499 217.994702 572.735968 217.758383 571.749766 218.927124"/>
        <path fill="#802985" d="M591.682821,88.6299736 C592.071565,105.096161 579.025406,118.515911 562.560677,119.148732 C545.817001,119.793417 532.23768,106.674257 532.029955,90.0379992 C531.937962,82.6814607 534.361427,75.8875393 538.654424,70.5847011 C543.974178,64.0132556 591.294077,72.1647748 591.682821,88.6299736"/>
        <path fill="#B478B1" d="M641.049609,122.031328 C641.294923,138.304703 628.269536,151.400132 611.927464,152.550086 C594.815818,153.753434 581.326511,140.390044 581.395488,123.439354 C581.464995,106.969211 594.046244,93.3091869 610.518887,92.9205955 C626.991529,92.5320042 640.800338,105.563163 641.049609,122.031328"/>
        <path fill="#802985" d="M689.886894,156.055417 C691.004656,173.120807 677.779457,186.076818 660.764749,186.573186 C644.003269,187.062633 630.444721,174.272738 630.233038,157.463443 C630.026302,140.9933 642.883529,127.332287 659.356172,126.944685 C675.828814,126.556093 688.809688,139.619882 689.886894,156.055417"/>
        <path fill="#B478B1" d="M739.546377,190.079605 C739.93611,206.545793 726.874124,219.65902 710.424232,220.598363 C694.036658,221.53474 680.317864,208.242543 679.89351,191.487631 C679.47707,175.021443 692.543012,161.357464 709.016644,160.968873 C725.489287,160.580282 739.157633,173.614407 739.546377,190.079605"/>
        <path fill="#CFA4CD" d="M539.170869,70.0970338 L641.099858,1.56158349 C644.163317,-0.500027083 648.165497,-0.522769071 651.251707,1.50720048 L760.935786,69.4315835 L760.935786,185.805298 L732.998667,209.53409 L539.170869,70.0970338 Z"/>
        <path fill="#9B4A9C" d="M580.279376,99.9884096 L587.163997,104.941219 L697.030084,30.5857974 L651.021824,1.65996731 C647.935614,-0.370002244 643.933434,-0.349237821 640.869975,1.71435032 L539.129918,70.1222478 L580.279376,99.9884096 Z"/>
        <polygon fill="#9B4A9C" points="635.7 139.539 684.426 174.591 760.936 113.261 760.936 69.432 743.076 60.291"/>
        <path fill="#CFA4CD" d="M608.316204 248.367516C615.073222 247.673391 621.83024 246.978277 628.587258 246.284152 630.18081 246.120015 631.554767 245.037298 631.554767 243.317806 631.554767 241.839577 630.191691 240.186333 628.587258 240.35146 621.83024 241.045585 615.073222 241.740699 608.316204 242.434824 606.722651 242.598962 605.348695 243.680689 605.348695 245.40117 605.348695 246.877422 606.71177 248.532643 608.316204 248.367516M587.285665 267.195904C607.812914 264.395673 628.494474 262.713755 649.200762 262.078957 653.011044 261.962281 653.026871 256.029588 649.200762 256.146265 632.778568 256.649555 616.379123 257.820273 600.054856 259.672261 595.265297 260.215103 590.483651 260.824192 585.707939 261.474811 584.119333 261.692343 583.251831 263.726268 583.635629 265.123417 584.106474 266.837965 585.692113 267.413436 587.285665 267.195904M600.241513 282.746084C608.073758 281.959013 615.86248 280.762587 623.562177 279.129119 625.131 278.7959 626.042025 276.957754 625.635477 275.479525 625.189361 273.856933 623.557231 273.074807 621.984451 273.408026 614.801101 274.932728 607.549498 276.079715 600.241513 276.813392 598.64796 276.973574 597.274004 278.062223 597.274004 279.779738 597.274004 281.258956 598.637079 282.907255 600.241513 282.746084"/>
        <path fill="#9B4A9C" d="M417.405467,464.831584 L452.338983,415.943233 L450.247879,414.502578 C445.133871,410.979547 442.425525,404.794715 443.56307,398.690964 C444.676875,392.724653 448.019279,384.776823 456.493496,375.601914 C462.926066,368.634956 469.600983,366.694965 474.398456,366.391409 C477.897149,366.170911 481.365178,367.146839 484.266413,369.114515 L601.617547,454.003432 C606.335886,457.205108 609.388464,462.467406 609.423478,468.168723 C609.4399,470.677263 608.919597,473.503203 607.507063,476.577326 C602.574074,487.3066 570.117438,534.278691 560.867713,546.71757 C559.489799,548.571536 557.576745,549.954842 555.384745,550.684563 L534.734839,557.565497 C532.906853,558.174587 530.892904,557.843345 529.356723,556.680537 L418.635005,472.890158 C416.109655,470.979831 415.565612,467.406372 417.405467,464.831584"/>
        <path fill="#DDB1DD" d="M470.105757,428.79028 C470.105757,428.79028 464.384399,419.256444 480.278378,397.013792 C497.205049,373.326529 532.410587,342.359853 564.199533,350.621127 L595.351453,372.863779 C595.351453,372.863779 615.060659,377.312309 628.411482,359.518187 L714.875793,421.799591 C714.875793,421.799591 686.520255,456.009473 658.29232,451.66872 C650.027807,450.398135 600.437764,409.088798 600.437764,409.088798 C600.437764,409.088798 543.219244,431.967237 538.131944,478.995689 L470.105757,428.79028 Z"/>
        <path fill="#B478B1" d="M513.2477 379.393696C525.858624 389.828313 538.721786 399.957396 551.823339 409.770069 555.536682 412.550524 559.269808 415.304282 563.020739 418.034309 564.098934 418.818413 565.77162 418.218223 566.395786 417.150338 567.126783 415.902495 566.591642 414.561707 565.511469 413.775625 552.551368 404.344622 539.816797 394.607096 527.331497 384.556127 523.780378 381.696569 520.249043 378.81328 516.736501 375.906261 515.710732 375.056897 514.252696 374.902647 513.2477 375.906261 512.373274 376.779356 512.216985 378.540377 513.2477 379.393696M527.177187 371.703641C542.23136 382.959936 557.057035 394.517809 571.649266 406.366384 572.682949 407.204872 574.128126 407.375931 575.138068 406.366384 576.00557 405.499223 576.177685 403.72337 575.138068 402.87895 560.219411 390.765381 545.057418 378.953391 529.667916 367.444957 528.598624 366.647998 526.910111 367.272908 526.29188 368.329917 525.554949 369.589625 526.106905 370.903716 527.177187 371.703641M569.966491 385.966624C576.873863 390.913501 583.781235 395.861366 590.688606 400.809232 591.772736 401.585425 593.43652 400.998089 594.063653 399.924272 594.790693 398.68335 594.265444 397.328719 593.179336 396.550547L572.456231 381.706951C571.37309 380.931746 569.709307 381.518094 569.080195 382.5929 568.355134 383.832833 568.879394 385.188453 569.966491 385.966624M555.629367 360.61267C570.937757 370.625077 585.740681 381.39588 599.956038 392.907281 600.989721 393.744779 602.43193 393.918805 603.443851 392.907281 604.310363 392.041108 604.484457 390.262289 603.443851 389.419847 588.904045 377.644441 573.78063 366.596779 558.120096 356.353986 555.455273 354.611752 552.979381 358.880324 555.629367 360.61267M509.02533 402.597246C505.229886 399.798993 501.434442 396.999751 497.639987 394.201498 496.847662 393.617128 495.275871 393.804007 494.650716 394.586134 491.554615 398.460182 488.855171 402.596257 486.659214 407.044788 486.069669 408.238248 486.337734 409.713511 487.543532 410.418512 488.633597 411.055288 490.328045 410.733934 490.918579 409.534541 492.613027 406.104456 494.607193 402.815767 496.887229 399.739666 500.103019 402.112743 503.31881 404.483842 506.534601 406.85593 507.60785 407.645967 509.288449 407.032922 509.910637 405.970971 510.643612 404.718184 510.100557 403.390249 509.02533 402.597246M546.834066 429.645874C542.959488 426.670628 539.162066 423.595516 535.108448 420.862523 534.003546 420.116981 532.376362 420.649934 531.733401 421.747483 531.024167 422.961707 531.511827 424.374676 532.618708 425.121207 535.949243 427.366731 539.107661 429.841652 542.278939 432.304708 540.046383 435.660635 537.813827 439.01755 535.580282 442.373476 534.843351 443.48289 535.362665 445.102515 536.466578 445.7472 537.674355 446.453191 539.101726 445.97462 539.841625 444.863229 542.466882 440.914034 545.093127 436.966816 547.719373 433.019598 548.522578 431.810317 547.839062 430.418112 546.834066 429.645874M477.647285 426.836843C476.872765 428.403073 476.673942 430.186836 476.529523 431.905339 476.398953 433.461682 476.364332 435.062521 476.670975 436.601065 476.923213 437.868684 478.500939 438.713104 479.704758 438.323524 481.052007 437.88846 481.698924 436.648527 481.427892 435.290929 481.408108 435.190073 481.391292 435.090206 481.377444 434.988362 481.40613 435.206883 481.434816 435.426392 481.464491 435.643924 481.246874 434.017378 481.379422 432.305796 481.596051 430.68716 481.567365 430.904692 481.53769 431.123213 481.508014 431.341734 481.622758 430.519067 481.756296 429.667726 482.079755 428.897464 481.997653 429.094232 481.914563 429.290011 481.831473 429.486779 481.856202 429.432396 481.880931 429.379001 481.907639 429.326596 482.47839 428.171698 482.255827 426.604479 481.022332 425.951883 479.908527 425.364546 478.257603 425.602843 477.647285 426.836843M527.38976 464.342038C526.617218 465.792581 526.024705 467.365733 525.748727 468.988325 525.432193 470.840314 525.433182 472.590458 525.698279 474.447391 525.779391 475.013963 526.363001 475.645794 526.832857 475.920676 527.361074 476.229176 528.140539 476.360684 528.733052 476.16886 529.329521 475.976048 529.906207 475.606243 530.207904 475.035716 530.539276 474.408828 530.555103 473.831379 530.456186 473.136266L530.435413 472.993881C530.465088 473.212402 530.494763 473.429934 530.523449 473.648455 530.36716 472.457961 530.371117 471.260546 530.528395 470.070052 530.499709 470.288573 530.469045 470.506105 530.440359 470.725615 530.603572 469.58456 530.904279 468.475147 531.342482 467.40924 531.259391 467.605019 531.176301 467.800798 531.093211 467.997565 531.262359 467.600075 531.447334 467.211483 531.651103 466.831791 532.257464 465.693703 531.974561 464.09682 530.764806 463.457078 529.621326 462.853921 528.038655 463.126825 527.38976 464.342038"/>
        <path fill="#CFA4CD" d="M714.875991,421.799295 L628.41168,359.51888 C615.7602,376.38058 597.410113,373.27086 595.521788,372.899078 L637.181658,402.528921 C637.181658,402.528921 637.168799,421.496727 637.417081,438.431598 C646.91311,445.514243 655.304236,451.208639 658.292518,451.668423 C686.520453,456.010165 714.875991,421.799295 714.875991,421.799295"/>
        <path fill="#B478B1" d="M641.922848 415.416608C650.471252 421.664721 659.018667 427.912835 667.567071 434.160949 668.643288 434.94802 670.317952 434.342885 670.942118 433.275989 671.673115 432.027157 671.135996 430.691313 670.056812 429.902265 661.509396 423.654151 652.960992 417.406037 644.413577 411.157923 643.33736 410.370853 641.661707 410.976976 641.037541 412.042883 640.307534 413.292704 640.844653 414.62756 641.922848 415.416608M624.714757 381.732363C640.975718 393.359451 656.95971 405.37513 672.628158 417.790278 677.116021 421.345938 681.578165 424.934228 686.01657 428.553171 687.048274 429.393635 688.495429 429.560739 689.505371 428.553171 690.373862 427.684031 690.54301 425.911145 689.505371 425.064747 673.684591 412.169052 657.548266 399.65997 641.110245 387.560244 636.498736 384.165755 631.863487 380.804885 627.205487 377.473679 626.120368 376.698473 624.458562 377.283832 623.829451 378.358638 623.104389 379.598571 623.62766 380.95518 624.714757 381.732363"/>
        <path fill="#9B4A9C" d="M638.260744,401.710803 C628.255292,396.121218 600.437863,409.089095 600.437863,409.089095 C600.437863,409.089095 634.72743,437.652042 651.030924,448.00459 C646.091011,444.066271 641.991892,438.247289 641.05317,430.631689 C639.951235,421.699032 648.267184,407.300388 638.260744,401.710803"/>
        <path fill="#B478B1" d="M493.530976,429.799333 C493.834651,428.444701 494.195698,427.106879 494.704131,425.81553 C494.731828,425.752248 494.763482,425.692921 494.792168,425.630627 C495.558774,426.150727 496.312521,426.688624 497.074182,427.213667 C496.423308,428.450634 495.826839,429.716275 495.283785,431.005647 C494.700175,430.602224 494.115575,430.200778 493.530976,429.799333 M506.147835,422.331062 C506.849157,422.753272 507.543554,423.185369 508.240918,423.611534 C507.404081,424.845534 506.620658,426.114142 505.865922,427.400547 C505.115142,426.857706 504.372276,426.303988 503.61655,425.767079 C504.40294,424.580541 505.24868,423.434542 506.147835,422.331062 M519.645056,444.474836 C519.637142,444.46297 519.627251,444.452094 519.618348,444.441217 C519.646045,444.372002 519.679677,444.305754 519.701438,444.23555 C519.717265,444.247416 519.733092,444.26027 519.748918,444.273124 C519.715287,444.340361 519.680666,444.40661 519.645056,444.474836 M522.176341,439.931382 C520.346377,438.438321 518.509489,436.956137 516.650839,435.50065 C516.726016,435.344422 516.799214,435.190172 516.875381,435.034933 C517.588572,433.563626 518.226586,431.9529 519.264225,430.672427 C521.353352,432.072542 523.42764,433.496389 525.483135,434.946932 C524.311958,436.562602 523.209034,438.224744 522.176341,439.931382 M529.790969,431.91236 C522.627402,426.770693 507.463431,417.064808 507.31011,416.912536 C506.402052,416.003845 504.719474,415.921776 503.821308,416.912536 C502.162471,418.740794 500.6619,420.687706 499.311684,422.725586 C498.457041,422.13726 497.614269,421.533115 496.75468,420.9527 C496.401547,420.713414 495.117604,420.039065 494.790189,419.865039 C493.564608,419.218376 492.163944,419.592135 491.415142,420.749999 C490.567424,422.062113 489.676182,424.407504 488.852204,426.290145 C488.231994,427.706081 487.36746,431.4417 489.234023,432.758757 C490.569402,433.700078 491.925554,434.609757 493.270825,435.535257 C492.29946,438.727046 491.645619,442.026611 491.332052,445.38847 C491.208406,446.715416 492.554666,447.854493 493.799041,447.854493 C493.826738,447.854493 493.850478,447.846583 493.877186,447.845594 C494.018637,448.978738 494.817886,449.893361 495.988074,450.050578 C496.581575,450.130669 497.245308,449.962576 497.772536,449.61057 C498.48177,450.560789 499.203864,451.500132 499.951677,452.420688 C500.549135,453.155353 501.160442,454.08382 501.973539,454.593042 C502.654088,455.020196 503.417727,455.128962 504.12894,454.991522 C505.092391,456.612135 508.03616,456.842522 508.667251,454.487243 C509.289438,452.16756 510.039229,449.889406 510.882001,447.64586 C512.597222,448.826466 514.31442,450.007071 516.02964,451.186688 C516.087012,451.225251 516.14933,451.246015 516.20868,451.278645 C514.903965,454.648414 513.841597,458.111129 513.046305,461.636137 C512.75351,462.934408 513.441973,464.30486 514.769438,464.66972 C516.009857,465.009861 517.508449,464.251466 517.803222,462.946273 C520.024897,453.102948 524.335698,443.905297 530.439864,435.869466 C530.613958,435.639079 530.709908,435.376063 530.759366,435.103159 C531.336052,433.913655 530.822673,432.653946 529.790969,431.91236"/>
        <path fill="#CFA4CD" d="M452.339379,415.942936 L417.405863,464.830299 C415.565018,467.407065 416.110051,470.979534 418.635401,472.89085 L529.35613,556.680241 C530.626224,557.641337 532.219776,558.023996 533.765848,557.788666 L569.997155,501.451819 L452.339379,415.942936 Z"/>
        <path fill="#B478B1" d="M456.106731,463.654538 C456.106731,468.309724 452.332059,472.083905 447.674059,472.083905 C443.016059,472.083905 439.239409,468.309724 439.239409,463.654538 C439.239409,458.998363 443.016059,455.224182 447.674059,455.224182 C452.332059,455.224182 456.106731,458.998363 456.106731,463.654538"/>
        <path fill="#67246C" d="M532.83593 518.535798C531.983266 518.539753 531.128623 518.535798 530.27497 518.513056 531.256226 517.00813 532.233526 515.500237 533.20489 513.988389 533.408659 514.659772 533.613417 515.330167 533.814219 516.00155 534.031836 516.724349 534.24154 517.448138 534.431461 518.177859 534.464103 518.29849 534.490811 518.42011 534.520486 518.540742 533.959627 518.53382 533.396789 518.532832 532.83593 518.535798M526.966197 523.552878C527.329222 525.372237 527.688291 527.192585 528.051316 529.011944 526.45084 529.071271 524.852342 529.119721 523.251865 529.130598 524.49723 527.276631 525.734681 525.416732 526.966197 523.552878M538.060724 517.432317C537.875749 516.700618 537.668024 515.973864 537.452385 515.251064 536.961757 513.603753 536.440464 511.965341 535.989403 510.307154 535.797504 509.594242 535.125858 509.041513 534.397829 508.955489 533.594623 508.421546 532.404652 508.409681 531.736962 509.455812 530.661735 511.139708 529.565735 512.808772 528.480616 514.483769 528.200681 513.12716 527.888103 511.777473 527.508262 510.443606 527.244154 509.513162 526.18871 508.842767 525.232183 509.152256 524.285547 509.45779 523.657425 510.430751 523.940327 511.427444 524.571417 513.640338 525.063035 515.889817 525.415179 518.164016 525.446832 518.365727 525.561576 518.575349 525.708962 518.763218 525.649612 518.854186 525.59224 518.946142 525.531901 519.036122 525.388471 519.002503 525.238118 518.981739 525.08084 518.993604 522.880926 519.154775 520.6731 519.194327 518.46923 519.113247 517.500832 519.07765 516.575959 519.990296 516.618493 520.963258 516.664984 521.994558 517.431591 522.773718 518.46923 522.811292 519.99354 522.868641 521.516861 522.84491 523.040183 522.785583 521.654356 524.873891 520.274464 526.965165 518.871822 529.042596 518.851049 529.072259 518.842147 529.101923 518.824342 529.130598 518.095323 529.375816 517.510724 530.131245 517.543367 530.892607 517.591836 531.947638 518.357453 532.675381 519.394103 532.74163 523.028313 532.975971 526.650652 532.74163 530.284861 532.630886 531.544074 532.592324 532.313648 531.484888 532.068334 530.28945 531.518356 527.605896 531.002999 524.914431 530.465879 522.22791 531.523302 522.251641 532.580724 522.231865 533.637157 522.231865 534.342435 522.231865 535.049692 522.23582 535.755959 522.270428 536.355396 522.300091 536.912298 522.356452 537.47019 522.043997 538.151728 521.660349 538.575092 520.967213 538.596854 520.176187 538.621583 519.28925 538.278342 518.285636 538.060724 517.432317M609.423577 468.168723C609.401422 464.492432 608.118469 461.00302 605.94823 458.125664 597.608541 451.401946 580.714512 463.863566 574.863573 473.889816 562.815487 494.533608 569.997848 501.451127 569.997848 501.451127 569.997848 501.451127 541.876743 543.100605 532.134411 557.807749 532.996967 557.92047 533.88623 557.848289 534.734938 557.564509L555.384844 550.684563C557.576844 549.954842 559.489898 548.571536 560.867812 546.71757 570.117537 534.278691 602.574173 487.3066 607.507162 476.577326 608.919696 473.503203 609.439999 470.677263 609.423577 468.168723"/>
        <path fill="#DDB1DD" d="M72.9899401 197.722396L72.9899401 209.175459C72.9899401 215.7825 83.2604888 215.797332 83.2604888 209.175459L83.2604888 197.722396C83.2604888 191.115354 72.9899401 191.105467 72.9899401 197.722396M72.9899401 162.022915L72.9899401 173.475977C72.9899401 180.087963 83.2604888 180.09785 83.2604888 173.475977L83.2604888 162.022915C83.2604888 155.415873 72.9899401 155.405985 72.9899401 162.022915M65.9990823 180.466963L54.5425191 180.466963C47.9279415 180.466963 47.9180498 190.734476 54.5425191 190.734476L65.9990823 190.734476C72.6087141 190.734476 72.6186058 180.466963 65.9990823 180.466963M101.710581 180.466963L90.2540173 180.466963C83.6394397 180.466963 83.629548 190.734476 90.2540173 190.734476L101.710581 190.734476C108.315266 190.734476 108.330104 180.466963 101.710581 180.466963"/>
        <path fill="#67246C" d="M315.543148,514.763199 C315.535235,513.274093 315.806267,511.664356 316.292939,509.944864 C311.540968,516.924676 306.83252,531.306511 320.021119,547.658 C332.471798,556.045838 346.030347,557.170083 346.030347,557.170083 L350.8387,539.678529 C350.8387,539.678529 315.679653,541.435595 315.543148,514.763199"/>
      </g>
    </g>
  </g>
</svg>
