<svg xmlns="http://www.w3.org/2000/svg" width="822" height="617" viewBox="0 0 822 617">
  <g fill="none" fill-rule="evenodd">
    <rect width="822" height="617"/>
    <g transform="translate(110 11)">
      <path fill="#005209" d="M711.870851,380.054055 L698.612818,370.342921 C687.965451,361.218902 663.447929,372.344452 643.852107,395.191563 C624.255296,418.039662 617.000807,443.956777 627.649162,453.080795 L644.867696,465.692914 L711.870851,387.570917 L711.870851,380.054055 Z"/>
      <polygon fill="#013505" points="711.871 384.877 614.383 314.801 598.973 382.067 615.145 394.444 708.279 443.615 711.871 440.916"/>
      <path fill="#013505" d="M537.185211,332.508046 C518.536744,356.098441 494.432578,368.227228 483.475689,359.510435 L465.733044,347.593168 C454.715833,338.909981 460.947811,312.708205 479.598256,289.118797 C498.310011,265.494796 522.351878,253.399615 533.370078,262.081814 L549.118133,272.751706 C549.7975,273.119395 550.463022,273.536504 551.049433,274.033675 C562.068622,282.716862 555.850489,308.870206 537.185211,332.508046"/>
      <path fill="#005209" d="M592.690457,310.182914 C578.994346,297.608355 548.582057,308.429474 524.760712,334.350542 C500.939368,360.27161 492.729612,391.477709 506.424734,404.05128 L528.496734,421.731969 L614.761468,327.864592 L592.690457,310.182914 Z"/>
      <path fill="#02790D" d="M596.426776,397.564539 C572.604442,423.486596 542.191164,434.306726 528.497031,421.732167 C514.801909,409.158596 523.010676,377.952496 546.833009,352.032417 C570.654353,326.111349 601.066642,315.291218 614.761764,327.863801 C628.457876,340.437372 620.24812,371.643471 596.426776,397.564539"/>
      <path fill="#03AA14" d="M582.790987,385.046319 C572.068464,396.714506 558.378287,401.584405 552.213553,395.925754 C546.049809,390.265127 549.744298,376.217836 560.467809,364.550637 C571.19132,352.88245 584.880509,348.011562 591.045242,353.67219 C597.209976,359.330841 593.514498,373.378132 582.790987,385.046319"/>
      <path fill="#013505" d="M414.908704,271.32118 C396.260238,294.911575 372.156071,307.040362 361.199182,298.323569 L343.456538,286.406302 C332.439327,277.724103 338.671304,251.522327 357.321749,227.93292 C376.033504,204.308918 400.075371,192.213738 411.093571,200.895936 L426.841627,211.56484 C427.520993,211.932529 428.186516,212.349638 428.772927,212.847797 C439.792116,221.529996 433.573982,247.68334 414.908704,271.32118"/>
      <path fill="#4DAA31" d="M623.323861,85.6901578 C583.113661,73.2035667 544.864428,84.6216859 532.87415,92.7434558 C520.883872,100.865226 479.045961,130.953433 459.256317,124.621674 C439.465683,118.288928 405.286717,107.346234 385.492128,115.191249 C365.698528,123.036264 343.777828,158.732712 343.777828,158.732712 C343.777828,158.732712 314.718339,201.762179 348.173439,233.590977 C382.717306,266.45563 454.746983,324.247009 516.573306,356.819092 C538.198328,369.131722 559.437683,348.520396 559.437683,348.520396 C559.437683,348.520396 594.558072,318.279974 619.068672,334.156813 C638.630872,346.82626 621.396517,375.668082 613.638683,386.799562 C611.884394,389.317044 612.57365,392.766597 615.144761,394.443929 L653.234783,419.285653 C655.353972,420.667451 658.127806,420.428255 659.953294,418.67778 C668.583328,410.401818 693.815817,388.301946 711.87095,393.92106 L711.87095,136.840406 C679.093239,112.463236 645.264339,92.5042604 623.323861,85.6901578"/>
      <path fill="#BBE27A" d="M386.616297 159.681982C379.91163 171.619017 364.77273 175.870171 352.830908 169.168747 348.644941 166.819295 345.434019 163.453757 343.292086 159.528778 343.632263 159.024689 343.781586 158.759795 343.781586 158.759795 343.781586 158.759795 357.03863 137.118545 372.314986 123.850121 373.942697 124.359152 375.584252 125.048075 377.12593 125.912934 389.068741 132.614358 393.320963 147.744947 386.616297 159.681982M554.019462 275.601096C547.312818 287.542085 532.190729 291.788297 520.243962 285.084896 508.297196 278.380507 504.048929 263.265732 510.755573 251.323755 517.463207 239.382767 532.585296 235.137543 544.532062 241.840944 556.478829 248.545333 560.727096 263.660108 554.019462 275.601096"/>
      <path fill="#005209" d="M446.93753,258.60508 C444.72143,257.361659 443.254908,256.343596 442.802986,256.020386 C438.264974,252.772469 437.220708,246.460479 440.470197,241.924662 C443.726608,237.386869 450.060441,236.387586 454.576697,239.594979 C456.147052,240.697056 470.559119,250.379527 477.630663,240.45885 C479.750841,237.481757 480.369886,234.686532 479.630197,231.39809 C477.151052,220.323937 460.276652,207.234416 450.217674,201.584661 L449.659941,201.248601 C440.116174,195.073012 416.708186,184.599813 409.751352,193.761391 C407.044763,197.317692 405.960941,200.457873 406.432641,203.355893 C407.14563,207.750366 411.361263,211.490512 412.928652,212.558984 C417.504241,215.68928 418.750241,221.946907 415.665897,226.548947 C412.587486,231.155929 406.339686,232.452724 401.776952,229.411384 C400.464697,228.553444 388.901619,220.63331 386.527297,206.880565 C385.50083,200.950101 385.902319,191.739103 393.645319,181.541671 C409.911552,160.13072 443.091741,173.004768 460.390374,184.120434 C465.007497,186.739722 494.203452,204.092258 499.34963,226.9453 C501.348174,235.81925 499.533563,244.542962 494.097641,252.17448 C489.208574,259.044922 482.481163,263.363288 474.655097,264.671944 C463.42033,266.544982 452.666163,261.819391 446.93753,258.60508"/>
      <path fill="#02790D" d="M442.149528,255.157207 C439.933428,253.912798 438.466906,252.895724 438.014983,252.571525 C433.476972,249.323608 432.432706,243.011618 435.682194,238.475801 C438.938606,233.938997 445.272439,232.938725 449.788694,236.147106 C451.35905,237.249184 465.771117,246.930666 472.842661,237.010977 C474.962839,234.032896 475.581883,231.238659 474.842194,227.949228 C472.36305,216.876065 455.48865,203.786543 445.429672,198.136788 L444.871939,197.800728 C435.328172,191.625139 411.920183,181.150952 404.96335,190.313518 C402.256761,193.868831 401.172939,197.009012 401.644639,199.90802 C402.357628,204.301505 406.573261,208.041651 408.14065,209.110123 C412.716239,212.240419 413.962239,218.498046 410.877894,223.101075 C407.799483,227.707068 401.551683,229.003863 396.98895,225.962523 C395.676694,225.105571 384.113617,217.184449 381.739294,203.432692 C380.712828,197.50124 381.114317,188.29123 388.857317,178.09281 C405.12355,156.681859 438.303739,169.556896 455.602372,180.671573 C460.219494,183.291849 489.41545,200.644386 494.561628,223.496439 C496.560172,232.371377 494.745561,241.094101 489.309639,248.725619 C484.420572,255.59705 477.693161,259.914427 469.867094,261.223083 C458.632328,263.096121 447.878161,258.371518 442.149528,255.157207"/>
      <path fill="#01660B" d="M346.935152,235.791476 C346.75913,235.692635 346.585086,235.567107 346.431808,235.418845 C311.829597,202.500819 341.382541,157.767332 341.683163,157.319582 C342.536574,155.922958 364.219941,120.905547 384.55743,112.842093 C405.188619,104.669915 439.498119,115.647203 459.998774,122.207284 C477.328063,127.75029 514.642797,102.171213 528.691941,92.5460702 L531.458852,90.6532639 C542.916119,82.8912755 582.140397,70.254446 624.072252,83.2797209 C625.380552,83.6800272 626.149908,85.1043268 625.73853,86.4396695 C625.324186,87.772047 623.90513,88.5153318 622.574086,88.1021762 C582.380697,75.6205272 545.121341,87.5002341 534.293997,94.8352291 L531.548841,96.7092556 C506.68323,113.75242 475.911974,132.602398 458.485774,127.026774 C438.59823,120.664375 405.369586,110.032042 386.425441,117.539021 C367.646441,124.983729 346.146019,159.704617 345.932419,160.054514 C344.736852,161.830688 318.429441,201.805966 349.913686,231.760737 C350.92433,232.721473 350.965863,234.319732 350.002686,235.3289 C349.187841,236.183875 347.921074,236.344986 346.935152,235.791476"/>
      <path fill="#BBE27A" d="M359.634266,27.0119767 C359.634266,27.0119767 356.507399,0.869504801 384.936966,0.016506457 C413.366532,-0.835503477 412.22931,29.8536571 407.11181,34.1156836 C407.11181,34.1156836 419.299866,31.7939071 424.02181,41.5198674 C428.661677,51.0738442 422.747132,59.4061455 422.747132,59.4061455 C422.747132,59.4061455 431.685699,59.1511356 435.899354,65.9770992 C440.048732,72.700268 436.845721,85.5782697 423.538243,86.7228492 C410.229777,87.8664402 346.140877,53.0951439 338.306899,47.5264386 C331.867254,42.9500975 330.579721,27.7888674 342.599666,23.0692068 C351.716232,19.4891836 359.634266,27.0119767 359.634266,27.0119767"/>
      <path fill="#D0EAA0" d="M217.822358,52.102582 C217.822358,52.102582 214.43838,45.9012939 205.788569,47.2168684 C197.557058,48.4681962 195.55258,55.7606896 195.634658,60.1848154 C195.823536,70.332827 213.685836,75.970721 225.719624,81.6096035 C237.460702,87.1101084 251.876724,97.595168 260.706513,93.5328005 C275.462713,86.7434081 270.047558,69.8603667 263.327069,66.7616995 C256.061702,63.4129644 249.788191,65.070529 249.788191,65.070529 C249.788191,65.070529 258.234291,46.6732425 239.345524,41.0264528 C221.366536,35.6524644 217.822358,52.102582 217.822358,52.102582"/>
      <path fill="#BBE27A" d="M542.751568,524.825369 C542.751568,524.825369 551.737601,524.475471 555.638768,534.591854 C559.353034,544.219961 552.496079,551.047902 547.534823,553.79766 C536.147768,560.107673 518.810568,544.574801 505.088746,535.291649 C491.69919,526.233854 471.118434,517.508165 470.155257,505.433741 C468.545346,485.258304 490.651957,480.232236 498.259479,485.449067 C506.48209,491.08795 508.532057,498.877614 508.532057,498.877614 C508.532057,498.877614 523.724357,478.018197 541.706312,494.646228 C558.822001,510.472658 542.751568,524.825369 542.751568,524.825369"/>
      <path fill="#4DAA31" d="M258.02791,541.761488 C248.707632,583.681958 289.932432,605.180877 321.12001,592.640912 C352.307588,580.09897 379.24591,537.995643 378.834532,485.86588 C378.402388,431.050605 344.663477,395.959064 314.846499,380.151413 C285.488366,364.585923 251.02361,357.951711 214.261666,371.220135 C171.745377,386.56521 156.840843,420.312513 154.144143,427.338135 C153.869232,428.05671 154.220288,428.860287 154.932288,429.154834 L160.427543,431.430155 C160.427543,431.430155 142.083654,452.100786 136.957254,471.479564 C130.37521,496.366754 132.154221,514.979514 149.837532,526.404552 C173.305843,541.565782 193.608721,525.331138 213.838421,523.628107 C240.944854,521.347844 258.02791,541.761488 258.02791,541.761488"/>
      <path fill="#013505" d="M160.429224,431.43401 C160.429224,431.43401 160.411424,431.447848 160.408458,431.449824 C160.031691,431.876818 142.029958,452.3043 136.957947,471.479465 C130.374913,496.366655 132.153924,514.980404 149.837236,526.404453 C173.305547,541.565684 193.609413,525.33104 213.839113,523.628008 C240.944558,521.347745 258.027613,541.7604 258.027613,541.7604 L291.078258,484.473111 L160.429224,431.43401 Z"/>
      <path fill="#02790D" d="M160.427247 431.429265C160.427247 431.429265 142.029958 452.304497 136.957947 471.479663 130.374913 496.366853 132.153924 514.980601 149.837236 526.404651 155.578724 530.113168 161.128369 531.934808 166.535613 532.557507 147.14548 522.783115 148.282702 503.788828 154.455347 483.611414 160.066302 465.272444 175.292224 448.746219 183.521758 440.809282L160.427247 431.429265zM323.526273 491.937489L296.602784 477.13604C296.602784 477.13604 281.666607 493.686975 268.334407 514.810298 264.560807 520.789194 260.538996 530.634752 257.821529 541.523083 257.957007 541.676287 258.028207 541.760302 258.028207 541.760302 252.119596 568.337674 266.526718 586.701355 285.81104 593.391906 281.109862 590.245795 276.663818 586.024293 275.064784 580.739262 270.68994 566.274861 274.391351 543.065992 288.862751 525.57409 307.184884 503.429739 323.526273 491.937489 323.526273 491.937489"/>
      <path fill="#6CB83D" d="M302.690088,489.215505 C302.690088,489.215505 299.009443,494.43629 298.224266,502.325783 C297.566654,508.943192 300.785488,519.465811 312.22001,522.873851 C334.139721,529.405268 340.133377,508.389682 341.588032,500.540713 C341.908432,498.810006 341.484199,497.025925 340.405321,495.635232 L228.202032,350.968492 C224.906066,346.718326 219.281266,345.004422 214.182554,346.721291 C203.224677,350.412016 183.847399,358.339069 167.413054,372.39328 C152.578732,385.078541 142.810488,399.953132 137.438843,409.652405 C134.455366,415.038255 136.87221,421.817763 142.579088,424.137563 L302.690088,489.215505 Z"/>
      <path fill="#BBE27A" d="M154.144341,427.33853 C156.841041,420.312908 171.745574,386.565605 214.261863,371.22053 C222.697086,368.176226 231.009686,366.190509 239.169008,365.109188 L228.20223,350.967997 C224.906263,346.71882 219.281463,345.002939 214.183741,346.720797 C203.224874,350.412511 183.847597,358.338575 167.413252,372.391797 C152.57893,385.078047 142.810686,399.953626 137.438052,409.651911 C134.455563,415.038749 136.872408,421.818257 142.579286,424.138057 L155.410119,429.352911 L154.932486,429.155229 C154.220486,428.860683 153.86943,428.057105 154.144341,427.33853"/>
      <path fill="#01660B" d="M355.455617,415.044185 C343.601806,399.163392 328.795172,387.547591 314.846894,380.151314 C311.067361,378.147806 307.202783,376.295525 303.261072,374.612261 C283.343861,370.32849 252.046517,367.595535 224.704728,382.67275 C183.21985,405.549513 174.418739,437.078823 174.418739,437.078823 L241.837228,464.482506 C241.837228,464.482506 256.387739,433.414785 297.334661,416.424006 C318.291194,407.726982 340.298917,410.767333 355.455617,415.044185"/>
      <path fill="#03AA14" d="M224.705024,382.67275 C183.220147,405.549513 174.418047,437.078823 174.418047,437.078823 L241.837524,464.482506 C241.837524,464.482506 253.187991,440.282261 284.005724,422.917864 L246.305324,374.308819 C239.017213,376.106738 231.730091,378.79818 224.705024,382.67275"/>
      <path fill="#005209" d="M377.912294 471.380723C373.773794 470.800526 365.030039 470.303355 358.503372 474.955804 351.352717 480.055014 350.552706 491.236903 357.78445 495.555269 362.983039 498.659867 371.982917 496.880728 378.466072 497.294872 378.727139 493.542865 378.864594 489.735508 378.834928 485.86588 378.795372 480.873418 378.475961 476.046021 377.912294 471.380723M362.528546 552.813599C359.892168 553.415541 355.828823 553.680435 351.646812 551.368542 346.521401 548.534769 346.375046 537.671148 337.339568 535.864334 329.036857 534.204792 322.947279 544.258905 324.303046 552.68807 325.53619 560.361102 332.767934 572.968279 346.094201 575.284125 352.226301 568.967193 357.78979 561.393991 362.528546 552.813599M358.767999 510.933554C347.249421 519.223354 349.943154 541.695857 367.051921 543.756693 371.804521 533.154013 375.334854 521.318784 377.237477 508.596952 372.309843 506.989796 365.312466 506.223778 358.767999 510.933554"/>
      <path fill="#03AA14" d="M44.25792,139.580775 L0.566831111,236.079301 C-0.785968889,239.066278 0.355208889,242.593915 3.20222,244.224793 L92.6966644,295.495627 C93.8833311,296.176642 95.2559089,296.456362 96.6136533,296.295251 L156.426598,289.19451 C158.494364,288.949384 160.309964,287.709917 161.291931,285.874438 L213.120587,188.924208 C214.762142,185.853217 213.629864,182.033998 210.579142,180.351723 L120.835498,130.869912 C117.671053,129.126356 114.04282,128.411735 110.454142,128.825879 L49.3289422,135.882142 C47.10592,136.139129 45.1815422,137.542672 44.25792,139.580775"/>
      <path fill="#6CB83D" d="M150.167524,194.316878 L213.765936,184.782669 C213.43268,182.966959 212.32018,181.311371 210.579736,180.351624 L120.835102,130.870801 C117.671647,129.126257 114.043413,128.411636 110.454736,128.82578 L49.3285467,135.882043 C47.6326022,136.077749 46.1146578,136.943596 45.0783022,138.246321 L150.167524,194.316878 Z"/>
      <path fill="#02790D" d="M47.6272622 136.328805C47.70934 136.295199 47.7933956 136.264558 47.8774511 136.233917 47.7933956 136.264558 47.70934 136.295199 47.6272622 136.328805M48.3622044 136.078836C48.4383489 136.057091 48.5144933 136.034357 48.5916267 136.016566 48.5144933 136.034357 48.4393378 136.058079 48.3622044 136.078836M46.1226678 137.215903C46.2116678 137.145726 46.29869 137.074561 46.3906567 137.009325 46.29869 137.074561 46.2116678 137.145726 46.1226678 137.215903M46.9580811 136.648358C47.0203811 136.613764 47.0876256 136.586088 47.1509144 136.551494 47.0876256 136.586088 47.0203811 136.613764 46.9580811 136.648358M45.5645389 137.708132C45.65255 137.621152 45.7425389 137.537137 45.8345056 137.455099 45.7425389 137.537137 45.65255 137.621152 45.5645389 137.708132M44.25792 139.580775L.566831111 236.079301C-.785968889 239.067266.355208889 242.593915 3.20222 244.224793L92.6966644 295.496616C92.8380756 295.577665 92.9903644 295.634005 93.1377089 295.704182L149.825764 194.134121 45.0786978 138.24642C44.75632 138.652657 44.4774533 139.097442 44.25792 139.580775"/>
      <path fill="#02790D" d="M45.0787967,138.246816 C45.15593,138.148963 45.2419633,138.060006 45.3240411,137.967095 C45.2419633,138.060006 45.15593,138.148963 45.0787967,138.246816"/>
      <polygon fill="#02790D" points="58.686 134.802 49.329 135.882 58.687 134.802"/>
      <path fill="#6CB83D" d="M45.8349011 137.455296C45.9278567 137.37227 46.0237789 137.293197 46.1226678 137.216101 46.0237789 137.293197 45.9278567 137.37227 45.8349011 137.455296M45.3240411 137.966898C45.4031522 137.878929 45.4812744 137.790961 45.5643411 137.707934 45.4812744 137.790961 45.4031522 137.878929 45.3240411 137.966898M48.5920222 136.016072C48.8343 135.958744 49.0785556 135.9113 49.3287444 135.881648 49.0785556 135.9113 48.8333111 135.958744 48.5920222 136.016072M46.3901622 137.009325C46.5740956 136.879844 46.7619844 136.758269 46.9577844 136.648556 46.7619844 136.758269 46.5740956 136.879844 46.3901622 137.009325M47.1512111 136.55179C47.3074556 136.471729 47.4646889 136.39661 47.6268667 136.328409 47.4646889 136.39661 47.3074556 136.471729 47.1512111 136.55179M47.8773522 136.234214C48.0365633 136.174909 48.1977522 136.1245 48.3619078 136.079033 48.1977522 136.1245 48.0365633 136.174909 47.8773522 136.234214"/>
      <path fill="#BBE27A" d="M144.808834,144.052739 L82.5879456,158.19393 L66.8033011,188.998734 C66.5808011,189.434624 66.9694344,189.931794 67.4470678,189.821092 L75.0575567,188.045907 C75.6321011,187.911483 76.1957678,188.30487 76.2669678,188.890009 L77.0828011,195.55585 C77.1273011,195.919585 77.4941789,196.148897 77.8393011,196.030287 L84.6339567,193.707523 C85.2055344,193.512806 85.8156789,193.866657 85.9294011,194.458715 L87.1783678,200.963445 C87.2446233,201.310377 87.6045789,201.515966 87.9368456,201.397357 L94.1085011,199.18134 C94.6296456,198.995519 95.2022122,199.269309 95.38219,199.793167 L97.7654122,206.716983 C97.9266011,207.185489 98.5654233,207.244794 98.8096789,206.812859 L116.161712,176.17213 L174.704923,160.536463 L144.808834,144.052739 Z"/>
      <path fill="#87BE40" d="M82.5619378 158.245723L66.8030044 188.998141C66.5805044 189.435019 66.9691378 189.932189 67.4467711 189.820499L75.05726 188.045314C75.6318044 187.911878 76.19646 188.305266 76.26766 188.890405L77.0825044 195.556246C77.1270044 195.918992 77.4938822 196.149292 77.8399933 196.030683L84.6346489 193.707918C85.2052378 193.513201 85.8153822 193.867052 85.9291044 194.45911L87.1780711 200.96384C87.2443267 201.309784 87.6052711 201.515373 87.9375378 201.396764L94.1091933 199.181736C94.6293489 198.995915 95.2019156 199.269704 95.3818933 199.792574L97.7651156 206.717378C97.9263044 207.185885 98.5661156 207.244201 98.8103711 206.813254L116.162404 176.172525 82.5619378 158.245723zM77.5121767 242.035661L70.7560878 243.163437C70.3249322 243.235591 69.9214656 242.930173 69.8739989 242.49626L69.1995767 236.318694C69.1461767 235.83635 68.6616211 235.525989 68.2007989 235.679192L61.6592989 237.870499C61.2301211 238.014807 60.7702878 237.753866 60.6743656 237.312047L59.1742211 230.452477C59.0693989 229.974086 58.5442989 229.7171 58.1022656 229.92862L51.2611322 233.198282C50.8477767 233.395964 50.35531 233.186421 50.2119211 232.75152L48.3300656 227.077055C48.1164656 226.435576 47.2353656 226.369353 46.92881 226.973272L30.2966878 259.74699 59.9682989 276.812888 78.3062544 243.148611C78.6088544 242.592136 78.1381433 241.930889 77.5121767 242.035661"/>
      <path fill="#01660B" d="M147.048272,194.151813 C133.007039,219.508499 118.966794,244.866172 104.924572,270.223846 C100.935394,277.427383 96.9472056,284.630919 92.9580278,291.834455 C91.4153611,294.619797 95.6853833,297.115533 97.2270611,294.329204 C111.268294,268.97153 125.309528,243.614845 139.350761,218.257171 C143.339939,211.053634 147.328128,203.850098 151.317306,196.645573 C152.859972,193.86122 148.590939,191.365484 147.048272,194.151813"/>
      <path fill="#02790D" d="M711.870851,380.695929 C699.889473,376.409192 678.530462,387.446773 661.07064,407.804078 C641.473829,430.651189 634.220329,456.569291 644.867696,465.692321 C655.515062,474.816339 680.032584,463.69079 699.628407,440.843679 C704.501651,435.161306 708.609496,429.290147 711.870851,423.534632 L711.870851,380.695929 Z"/>
      <path fill="#03AA14" d="M689.027913,431.759296 C680.207024,442.043708 669.171024,447.051984 664.37788,442.945138 C659.585724,438.838292 662.850047,427.171094 671.670936,416.88767 C680.491824,406.603258 691.527824,401.593993 696.320969,405.701827 C701.114113,409.808673 697.848802,421.474883 689.027913,431.759296"/>
      <path fill="#BBE27A" d="M711.870851,215.470248 C698.99354,225.669657 689.908618,236.776427 689.908618,236.776427 L675.111873,257.032914 L711.870851,280.477025 L711.870851,215.470248 Z"/>
      <path fill="#02790D" d="M711.870851,243.597449 C707.051007,239.315654 700.876384,235.821622 695.153684,233.101516 C680.156196,225.973099 672.826551,242.463742 672.826551,242.463742 L669.313029,240.490874 C667.331296,239.378912 664.822484,240.083649 663.709984,242.064424 C662.729007,243.810945 663.148296,246.008182 664.703818,247.271371 L668.425996,250.294919 C667.653673,258.553089 682.791584,270.588965 682.791584,270.588965 C682.791584,270.588965 699.891451,284.312058 711.870851,276.058829 L711.870851,243.597449 Z"/>
      <path fill="#BBE27A" d="M711.870851,159.681982 C645.376973,104.737225 594.183184,92.2951127 575.651407,90.263929 C558.36464,88.3691459 508.375318,121.304964 492.930851,131.81671 C490.696951,133.336886 490.722662,136.613467 492.957551,138.131666 L633.40944,233.570616 C637.773407,236.535848 643.674107,235.985303 647.336951,232.188818 C669.904384,208.803023 694.609796,194.941553 711.870851,187.297186 L711.870851,159.681982 Z"/>
      <path fill="#D9EDAE" d="M526.513122 142.562414L665.405533 138.654238C666.620878 138.619644 667.795678 138.934947 668.823133 139.583344 671.480278 141.263642 677.004211 144.79128 681.242589 147.750581 682.716033 148.778528 682.044578 151.081525 680.250733 151.16554L546.169267 157.438982C543.897789 157.54573 541.654989 156.900298 539.786978 155.602515L525.569722 145.73027C524.189233 144.771512 524.834978 142.609858 526.513122 142.562414M648.070212 130.259371L516.480746 132.347882C513.97589 132.387419 512.978101 129.114791 515.101246 127.786367 536.224901 114.566376 564.756323 98.5363326 576.928557 99.8449882 588.926746 101.197134 614.558746 106.850843 649.179746 125.573316 651.428479 126.788073 650.625501 130.218846 648.070212 130.259371"/>
    </g>
  </g>
</svg>
