<svg width="123" height="30" viewBox="0 0 123 30" fill="none" xmlns="http://www.w3.org/2000/svg">
<g clip-path="url(#clip0_65_1058)">
<path fill-rule="evenodd" clip-rule="evenodd" d="M14.0021 0.0171104C6.51666 0.353159 0.421461 6.27443 0.0217761 13.6037C-0.304054 19.6186 3.14106 24.8805 8.25442 27.3264C10.1616 28.2367 12.4294 27.0925 12.7943 25.0464C13.0419 23.6682 12.3251 22.3027 11.0435 21.6901C8.13712 20.2949 6.18648 17.279 6.41673 13.8462C6.68609 9.83059 10.0052 6.56794 14.1063 6.29144C18.9547 5.9639 22.995 9.71999 22.995 14.3949C22.995 17.6065 21.0921 20.38 18.3291 21.6987C17.0692 22.3027 16.3784 23.6596 16.6217 25.0124L16.6348 25.0804C16.9953 27.0925 19.224 28.2367 21.0965 27.3477C26.0056 25.0209 29.3943 20.095 29.3943 14.3949C29.3943 6.21913 22.4345 -0.36573 14.0021 0.0171104Z" fill="#00AA13"/>
<path fill-rule="evenodd" clip-rule="evenodd" d="M14.7102 19.4567C11.8559 19.4567 9.53601 17.1852 9.53601 14.3905C9.53601 11.5957 11.8559 9.32422 14.7102 9.32422C17.5645 9.32422 19.8844 11.5957 19.8844 14.3905C19.8844 17.1852 17.5645 19.4567 14.7102 19.4567Z" fill="#00AA13"/>
<path fill-rule="evenodd" clip-rule="evenodd" d="M65.2877 5.56372C60.6783 5.56372 56.9421 9.22198 56.9421 13.7352C56.9421 18.2485 60.6783 21.9068 65.2877 21.9068C69.8971 21.9068 73.6333 18.2485 73.6333 13.7352C73.6333 9.22198 69.8971 5.56372 65.2877 5.56372ZM65.2877 18.2357C62.7506 18.2357 60.6914 16.2195 60.6914 13.7352C60.6914 11.251 62.7506 9.23474 65.2877 9.23474C67.8249 9.23474 69.8841 11.251 69.8841 13.7352C69.8841 16.2195 67.8249 18.2357 65.2877 18.2357Z" fill="#454545"/>
<path fill-rule="evenodd" clip-rule="evenodd" d="M54.4137 5.78506H51.0728C50.9034 5.78506 50.7687 5.91693 50.7687 6.08283V6.47843V7.12075C50.1735 6.4444 49.2308 6.07007 48.8572 5.94245C48.0144 5.66596 47.1151 5.51708 46.181 5.52133C41.6324 5.53409 37.8962 9.14981 37.8354 13.6035C37.7703 18.1848 41.5412 21.9197 46.2071 21.9197C47.1368 21.9197 48.0361 21.7708 48.8702 21.4943C49.2525 21.3624 50.1822 20.9881 50.7731 20.3202V20.9583V21.1115C50.7731 22.4982 50.2821 23.6297 49.3481 24.3869C48.54 25.0462 47.4061 25.4078 46.155 25.4078C44.339 25.4078 42.5969 24.6804 41.576 23.5191C41.463 23.3915 41.2632 23.383 41.1372 23.5021L38.9215 25.6162C38.7999 25.7311 38.7999 25.9182 38.9172 26.0373C40.8027 27.926 43.2529 28.8916 46.2071 28.9086H47.1498C51.3204 28.9086 54.7004 25.5992 54.7004 21.5156V20.0735C54.7004 20.0735 54.7004 20.0523 54.7004 20.0395L54.7178 6.08283C54.7178 5.91693 54.5831 5.78506 54.4137 5.78506ZM50.7687 13.7652C50.7426 16.2111 48.7095 18.1891 46.2071 18.1891C43.7047 18.1891 41.6411 16.1898 41.6411 13.7184C41.6411 11.2469 43.683 9.24764 46.2071 9.24764C48.7312 9.24764 50.7426 11.2214 50.7687 13.6716V13.7652Z" fill="#454545"/>
<path d="M93.1396 17.2575C93.1396 14.3947 95.0512 12.8718 100.095 12.1997C103.049 11.7913 103.857 11.383 103.857 10.6216C103.857 9.60065 102.754 8.98385 101.051 8.98385C99.1219 8.98385 97.6535 9.95797 97.1799 11.5063C97.1365 11.6467 96.9888 11.7318 96.8411 11.702L93.2222 10.9661C93.0571 10.9321 92.9572 10.7747 92.9963 10.613C93.7609 7.55883 96.9366 5.5 100.929 5.5C105.556 5.5 108.423 7.80981 108.423 11.5787V21.3368C108.423 21.4942 108.293 21.6218 108.132 21.6218H104.748C104.587 21.6218 104.457 21.4942 104.457 21.3368V19.7332H104.396C103.44 21.0476 101.411 21.8686 99.0524 21.8686C95.529 21.8686 93.144 19.9969 93.144 17.249L93.1396 17.2575ZM104.353 15.6623V13.7481H104.292C103.888 14.3266 103.019 14.6584 100.781 15.054C98.0792 15.5389 97.1147 16.0579 97.1147 17.0022C97.1147 17.9466 97.9228 18.4017 99.6606 18.4017C102.332 18.4017 104.348 17.2149 104.348 15.6665L104.353 15.6623Z" fill="#454545"/>
<path d="M114.566 21.6091H111.178C111.008 21.6091 110.874 21.4773 110.874 21.3114V6.10833C110.874 5.94243 111.008 5.81056 111.178 5.81056H114.288C114.458 5.81056 114.592 5.94243 114.592 6.10833V7.91619L115.105 7.31215L115.144 7.26961C116.308 6.10407 117.859 5.50854 119.753 5.50854C120.457 5.50854 121.152 5.60213 121.939 5.80631C122.03 5.82758 122.082 5.91691 122.065 6.00198L121.313 9.1668C121.296 9.23911 121.226 9.29441 121.148 9.29441C121.135 9.29441 121.122 9.29441 121.109 9.29016C120.409 9.12426 119.866 9.06471 119.111 9.06471C116.378 9.06471 114.87 10.9023 114.87 14.2416V21.3156C114.87 21.4815 114.736 21.6134 114.566 21.6134V21.6091Z" fill="#454545"/>
<path d="M87.8872 16.2279C86.9966 17.5339 85.4326 18.3633 83.6731 18.2272C81.4966 18.0571 79.7024 16.3641 79.4634 14.2372C79.155 11.5105 81.3272 9.20069 84.0511 9.20069C85.6672 9.20069 87.0878 10.0174 87.9089 11.2468C87.9958 11.3744 88.1739 11.4127 88.3086 11.3361L91.0543 9.78345C91.202 9.69838 91.2541 9.51547 91.1629 9.37084C89.5859 6.90364 86.7142 5.31698 83.482 5.52541C79.2028 5.80191 75.7794 9.29001 75.6621 13.4885C75.5317 18.1336 79.3374 21.9365 84.0468 21.9365C87.0314 21.9365 89.651 20.4094 91.1412 18.1081C91.2324 17.9677 91.1803 17.7806 91.0325 17.6955L88.2869 16.1429C88.1522 16.0663 87.9741 16.1003 87.8829 16.2279H87.8872Z" fill="#454545"/>
</g>
<defs>
<clipPath id="clip0_65_1058">
<rect width="122.069" height="29.5" fill="white"/>
</clipPath>
</defs>
</svg>
